M48
;GenerationSoftware,Autodesk,EAGLE,9.7.0*%
;CreationDate,2023-04-25T20:31:30Z*%
FMAT,2
ICI,OFF
METRIC,TZ,000.000
T6C0.350
T5C0.991
T4C1.016
T3C1.200
T2C1.295
T1C2.007
%
G90
M71
T1
X110000Y72000
X106000Y72000
X158000Y54905
X158000Y51095
X145000Y72000
X269000Y1000
X269000Y6000
X20000Y1000
X20000Y6000
X156000Y72000
T2
X255890Y70550
X262793Y69332
X33110Y70550
X26207Y69332
X242755Y70511
X39234Y70511
X46245Y70511
X249766Y70511
T3
X25000Y59000
X129000Y72000
X192000Y72000
X250000Y45000
X264000Y45000
X264000Y59000
X240000Y56000
X49000Y56000
X109000Y62000
X24000Y5000
X42000Y5000
X33000Y20000
X20000Y30000
X46000Y25000
X265000Y5000
X247000Y5000
X256000Y20000
X243000Y25000
X269000Y30000
X49000Y72000
X240000Y72000
X79000Y45000
X109000Y45000
X210000Y44000
X180000Y44000
X180000Y62000
X210000Y62000
X25000Y45000
X39000Y45000
T4
X135000Y61620
X142620Y46380
X140080Y46380
X137540Y46380
X135000Y46380
X132460Y46380
X122300Y46380
X129920Y46380
X124840Y46380
X122300Y61620
X124840Y61620
X127380Y61620
X129920Y61620
X132460Y61620
X127380Y46380
X137540Y61620
X140080Y61620
X142620Y61620
X145160Y61620
X147700Y61620
X150240Y61620
X150240Y46380
X147700Y46380
X145160Y46380
T5
X262000Y72000
X257572Y72781
X40504Y73000
X244000Y73000
X248496Y73000
X45000Y73000
X27000Y72000
X31427Y72781
T6
X260299Y42215
X233324Y42215
X43586Y34595
X268072Y36576
X253289Y36576
X192634Y56083
X220828Y53797
X176174Y56693
X178918Y56693
X184099Y57302
X48920Y42062
X185014Y57455
X261518Y46787
X204521Y56083
X186233Y54864
X125273Y70866
X34747Y58979
X256337Y65380
X249936Y56998
X127711Y44196
X178918Y54712
X137617Y69190
X241402Y65989
X268986Y37490
X46330Y39472
X246278Y70866
X117196Y42062
M30