G04 EAGLE Gerber RS-274X export*
G75*
%MOMM*%
%FSLAX34Y34*%
%LPD*%
%INBottom Copper*%
%IPPOS*%
%AMOC8*
5,1,8,0,0,1.08239X$1,22.5*%
G01*
G04 Define Apertures*
%ADD10C,1.879600*%
%ADD11C,3.009900*%
%ADD12C,1.498600*%
%ADD13C,1.943100*%
%ADD14C,0.203200*%
%ADD15R,0.203200X0.203200*%
%ADD16R,1.600000X0.600000*%
%ADD17R,1.031200X1.420200*%
%ADD18R,1.164600X1.465300*%
%ADD19P,3.4091X8X22.5*%
%ADD20C,0.152400*%
%ADD21C,0.756400*%
D10*
X1223000Y616200D03*
X1248400Y616200D03*
X1273800Y616200D03*
X1299200Y616200D03*
X1324600Y616200D03*
X1350000Y616200D03*
X1375400Y616200D03*
X1400800Y616200D03*
X1426200Y616200D03*
X1451600Y616200D03*
X1477000Y616200D03*
X1502400Y616200D03*
X1502400Y463800D03*
X1477000Y463800D03*
X1451600Y463800D03*
X1426200Y463800D03*
X1400800Y463800D03*
X1375400Y463800D03*
X1350000Y463800D03*
X1324600Y463800D03*
X1299200Y463800D03*
X1273800Y463800D03*
X1248400Y463800D03*
X1223000Y463800D03*
D11*
X1564951Y510950D02*
X1595050Y510950D01*
X1595050Y549050D02*
X1564951Y549050D01*
D12*
X270000Y720000D03*
X314275Y727807D03*
D13*
X262066Y693325D03*
X331105Y705498D03*
D14*
X345400Y600000D02*
X300950Y600000D01*
X294600Y606350D02*
X339050Y606350D01*
X345400Y612700D02*
X307300Y612700D01*
X294600Y593650D02*
X339050Y593650D01*
X345400Y587300D02*
X307300Y587300D01*
X294600Y580950D02*
X332700Y580950D01*
X332700Y619050D02*
X294600Y619050D01*
X294600Y625400D02*
X294600Y580950D01*
X345400Y587300D02*
X345400Y625400D01*
D15*
X345400Y625400D03*
X294600Y625400D03*
D12*
X2620000Y720000D03*
X2575725Y727807D03*
D13*
X2627934Y693325D03*
X2558896Y705498D03*
D14*
X2550950Y600000D02*
X2595400Y600000D01*
X2589050Y606350D02*
X2544600Y606350D01*
X2557300Y612700D02*
X2595400Y612700D01*
X2589050Y593650D02*
X2544600Y593650D01*
X2557300Y587300D02*
X2595400Y587300D01*
X2582700Y580950D02*
X2544600Y580950D01*
X2544600Y619050D02*
X2582700Y619050D01*
X2544600Y625400D02*
X2544600Y580950D01*
X2595400Y587300D02*
X2595400Y625400D01*
D15*
X2595400Y625400D03*
X2544600Y625400D03*
D16*
X1880410Y574450D03*
X1880410Y561750D03*
X1880410Y549050D03*
X1880410Y536350D03*
X1880410Y523650D03*
X1880410Y510950D03*
X1880410Y498250D03*
X1880410Y485550D03*
X1826410Y485550D03*
X1826410Y498250D03*
X1826410Y510950D03*
X1826410Y523650D03*
X1826410Y536350D03*
X1826410Y549050D03*
X1826410Y561750D03*
X1826410Y574450D03*
D17*
X1789195Y480000D03*
X1770805Y480000D03*
D18*
X1748754Y480000D03*
X1731246Y480000D03*
D19*
X1060000Y720000D03*
X1100000Y720000D03*
X1450000Y720000D03*
D18*
X1938754Y530000D03*
X1921246Y530000D03*
D17*
X1939195Y580000D03*
X1920805Y580000D03*
D19*
X1560000Y720000D03*
X200000Y60000D03*
X200000Y10000D03*
X2690000Y60000D03*
X2690000Y10000D03*
D18*
X1788754Y530000D03*
X1771246Y530000D03*
X1988754Y530000D03*
X1971246Y530000D03*
X1988754Y580000D03*
X1971246Y580000D03*
X1748754Y530000D03*
X1731246Y530000D03*
X1748754Y580000D03*
X1731246Y580000D03*
X1788754Y580000D03*
X1771246Y580000D03*
D12*
X450000Y730000D03*
X405042Y730000D03*
D13*
X462446Y705108D03*
X392342Y705108D03*
D12*
X2440000Y730000D03*
X2484958Y730000D03*
D13*
X2427554Y705108D03*
X2497658Y705108D03*
D20*
X1298448Y463296D02*
X1277112Y441960D01*
X1298448Y463296D02*
X1299200Y463800D01*
X2333244Y422148D02*
X2602992Y422148D01*
D21*
X1277112Y441960D03*
X2602992Y422148D03*
X2333244Y422148D03*
D20*
X435864Y353568D02*
X435864Y345948D01*
X435864Y353568D02*
X484632Y402336D01*
X1187196Y402336D01*
X1248156Y463296D01*
X1248400Y463800D01*
X2532888Y365760D02*
X2680716Y365760D01*
D21*
X435864Y345948D03*
X2680716Y365760D03*
X2532888Y365760D03*
D20*
X2615184Y467868D02*
X2502408Y580644D01*
X2055876Y580644D01*
X1932432Y457200D01*
X1513332Y457200D01*
X1507236Y451104D01*
X1472184Y451104D01*
X1464564Y458724D01*
X1464564Y467868D01*
X1453896Y478536D01*
X1339596Y478536D01*
X1325880Y464820D01*
X1324600Y463800D01*
D21*
X2615184Y467868D03*
D20*
X2689860Y374904D02*
X2505456Y559308D01*
X2505456Y573024D01*
X2500884Y577596D01*
X2071116Y577596D01*
X1912620Y419100D01*
X1478280Y419100D01*
X1438656Y458724D01*
X1438656Y467868D01*
X1431036Y475488D01*
X1360932Y475488D01*
X1350264Y464820D01*
X1350000Y463800D01*
D21*
X2689860Y374904D03*
D20*
X467868Y394716D02*
X463296Y394716D01*
X467868Y394716D02*
X487680Y414528D01*
X1156716Y414528D01*
X1223772Y481584D01*
X1484376Y481584D01*
X1501140Y464820D01*
X1502400Y463800D01*
D21*
X463296Y394716D03*
D20*
X2496312Y726948D02*
X2575560Y726948D01*
X2496312Y726948D02*
X2488692Y719328D01*
X2424684Y719328D01*
X2404872Y739140D01*
X1575816Y739140D01*
X1569720Y745236D01*
X1440180Y745236D01*
X1376172Y681228D01*
X1376172Y617220D01*
X2575560Y726948D02*
X2575725Y727807D01*
X1376172Y617220D02*
X1375400Y616200D01*
X2549652Y626364D02*
X2595372Y626364D01*
X2549652Y626364D02*
X2525268Y650748D01*
X1655064Y650748D01*
X1566672Y739140D01*
X1443228Y739140D01*
X1431036Y726948D01*
X1431036Y627888D01*
X1438656Y620268D01*
X1438656Y611124D01*
X1431036Y603504D01*
X1414272Y603504D01*
X1402080Y615696D01*
X2595372Y626364D02*
X2595400Y625400D01*
X1402080Y615696D02*
X1400800Y616200D01*
X339852Y626364D02*
X294132Y626364D01*
X339852Y626364D02*
X405384Y691896D01*
X580644Y691896D01*
X630936Y742188D01*
X1240536Y742188D01*
X1362456Y620268D01*
X1362456Y611124D01*
X1373124Y600456D01*
X1461516Y600456D01*
X1476756Y615696D01*
X294600Y625400D02*
X294132Y626364D01*
X1476756Y615696D02*
X1477000Y616200D01*
X2414016Y659892D02*
X2462784Y708660D01*
D21*
X2462784Y708660D03*
X2414016Y659892D03*
D20*
X307848Y719328D02*
X271272Y719328D01*
X307848Y719328D02*
X310896Y716280D01*
X323088Y716280D01*
X326136Y719328D01*
X396240Y719328D01*
X399288Y716280D01*
X455676Y716280D01*
X477012Y737616D01*
X621792Y737616D01*
X629412Y745236D01*
X1322832Y745236D01*
X1376172Y691896D01*
X271272Y719328D02*
X270000Y720000D01*
D21*
X1376172Y691896D03*
D20*
X2435352Y569976D02*
X2499360Y569976D01*
X2435352Y569976D02*
X2407920Y542544D01*
X2212848Y542544D01*
X2211324Y544068D01*
X2042160Y544068D01*
X1914144Y416052D01*
X1473708Y416052D01*
X1426464Y463296D01*
X1426200Y463800D01*
D21*
X2499360Y569976D03*
D20*
X2045208Y560832D02*
X2040636Y560832D01*
X1901952Y422148D01*
X1493520Y422148D01*
X1452372Y463296D01*
X1451600Y463800D01*
D21*
X2045208Y560832D03*
D20*
X1656588Y653796D02*
X2563368Y653796D01*
X1656588Y653796D02*
X1568196Y742188D01*
X1441704Y742188D01*
X1426464Y726948D01*
X1426464Y617220D01*
X1426200Y616200D01*
D21*
X2563368Y653796D03*
D20*
X2583180Y580644D02*
X2593848Y580644D01*
X2615184Y601980D01*
X2615184Y714756D01*
X2619756Y719328D01*
X2583180Y580644D02*
X2544600Y580950D01*
X2619756Y719328D02*
X2620000Y720000D01*
X393192Y726948D02*
X315468Y726948D01*
X393192Y726948D02*
X400812Y719328D01*
X438912Y719328D01*
X449580Y729996D01*
X315468Y726948D02*
X314275Y727807D01*
X449580Y729996D02*
X450000Y730000D01*
X347472Y589788D02*
X345948Y589788D01*
X345400Y587300D01*
X1264920Y617220D02*
X1272540Y617220D01*
X1213104Y669036D02*
X1143000Y739140D01*
X1213104Y669036D02*
X1264920Y617220D01*
X1143000Y739140D02*
X632460Y739140D01*
X519684Y626364D01*
X345948Y626364D01*
X1272540Y617220D02*
X1273800Y616200D01*
X345948Y626364D02*
X345400Y625400D01*
X1213104Y669036D02*
X1252728Y708660D01*
D21*
X347472Y589788D03*
X1252728Y708660D03*
D20*
X1862328Y548640D02*
X1879092Y548640D01*
X1171956Y420624D02*
X1167384Y420624D01*
X1152144Y405384D01*
X483108Y405384D01*
X219456Y141732D01*
X219456Y28956D01*
X201168Y10668D01*
X1879092Y548640D02*
X1880410Y549050D01*
X201168Y10668D02*
X200000Y10000D01*
D21*
X1862328Y548640D03*
X1171956Y420624D03*
D20*
X1850136Y574548D02*
X1879092Y574548D01*
X489204Y420624D02*
X480060Y420624D01*
X201168Y141732D01*
X201168Y60960D01*
X1879092Y574548D02*
X1880410Y574450D01*
X201168Y60960D02*
X200000Y60000D01*
D21*
X1850136Y574548D03*
X489204Y420624D03*
D20*
X1827276Y550164D02*
X1854708Y550164D01*
X1860804Y556260D01*
X1889760Y556260D01*
X1906524Y573024D01*
X1906524Y586740D01*
X1912620Y592836D01*
X2522220Y592836D01*
X2708148Y406908D01*
X2708148Y27432D01*
X2691384Y10668D01*
X1827276Y550164D02*
X1826410Y549050D01*
X2690000Y10000D02*
X2691384Y10668D01*
X1840992Y573024D02*
X1827276Y573024D01*
X2208276Y537972D02*
X2343912Y402336D01*
X2404872Y402336D01*
X2689860Y117348D01*
X2689860Y60960D01*
X1827276Y573024D02*
X1826410Y574450D01*
X2689860Y60960D02*
X2690000Y60000D01*
D21*
X1840992Y573024D03*
X2208276Y537972D03*
D20*
X1731264Y554736D02*
X1731264Y579120D01*
X1731264Y554736D02*
X1740408Y545592D01*
X1740408Y470916D01*
X1744980Y466344D01*
X1860804Y466344D01*
X1879092Y484632D01*
X1731264Y579120D02*
X1731246Y580000D01*
X1879092Y484632D02*
X1880410Y485550D01*
X1729740Y480060D02*
X1490472Y480060D01*
X1373124Y597408D01*
X1182624Y597408D01*
X1060704Y719328D01*
X1729740Y480060D02*
X1731246Y480000D01*
X1060704Y719328D02*
X1060000Y720000D01*
X1778508Y490728D02*
X1789176Y480060D01*
X1778508Y490728D02*
X1760220Y490728D01*
X1749552Y480060D01*
X1789176Y480060D02*
X1789195Y480000D01*
X1749552Y480060D02*
X1748754Y480000D01*
X1770888Y478536D02*
X1773936Y478536D01*
X1783080Y469392D01*
X1848612Y469392D01*
X1876044Y496824D01*
X1879092Y496824D01*
X1770805Y480000D02*
X1770888Y478536D01*
X1879092Y496824D02*
X1880410Y498250D01*
X1921764Y530352D02*
X1921764Y556260D01*
X1926336Y560832D01*
X1921764Y530352D02*
X1921246Y530000D01*
D21*
X1926336Y560832D03*
D20*
X1940052Y579120D02*
X1940052Y530352D01*
X1940052Y579120D02*
X1939195Y580000D01*
X1940052Y530352D02*
X1938754Y530000D01*
X1920240Y560832D02*
X1920240Y579120D01*
X1920240Y560832D02*
X1889760Y530352D01*
X1860804Y530352D01*
X1827276Y496824D01*
X1920240Y579120D02*
X1920805Y580000D01*
X1826410Y498250D02*
X1827276Y496824D01*
X1880616Y519684D02*
X1880616Y522732D01*
X1880616Y519684D02*
X1880616Y512064D01*
X1880410Y510950D01*
X1880616Y522732D02*
X1880410Y523650D01*
X1972056Y566928D02*
X1972056Y579120D01*
X1972056Y566928D02*
X1987296Y551688D01*
X1987296Y530352D01*
X1972056Y579120D02*
X1971246Y580000D01*
X1987296Y530352D02*
X1988754Y530000D01*
X1978152Y519684D02*
X1880616Y519684D01*
X1978152Y519684D02*
X1987296Y528828D01*
X1988754Y530000D01*
X1827276Y534924D02*
X1827276Y524256D01*
X1826410Y523650D01*
X1827276Y534924D02*
X1826410Y536350D01*
X1827276Y536448D02*
X1879092Y536448D01*
X1880410Y536350D01*
X1827276Y536448D02*
X1826410Y536350D01*
X1770888Y530352D02*
X1749552Y530352D01*
X1748754Y530000D01*
X1770888Y530352D02*
X1771246Y530000D01*
X1772412Y530352D02*
X1772412Y553212D01*
X1772412Y579120D01*
X1771246Y580000D01*
X1772412Y530352D02*
X1771246Y530000D01*
X1808988Y536448D02*
X1825752Y536448D01*
X1808988Y536448D02*
X1792224Y553212D01*
X1772412Y553212D01*
X1825752Y536448D02*
X1826410Y536350D01*
X1581912Y719328D02*
X1560576Y719328D01*
X1581912Y719328D02*
X1708404Y592836D01*
X1758696Y592836D01*
X1770888Y580644D01*
X1560576Y719328D02*
X1560000Y720000D01*
X1770888Y580644D02*
X1771246Y580000D01*
X1853184Y510540D02*
X1879092Y510540D01*
X1853184Y510540D02*
X1834896Y492252D01*
X1808988Y492252D01*
X1772412Y528828D01*
X1879092Y510540D02*
X1880410Y510950D01*
X1772412Y528828D02*
X1771246Y530000D01*
X1970532Y530352D02*
X1970532Y563880D01*
X1962912Y571500D01*
X1962912Y588264D01*
X1964436Y589788D01*
X1978152Y589788D01*
X1987296Y580644D01*
X1970532Y530352D02*
X1971246Y530000D01*
X1988754Y580000D02*
X1987296Y580644D01*
X1729740Y551688D02*
X1729740Y530352D01*
X1729740Y551688D02*
X1722120Y559308D01*
X1722120Y588264D01*
X1723644Y589788D01*
X1738884Y589788D01*
X1748028Y580644D01*
X1731246Y530000D02*
X1729740Y530352D01*
X1748754Y580000D02*
X1748028Y580644D01*
X1789176Y528828D02*
X1805940Y528828D01*
X1822704Y512064D01*
X1825752Y512064D01*
X1789176Y528828D02*
X1788754Y530000D01*
X1825752Y512064D02*
X1826410Y510950D01*
X1807464Y579120D02*
X1789176Y579120D01*
X1824228Y562356D02*
X1825752Y560832D01*
X1824228Y562356D02*
X1807464Y579120D01*
X1826410Y561750D02*
X1825752Y560832D01*
X1827276Y562356D02*
X1879092Y562356D01*
X1880410Y561750D01*
X1827276Y562356D02*
X1826410Y561750D01*
X1789176Y547116D02*
X1789176Y530352D01*
X1789176Y566928D02*
X1789176Y579120D01*
X1789176Y530352D02*
X1788754Y530000D01*
X1789176Y579120D02*
X1788754Y580000D01*
X1761744Y566928D02*
X1749552Y579120D01*
X1748754Y580000D01*
X1947672Y588264D02*
X1962912Y588264D01*
X1947672Y588264D02*
X1946148Y589788D01*
X1914144Y589788D01*
X1909572Y585216D01*
X1909572Y563880D01*
X1888236Y542544D01*
X1818132Y542544D01*
X1815084Y545592D01*
X1815084Y553212D01*
X1824228Y562356D01*
X1826410Y561750D01*
X1534668Y719328D02*
X1450848Y719328D01*
X1534668Y719328D02*
X1665732Y588264D01*
X1722120Y588264D01*
X1450848Y719328D02*
X1450000Y720000D01*
D21*
X1789176Y547116D03*
X1789176Y566928D03*
X1761744Y566928D03*
M02*
