G04 EAGLE Gerber RS-274X export*
G75*
%MOMM*%
%FSLAX34Y34*%
%LPD*%
%INTop Copper*%
%IPPOS*%
%AMOC8*
5,1,8,0,0,1.08239X$1,22.5*%
G01*
G04 Define Apertures*
%ADD10C,1.879600*%
%ADD11R,0.300000X0.700000*%
%ADD12R,0.300000X1.000000*%
%ADD13C,3.009900*%
%ADD14C,0.203200*%
%ADD15R,0.203200X0.203200*%
%ADD16C,1.498600*%
%ADD17C,1.943100*%
%ADD18P,3.4091X8X22.5*%
%ADD19C,0.152400*%
%ADD20C,0.756400*%
D10*
X1223000Y616200D03*
X1248400Y616200D03*
X1273800Y616200D03*
X1299200Y616200D03*
X1324600Y616200D03*
X1350000Y616200D03*
X1375400Y616200D03*
X1400800Y616200D03*
X1426200Y616200D03*
X1451600Y616200D03*
X1477000Y616200D03*
X1502400Y616200D03*
X1502400Y463800D03*
X1477000Y463800D03*
X1451600Y463800D03*
X1426200Y463800D03*
X1400800Y463800D03*
X1375400Y463800D03*
X1350000Y463800D03*
X1324600Y463800D03*
X1299200Y463800D03*
X1273800Y463800D03*
X1248400Y463800D03*
X1223000Y463800D03*
D11*
X420000Y356000D03*
X425000Y356000D03*
X430000Y356000D03*
X435000Y356000D03*
X440000Y356000D03*
D12*
X412100Y329500D03*
X447900Y329500D03*
D11*
X2670000Y356000D03*
X2675000Y356000D03*
X2680000Y356000D03*
X2685000Y356000D03*
X2690000Y356000D03*
D12*
X2662100Y329500D03*
X2697900Y329500D03*
D13*
X1595050Y510950D02*
X1564951Y510950D01*
X1564951Y549050D02*
X1595050Y549050D01*
D14*
X2550950Y440000D02*
X2595400Y440000D01*
X2589050Y433650D02*
X2544600Y433650D01*
X2557300Y427300D02*
X2595400Y427300D01*
X2589050Y446350D02*
X2544600Y446350D01*
X2557300Y452700D02*
X2595400Y452700D01*
X2582700Y459050D02*
X2544600Y459050D01*
X2544600Y420950D02*
X2582700Y420950D01*
X2544600Y414600D02*
X2544600Y459050D01*
X2595400Y452700D02*
X2595400Y414600D01*
D15*
X2595400Y414600D03*
X2544600Y414600D03*
D14*
X345400Y440000D02*
X300950Y440000D01*
X294600Y433650D02*
X339050Y433650D01*
X345400Y427300D02*
X307300Y427300D01*
X294600Y446350D02*
X339050Y446350D01*
X345400Y452700D02*
X307300Y452700D01*
X294600Y459050D02*
X332700Y459050D01*
X332700Y420950D02*
X294600Y420950D01*
X294600Y414600D02*
X294600Y459050D01*
X345400Y452700D02*
X345400Y414600D01*
D15*
X345400Y414600D03*
X294600Y414600D03*
D16*
X270000Y720000D03*
X314275Y727807D03*
D17*
X262066Y693325D03*
X331105Y705498D03*
D14*
X240000Y539050D02*
X240000Y494600D01*
X233650Y500950D02*
X233650Y545400D01*
X227300Y532700D02*
X227300Y494600D01*
X246350Y500950D02*
X246350Y545400D01*
X252700Y532700D02*
X252700Y494600D01*
X259050Y507300D02*
X259050Y545400D01*
X220950Y545400D02*
X220950Y507300D01*
X214600Y545400D02*
X259050Y545400D01*
X252700Y494600D02*
X214600Y494600D01*
D15*
X214600Y494600D03*
X214600Y545400D03*
D16*
X2620000Y720000D03*
X2575725Y727807D03*
D17*
X2627934Y693325D03*
X2558896Y705498D03*
D14*
X400000Y545400D02*
X400000Y500950D01*
X406350Y494600D02*
X406350Y539050D01*
X412700Y545400D02*
X412700Y507300D01*
X393650Y494600D02*
X393650Y539050D01*
X387300Y545400D02*
X387300Y507300D01*
X380950Y494600D02*
X380950Y532700D01*
X419050Y532700D02*
X419050Y494600D01*
X425400Y494600D02*
X380950Y494600D01*
X387300Y545400D02*
X425400Y545400D01*
D15*
X425400Y545400D03*
X425400Y494600D03*
D14*
X220000Y389050D02*
X220000Y344600D01*
X213650Y350950D02*
X213650Y395400D01*
X207300Y382700D02*
X207300Y344600D01*
X226350Y350950D02*
X226350Y395400D01*
X232700Y382700D02*
X232700Y344600D01*
X239050Y357300D02*
X239050Y395400D01*
X200950Y395400D02*
X200950Y357300D01*
X194600Y395400D02*
X239050Y395400D01*
X232700Y344600D02*
X194600Y344600D01*
D15*
X194600Y344600D03*
X194600Y395400D03*
D14*
X2450000Y395400D02*
X2450000Y350950D01*
X2456350Y344600D02*
X2456350Y389050D01*
X2462700Y395400D02*
X2462700Y357300D01*
X2443650Y344600D02*
X2443650Y389050D01*
X2437300Y395400D02*
X2437300Y357300D01*
X2430950Y344600D02*
X2430950Y382700D01*
X2469050Y382700D02*
X2469050Y344600D01*
X2475400Y344600D02*
X2430950Y344600D01*
X2437300Y395400D02*
X2475400Y395400D01*
D15*
X2475400Y395400D03*
X2475400Y344600D03*
D14*
X339050Y590000D02*
X294600Y590000D01*
X300950Y596350D02*
X345400Y596350D01*
X332700Y602700D02*
X294600Y602700D01*
X300950Y583650D02*
X345400Y583650D01*
X332700Y577300D02*
X294600Y577300D01*
X307300Y570950D02*
X345400Y570950D01*
X345400Y609050D02*
X307300Y609050D01*
X345400Y615400D02*
X345400Y570950D01*
X294600Y577300D02*
X294600Y615400D01*
D15*
X294600Y615400D03*
X345400Y615400D03*
D14*
X2544600Y590000D02*
X2589050Y590000D01*
X2595400Y596350D02*
X2550950Y596350D01*
X2544600Y602700D02*
X2582700Y602700D01*
X2595400Y583650D02*
X2550950Y583650D01*
X2544600Y577300D02*
X2582700Y577300D01*
X2595400Y570950D02*
X2557300Y570950D01*
X2557300Y609050D02*
X2595400Y609050D01*
X2595400Y615400D02*
X2595400Y570950D01*
X2544600Y577300D02*
X2544600Y615400D01*
D15*
X2544600Y615400D03*
X2595400Y615400D03*
D18*
X1060000Y720000D03*
X1100000Y720000D03*
X1450000Y720000D03*
X1560000Y720000D03*
X200000Y60000D03*
X200000Y10000D03*
X2690000Y60000D03*
X2690000Y10000D03*
D14*
X2490000Y494600D02*
X2490000Y539050D01*
X2483650Y545400D02*
X2483650Y500950D01*
X2477300Y494600D02*
X2477300Y532700D01*
X2496350Y545400D02*
X2496350Y500950D01*
X2502700Y494600D02*
X2502700Y532700D01*
X2509050Y545400D02*
X2509050Y507300D01*
X2470950Y507300D02*
X2470950Y545400D01*
X2464600Y545400D02*
X2509050Y545400D01*
X2502700Y494600D02*
X2464600Y494600D01*
D15*
X2464600Y494600D03*
X2464600Y545400D03*
D14*
X2650000Y545400D02*
X2650000Y500950D01*
X2656350Y494600D02*
X2656350Y539050D01*
X2662700Y545400D02*
X2662700Y507300D01*
X2643650Y494600D02*
X2643650Y539050D01*
X2637300Y545400D02*
X2637300Y507300D01*
X2630950Y494600D02*
X2630950Y532700D01*
X2669050Y532700D02*
X2669050Y494600D01*
X2675400Y494600D02*
X2630950Y494600D01*
X2637300Y545400D02*
X2675400Y545400D01*
D15*
X2675400Y545400D03*
X2675400Y494600D03*
D16*
X450000Y730000D03*
X405042Y730000D03*
D17*
X462446Y705108D03*
X392342Y705108D03*
D16*
X2440000Y730000D03*
X2484958Y730000D03*
D17*
X2427554Y705108D03*
X2497658Y705108D03*
D19*
X420624Y355092D02*
X420624Y352044D01*
X432816Y339852D01*
X438912Y339852D01*
X477012Y377952D01*
X477012Y394716D01*
X487680Y405384D01*
X1240536Y405384D01*
X1277112Y441960D01*
X420624Y355092D02*
X420000Y356000D01*
X2602992Y422148D02*
X2668524Y356616D01*
X2333244Y422148D02*
X1296924Y422148D01*
X1277112Y441960D01*
X2668524Y356616D02*
X2670000Y356000D01*
D20*
X1277112Y441960D03*
X2602992Y422148D03*
X2333244Y422148D03*
D19*
X435864Y355092D02*
X435864Y345948D01*
X435864Y355092D02*
X435000Y356000D01*
X2685288Y356616D02*
X2685288Y361188D01*
X2680716Y365760D01*
X2532888Y365760D02*
X2528316Y365760D01*
X2362200Y531876D01*
X1636776Y531876D01*
X1601724Y566928D01*
X1351788Y566928D01*
X1249680Y464820D01*
X2685000Y356000D02*
X2685288Y356616D01*
X1249680Y464820D02*
X1248400Y463800D01*
D20*
X435864Y345948D03*
X2680716Y365760D03*
X2532888Y365760D03*
D19*
X2674620Y356616D02*
X2674620Y390144D01*
X2615184Y449580D01*
X2615184Y467868D01*
X2674620Y356616D02*
X2675000Y356000D01*
D20*
X2615184Y467868D03*
D19*
X2689860Y374904D02*
X2689860Y356616D01*
X2690000Y356000D01*
D20*
X2689860Y374904D03*
D19*
X425196Y365760D02*
X425196Y356616D01*
X425196Y365760D02*
X460248Y400812D01*
X473964Y400812D01*
X484632Y411480D01*
X1232916Y411480D01*
X1272540Y451104D01*
X1362456Y451104D01*
X1374648Y463296D01*
X425196Y356616D02*
X425000Y356000D01*
X1374648Y463296D02*
X1375400Y463800D01*
X440436Y362712D02*
X440436Y356616D01*
X440436Y362712D02*
X486156Y408432D01*
X1234440Y408432D01*
X1274064Y448056D01*
X1385316Y448056D01*
X1400556Y463296D01*
X440436Y356616D02*
X440000Y356000D01*
X1400556Y463296D02*
X1400800Y463800D01*
X429768Y361188D02*
X429768Y356616D01*
X429768Y361188D02*
X463296Y394716D01*
X429768Y356616D02*
X430000Y356000D01*
D20*
X463296Y394716D03*
D19*
X2679192Y355092D02*
X2679192Y350520D01*
X2677668Y348996D01*
X2540508Y348996D01*
X2360676Y528828D01*
X1542288Y528828D01*
X1478280Y464820D01*
X2679192Y355092D02*
X2680000Y356000D01*
X1478280Y464820D02*
X1477000Y463800D01*
X339852Y615696D02*
X294132Y615696D01*
X339852Y615696D02*
X416052Y691896D01*
X580644Y691896D01*
X624840Y736092D01*
X1013460Y736092D01*
X1118616Y630936D01*
X1251204Y630936D01*
X1260348Y621792D01*
X1260348Y611124D01*
X1252728Y603504D01*
X1235964Y603504D01*
X1223772Y615696D01*
X294600Y615400D02*
X294132Y615696D01*
X1223000Y616200D02*
X1223772Y615696D01*
X345948Y509016D02*
X345948Y452628D01*
X345948Y509016D02*
X525780Y688848D01*
X582168Y688848D01*
X626364Y733044D01*
X1011936Y733044D01*
X1117092Y627888D01*
X1237488Y627888D01*
X1248156Y617220D01*
X345948Y452628D02*
X307300Y452700D01*
X1248156Y617220D02*
X1248400Y616200D01*
X480060Y545592D02*
X425196Y545592D01*
X480060Y545592D02*
X507492Y518160D01*
X1226820Y518160D01*
X1324356Y615696D01*
X425400Y545400D02*
X425196Y545592D01*
X1324356Y615696D02*
X1324600Y616200D01*
X252984Y493776D02*
X252984Y472440D01*
X289560Y435864D01*
X289560Y413004D01*
X295656Y406908D01*
X466344Y406908D01*
X574548Y515112D01*
X1234440Y515112D01*
X1322832Y603504D01*
X1336548Y603504D01*
X1348740Y615696D01*
X252984Y493776D02*
X252700Y494600D01*
X1348740Y615696D02*
X1350000Y616200D01*
X435864Y729996D02*
X405384Y729996D01*
X435864Y729996D02*
X446532Y719328D01*
X464820Y719328D01*
X484632Y739140D01*
X1014984Y739140D01*
X1120140Y633984D01*
X1383792Y633984D01*
X1400556Y617220D01*
X405384Y729996D02*
X405042Y730000D01*
X1400556Y617220D02*
X1400800Y616200D01*
X2462784Y708660D02*
X2484120Y729996D01*
X2414016Y659892D02*
X1520952Y659892D01*
X1478280Y617220D01*
X2484120Y729996D02*
X2484958Y730000D01*
X1478280Y617220D02*
X1477000Y616200D01*
D20*
X2462784Y708660D03*
X2414016Y659892D03*
D19*
X1450848Y617220D02*
X1376172Y691896D01*
X1450848Y617220D02*
X1451600Y616200D01*
D20*
X1376172Y691896D03*
D19*
X2499360Y569976D02*
X2557272Y569976D01*
X2557300Y570950D01*
D20*
X2499360Y569976D03*
D19*
X2545080Y515112D02*
X2545080Y458724D01*
X2545080Y515112D02*
X2423160Y637032D01*
X1522476Y637032D01*
X1502664Y617220D01*
X2544600Y459050D02*
X2545080Y458724D01*
X1502664Y617220D02*
X1502400Y616200D01*
X451104Y396240D02*
X239268Y396240D01*
X451104Y396240D02*
X458724Y403860D01*
X472440Y403860D01*
X483108Y414528D01*
X1216152Y414528D01*
X1261872Y460248D01*
X1261872Y469392D01*
X1341120Y548640D01*
X1578864Y548640D01*
X239268Y396240D02*
X239050Y357300D01*
X1578864Y548640D02*
X1580000Y549050D01*
X2424684Y382524D02*
X2430780Y382524D01*
X2424684Y382524D02*
X2296668Y510540D01*
X1580388Y510540D01*
X2430780Y382524D02*
X2430950Y344600D01*
X1580388Y510540D02*
X1580000Y510950D01*
X2409444Y545592D02*
X2464308Y545592D01*
X2409444Y545592D02*
X2406396Y542544D01*
X2212848Y542544D01*
X2194560Y560832D01*
X2045208Y560832D01*
X2464308Y545592D02*
X2464600Y545400D01*
D20*
X2045208Y560832D03*
D19*
X2636520Y568452D02*
X2636520Y545592D01*
X2636520Y568452D02*
X2599944Y605028D01*
X2599944Y617220D01*
X2563368Y653796D01*
X2636520Y545592D02*
X2637300Y507300D01*
D20*
X2563368Y653796D03*
D19*
X2502408Y493776D02*
X2502408Y472440D01*
X2540508Y434340D01*
X2540508Y413004D01*
X2543556Y409956D01*
X2590800Y409956D01*
X2595372Y414528D01*
X2502408Y493776D02*
X2502700Y494600D01*
X2595400Y414600D02*
X2595372Y414528D01*
X2490216Y394716D02*
X2474976Y394716D01*
X2490216Y394716D02*
X2538984Y345948D01*
X2688336Y345948D01*
X2695956Y353568D01*
X2695956Y473964D01*
X2676144Y493776D01*
X2475400Y395400D02*
X2474976Y394716D01*
X2675400Y494600D02*
X2676144Y493776D01*
X2595372Y458724D02*
X2595372Y452628D01*
X2595372Y458724D02*
X2630424Y493776D01*
X2595372Y452628D02*
X2557300Y452700D01*
X2630424Y493776D02*
X2630950Y494600D01*
X2545080Y615696D02*
X2545080Y644652D01*
X2578608Y678180D02*
X2619756Y719328D01*
X2578608Y678180D02*
X2545080Y644652D01*
X2545080Y615696D02*
X2544600Y615400D01*
X2619756Y719328D02*
X2620000Y720000D01*
X2441448Y720852D02*
X2441448Y729996D01*
X2441448Y720852D02*
X2517648Y644652D01*
X2545080Y644652D01*
X2441448Y729996D02*
X2440000Y730000D01*
X2676144Y539496D02*
X2676144Y495300D01*
X2676144Y539496D02*
X2679192Y542544D01*
X2679192Y577596D01*
X2578608Y678180D01*
X2676144Y495300D02*
X2675400Y494600D01*
X347472Y589788D02*
X345948Y589788D01*
X345400Y570950D01*
X195072Y388620D02*
X195072Y344424D01*
X195072Y388620D02*
X190500Y393192D01*
X190500Y521208D01*
X214884Y545592D01*
X194600Y344600D02*
X195072Y344424D01*
X214600Y545400D02*
X214884Y545592D01*
X283464Y569976D02*
X289560Y569976D01*
X307848Y569976D01*
X283464Y569976D02*
X259080Y545592D01*
X307300Y570950D02*
X307848Y569976D01*
X259080Y545592D02*
X259050Y507300D01*
X294132Y472440D02*
X294132Y458724D01*
X294132Y472440D02*
X259080Y507492D01*
X294132Y458724D02*
X294600Y459050D01*
X259050Y507300D02*
X259080Y507492D01*
X381000Y493776D02*
X381000Y466344D01*
X348996Y434340D01*
X348996Y411480D01*
X347472Y409956D01*
X298704Y409956D01*
X294132Y414528D01*
X381000Y493776D02*
X380950Y494600D01*
X294600Y414600D02*
X294132Y414528D01*
X313944Y641604D02*
X313944Y726948D01*
X313944Y641604D02*
X289560Y617220D01*
X289560Y569976D01*
X313944Y726948D02*
X314275Y727807D01*
X2412492Y731520D02*
X2439924Y731520D01*
X2412492Y731520D02*
X2404872Y739140D01*
X1283208Y739140D01*
X1252728Y708660D01*
X2439924Y731520D02*
X2440000Y730000D01*
D20*
X347472Y589788D03*
X1252728Y708660D03*
D19*
X1816608Y548640D02*
X1862328Y548640D01*
X1816608Y548640D02*
X1792224Y573024D01*
X1315212Y573024D01*
X1171956Y429768D01*
X1171956Y420624D01*
D20*
X1862328Y548640D03*
X1171956Y420624D03*
D19*
X1845564Y579120D02*
X1850136Y574548D01*
X1845564Y579120D02*
X1303020Y579120D01*
X1144524Y420624D01*
X489204Y420624D01*
D20*
X1850136Y574548D03*
X489204Y420624D03*
D19*
X1840992Y573024D02*
X1859280Y554736D01*
X2191512Y554736D01*
X2208276Y537972D01*
D20*
X1840992Y573024D03*
X2208276Y537972D03*
D19*
X1926336Y560832D02*
X1872996Y560832D01*
X1831848Y601980D01*
X1423416Y601980D01*
X1412748Y612648D01*
X1412748Y621792D01*
X1331976Y702564D01*
X1117092Y702564D01*
X1100328Y719328D01*
X1100000Y720000D01*
D20*
X1926336Y560832D03*
D19*
X1789176Y566928D02*
X1789176Y547116D01*
X1789176Y566928D02*
X1761744Y566928D01*
D20*
X1789176Y547116D03*
X1789176Y566928D03*
X1761744Y566928D03*
M02*
