G04 EAGLE Gerber RS-274X export*
G75*
%MOMM*%
%FSLAX34Y34*%
%LPD*%
%INSoldermask Top*%
%IPPOS*%
%AMOC8*
5,1,8,0,0,1.08239X$1,22.5*%
G01*
G04 Define Apertures*
%ADD10C,1.403200*%
%ADD11C,2.082800*%
%ADD12R,0.503200X0.903200*%
%ADD13R,0.503200X1.203200*%
%ADD14C,3.213100*%
%ADD15C,2.000000*%
%ADD16C,1.701800*%
%ADD17C,2.146300*%
%ADD18P,3.62904X8X22.5*%
%ADD19C,0.959600*%
D10*
X240000Y50000D03*
X420000Y50000D03*
X330000Y200000D03*
X200000Y300000D03*
X460000Y250000D03*
X2650000Y50000D03*
X2470000Y50000D03*
X2560000Y200000D03*
X2430000Y250000D03*
X2690000Y300000D03*
X490000Y720000D03*
X2400000Y720000D03*
X790000Y450000D03*
X1090000Y450000D03*
X2100000Y440000D03*
X1800000Y440000D03*
X1800000Y620000D03*
X2100000Y620000D03*
X250000Y450000D03*
X390000Y450000D03*
X250000Y590000D03*
X1290000Y720000D03*
X1920000Y720000D03*
X2500000Y450000D03*
X2640000Y450000D03*
X2640000Y590000D03*
X2400000Y560000D03*
X490000Y560000D03*
X1090000Y620000D03*
D11*
X1223000Y616200D03*
X1248400Y616200D03*
X1273800Y616200D03*
X1299200Y616200D03*
X1324600Y616200D03*
X1350000Y616200D03*
X1375400Y616200D03*
X1400800Y616200D03*
X1426200Y616200D03*
X1451600Y616200D03*
X1477000Y616200D03*
X1502400Y616200D03*
X1502400Y463800D03*
X1477000Y463800D03*
X1451600Y463800D03*
X1426200Y463800D03*
X1400800Y463800D03*
X1375400Y463800D03*
X1350000Y463800D03*
X1324600Y463800D03*
X1299200Y463800D03*
X1273800Y463800D03*
X1248400Y463800D03*
X1223000Y463800D03*
D12*
X420000Y356000D03*
X425000Y356000D03*
X430000Y356000D03*
X435000Y356000D03*
X440000Y356000D03*
D13*
X412100Y329500D03*
X447900Y329500D03*
D12*
X2670000Y356000D03*
X2675000Y356000D03*
X2680000Y356000D03*
X2685000Y356000D03*
X2690000Y356000D03*
D13*
X2662100Y329500D03*
X2697900Y329500D03*
D14*
X1595050Y510950D02*
X1564951Y510950D01*
X1564951Y549050D02*
X1595050Y549050D01*
D15*
X2560000Y440000D02*
X2560003Y440245D01*
X2560012Y440491D01*
X2560027Y440736D01*
X2560048Y440980D01*
X2560075Y441224D01*
X2560108Y441467D01*
X2560147Y441710D01*
X2560192Y441951D01*
X2560243Y442191D01*
X2560300Y442430D01*
X2560362Y442667D01*
X2560431Y442903D01*
X2560505Y443137D01*
X2560585Y443369D01*
X2560670Y443599D01*
X2560761Y443827D01*
X2560858Y444052D01*
X2560960Y444276D01*
X2561068Y444496D01*
X2561181Y444714D01*
X2561299Y444929D01*
X2561423Y445141D01*
X2561551Y445350D01*
X2561685Y445556D01*
X2561824Y445758D01*
X2561968Y445957D01*
X2562117Y446152D01*
X2562270Y446344D01*
X2562428Y446532D01*
X2562590Y446716D01*
X2562758Y446895D01*
X2562929Y447071D01*
X2563105Y447242D01*
X2563284Y447410D01*
X2563468Y447572D01*
X2563656Y447730D01*
X2563848Y447883D01*
X2564043Y448032D01*
X2564242Y448176D01*
X2564444Y448315D01*
X2564650Y448449D01*
X2564859Y448577D01*
X2565071Y448701D01*
X2565286Y448819D01*
X2565504Y448932D01*
X2565724Y449040D01*
X2565948Y449142D01*
X2566173Y449239D01*
X2566401Y449330D01*
X2566631Y449415D01*
X2566863Y449495D01*
X2567097Y449569D01*
X2567333Y449638D01*
X2567570Y449700D01*
X2567809Y449757D01*
X2568049Y449808D01*
X2568290Y449853D01*
X2568533Y449892D01*
X2568776Y449925D01*
X2569020Y449952D01*
X2569264Y449973D01*
X2569509Y449988D01*
X2569755Y449997D01*
X2570000Y450000D01*
X2570245Y449997D01*
X2570491Y449988D01*
X2570736Y449973D01*
X2570980Y449952D01*
X2571224Y449925D01*
X2571467Y449892D01*
X2571710Y449853D01*
X2571951Y449808D01*
X2572191Y449757D01*
X2572430Y449700D01*
X2572667Y449638D01*
X2572903Y449569D01*
X2573137Y449495D01*
X2573369Y449415D01*
X2573599Y449330D01*
X2573827Y449239D01*
X2574052Y449142D01*
X2574276Y449040D01*
X2574496Y448932D01*
X2574714Y448819D01*
X2574929Y448701D01*
X2575141Y448577D01*
X2575350Y448449D01*
X2575556Y448315D01*
X2575758Y448176D01*
X2575957Y448032D01*
X2576152Y447883D01*
X2576344Y447730D01*
X2576532Y447572D01*
X2576716Y447410D01*
X2576895Y447242D01*
X2577071Y447071D01*
X2577242Y446895D01*
X2577410Y446716D01*
X2577572Y446532D01*
X2577730Y446344D01*
X2577883Y446152D01*
X2578032Y445957D01*
X2578176Y445758D01*
X2578315Y445556D01*
X2578449Y445350D01*
X2578577Y445141D01*
X2578701Y444929D01*
X2578819Y444714D01*
X2578932Y444496D01*
X2579040Y444276D01*
X2579142Y444052D01*
X2579239Y443827D01*
X2579330Y443599D01*
X2579415Y443369D01*
X2579495Y443137D01*
X2579569Y442903D01*
X2579638Y442667D01*
X2579700Y442430D01*
X2579757Y442191D01*
X2579808Y441951D01*
X2579853Y441710D01*
X2579892Y441467D01*
X2579925Y441224D01*
X2579952Y440980D01*
X2579973Y440736D01*
X2579988Y440491D01*
X2579997Y440245D01*
X2580000Y440000D01*
X2579997Y439755D01*
X2579988Y439509D01*
X2579973Y439264D01*
X2579952Y439020D01*
X2579925Y438776D01*
X2579892Y438533D01*
X2579853Y438290D01*
X2579808Y438049D01*
X2579757Y437809D01*
X2579700Y437570D01*
X2579638Y437333D01*
X2579569Y437097D01*
X2579495Y436863D01*
X2579415Y436631D01*
X2579330Y436401D01*
X2579239Y436173D01*
X2579142Y435948D01*
X2579040Y435724D01*
X2578932Y435504D01*
X2578819Y435286D01*
X2578701Y435071D01*
X2578577Y434859D01*
X2578449Y434650D01*
X2578315Y434444D01*
X2578176Y434242D01*
X2578032Y434043D01*
X2577883Y433848D01*
X2577730Y433656D01*
X2577572Y433468D01*
X2577410Y433284D01*
X2577242Y433105D01*
X2577071Y432929D01*
X2576895Y432758D01*
X2576716Y432590D01*
X2576532Y432428D01*
X2576344Y432270D01*
X2576152Y432117D01*
X2575957Y431968D01*
X2575758Y431824D01*
X2575556Y431685D01*
X2575350Y431551D01*
X2575141Y431423D01*
X2574929Y431299D01*
X2574714Y431181D01*
X2574496Y431068D01*
X2574276Y430960D01*
X2574052Y430858D01*
X2573827Y430761D01*
X2573599Y430670D01*
X2573369Y430585D01*
X2573137Y430505D01*
X2572903Y430431D01*
X2572667Y430362D01*
X2572430Y430300D01*
X2572191Y430243D01*
X2571951Y430192D01*
X2571710Y430147D01*
X2571467Y430108D01*
X2571224Y430075D01*
X2570980Y430048D01*
X2570736Y430027D01*
X2570491Y430012D01*
X2570245Y430003D01*
X2570000Y430000D01*
X2569755Y430003D01*
X2569509Y430012D01*
X2569264Y430027D01*
X2569020Y430048D01*
X2568776Y430075D01*
X2568533Y430108D01*
X2568290Y430147D01*
X2568049Y430192D01*
X2567809Y430243D01*
X2567570Y430300D01*
X2567333Y430362D01*
X2567097Y430431D01*
X2566863Y430505D01*
X2566631Y430585D01*
X2566401Y430670D01*
X2566173Y430761D01*
X2565948Y430858D01*
X2565724Y430960D01*
X2565504Y431068D01*
X2565286Y431181D01*
X2565071Y431299D01*
X2564859Y431423D01*
X2564650Y431551D01*
X2564444Y431685D01*
X2564242Y431824D01*
X2564043Y431968D01*
X2563848Y432117D01*
X2563656Y432270D01*
X2563468Y432428D01*
X2563284Y432590D01*
X2563105Y432758D01*
X2562929Y432929D01*
X2562758Y433105D01*
X2562590Y433284D01*
X2562428Y433468D01*
X2562270Y433656D01*
X2562117Y433848D01*
X2561968Y434043D01*
X2561824Y434242D01*
X2561685Y434444D01*
X2561551Y434650D01*
X2561423Y434859D01*
X2561299Y435071D01*
X2561181Y435286D01*
X2561068Y435504D01*
X2560960Y435724D01*
X2560858Y435948D01*
X2560761Y436173D01*
X2560670Y436401D01*
X2560585Y436631D01*
X2560505Y436863D01*
X2560431Y437097D01*
X2560362Y437333D01*
X2560300Y437570D01*
X2560243Y437809D01*
X2560192Y438049D01*
X2560147Y438290D01*
X2560108Y438533D01*
X2560075Y438776D01*
X2560048Y439020D01*
X2560027Y439264D01*
X2560012Y439509D01*
X2560003Y439755D01*
X2560000Y440000D01*
X310000Y440000D02*
X310003Y440245D01*
X310012Y440491D01*
X310027Y440736D01*
X310048Y440980D01*
X310075Y441224D01*
X310108Y441467D01*
X310147Y441710D01*
X310192Y441951D01*
X310243Y442191D01*
X310300Y442430D01*
X310362Y442667D01*
X310431Y442903D01*
X310505Y443137D01*
X310585Y443369D01*
X310670Y443599D01*
X310761Y443827D01*
X310858Y444052D01*
X310960Y444276D01*
X311068Y444496D01*
X311181Y444714D01*
X311299Y444929D01*
X311423Y445141D01*
X311551Y445350D01*
X311685Y445556D01*
X311824Y445758D01*
X311968Y445957D01*
X312117Y446152D01*
X312270Y446344D01*
X312428Y446532D01*
X312590Y446716D01*
X312758Y446895D01*
X312929Y447071D01*
X313105Y447242D01*
X313284Y447410D01*
X313468Y447572D01*
X313656Y447730D01*
X313848Y447883D01*
X314043Y448032D01*
X314242Y448176D01*
X314444Y448315D01*
X314650Y448449D01*
X314859Y448577D01*
X315071Y448701D01*
X315286Y448819D01*
X315504Y448932D01*
X315724Y449040D01*
X315948Y449142D01*
X316173Y449239D01*
X316401Y449330D01*
X316631Y449415D01*
X316863Y449495D01*
X317097Y449569D01*
X317333Y449638D01*
X317570Y449700D01*
X317809Y449757D01*
X318049Y449808D01*
X318290Y449853D01*
X318533Y449892D01*
X318776Y449925D01*
X319020Y449952D01*
X319264Y449973D01*
X319509Y449988D01*
X319755Y449997D01*
X320000Y450000D01*
X320245Y449997D01*
X320491Y449988D01*
X320736Y449973D01*
X320980Y449952D01*
X321224Y449925D01*
X321467Y449892D01*
X321710Y449853D01*
X321951Y449808D01*
X322191Y449757D01*
X322430Y449700D01*
X322667Y449638D01*
X322903Y449569D01*
X323137Y449495D01*
X323369Y449415D01*
X323599Y449330D01*
X323827Y449239D01*
X324052Y449142D01*
X324276Y449040D01*
X324496Y448932D01*
X324714Y448819D01*
X324929Y448701D01*
X325141Y448577D01*
X325350Y448449D01*
X325556Y448315D01*
X325758Y448176D01*
X325957Y448032D01*
X326152Y447883D01*
X326344Y447730D01*
X326532Y447572D01*
X326716Y447410D01*
X326895Y447242D01*
X327071Y447071D01*
X327242Y446895D01*
X327410Y446716D01*
X327572Y446532D01*
X327730Y446344D01*
X327883Y446152D01*
X328032Y445957D01*
X328176Y445758D01*
X328315Y445556D01*
X328449Y445350D01*
X328577Y445141D01*
X328701Y444929D01*
X328819Y444714D01*
X328932Y444496D01*
X329040Y444276D01*
X329142Y444052D01*
X329239Y443827D01*
X329330Y443599D01*
X329415Y443369D01*
X329495Y443137D01*
X329569Y442903D01*
X329638Y442667D01*
X329700Y442430D01*
X329757Y442191D01*
X329808Y441951D01*
X329853Y441710D01*
X329892Y441467D01*
X329925Y441224D01*
X329952Y440980D01*
X329973Y440736D01*
X329988Y440491D01*
X329997Y440245D01*
X330000Y440000D01*
X329997Y439755D01*
X329988Y439509D01*
X329973Y439264D01*
X329952Y439020D01*
X329925Y438776D01*
X329892Y438533D01*
X329853Y438290D01*
X329808Y438049D01*
X329757Y437809D01*
X329700Y437570D01*
X329638Y437333D01*
X329569Y437097D01*
X329495Y436863D01*
X329415Y436631D01*
X329330Y436401D01*
X329239Y436173D01*
X329142Y435948D01*
X329040Y435724D01*
X328932Y435504D01*
X328819Y435286D01*
X328701Y435071D01*
X328577Y434859D01*
X328449Y434650D01*
X328315Y434444D01*
X328176Y434242D01*
X328032Y434043D01*
X327883Y433848D01*
X327730Y433656D01*
X327572Y433468D01*
X327410Y433284D01*
X327242Y433105D01*
X327071Y432929D01*
X326895Y432758D01*
X326716Y432590D01*
X326532Y432428D01*
X326344Y432270D01*
X326152Y432117D01*
X325957Y431968D01*
X325758Y431824D01*
X325556Y431685D01*
X325350Y431551D01*
X325141Y431423D01*
X324929Y431299D01*
X324714Y431181D01*
X324496Y431068D01*
X324276Y430960D01*
X324052Y430858D01*
X323827Y430761D01*
X323599Y430670D01*
X323369Y430585D01*
X323137Y430505D01*
X322903Y430431D01*
X322667Y430362D01*
X322430Y430300D01*
X322191Y430243D01*
X321951Y430192D01*
X321710Y430147D01*
X321467Y430108D01*
X321224Y430075D01*
X320980Y430048D01*
X320736Y430027D01*
X320491Y430012D01*
X320245Y430003D01*
X320000Y430000D01*
X319755Y430003D01*
X319509Y430012D01*
X319264Y430027D01*
X319020Y430048D01*
X318776Y430075D01*
X318533Y430108D01*
X318290Y430147D01*
X318049Y430192D01*
X317809Y430243D01*
X317570Y430300D01*
X317333Y430362D01*
X317097Y430431D01*
X316863Y430505D01*
X316631Y430585D01*
X316401Y430670D01*
X316173Y430761D01*
X315948Y430858D01*
X315724Y430960D01*
X315504Y431068D01*
X315286Y431181D01*
X315071Y431299D01*
X314859Y431423D01*
X314650Y431551D01*
X314444Y431685D01*
X314242Y431824D01*
X314043Y431968D01*
X313848Y432117D01*
X313656Y432270D01*
X313468Y432428D01*
X313284Y432590D01*
X313105Y432758D01*
X312929Y432929D01*
X312758Y433105D01*
X312590Y433284D01*
X312428Y433468D01*
X312270Y433656D01*
X312117Y433848D01*
X311968Y434043D01*
X311824Y434242D01*
X311685Y434444D01*
X311551Y434650D01*
X311423Y434859D01*
X311299Y435071D01*
X311181Y435286D01*
X311068Y435504D01*
X310960Y435724D01*
X310858Y435948D01*
X310761Y436173D01*
X310670Y436401D01*
X310585Y436631D01*
X310505Y436863D01*
X310431Y437097D01*
X310362Y437333D01*
X310300Y437570D01*
X310243Y437809D01*
X310192Y438049D01*
X310147Y438290D01*
X310108Y438533D01*
X310075Y438776D01*
X310048Y439020D01*
X310027Y439264D01*
X310012Y439509D01*
X310003Y439755D01*
X310000Y440000D01*
D16*
X270000Y720000D03*
X314275Y727807D03*
D17*
X262066Y693325D03*
X331105Y705498D03*
D15*
X230000Y520000D02*
X230003Y520245D01*
X230012Y520491D01*
X230027Y520736D01*
X230048Y520980D01*
X230075Y521224D01*
X230108Y521467D01*
X230147Y521710D01*
X230192Y521951D01*
X230243Y522191D01*
X230300Y522430D01*
X230362Y522667D01*
X230431Y522903D01*
X230505Y523137D01*
X230585Y523369D01*
X230670Y523599D01*
X230761Y523827D01*
X230858Y524052D01*
X230960Y524276D01*
X231068Y524496D01*
X231181Y524714D01*
X231299Y524929D01*
X231423Y525141D01*
X231551Y525350D01*
X231685Y525556D01*
X231824Y525758D01*
X231968Y525957D01*
X232117Y526152D01*
X232270Y526344D01*
X232428Y526532D01*
X232590Y526716D01*
X232758Y526895D01*
X232929Y527071D01*
X233105Y527242D01*
X233284Y527410D01*
X233468Y527572D01*
X233656Y527730D01*
X233848Y527883D01*
X234043Y528032D01*
X234242Y528176D01*
X234444Y528315D01*
X234650Y528449D01*
X234859Y528577D01*
X235071Y528701D01*
X235286Y528819D01*
X235504Y528932D01*
X235724Y529040D01*
X235948Y529142D01*
X236173Y529239D01*
X236401Y529330D01*
X236631Y529415D01*
X236863Y529495D01*
X237097Y529569D01*
X237333Y529638D01*
X237570Y529700D01*
X237809Y529757D01*
X238049Y529808D01*
X238290Y529853D01*
X238533Y529892D01*
X238776Y529925D01*
X239020Y529952D01*
X239264Y529973D01*
X239509Y529988D01*
X239755Y529997D01*
X240000Y530000D01*
X240245Y529997D01*
X240491Y529988D01*
X240736Y529973D01*
X240980Y529952D01*
X241224Y529925D01*
X241467Y529892D01*
X241710Y529853D01*
X241951Y529808D01*
X242191Y529757D01*
X242430Y529700D01*
X242667Y529638D01*
X242903Y529569D01*
X243137Y529495D01*
X243369Y529415D01*
X243599Y529330D01*
X243827Y529239D01*
X244052Y529142D01*
X244276Y529040D01*
X244496Y528932D01*
X244714Y528819D01*
X244929Y528701D01*
X245141Y528577D01*
X245350Y528449D01*
X245556Y528315D01*
X245758Y528176D01*
X245957Y528032D01*
X246152Y527883D01*
X246344Y527730D01*
X246532Y527572D01*
X246716Y527410D01*
X246895Y527242D01*
X247071Y527071D01*
X247242Y526895D01*
X247410Y526716D01*
X247572Y526532D01*
X247730Y526344D01*
X247883Y526152D01*
X248032Y525957D01*
X248176Y525758D01*
X248315Y525556D01*
X248449Y525350D01*
X248577Y525141D01*
X248701Y524929D01*
X248819Y524714D01*
X248932Y524496D01*
X249040Y524276D01*
X249142Y524052D01*
X249239Y523827D01*
X249330Y523599D01*
X249415Y523369D01*
X249495Y523137D01*
X249569Y522903D01*
X249638Y522667D01*
X249700Y522430D01*
X249757Y522191D01*
X249808Y521951D01*
X249853Y521710D01*
X249892Y521467D01*
X249925Y521224D01*
X249952Y520980D01*
X249973Y520736D01*
X249988Y520491D01*
X249997Y520245D01*
X250000Y520000D01*
X249997Y519755D01*
X249988Y519509D01*
X249973Y519264D01*
X249952Y519020D01*
X249925Y518776D01*
X249892Y518533D01*
X249853Y518290D01*
X249808Y518049D01*
X249757Y517809D01*
X249700Y517570D01*
X249638Y517333D01*
X249569Y517097D01*
X249495Y516863D01*
X249415Y516631D01*
X249330Y516401D01*
X249239Y516173D01*
X249142Y515948D01*
X249040Y515724D01*
X248932Y515504D01*
X248819Y515286D01*
X248701Y515071D01*
X248577Y514859D01*
X248449Y514650D01*
X248315Y514444D01*
X248176Y514242D01*
X248032Y514043D01*
X247883Y513848D01*
X247730Y513656D01*
X247572Y513468D01*
X247410Y513284D01*
X247242Y513105D01*
X247071Y512929D01*
X246895Y512758D01*
X246716Y512590D01*
X246532Y512428D01*
X246344Y512270D01*
X246152Y512117D01*
X245957Y511968D01*
X245758Y511824D01*
X245556Y511685D01*
X245350Y511551D01*
X245141Y511423D01*
X244929Y511299D01*
X244714Y511181D01*
X244496Y511068D01*
X244276Y510960D01*
X244052Y510858D01*
X243827Y510761D01*
X243599Y510670D01*
X243369Y510585D01*
X243137Y510505D01*
X242903Y510431D01*
X242667Y510362D01*
X242430Y510300D01*
X242191Y510243D01*
X241951Y510192D01*
X241710Y510147D01*
X241467Y510108D01*
X241224Y510075D01*
X240980Y510048D01*
X240736Y510027D01*
X240491Y510012D01*
X240245Y510003D01*
X240000Y510000D01*
X239755Y510003D01*
X239509Y510012D01*
X239264Y510027D01*
X239020Y510048D01*
X238776Y510075D01*
X238533Y510108D01*
X238290Y510147D01*
X238049Y510192D01*
X237809Y510243D01*
X237570Y510300D01*
X237333Y510362D01*
X237097Y510431D01*
X236863Y510505D01*
X236631Y510585D01*
X236401Y510670D01*
X236173Y510761D01*
X235948Y510858D01*
X235724Y510960D01*
X235504Y511068D01*
X235286Y511181D01*
X235071Y511299D01*
X234859Y511423D01*
X234650Y511551D01*
X234444Y511685D01*
X234242Y511824D01*
X234043Y511968D01*
X233848Y512117D01*
X233656Y512270D01*
X233468Y512428D01*
X233284Y512590D01*
X233105Y512758D01*
X232929Y512929D01*
X232758Y513105D01*
X232590Y513284D01*
X232428Y513468D01*
X232270Y513656D01*
X232117Y513848D01*
X231968Y514043D01*
X231824Y514242D01*
X231685Y514444D01*
X231551Y514650D01*
X231423Y514859D01*
X231299Y515071D01*
X231181Y515286D01*
X231068Y515504D01*
X230960Y515724D01*
X230858Y515948D01*
X230761Y516173D01*
X230670Y516401D01*
X230585Y516631D01*
X230505Y516863D01*
X230431Y517097D01*
X230362Y517333D01*
X230300Y517570D01*
X230243Y517809D01*
X230192Y518049D01*
X230147Y518290D01*
X230108Y518533D01*
X230075Y518776D01*
X230048Y519020D01*
X230027Y519264D01*
X230012Y519509D01*
X230003Y519755D01*
X230000Y520000D01*
D16*
X2620000Y720000D03*
X2575725Y727807D03*
D17*
X2627934Y693325D03*
X2558896Y705498D03*
D15*
X390000Y520000D02*
X390003Y520245D01*
X390012Y520491D01*
X390027Y520736D01*
X390048Y520980D01*
X390075Y521224D01*
X390108Y521467D01*
X390147Y521710D01*
X390192Y521951D01*
X390243Y522191D01*
X390300Y522430D01*
X390362Y522667D01*
X390431Y522903D01*
X390505Y523137D01*
X390585Y523369D01*
X390670Y523599D01*
X390761Y523827D01*
X390858Y524052D01*
X390960Y524276D01*
X391068Y524496D01*
X391181Y524714D01*
X391299Y524929D01*
X391423Y525141D01*
X391551Y525350D01*
X391685Y525556D01*
X391824Y525758D01*
X391968Y525957D01*
X392117Y526152D01*
X392270Y526344D01*
X392428Y526532D01*
X392590Y526716D01*
X392758Y526895D01*
X392929Y527071D01*
X393105Y527242D01*
X393284Y527410D01*
X393468Y527572D01*
X393656Y527730D01*
X393848Y527883D01*
X394043Y528032D01*
X394242Y528176D01*
X394444Y528315D01*
X394650Y528449D01*
X394859Y528577D01*
X395071Y528701D01*
X395286Y528819D01*
X395504Y528932D01*
X395724Y529040D01*
X395948Y529142D01*
X396173Y529239D01*
X396401Y529330D01*
X396631Y529415D01*
X396863Y529495D01*
X397097Y529569D01*
X397333Y529638D01*
X397570Y529700D01*
X397809Y529757D01*
X398049Y529808D01*
X398290Y529853D01*
X398533Y529892D01*
X398776Y529925D01*
X399020Y529952D01*
X399264Y529973D01*
X399509Y529988D01*
X399755Y529997D01*
X400000Y530000D01*
X400245Y529997D01*
X400491Y529988D01*
X400736Y529973D01*
X400980Y529952D01*
X401224Y529925D01*
X401467Y529892D01*
X401710Y529853D01*
X401951Y529808D01*
X402191Y529757D01*
X402430Y529700D01*
X402667Y529638D01*
X402903Y529569D01*
X403137Y529495D01*
X403369Y529415D01*
X403599Y529330D01*
X403827Y529239D01*
X404052Y529142D01*
X404276Y529040D01*
X404496Y528932D01*
X404714Y528819D01*
X404929Y528701D01*
X405141Y528577D01*
X405350Y528449D01*
X405556Y528315D01*
X405758Y528176D01*
X405957Y528032D01*
X406152Y527883D01*
X406344Y527730D01*
X406532Y527572D01*
X406716Y527410D01*
X406895Y527242D01*
X407071Y527071D01*
X407242Y526895D01*
X407410Y526716D01*
X407572Y526532D01*
X407730Y526344D01*
X407883Y526152D01*
X408032Y525957D01*
X408176Y525758D01*
X408315Y525556D01*
X408449Y525350D01*
X408577Y525141D01*
X408701Y524929D01*
X408819Y524714D01*
X408932Y524496D01*
X409040Y524276D01*
X409142Y524052D01*
X409239Y523827D01*
X409330Y523599D01*
X409415Y523369D01*
X409495Y523137D01*
X409569Y522903D01*
X409638Y522667D01*
X409700Y522430D01*
X409757Y522191D01*
X409808Y521951D01*
X409853Y521710D01*
X409892Y521467D01*
X409925Y521224D01*
X409952Y520980D01*
X409973Y520736D01*
X409988Y520491D01*
X409997Y520245D01*
X410000Y520000D01*
X409997Y519755D01*
X409988Y519509D01*
X409973Y519264D01*
X409952Y519020D01*
X409925Y518776D01*
X409892Y518533D01*
X409853Y518290D01*
X409808Y518049D01*
X409757Y517809D01*
X409700Y517570D01*
X409638Y517333D01*
X409569Y517097D01*
X409495Y516863D01*
X409415Y516631D01*
X409330Y516401D01*
X409239Y516173D01*
X409142Y515948D01*
X409040Y515724D01*
X408932Y515504D01*
X408819Y515286D01*
X408701Y515071D01*
X408577Y514859D01*
X408449Y514650D01*
X408315Y514444D01*
X408176Y514242D01*
X408032Y514043D01*
X407883Y513848D01*
X407730Y513656D01*
X407572Y513468D01*
X407410Y513284D01*
X407242Y513105D01*
X407071Y512929D01*
X406895Y512758D01*
X406716Y512590D01*
X406532Y512428D01*
X406344Y512270D01*
X406152Y512117D01*
X405957Y511968D01*
X405758Y511824D01*
X405556Y511685D01*
X405350Y511551D01*
X405141Y511423D01*
X404929Y511299D01*
X404714Y511181D01*
X404496Y511068D01*
X404276Y510960D01*
X404052Y510858D01*
X403827Y510761D01*
X403599Y510670D01*
X403369Y510585D01*
X403137Y510505D01*
X402903Y510431D01*
X402667Y510362D01*
X402430Y510300D01*
X402191Y510243D01*
X401951Y510192D01*
X401710Y510147D01*
X401467Y510108D01*
X401224Y510075D01*
X400980Y510048D01*
X400736Y510027D01*
X400491Y510012D01*
X400245Y510003D01*
X400000Y510000D01*
X399755Y510003D01*
X399509Y510012D01*
X399264Y510027D01*
X399020Y510048D01*
X398776Y510075D01*
X398533Y510108D01*
X398290Y510147D01*
X398049Y510192D01*
X397809Y510243D01*
X397570Y510300D01*
X397333Y510362D01*
X397097Y510431D01*
X396863Y510505D01*
X396631Y510585D01*
X396401Y510670D01*
X396173Y510761D01*
X395948Y510858D01*
X395724Y510960D01*
X395504Y511068D01*
X395286Y511181D01*
X395071Y511299D01*
X394859Y511423D01*
X394650Y511551D01*
X394444Y511685D01*
X394242Y511824D01*
X394043Y511968D01*
X393848Y512117D01*
X393656Y512270D01*
X393468Y512428D01*
X393284Y512590D01*
X393105Y512758D01*
X392929Y512929D01*
X392758Y513105D01*
X392590Y513284D01*
X392428Y513468D01*
X392270Y513656D01*
X392117Y513848D01*
X391968Y514043D01*
X391824Y514242D01*
X391685Y514444D01*
X391551Y514650D01*
X391423Y514859D01*
X391299Y515071D01*
X391181Y515286D01*
X391068Y515504D01*
X390960Y515724D01*
X390858Y515948D01*
X390761Y516173D01*
X390670Y516401D01*
X390585Y516631D01*
X390505Y516863D01*
X390431Y517097D01*
X390362Y517333D01*
X390300Y517570D01*
X390243Y517809D01*
X390192Y518049D01*
X390147Y518290D01*
X390108Y518533D01*
X390075Y518776D01*
X390048Y519020D01*
X390027Y519264D01*
X390012Y519509D01*
X390003Y519755D01*
X390000Y520000D01*
X210000Y370000D02*
X210003Y370245D01*
X210012Y370491D01*
X210027Y370736D01*
X210048Y370980D01*
X210075Y371224D01*
X210108Y371467D01*
X210147Y371710D01*
X210192Y371951D01*
X210243Y372191D01*
X210300Y372430D01*
X210362Y372667D01*
X210431Y372903D01*
X210505Y373137D01*
X210585Y373369D01*
X210670Y373599D01*
X210761Y373827D01*
X210858Y374052D01*
X210960Y374276D01*
X211068Y374496D01*
X211181Y374714D01*
X211299Y374929D01*
X211423Y375141D01*
X211551Y375350D01*
X211685Y375556D01*
X211824Y375758D01*
X211968Y375957D01*
X212117Y376152D01*
X212270Y376344D01*
X212428Y376532D01*
X212590Y376716D01*
X212758Y376895D01*
X212929Y377071D01*
X213105Y377242D01*
X213284Y377410D01*
X213468Y377572D01*
X213656Y377730D01*
X213848Y377883D01*
X214043Y378032D01*
X214242Y378176D01*
X214444Y378315D01*
X214650Y378449D01*
X214859Y378577D01*
X215071Y378701D01*
X215286Y378819D01*
X215504Y378932D01*
X215724Y379040D01*
X215948Y379142D01*
X216173Y379239D01*
X216401Y379330D01*
X216631Y379415D01*
X216863Y379495D01*
X217097Y379569D01*
X217333Y379638D01*
X217570Y379700D01*
X217809Y379757D01*
X218049Y379808D01*
X218290Y379853D01*
X218533Y379892D01*
X218776Y379925D01*
X219020Y379952D01*
X219264Y379973D01*
X219509Y379988D01*
X219755Y379997D01*
X220000Y380000D01*
X220245Y379997D01*
X220491Y379988D01*
X220736Y379973D01*
X220980Y379952D01*
X221224Y379925D01*
X221467Y379892D01*
X221710Y379853D01*
X221951Y379808D01*
X222191Y379757D01*
X222430Y379700D01*
X222667Y379638D01*
X222903Y379569D01*
X223137Y379495D01*
X223369Y379415D01*
X223599Y379330D01*
X223827Y379239D01*
X224052Y379142D01*
X224276Y379040D01*
X224496Y378932D01*
X224714Y378819D01*
X224929Y378701D01*
X225141Y378577D01*
X225350Y378449D01*
X225556Y378315D01*
X225758Y378176D01*
X225957Y378032D01*
X226152Y377883D01*
X226344Y377730D01*
X226532Y377572D01*
X226716Y377410D01*
X226895Y377242D01*
X227071Y377071D01*
X227242Y376895D01*
X227410Y376716D01*
X227572Y376532D01*
X227730Y376344D01*
X227883Y376152D01*
X228032Y375957D01*
X228176Y375758D01*
X228315Y375556D01*
X228449Y375350D01*
X228577Y375141D01*
X228701Y374929D01*
X228819Y374714D01*
X228932Y374496D01*
X229040Y374276D01*
X229142Y374052D01*
X229239Y373827D01*
X229330Y373599D01*
X229415Y373369D01*
X229495Y373137D01*
X229569Y372903D01*
X229638Y372667D01*
X229700Y372430D01*
X229757Y372191D01*
X229808Y371951D01*
X229853Y371710D01*
X229892Y371467D01*
X229925Y371224D01*
X229952Y370980D01*
X229973Y370736D01*
X229988Y370491D01*
X229997Y370245D01*
X230000Y370000D01*
X229997Y369755D01*
X229988Y369509D01*
X229973Y369264D01*
X229952Y369020D01*
X229925Y368776D01*
X229892Y368533D01*
X229853Y368290D01*
X229808Y368049D01*
X229757Y367809D01*
X229700Y367570D01*
X229638Y367333D01*
X229569Y367097D01*
X229495Y366863D01*
X229415Y366631D01*
X229330Y366401D01*
X229239Y366173D01*
X229142Y365948D01*
X229040Y365724D01*
X228932Y365504D01*
X228819Y365286D01*
X228701Y365071D01*
X228577Y364859D01*
X228449Y364650D01*
X228315Y364444D01*
X228176Y364242D01*
X228032Y364043D01*
X227883Y363848D01*
X227730Y363656D01*
X227572Y363468D01*
X227410Y363284D01*
X227242Y363105D01*
X227071Y362929D01*
X226895Y362758D01*
X226716Y362590D01*
X226532Y362428D01*
X226344Y362270D01*
X226152Y362117D01*
X225957Y361968D01*
X225758Y361824D01*
X225556Y361685D01*
X225350Y361551D01*
X225141Y361423D01*
X224929Y361299D01*
X224714Y361181D01*
X224496Y361068D01*
X224276Y360960D01*
X224052Y360858D01*
X223827Y360761D01*
X223599Y360670D01*
X223369Y360585D01*
X223137Y360505D01*
X222903Y360431D01*
X222667Y360362D01*
X222430Y360300D01*
X222191Y360243D01*
X221951Y360192D01*
X221710Y360147D01*
X221467Y360108D01*
X221224Y360075D01*
X220980Y360048D01*
X220736Y360027D01*
X220491Y360012D01*
X220245Y360003D01*
X220000Y360000D01*
X219755Y360003D01*
X219509Y360012D01*
X219264Y360027D01*
X219020Y360048D01*
X218776Y360075D01*
X218533Y360108D01*
X218290Y360147D01*
X218049Y360192D01*
X217809Y360243D01*
X217570Y360300D01*
X217333Y360362D01*
X217097Y360431D01*
X216863Y360505D01*
X216631Y360585D01*
X216401Y360670D01*
X216173Y360761D01*
X215948Y360858D01*
X215724Y360960D01*
X215504Y361068D01*
X215286Y361181D01*
X215071Y361299D01*
X214859Y361423D01*
X214650Y361551D01*
X214444Y361685D01*
X214242Y361824D01*
X214043Y361968D01*
X213848Y362117D01*
X213656Y362270D01*
X213468Y362428D01*
X213284Y362590D01*
X213105Y362758D01*
X212929Y362929D01*
X212758Y363105D01*
X212590Y363284D01*
X212428Y363468D01*
X212270Y363656D01*
X212117Y363848D01*
X211968Y364043D01*
X211824Y364242D01*
X211685Y364444D01*
X211551Y364650D01*
X211423Y364859D01*
X211299Y365071D01*
X211181Y365286D01*
X211068Y365504D01*
X210960Y365724D01*
X210858Y365948D01*
X210761Y366173D01*
X210670Y366401D01*
X210585Y366631D01*
X210505Y366863D01*
X210431Y367097D01*
X210362Y367333D01*
X210300Y367570D01*
X210243Y367809D01*
X210192Y368049D01*
X210147Y368290D01*
X210108Y368533D01*
X210075Y368776D01*
X210048Y369020D01*
X210027Y369264D01*
X210012Y369509D01*
X210003Y369755D01*
X210000Y370000D01*
X2440000Y370000D02*
X2440003Y370245D01*
X2440012Y370491D01*
X2440027Y370736D01*
X2440048Y370980D01*
X2440075Y371224D01*
X2440108Y371467D01*
X2440147Y371710D01*
X2440192Y371951D01*
X2440243Y372191D01*
X2440300Y372430D01*
X2440362Y372667D01*
X2440431Y372903D01*
X2440505Y373137D01*
X2440585Y373369D01*
X2440670Y373599D01*
X2440761Y373827D01*
X2440858Y374052D01*
X2440960Y374276D01*
X2441068Y374496D01*
X2441181Y374714D01*
X2441299Y374929D01*
X2441423Y375141D01*
X2441551Y375350D01*
X2441685Y375556D01*
X2441824Y375758D01*
X2441968Y375957D01*
X2442117Y376152D01*
X2442270Y376344D01*
X2442428Y376532D01*
X2442590Y376716D01*
X2442758Y376895D01*
X2442929Y377071D01*
X2443105Y377242D01*
X2443284Y377410D01*
X2443468Y377572D01*
X2443656Y377730D01*
X2443848Y377883D01*
X2444043Y378032D01*
X2444242Y378176D01*
X2444444Y378315D01*
X2444650Y378449D01*
X2444859Y378577D01*
X2445071Y378701D01*
X2445286Y378819D01*
X2445504Y378932D01*
X2445724Y379040D01*
X2445948Y379142D01*
X2446173Y379239D01*
X2446401Y379330D01*
X2446631Y379415D01*
X2446863Y379495D01*
X2447097Y379569D01*
X2447333Y379638D01*
X2447570Y379700D01*
X2447809Y379757D01*
X2448049Y379808D01*
X2448290Y379853D01*
X2448533Y379892D01*
X2448776Y379925D01*
X2449020Y379952D01*
X2449264Y379973D01*
X2449509Y379988D01*
X2449755Y379997D01*
X2450000Y380000D01*
X2450245Y379997D01*
X2450491Y379988D01*
X2450736Y379973D01*
X2450980Y379952D01*
X2451224Y379925D01*
X2451467Y379892D01*
X2451710Y379853D01*
X2451951Y379808D01*
X2452191Y379757D01*
X2452430Y379700D01*
X2452667Y379638D01*
X2452903Y379569D01*
X2453137Y379495D01*
X2453369Y379415D01*
X2453599Y379330D01*
X2453827Y379239D01*
X2454052Y379142D01*
X2454276Y379040D01*
X2454496Y378932D01*
X2454714Y378819D01*
X2454929Y378701D01*
X2455141Y378577D01*
X2455350Y378449D01*
X2455556Y378315D01*
X2455758Y378176D01*
X2455957Y378032D01*
X2456152Y377883D01*
X2456344Y377730D01*
X2456532Y377572D01*
X2456716Y377410D01*
X2456895Y377242D01*
X2457071Y377071D01*
X2457242Y376895D01*
X2457410Y376716D01*
X2457572Y376532D01*
X2457730Y376344D01*
X2457883Y376152D01*
X2458032Y375957D01*
X2458176Y375758D01*
X2458315Y375556D01*
X2458449Y375350D01*
X2458577Y375141D01*
X2458701Y374929D01*
X2458819Y374714D01*
X2458932Y374496D01*
X2459040Y374276D01*
X2459142Y374052D01*
X2459239Y373827D01*
X2459330Y373599D01*
X2459415Y373369D01*
X2459495Y373137D01*
X2459569Y372903D01*
X2459638Y372667D01*
X2459700Y372430D01*
X2459757Y372191D01*
X2459808Y371951D01*
X2459853Y371710D01*
X2459892Y371467D01*
X2459925Y371224D01*
X2459952Y370980D01*
X2459973Y370736D01*
X2459988Y370491D01*
X2459997Y370245D01*
X2460000Y370000D01*
X2459997Y369755D01*
X2459988Y369509D01*
X2459973Y369264D01*
X2459952Y369020D01*
X2459925Y368776D01*
X2459892Y368533D01*
X2459853Y368290D01*
X2459808Y368049D01*
X2459757Y367809D01*
X2459700Y367570D01*
X2459638Y367333D01*
X2459569Y367097D01*
X2459495Y366863D01*
X2459415Y366631D01*
X2459330Y366401D01*
X2459239Y366173D01*
X2459142Y365948D01*
X2459040Y365724D01*
X2458932Y365504D01*
X2458819Y365286D01*
X2458701Y365071D01*
X2458577Y364859D01*
X2458449Y364650D01*
X2458315Y364444D01*
X2458176Y364242D01*
X2458032Y364043D01*
X2457883Y363848D01*
X2457730Y363656D01*
X2457572Y363468D01*
X2457410Y363284D01*
X2457242Y363105D01*
X2457071Y362929D01*
X2456895Y362758D01*
X2456716Y362590D01*
X2456532Y362428D01*
X2456344Y362270D01*
X2456152Y362117D01*
X2455957Y361968D01*
X2455758Y361824D01*
X2455556Y361685D01*
X2455350Y361551D01*
X2455141Y361423D01*
X2454929Y361299D01*
X2454714Y361181D01*
X2454496Y361068D01*
X2454276Y360960D01*
X2454052Y360858D01*
X2453827Y360761D01*
X2453599Y360670D01*
X2453369Y360585D01*
X2453137Y360505D01*
X2452903Y360431D01*
X2452667Y360362D01*
X2452430Y360300D01*
X2452191Y360243D01*
X2451951Y360192D01*
X2451710Y360147D01*
X2451467Y360108D01*
X2451224Y360075D01*
X2450980Y360048D01*
X2450736Y360027D01*
X2450491Y360012D01*
X2450245Y360003D01*
X2450000Y360000D01*
X2449755Y360003D01*
X2449509Y360012D01*
X2449264Y360027D01*
X2449020Y360048D01*
X2448776Y360075D01*
X2448533Y360108D01*
X2448290Y360147D01*
X2448049Y360192D01*
X2447809Y360243D01*
X2447570Y360300D01*
X2447333Y360362D01*
X2447097Y360431D01*
X2446863Y360505D01*
X2446631Y360585D01*
X2446401Y360670D01*
X2446173Y360761D01*
X2445948Y360858D01*
X2445724Y360960D01*
X2445504Y361068D01*
X2445286Y361181D01*
X2445071Y361299D01*
X2444859Y361423D01*
X2444650Y361551D01*
X2444444Y361685D01*
X2444242Y361824D01*
X2444043Y361968D01*
X2443848Y362117D01*
X2443656Y362270D01*
X2443468Y362428D01*
X2443284Y362590D01*
X2443105Y362758D01*
X2442929Y362929D01*
X2442758Y363105D01*
X2442590Y363284D01*
X2442428Y363468D01*
X2442270Y363656D01*
X2442117Y363848D01*
X2441968Y364043D01*
X2441824Y364242D01*
X2441685Y364444D01*
X2441551Y364650D01*
X2441423Y364859D01*
X2441299Y365071D01*
X2441181Y365286D01*
X2441068Y365504D01*
X2440960Y365724D01*
X2440858Y365948D01*
X2440761Y366173D01*
X2440670Y366401D01*
X2440585Y366631D01*
X2440505Y366863D01*
X2440431Y367097D01*
X2440362Y367333D01*
X2440300Y367570D01*
X2440243Y367809D01*
X2440192Y368049D01*
X2440147Y368290D01*
X2440108Y368533D01*
X2440075Y368776D01*
X2440048Y369020D01*
X2440027Y369264D01*
X2440012Y369509D01*
X2440003Y369755D01*
X2440000Y370000D01*
X310000Y590000D02*
X310003Y590245D01*
X310012Y590491D01*
X310027Y590736D01*
X310048Y590980D01*
X310075Y591224D01*
X310108Y591467D01*
X310147Y591710D01*
X310192Y591951D01*
X310243Y592191D01*
X310300Y592430D01*
X310362Y592667D01*
X310431Y592903D01*
X310505Y593137D01*
X310585Y593369D01*
X310670Y593599D01*
X310761Y593827D01*
X310858Y594052D01*
X310960Y594276D01*
X311068Y594496D01*
X311181Y594714D01*
X311299Y594929D01*
X311423Y595141D01*
X311551Y595350D01*
X311685Y595556D01*
X311824Y595758D01*
X311968Y595957D01*
X312117Y596152D01*
X312270Y596344D01*
X312428Y596532D01*
X312590Y596716D01*
X312758Y596895D01*
X312929Y597071D01*
X313105Y597242D01*
X313284Y597410D01*
X313468Y597572D01*
X313656Y597730D01*
X313848Y597883D01*
X314043Y598032D01*
X314242Y598176D01*
X314444Y598315D01*
X314650Y598449D01*
X314859Y598577D01*
X315071Y598701D01*
X315286Y598819D01*
X315504Y598932D01*
X315724Y599040D01*
X315948Y599142D01*
X316173Y599239D01*
X316401Y599330D01*
X316631Y599415D01*
X316863Y599495D01*
X317097Y599569D01*
X317333Y599638D01*
X317570Y599700D01*
X317809Y599757D01*
X318049Y599808D01*
X318290Y599853D01*
X318533Y599892D01*
X318776Y599925D01*
X319020Y599952D01*
X319264Y599973D01*
X319509Y599988D01*
X319755Y599997D01*
X320000Y600000D01*
X320245Y599997D01*
X320491Y599988D01*
X320736Y599973D01*
X320980Y599952D01*
X321224Y599925D01*
X321467Y599892D01*
X321710Y599853D01*
X321951Y599808D01*
X322191Y599757D01*
X322430Y599700D01*
X322667Y599638D01*
X322903Y599569D01*
X323137Y599495D01*
X323369Y599415D01*
X323599Y599330D01*
X323827Y599239D01*
X324052Y599142D01*
X324276Y599040D01*
X324496Y598932D01*
X324714Y598819D01*
X324929Y598701D01*
X325141Y598577D01*
X325350Y598449D01*
X325556Y598315D01*
X325758Y598176D01*
X325957Y598032D01*
X326152Y597883D01*
X326344Y597730D01*
X326532Y597572D01*
X326716Y597410D01*
X326895Y597242D01*
X327071Y597071D01*
X327242Y596895D01*
X327410Y596716D01*
X327572Y596532D01*
X327730Y596344D01*
X327883Y596152D01*
X328032Y595957D01*
X328176Y595758D01*
X328315Y595556D01*
X328449Y595350D01*
X328577Y595141D01*
X328701Y594929D01*
X328819Y594714D01*
X328932Y594496D01*
X329040Y594276D01*
X329142Y594052D01*
X329239Y593827D01*
X329330Y593599D01*
X329415Y593369D01*
X329495Y593137D01*
X329569Y592903D01*
X329638Y592667D01*
X329700Y592430D01*
X329757Y592191D01*
X329808Y591951D01*
X329853Y591710D01*
X329892Y591467D01*
X329925Y591224D01*
X329952Y590980D01*
X329973Y590736D01*
X329988Y590491D01*
X329997Y590245D01*
X330000Y590000D01*
X329997Y589755D01*
X329988Y589509D01*
X329973Y589264D01*
X329952Y589020D01*
X329925Y588776D01*
X329892Y588533D01*
X329853Y588290D01*
X329808Y588049D01*
X329757Y587809D01*
X329700Y587570D01*
X329638Y587333D01*
X329569Y587097D01*
X329495Y586863D01*
X329415Y586631D01*
X329330Y586401D01*
X329239Y586173D01*
X329142Y585948D01*
X329040Y585724D01*
X328932Y585504D01*
X328819Y585286D01*
X328701Y585071D01*
X328577Y584859D01*
X328449Y584650D01*
X328315Y584444D01*
X328176Y584242D01*
X328032Y584043D01*
X327883Y583848D01*
X327730Y583656D01*
X327572Y583468D01*
X327410Y583284D01*
X327242Y583105D01*
X327071Y582929D01*
X326895Y582758D01*
X326716Y582590D01*
X326532Y582428D01*
X326344Y582270D01*
X326152Y582117D01*
X325957Y581968D01*
X325758Y581824D01*
X325556Y581685D01*
X325350Y581551D01*
X325141Y581423D01*
X324929Y581299D01*
X324714Y581181D01*
X324496Y581068D01*
X324276Y580960D01*
X324052Y580858D01*
X323827Y580761D01*
X323599Y580670D01*
X323369Y580585D01*
X323137Y580505D01*
X322903Y580431D01*
X322667Y580362D01*
X322430Y580300D01*
X322191Y580243D01*
X321951Y580192D01*
X321710Y580147D01*
X321467Y580108D01*
X321224Y580075D01*
X320980Y580048D01*
X320736Y580027D01*
X320491Y580012D01*
X320245Y580003D01*
X320000Y580000D01*
X319755Y580003D01*
X319509Y580012D01*
X319264Y580027D01*
X319020Y580048D01*
X318776Y580075D01*
X318533Y580108D01*
X318290Y580147D01*
X318049Y580192D01*
X317809Y580243D01*
X317570Y580300D01*
X317333Y580362D01*
X317097Y580431D01*
X316863Y580505D01*
X316631Y580585D01*
X316401Y580670D01*
X316173Y580761D01*
X315948Y580858D01*
X315724Y580960D01*
X315504Y581068D01*
X315286Y581181D01*
X315071Y581299D01*
X314859Y581423D01*
X314650Y581551D01*
X314444Y581685D01*
X314242Y581824D01*
X314043Y581968D01*
X313848Y582117D01*
X313656Y582270D01*
X313468Y582428D01*
X313284Y582590D01*
X313105Y582758D01*
X312929Y582929D01*
X312758Y583105D01*
X312590Y583284D01*
X312428Y583468D01*
X312270Y583656D01*
X312117Y583848D01*
X311968Y584043D01*
X311824Y584242D01*
X311685Y584444D01*
X311551Y584650D01*
X311423Y584859D01*
X311299Y585071D01*
X311181Y585286D01*
X311068Y585504D01*
X310960Y585724D01*
X310858Y585948D01*
X310761Y586173D01*
X310670Y586401D01*
X310585Y586631D01*
X310505Y586863D01*
X310431Y587097D01*
X310362Y587333D01*
X310300Y587570D01*
X310243Y587809D01*
X310192Y588049D01*
X310147Y588290D01*
X310108Y588533D01*
X310075Y588776D01*
X310048Y589020D01*
X310027Y589264D01*
X310012Y589509D01*
X310003Y589755D01*
X310000Y590000D01*
X2560000Y590000D02*
X2560003Y590245D01*
X2560012Y590491D01*
X2560027Y590736D01*
X2560048Y590980D01*
X2560075Y591224D01*
X2560108Y591467D01*
X2560147Y591710D01*
X2560192Y591951D01*
X2560243Y592191D01*
X2560300Y592430D01*
X2560362Y592667D01*
X2560431Y592903D01*
X2560505Y593137D01*
X2560585Y593369D01*
X2560670Y593599D01*
X2560761Y593827D01*
X2560858Y594052D01*
X2560960Y594276D01*
X2561068Y594496D01*
X2561181Y594714D01*
X2561299Y594929D01*
X2561423Y595141D01*
X2561551Y595350D01*
X2561685Y595556D01*
X2561824Y595758D01*
X2561968Y595957D01*
X2562117Y596152D01*
X2562270Y596344D01*
X2562428Y596532D01*
X2562590Y596716D01*
X2562758Y596895D01*
X2562929Y597071D01*
X2563105Y597242D01*
X2563284Y597410D01*
X2563468Y597572D01*
X2563656Y597730D01*
X2563848Y597883D01*
X2564043Y598032D01*
X2564242Y598176D01*
X2564444Y598315D01*
X2564650Y598449D01*
X2564859Y598577D01*
X2565071Y598701D01*
X2565286Y598819D01*
X2565504Y598932D01*
X2565724Y599040D01*
X2565948Y599142D01*
X2566173Y599239D01*
X2566401Y599330D01*
X2566631Y599415D01*
X2566863Y599495D01*
X2567097Y599569D01*
X2567333Y599638D01*
X2567570Y599700D01*
X2567809Y599757D01*
X2568049Y599808D01*
X2568290Y599853D01*
X2568533Y599892D01*
X2568776Y599925D01*
X2569020Y599952D01*
X2569264Y599973D01*
X2569509Y599988D01*
X2569755Y599997D01*
X2570000Y600000D01*
X2570245Y599997D01*
X2570491Y599988D01*
X2570736Y599973D01*
X2570980Y599952D01*
X2571224Y599925D01*
X2571467Y599892D01*
X2571710Y599853D01*
X2571951Y599808D01*
X2572191Y599757D01*
X2572430Y599700D01*
X2572667Y599638D01*
X2572903Y599569D01*
X2573137Y599495D01*
X2573369Y599415D01*
X2573599Y599330D01*
X2573827Y599239D01*
X2574052Y599142D01*
X2574276Y599040D01*
X2574496Y598932D01*
X2574714Y598819D01*
X2574929Y598701D01*
X2575141Y598577D01*
X2575350Y598449D01*
X2575556Y598315D01*
X2575758Y598176D01*
X2575957Y598032D01*
X2576152Y597883D01*
X2576344Y597730D01*
X2576532Y597572D01*
X2576716Y597410D01*
X2576895Y597242D01*
X2577071Y597071D01*
X2577242Y596895D01*
X2577410Y596716D01*
X2577572Y596532D01*
X2577730Y596344D01*
X2577883Y596152D01*
X2578032Y595957D01*
X2578176Y595758D01*
X2578315Y595556D01*
X2578449Y595350D01*
X2578577Y595141D01*
X2578701Y594929D01*
X2578819Y594714D01*
X2578932Y594496D01*
X2579040Y594276D01*
X2579142Y594052D01*
X2579239Y593827D01*
X2579330Y593599D01*
X2579415Y593369D01*
X2579495Y593137D01*
X2579569Y592903D01*
X2579638Y592667D01*
X2579700Y592430D01*
X2579757Y592191D01*
X2579808Y591951D01*
X2579853Y591710D01*
X2579892Y591467D01*
X2579925Y591224D01*
X2579952Y590980D01*
X2579973Y590736D01*
X2579988Y590491D01*
X2579997Y590245D01*
X2580000Y590000D01*
X2579997Y589755D01*
X2579988Y589509D01*
X2579973Y589264D01*
X2579952Y589020D01*
X2579925Y588776D01*
X2579892Y588533D01*
X2579853Y588290D01*
X2579808Y588049D01*
X2579757Y587809D01*
X2579700Y587570D01*
X2579638Y587333D01*
X2579569Y587097D01*
X2579495Y586863D01*
X2579415Y586631D01*
X2579330Y586401D01*
X2579239Y586173D01*
X2579142Y585948D01*
X2579040Y585724D01*
X2578932Y585504D01*
X2578819Y585286D01*
X2578701Y585071D01*
X2578577Y584859D01*
X2578449Y584650D01*
X2578315Y584444D01*
X2578176Y584242D01*
X2578032Y584043D01*
X2577883Y583848D01*
X2577730Y583656D01*
X2577572Y583468D01*
X2577410Y583284D01*
X2577242Y583105D01*
X2577071Y582929D01*
X2576895Y582758D01*
X2576716Y582590D01*
X2576532Y582428D01*
X2576344Y582270D01*
X2576152Y582117D01*
X2575957Y581968D01*
X2575758Y581824D01*
X2575556Y581685D01*
X2575350Y581551D01*
X2575141Y581423D01*
X2574929Y581299D01*
X2574714Y581181D01*
X2574496Y581068D01*
X2574276Y580960D01*
X2574052Y580858D01*
X2573827Y580761D01*
X2573599Y580670D01*
X2573369Y580585D01*
X2573137Y580505D01*
X2572903Y580431D01*
X2572667Y580362D01*
X2572430Y580300D01*
X2572191Y580243D01*
X2571951Y580192D01*
X2571710Y580147D01*
X2571467Y580108D01*
X2571224Y580075D01*
X2570980Y580048D01*
X2570736Y580027D01*
X2570491Y580012D01*
X2570245Y580003D01*
X2570000Y580000D01*
X2569755Y580003D01*
X2569509Y580012D01*
X2569264Y580027D01*
X2569020Y580048D01*
X2568776Y580075D01*
X2568533Y580108D01*
X2568290Y580147D01*
X2568049Y580192D01*
X2567809Y580243D01*
X2567570Y580300D01*
X2567333Y580362D01*
X2567097Y580431D01*
X2566863Y580505D01*
X2566631Y580585D01*
X2566401Y580670D01*
X2566173Y580761D01*
X2565948Y580858D01*
X2565724Y580960D01*
X2565504Y581068D01*
X2565286Y581181D01*
X2565071Y581299D01*
X2564859Y581423D01*
X2564650Y581551D01*
X2564444Y581685D01*
X2564242Y581824D01*
X2564043Y581968D01*
X2563848Y582117D01*
X2563656Y582270D01*
X2563468Y582428D01*
X2563284Y582590D01*
X2563105Y582758D01*
X2562929Y582929D01*
X2562758Y583105D01*
X2562590Y583284D01*
X2562428Y583468D01*
X2562270Y583656D01*
X2562117Y583848D01*
X2561968Y584043D01*
X2561824Y584242D01*
X2561685Y584444D01*
X2561551Y584650D01*
X2561423Y584859D01*
X2561299Y585071D01*
X2561181Y585286D01*
X2561068Y585504D01*
X2560960Y585724D01*
X2560858Y585948D01*
X2560761Y586173D01*
X2560670Y586401D01*
X2560585Y586631D01*
X2560505Y586863D01*
X2560431Y587097D01*
X2560362Y587333D01*
X2560300Y587570D01*
X2560243Y587809D01*
X2560192Y588049D01*
X2560147Y588290D01*
X2560108Y588533D01*
X2560075Y588776D01*
X2560048Y589020D01*
X2560027Y589264D01*
X2560012Y589509D01*
X2560003Y589755D01*
X2560000Y590000D01*
D18*
X1060000Y720000D03*
X1100000Y720000D03*
X1450000Y720000D03*
X1560000Y720000D03*
X200000Y60000D03*
X200000Y10000D03*
X2690000Y60000D03*
X2690000Y10000D03*
D15*
X2480000Y520000D02*
X2480003Y520245D01*
X2480012Y520491D01*
X2480027Y520736D01*
X2480048Y520980D01*
X2480075Y521224D01*
X2480108Y521467D01*
X2480147Y521710D01*
X2480192Y521951D01*
X2480243Y522191D01*
X2480300Y522430D01*
X2480362Y522667D01*
X2480431Y522903D01*
X2480505Y523137D01*
X2480585Y523369D01*
X2480670Y523599D01*
X2480761Y523827D01*
X2480858Y524052D01*
X2480960Y524276D01*
X2481068Y524496D01*
X2481181Y524714D01*
X2481299Y524929D01*
X2481423Y525141D01*
X2481551Y525350D01*
X2481685Y525556D01*
X2481824Y525758D01*
X2481968Y525957D01*
X2482117Y526152D01*
X2482270Y526344D01*
X2482428Y526532D01*
X2482590Y526716D01*
X2482758Y526895D01*
X2482929Y527071D01*
X2483105Y527242D01*
X2483284Y527410D01*
X2483468Y527572D01*
X2483656Y527730D01*
X2483848Y527883D01*
X2484043Y528032D01*
X2484242Y528176D01*
X2484444Y528315D01*
X2484650Y528449D01*
X2484859Y528577D01*
X2485071Y528701D01*
X2485286Y528819D01*
X2485504Y528932D01*
X2485724Y529040D01*
X2485948Y529142D01*
X2486173Y529239D01*
X2486401Y529330D01*
X2486631Y529415D01*
X2486863Y529495D01*
X2487097Y529569D01*
X2487333Y529638D01*
X2487570Y529700D01*
X2487809Y529757D01*
X2488049Y529808D01*
X2488290Y529853D01*
X2488533Y529892D01*
X2488776Y529925D01*
X2489020Y529952D01*
X2489264Y529973D01*
X2489509Y529988D01*
X2489755Y529997D01*
X2490000Y530000D01*
X2490245Y529997D01*
X2490491Y529988D01*
X2490736Y529973D01*
X2490980Y529952D01*
X2491224Y529925D01*
X2491467Y529892D01*
X2491710Y529853D01*
X2491951Y529808D01*
X2492191Y529757D01*
X2492430Y529700D01*
X2492667Y529638D01*
X2492903Y529569D01*
X2493137Y529495D01*
X2493369Y529415D01*
X2493599Y529330D01*
X2493827Y529239D01*
X2494052Y529142D01*
X2494276Y529040D01*
X2494496Y528932D01*
X2494714Y528819D01*
X2494929Y528701D01*
X2495141Y528577D01*
X2495350Y528449D01*
X2495556Y528315D01*
X2495758Y528176D01*
X2495957Y528032D01*
X2496152Y527883D01*
X2496344Y527730D01*
X2496532Y527572D01*
X2496716Y527410D01*
X2496895Y527242D01*
X2497071Y527071D01*
X2497242Y526895D01*
X2497410Y526716D01*
X2497572Y526532D01*
X2497730Y526344D01*
X2497883Y526152D01*
X2498032Y525957D01*
X2498176Y525758D01*
X2498315Y525556D01*
X2498449Y525350D01*
X2498577Y525141D01*
X2498701Y524929D01*
X2498819Y524714D01*
X2498932Y524496D01*
X2499040Y524276D01*
X2499142Y524052D01*
X2499239Y523827D01*
X2499330Y523599D01*
X2499415Y523369D01*
X2499495Y523137D01*
X2499569Y522903D01*
X2499638Y522667D01*
X2499700Y522430D01*
X2499757Y522191D01*
X2499808Y521951D01*
X2499853Y521710D01*
X2499892Y521467D01*
X2499925Y521224D01*
X2499952Y520980D01*
X2499973Y520736D01*
X2499988Y520491D01*
X2499997Y520245D01*
X2500000Y520000D01*
X2499997Y519755D01*
X2499988Y519509D01*
X2499973Y519264D01*
X2499952Y519020D01*
X2499925Y518776D01*
X2499892Y518533D01*
X2499853Y518290D01*
X2499808Y518049D01*
X2499757Y517809D01*
X2499700Y517570D01*
X2499638Y517333D01*
X2499569Y517097D01*
X2499495Y516863D01*
X2499415Y516631D01*
X2499330Y516401D01*
X2499239Y516173D01*
X2499142Y515948D01*
X2499040Y515724D01*
X2498932Y515504D01*
X2498819Y515286D01*
X2498701Y515071D01*
X2498577Y514859D01*
X2498449Y514650D01*
X2498315Y514444D01*
X2498176Y514242D01*
X2498032Y514043D01*
X2497883Y513848D01*
X2497730Y513656D01*
X2497572Y513468D01*
X2497410Y513284D01*
X2497242Y513105D01*
X2497071Y512929D01*
X2496895Y512758D01*
X2496716Y512590D01*
X2496532Y512428D01*
X2496344Y512270D01*
X2496152Y512117D01*
X2495957Y511968D01*
X2495758Y511824D01*
X2495556Y511685D01*
X2495350Y511551D01*
X2495141Y511423D01*
X2494929Y511299D01*
X2494714Y511181D01*
X2494496Y511068D01*
X2494276Y510960D01*
X2494052Y510858D01*
X2493827Y510761D01*
X2493599Y510670D01*
X2493369Y510585D01*
X2493137Y510505D01*
X2492903Y510431D01*
X2492667Y510362D01*
X2492430Y510300D01*
X2492191Y510243D01*
X2491951Y510192D01*
X2491710Y510147D01*
X2491467Y510108D01*
X2491224Y510075D01*
X2490980Y510048D01*
X2490736Y510027D01*
X2490491Y510012D01*
X2490245Y510003D01*
X2490000Y510000D01*
X2489755Y510003D01*
X2489509Y510012D01*
X2489264Y510027D01*
X2489020Y510048D01*
X2488776Y510075D01*
X2488533Y510108D01*
X2488290Y510147D01*
X2488049Y510192D01*
X2487809Y510243D01*
X2487570Y510300D01*
X2487333Y510362D01*
X2487097Y510431D01*
X2486863Y510505D01*
X2486631Y510585D01*
X2486401Y510670D01*
X2486173Y510761D01*
X2485948Y510858D01*
X2485724Y510960D01*
X2485504Y511068D01*
X2485286Y511181D01*
X2485071Y511299D01*
X2484859Y511423D01*
X2484650Y511551D01*
X2484444Y511685D01*
X2484242Y511824D01*
X2484043Y511968D01*
X2483848Y512117D01*
X2483656Y512270D01*
X2483468Y512428D01*
X2483284Y512590D01*
X2483105Y512758D01*
X2482929Y512929D01*
X2482758Y513105D01*
X2482590Y513284D01*
X2482428Y513468D01*
X2482270Y513656D01*
X2482117Y513848D01*
X2481968Y514043D01*
X2481824Y514242D01*
X2481685Y514444D01*
X2481551Y514650D01*
X2481423Y514859D01*
X2481299Y515071D01*
X2481181Y515286D01*
X2481068Y515504D01*
X2480960Y515724D01*
X2480858Y515948D01*
X2480761Y516173D01*
X2480670Y516401D01*
X2480585Y516631D01*
X2480505Y516863D01*
X2480431Y517097D01*
X2480362Y517333D01*
X2480300Y517570D01*
X2480243Y517809D01*
X2480192Y518049D01*
X2480147Y518290D01*
X2480108Y518533D01*
X2480075Y518776D01*
X2480048Y519020D01*
X2480027Y519264D01*
X2480012Y519509D01*
X2480003Y519755D01*
X2480000Y520000D01*
X2640000Y520000D02*
X2640003Y520245D01*
X2640012Y520491D01*
X2640027Y520736D01*
X2640048Y520980D01*
X2640075Y521224D01*
X2640108Y521467D01*
X2640147Y521710D01*
X2640192Y521951D01*
X2640243Y522191D01*
X2640300Y522430D01*
X2640362Y522667D01*
X2640431Y522903D01*
X2640505Y523137D01*
X2640585Y523369D01*
X2640670Y523599D01*
X2640761Y523827D01*
X2640858Y524052D01*
X2640960Y524276D01*
X2641068Y524496D01*
X2641181Y524714D01*
X2641299Y524929D01*
X2641423Y525141D01*
X2641551Y525350D01*
X2641685Y525556D01*
X2641824Y525758D01*
X2641968Y525957D01*
X2642117Y526152D01*
X2642270Y526344D01*
X2642428Y526532D01*
X2642590Y526716D01*
X2642758Y526895D01*
X2642929Y527071D01*
X2643105Y527242D01*
X2643284Y527410D01*
X2643468Y527572D01*
X2643656Y527730D01*
X2643848Y527883D01*
X2644043Y528032D01*
X2644242Y528176D01*
X2644444Y528315D01*
X2644650Y528449D01*
X2644859Y528577D01*
X2645071Y528701D01*
X2645286Y528819D01*
X2645504Y528932D01*
X2645724Y529040D01*
X2645948Y529142D01*
X2646173Y529239D01*
X2646401Y529330D01*
X2646631Y529415D01*
X2646863Y529495D01*
X2647097Y529569D01*
X2647333Y529638D01*
X2647570Y529700D01*
X2647809Y529757D01*
X2648049Y529808D01*
X2648290Y529853D01*
X2648533Y529892D01*
X2648776Y529925D01*
X2649020Y529952D01*
X2649264Y529973D01*
X2649509Y529988D01*
X2649755Y529997D01*
X2650000Y530000D01*
X2650245Y529997D01*
X2650491Y529988D01*
X2650736Y529973D01*
X2650980Y529952D01*
X2651224Y529925D01*
X2651467Y529892D01*
X2651710Y529853D01*
X2651951Y529808D01*
X2652191Y529757D01*
X2652430Y529700D01*
X2652667Y529638D01*
X2652903Y529569D01*
X2653137Y529495D01*
X2653369Y529415D01*
X2653599Y529330D01*
X2653827Y529239D01*
X2654052Y529142D01*
X2654276Y529040D01*
X2654496Y528932D01*
X2654714Y528819D01*
X2654929Y528701D01*
X2655141Y528577D01*
X2655350Y528449D01*
X2655556Y528315D01*
X2655758Y528176D01*
X2655957Y528032D01*
X2656152Y527883D01*
X2656344Y527730D01*
X2656532Y527572D01*
X2656716Y527410D01*
X2656895Y527242D01*
X2657071Y527071D01*
X2657242Y526895D01*
X2657410Y526716D01*
X2657572Y526532D01*
X2657730Y526344D01*
X2657883Y526152D01*
X2658032Y525957D01*
X2658176Y525758D01*
X2658315Y525556D01*
X2658449Y525350D01*
X2658577Y525141D01*
X2658701Y524929D01*
X2658819Y524714D01*
X2658932Y524496D01*
X2659040Y524276D01*
X2659142Y524052D01*
X2659239Y523827D01*
X2659330Y523599D01*
X2659415Y523369D01*
X2659495Y523137D01*
X2659569Y522903D01*
X2659638Y522667D01*
X2659700Y522430D01*
X2659757Y522191D01*
X2659808Y521951D01*
X2659853Y521710D01*
X2659892Y521467D01*
X2659925Y521224D01*
X2659952Y520980D01*
X2659973Y520736D01*
X2659988Y520491D01*
X2659997Y520245D01*
X2660000Y520000D01*
X2659997Y519755D01*
X2659988Y519509D01*
X2659973Y519264D01*
X2659952Y519020D01*
X2659925Y518776D01*
X2659892Y518533D01*
X2659853Y518290D01*
X2659808Y518049D01*
X2659757Y517809D01*
X2659700Y517570D01*
X2659638Y517333D01*
X2659569Y517097D01*
X2659495Y516863D01*
X2659415Y516631D01*
X2659330Y516401D01*
X2659239Y516173D01*
X2659142Y515948D01*
X2659040Y515724D01*
X2658932Y515504D01*
X2658819Y515286D01*
X2658701Y515071D01*
X2658577Y514859D01*
X2658449Y514650D01*
X2658315Y514444D01*
X2658176Y514242D01*
X2658032Y514043D01*
X2657883Y513848D01*
X2657730Y513656D01*
X2657572Y513468D01*
X2657410Y513284D01*
X2657242Y513105D01*
X2657071Y512929D01*
X2656895Y512758D01*
X2656716Y512590D01*
X2656532Y512428D01*
X2656344Y512270D01*
X2656152Y512117D01*
X2655957Y511968D01*
X2655758Y511824D01*
X2655556Y511685D01*
X2655350Y511551D01*
X2655141Y511423D01*
X2654929Y511299D01*
X2654714Y511181D01*
X2654496Y511068D01*
X2654276Y510960D01*
X2654052Y510858D01*
X2653827Y510761D01*
X2653599Y510670D01*
X2653369Y510585D01*
X2653137Y510505D01*
X2652903Y510431D01*
X2652667Y510362D01*
X2652430Y510300D01*
X2652191Y510243D01*
X2651951Y510192D01*
X2651710Y510147D01*
X2651467Y510108D01*
X2651224Y510075D01*
X2650980Y510048D01*
X2650736Y510027D01*
X2650491Y510012D01*
X2650245Y510003D01*
X2650000Y510000D01*
X2649755Y510003D01*
X2649509Y510012D01*
X2649264Y510027D01*
X2649020Y510048D01*
X2648776Y510075D01*
X2648533Y510108D01*
X2648290Y510147D01*
X2648049Y510192D01*
X2647809Y510243D01*
X2647570Y510300D01*
X2647333Y510362D01*
X2647097Y510431D01*
X2646863Y510505D01*
X2646631Y510585D01*
X2646401Y510670D01*
X2646173Y510761D01*
X2645948Y510858D01*
X2645724Y510960D01*
X2645504Y511068D01*
X2645286Y511181D01*
X2645071Y511299D01*
X2644859Y511423D01*
X2644650Y511551D01*
X2644444Y511685D01*
X2644242Y511824D01*
X2644043Y511968D01*
X2643848Y512117D01*
X2643656Y512270D01*
X2643468Y512428D01*
X2643284Y512590D01*
X2643105Y512758D01*
X2642929Y512929D01*
X2642758Y513105D01*
X2642590Y513284D01*
X2642428Y513468D01*
X2642270Y513656D01*
X2642117Y513848D01*
X2641968Y514043D01*
X2641824Y514242D01*
X2641685Y514444D01*
X2641551Y514650D01*
X2641423Y514859D01*
X2641299Y515071D01*
X2641181Y515286D01*
X2641068Y515504D01*
X2640960Y515724D01*
X2640858Y515948D01*
X2640761Y516173D01*
X2640670Y516401D01*
X2640585Y516631D01*
X2640505Y516863D01*
X2640431Y517097D01*
X2640362Y517333D01*
X2640300Y517570D01*
X2640243Y517809D01*
X2640192Y518049D01*
X2640147Y518290D01*
X2640108Y518533D01*
X2640075Y518776D01*
X2640048Y519020D01*
X2640027Y519264D01*
X2640012Y519509D01*
X2640003Y519755D01*
X2640000Y520000D01*
D16*
X450000Y730000D03*
X405042Y730000D03*
D17*
X462446Y705108D03*
X392342Y705108D03*
D16*
X2440000Y730000D03*
X2484958Y730000D03*
D17*
X2427554Y705108D03*
X2497658Y705108D03*
D19*
X1277112Y441960D03*
X2602992Y422148D03*
X2333244Y422148D03*
X435864Y345948D03*
X2680716Y365760D03*
X2532888Y365760D03*
X2615184Y467868D03*
X2689860Y374904D03*
X463296Y394716D03*
X2462784Y708660D03*
X2414016Y659892D03*
X1376172Y691896D03*
X2499360Y569976D03*
X2045208Y560832D03*
X2563368Y653796D03*
X347472Y589788D03*
X1252728Y708660D03*
X1862328Y548640D03*
X1171956Y420624D03*
X1850136Y574548D03*
X489204Y420624D03*
X1840992Y573024D03*
X2208276Y537972D03*
X1926336Y560832D03*
X1789176Y547116D03*
X1789176Y566928D03*
X1761744Y566928D03*
M02*
