M48
;GenerationSoftware,Autodesk,EAGLE,9.7.0*%
;CreationDate,2023-03-21T21:22:22Z*%
FMAT,2
ICI,OFF
METRIC,TZ,000.000
T6C0.350
T5C0.991
T4C1.016
T3C1.200
T2C1.295
T1C2.007
%
G90
M71
T1
X106000Y72000
X158000Y54905
X158000Y51095
X145000Y72000
X20000Y8000
X20000Y13000
X269000Y8000
X269000Y13000
X156000Y72000
X110000Y72000
T2
X255890Y70550
X262793Y69332
X33110Y70550
X26207Y69332
X242755Y70511
X39234Y70511
X46245Y70511
X249766Y70511
T3
X42000Y11000
X192000Y72000
X250000Y45000
X264000Y45000
X264000Y59000
X240000Y56000
X49000Y56000
X109000Y62000
X24000Y11000
X33000Y25000
X20000Y32000
X46000Y30000
X265000Y11000
X247000Y11000
X256000Y25000
X243000Y30000
X269000Y33000
X49000Y72000
X240000Y72000
X79000Y45000
X109000Y45000
X210000Y44000
X180000Y44000
X180000Y62000
X210000Y62000
X25000Y45000
X39000Y45000
X25000Y59000
X129000Y72000
T4
X122300Y61620
X137540Y46380
X135000Y46380
X132460Y46380
X129920Y46380
X127380Y46380
X124840Y46380
X140080Y61620
X124840Y61620
X127380Y61620
X129920Y61620
X132460Y61620
X135000Y61620
X137540Y61620
X122300Y46380
X142620Y61620
X145160Y61620
X147700Y61620
X150240Y61620
X150240Y46380
X147700Y46380
X145160Y46380
X142620Y46380
X140080Y46380
T5
X257572Y72781
X27000Y72000
X31427Y72781
X262000Y72000
X45000Y73000
X40504Y73000
X244000Y73000
X248496Y73000
T6
X122834Y73914
X255270Y62636
X246126Y36424
X34747Y58979
X245669Y71171
X148742Y62789
X153314Y60198
X201473Y53492
X162763Y54102
X190957Y54102
X143256Y54559
X45110Y36271
X189738Y57302
X222809Y54712
X189890Y54864
X181204Y57302
X49682Y41453
X43586Y35814
X162611Y47396
X179680Y56693
X145694Y65227
X230734Y52883
X186233Y46330
X60808Y73304
X224333Y54102
M30