M48
;GenerationSoftware,Autodesk,EAGLE,9.7.0*%
;CreationDate,2023-03-12T15:07:08Z*%
FMAT,2
ICI,OFF
METRIC,TZ,000.000
T6C0.350
T5C0.991
T4C1.016
T3C1.200
T2C1.295
T1C2.007
%
G90
M71
T1
X269000Y8000
X158000Y54905
X20000Y13000
X106000Y74000
X269000Y13000
X156000Y74000
X145000Y74000
X110000Y74000
X158000Y51095
X20000Y8000
T2
X38110Y68550
X31207Y67332
X250890Y68550
X257793Y67332
T3
X25000Y59000
X129000Y74000
X192000Y74000
X39000Y45000
X250000Y45000
X49000Y56000
X240000Y56000
X264000Y59000
X264000Y45000
X24000Y11000
X42000Y11000
X33000Y25000
X20000Y32000
X46000Y30000
X265000Y11000
X247000Y11000
X256000Y25000
X243000Y30000
X269000Y33000
X49000Y74000
X240000Y74000
X265000Y66000
X79000Y45000
X109000Y45000
X210000Y44000
X180000Y44000
X180000Y62000
X210000Y62000
X25000Y45000
T4
X129920Y46380
X127380Y46380
X124840Y46380
X122300Y46380
X132460Y46380
X122300Y61620
X124840Y61620
X127380Y61620
X129920Y61620
X132460Y61620
X135000Y61620
X137540Y61620
X140080Y61620
X142620Y61620
X145160Y61620
X147700Y61620
X150240Y61620
X150240Y46380
X147700Y46380
X145160Y46380
X142620Y46380
X140080Y46380
X137540Y46380
X135000Y46380
T5
X32000Y70000
X36428Y70781
X252572Y70781
X257000Y70000
T6
X45110Y36271
X229667Y54407
X141122Y41148
X201930Y54407
X195072Y52883
X189281Y50444
X145237Y64313
X167945Y56083
X193396Y56083
X210312Y41148
X189890Y54864
X159106Y48158
X180137Y57302
X227838Y53797
X160630Y48768
X181204Y54864
X247040Y34595
X139903Y53797
X257270Y64636
X123749Y50444
X25298Y50444
X120244Y63703
X138989Y42367
M30