G04 EAGLE Gerber RS-274X export*
G75*
%MOMM*%
%FSLAX34Y34*%
%LPD*%
%INTop Copper*%
%IPPOS*%
%AMOC8*
5,1,8,0,0,1.08239X$1,22.5*%
G01*
G04 Define Apertures*
%ADD10C,1.879600*%
%ADD11R,0.300000X0.700000*%
%ADD12R,0.300000X1.000000*%
%ADD13C,3.009900*%
%ADD14C,0.203200*%
%ADD15R,0.203200X0.203200*%
%ADD16C,1.498600*%
%ADD17C,1.943100*%
%ADD18P,3.4091X8X22.5*%
%ADD19C,0.152400*%
%ADD20C,0.756400*%
D10*
X1223000Y616200D03*
X1248400Y616200D03*
X1273800Y616200D03*
X1299200Y616200D03*
X1324600Y616200D03*
X1350000Y616200D03*
X1375400Y616200D03*
X1400800Y616200D03*
X1426200Y616200D03*
X1451600Y616200D03*
X1477000Y616200D03*
X1502400Y616200D03*
X1502400Y463800D03*
X1477000Y463800D03*
X1451600Y463800D03*
X1426200Y463800D03*
X1400800Y463800D03*
X1375400Y463800D03*
X1350000Y463800D03*
X1324600Y463800D03*
X1299200Y463800D03*
X1273800Y463800D03*
X1248400Y463800D03*
X1223000Y463800D03*
D11*
X450000Y344000D03*
X445000Y344000D03*
X440000Y344000D03*
X435000Y344000D03*
X430000Y344000D03*
D12*
X457900Y370500D03*
X422100Y370500D03*
D11*
X2460000Y354000D03*
X2455000Y354000D03*
X2450000Y354000D03*
X2445000Y354000D03*
X2440000Y354000D03*
D12*
X2467900Y380500D03*
X2432100Y380500D03*
D13*
X1595050Y510950D02*
X1564951Y510950D01*
X1564951Y549050D02*
X1595050Y549050D01*
D14*
X2550950Y440000D02*
X2595400Y440000D01*
X2589050Y433650D02*
X2544600Y433650D01*
X2557300Y427300D02*
X2595400Y427300D01*
X2589050Y446350D02*
X2544600Y446350D01*
X2557300Y452700D02*
X2595400Y452700D01*
X2582700Y459050D02*
X2544600Y459050D01*
X2544600Y420950D02*
X2582700Y420950D01*
X2544600Y414600D02*
X2544600Y459050D01*
X2595400Y452700D02*
X2595400Y414600D01*
D15*
X2595400Y414600D03*
X2544600Y414600D03*
D14*
X345400Y440000D02*
X300950Y440000D01*
X294600Y433650D02*
X339050Y433650D01*
X345400Y427300D02*
X307300Y427300D01*
X294600Y446350D02*
X339050Y446350D01*
X345400Y452700D02*
X307300Y452700D01*
X294600Y459050D02*
X332700Y459050D01*
X332700Y420950D02*
X294600Y420950D01*
X294600Y414600D02*
X294600Y459050D01*
X345400Y452700D02*
X345400Y414600D01*
D15*
X345400Y414600D03*
X294600Y414600D03*
D16*
X320000Y700000D03*
X364275Y707807D03*
D17*
X312066Y673325D03*
X381105Y685498D03*
D14*
X240000Y539050D02*
X240000Y494600D01*
X233650Y500950D02*
X233650Y545400D01*
X227300Y532700D02*
X227300Y494600D01*
X246350Y500950D02*
X246350Y545400D01*
X252700Y532700D02*
X252700Y494600D01*
X259050Y507300D02*
X259050Y545400D01*
X220950Y545400D02*
X220950Y507300D01*
X214600Y545400D02*
X259050Y545400D01*
X252700Y494600D02*
X214600Y494600D01*
D15*
X214600Y494600D03*
X214600Y545400D03*
D16*
X2570000Y700000D03*
X2525725Y707807D03*
D17*
X2577934Y673325D03*
X2508896Y685498D03*
D14*
X400000Y545400D02*
X400000Y500950D01*
X406350Y494600D02*
X406350Y539050D01*
X412700Y545400D02*
X412700Y507300D01*
X393650Y494600D02*
X393650Y539050D01*
X387300Y545400D02*
X387300Y507300D01*
X380950Y494600D02*
X380950Y532700D01*
X419050Y532700D02*
X419050Y494600D01*
X425400Y494600D02*
X380950Y494600D01*
X387300Y545400D02*
X425400Y545400D01*
D15*
X425400Y545400D03*
X425400Y494600D03*
D14*
X440000Y199050D02*
X440000Y154600D01*
X433650Y160950D02*
X433650Y205400D01*
X427300Y192700D02*
X427300Y154600D01*
X446350Y160950D02*
X446350Y205400D01*
X452700Y192700D02*
X452700Y154600D01*
X459050Y167300D02*
X459050Y205400D01*
X420950Y205400D02*
X420950Y167300D01*
X414600Y205400D02*
X459050Y205400D01*
X452700Y154600D02*
X414600Y154600D01*
D15*
X414600Y154600D03*
X414600Y205400D03*
D14*
X2440000Y205400D02*
X2440000Y160950D01*
X2446350Y154600D02*
X2446350Y199050D01*
X2452700Y205400D02*
X2452700Y167300D01*
X2433650Y154600D02*
X2433650Y199050D01*
X2427300Y205400D02*
X2427300Y167300D01*
X2420950Y154600D02*
X2420950Y192700D01*
X2459050Y192700D02*
X2459050Y154600D01*
X2465400Y154600D02*
X2420950Y154600D01*
X2427300Y205400D02*
X2465400Y205400D01*
D15*
X2465400Y205400D03*
X2465400Y154600D03*
D14*
X339050Y590000D02*
X294600Y590000D01*
X300950Y596350D02*
X345400Y596350D01*
X332700Y602700D02*
X294600Y602700D01*
X300950Y583650D02*
X345400Y583650D01*
X332700Y577300D02*
X294600Y577300D01*
X307300Y570950D02*
X345400Y570950D01*
X345400Y609050D02*
X307300Y609050D01*
X345400Y615400D02*
X345400Y570950D01*
X294600Y577300D02*
X294600Y615400D01*
D15*
X294600Y615400D03*
X345400Y615400D03*
D14*
X2544600Y590000D02*
X2589050Y590000D01*
X2595400Y596350D02*
X2550950Y596350D01*
X2544600Y602700D02*
X2582700Y602700D01*
X2595400Y583650D02*
X2550950Y583650D01*
X2544600Y577300D02*
X2582700Y577300D01*
X2595400Y570950D02*
X2557300Y570950D01*
X2557300Y609050D02*
X2595400Y609050D01*
X2595400Y615400D02*
X2595400Y570950D01*
X2544600Y577300D02*
X2544600Y615400D01*
D15*
X2544600Y615400D03*
X2595400Y615400D03*
D18*
X1060000Y740000D03*
X1100000Y740000D03*
X1450000Y740000D03*
X1560000Y740000D03*
X2690000Y130000D03*
X2690000Y80000D03*
X200000Y130000D03*
X200000Y80000D03*
D14*
X2490000Y494600D02*
X2490000Y539050D01*
X2483650Y545400D02*
X2483650Y500950D01*
X2477300Y494600D02*
X2477300Y532700D01*
X2496350Y545400D02*
X2496350Y500950D01*
X2502700Y494600D02*
X2502700Y532700D01*
X2509050Y545400D02*
X2509050Y507300D01*
X2470950Y507300D02*
X2470950Y545400D01*
X2464600Y545400D02*
X2509050Y545400D01*
X2502700Y494600D02*
X2464600Y494600D01*
D15*
X2464600Y494600D03*
X2464600Y545400D03*
D14*
X2650000Y545400D02*
X2650000Y500950D01*
X2656350Y494600D02*
X2656350Y539050D01*
X2662700Y545400D02*
X2662700Y507300D01*
X2643650Y494600D02*
X2643650Y539050D01*
X2637300Y545400D02*
X2637300Y507300D01*
X2630950Y494600D02*
X2630950Y532700D01*
X2669050Y532700D02*
X2669050Y494600D01*
X2675400Y494600D02*
X2630950Y494600D01*
X2637300Y545400D02*
X2675400Y545400D01*
D15*
X2675400Y545400D03*
X2675400Y494600D03*
D19*
X451104Y362712D02*
X451104Y344424D01*
X450000Y344000D01*
X2459736Y355092D02*
X2459736Y381000D01*
X2296668Y544068D01*
X2459736Y355092D02*
X2460000Y354000D01*
D20*
X451104Y362712D03*
X2296668Y544068D03*
D19*
X435864Y364236D02*
X435864Y344424D01*
X435864Y364236D02*
X539496Y467868D01*
X1200912Y467868D01*
X1217676Y451104D01*
X1235964Y451104D01*
X1248156Y463296D01*
X435864Y344424D02*
X435000Y344000D01*
X1248156Y463296D02*
X1248400Y463800D01*
X2444496Y377952D02*
X2444496Y355092D01*
X2444496Y377952D02*
X2417064Y405384D01*
X1417320Y405384D01*
X1411224Y411480D01*
X2444496Y355092D02*
X2445000Y354000D01*
D20*
X1411224Y411480D03*
D19*
X2455164Y376428D02*
X2455164Y355092D01*
X2455164Y376428D02*
X2287524Y544068D01*
X2019300Y544068D01*
X2455164Y355092D02*
X2455000Y354000D01*
D20*
X2019300Y544068D03*
D19*
X2439924Y362712D02*
X2439924Y355092D01*
X2439924Y362712D02*
X2412492Y390144D01*
X2412492Y394716D01*
X2404872Y402336D01*
X1411224Y402336D01*
X1389888Y423672D01*
X2439924Y355092D02*
X2440000Y354000D01*
D20*
X1389888Y423672D03*
D19*
X445008Y368808D02*
X445008Y344424D01*
X445008Y368808D02*
X509016Y432816D01*
X1344168Y432816D01*
X1374648Y463296D01*
X445008Y344424D02*
X445000Y344000D01*
X1374648Y463296D02*
X1375400Y463800D01*
X429768Y362712D02*
X429768Y344424D01*
X429768Y362712D02*
X542544Y475488D01*
X1389888Y475488D01*
X1400556Y464820D01*
X430000Y344000D02*
X429768Y344424D01*
X1400556Y464820D02*
X1400800Y463800D01*
X440436Y342900D02*
X440436Y339852D01*
X443484Y336804D01*
X451104Y336804D01*
X477012Y362712D01*
X477012Y394716D01*
X512064Y429768D01*
X1467612Y429768D01*
X1501140Y463296D01*
X440436Y342900D02*
X440000Y344000D01*
X1501140Y463296D02*
X1502400Y463800D01*
X2449068Y377952D02*
X2449068Y355092D01*
X2449068Y377952D02*
X2295144Y531876D01*
X1987296Y531876D01*
X1964436Y554736D01*
X1827276Y554736D01*
X1748028Y475488D01*
X1488948Y475488D01*
X1478280Y464820D01*
X2449068Y355092D02*
X2450000Y354000D01*
X1478280Y464820D02*
X1477000Y463800D01*
X294132Y615696D02*
X294132Y693420D01*
X359664Y758952D01*
X1066800Y758952D01*
X1080516Y745236D01*
X1080516Y733044D01*
X1176528Y637032D01*
X1202436Y637032D01*
X294600Y615400D02*
X294132Y615696D01*
D20*
X1202436Y637032D03*
D19*
X367284Y452628D02*
X345948Y452628D01*
X367284Y452628D02*
X405384Y490728D01*
X1123188Y490728D01*
X1248156Y615696D01*
X345948Y452628D02*
X307300Y452700D01*
X1248156Y615696D02*
X1248400Y616200D01*
X480060Y545592D02*
X425196Y545592D01*
X480060Y545592D02*
X487680Y537972D01*
X1127760Y537972D01*
X1217676Y627888D01*
X1313688Y627888D01*
X1324356Y617220D01*
X425400Y545400D02*
X425196Y545592D01*
X1324356Y617220D02*
X1324600Y616200D01*
X1348740Y615696D02*
X1237488Y504444D01*
X252984Y504444D02*
X252700Y494600D01*
X1348740Y615696D02*
X1350000Y616200D01*
D20*
X252984Y504444D03*
X1237488Y504444D03*
D19*
X2566416Y640080D02*
X2572700Y646364D01*
X2566416Y640080D02*
X1482852Y640080D01*
X1464564Y621792D01*
X1464564Y611124D01*
X1456944Y603504D01*
X1414272Y603504D01*
X1402080Y615696D01*
X1400800Y616200D01*
D20*
X2572700Y646364D03*
D19*
X1476756Y615696D02*
X1399032Y537972D01*
X1476756Y615696D02*
X1477000Y616200D01*
D20*
X1399032Y537972D03*
D19*
X358140Y699516D02*
X320040Y699516D01*
X358140Y699516D02*
X361188Y696468D01*
X373380Y696468D01*
X399288Y722376D01*
X594360Y722376D01*
X624840Y752856D01*
X1021080Y752856D01*
X1143000Y630936D01*
X1437132Y630936D01*
X1450848Y617220D01*
X320040Y699516D02*
X320000Y700000D01*
X1450848Y617220D02*
X1451600Y616200D01*
X2549652Y615696D02*
X2595372Y615696D01*
X2549652Y615696D02*
X2542032Y623316D01*
X2121408Y623316D01*
X2107692Y637032D01*
X1505712Y637032D01*
X1488948Y620268D01*
X1488948Y527304D01*
X1426464Y464820D01*
X2595400Y615400D02*
X2595372Y615696D01*
X1426464Y464820D02*
X1426200Y463800D01*
X2545080Y458724D02*
X2545080Y515112D01*
X2458212Y601980D01*
X1516380Y601980D01*
X1502664Y615696D01*
X2544600Y459050D02*
X2545080Y458724D01*
X1502664Y615696D02*
X1502400Y616200D01*
X425196Y362712D02*
X425196Y205740D01*
X425196Y362712D02*
X541020Y478536D01*
X1403604Y478536D01*
X1414272Y467868D01*
X1414272Y458724D01*
X1421892Y451104D01*
X1456944Y451104D01*
X1464564Y458724D01*
X1464564Y469392D01*
X1543812Y548640D01*
X1578864Y548640D01*
X425196Y205740D02*
X414600Y205400D01*
X1578864Y548640D02*
X1580000Y549050D01*
X2465832Y199644D02*
X2465832Y155448D01*
X2465832Y199644D02*
X2470404Y204216D01*
X2470404Y345948D01*
X2278380Y537972D02*
X1985772Y537972D01*
X1944624Y579120D01*
X1650492Y579120D01*
X1583436Y512064D01*
X1580388Y512064D01*
X2465400Y154600D02*
X2465832Y155448D01*
X1580000Y510950D02*
X1580388Y512064D01*
D20*
X2470404Y345948D03*
X2278380Y537972D03*
D19*
X1812036Y548640D02*
X1667256Y548640D01*
X1606296Y487680D01*
D20*
X1812036Y548640D03*
X1606296Y487680D03*
D19*
X1682496Y573024D02*
X1801368Y573024D01*
X1682496Y573024D02*
X1591056Y481584D01*
D20*
X1801368Y573024D03*
X1591056Y481584D03*
D19*
X1898904Y548640D02*
X1965960Y548640D01*
X2103120Y411480D01*
D20*
X1898904Y548640D03*
X2103120Y411480D03*
D19*
X1950720Y528828D02*
X1917192Y528828D01*
X1892808Y504444D01*
D20*
X1950720Y528828D03*
X1892808Y504444D03*
D19*
X1933956Y560832D02*
X1679448Y560832D01*
D20*
X1933956Y560832D03*
X1679448Y560832D03*
D19*
X2438400Y545592D02*
X2464308Y545592D01*
X2438400Y545592D02*
X2401824Y582168D01*
X1569720Y582168D01*
X1452372Y464820D01*
X2464308Y545592D02*
X2464600Y545400D01*
X1452372Y464820D02*
X1451600Y463800D01*
X2636520Y545592D02*
X2636520Y568452D01*
X2602992Y601980D01*
X2602992Y682752D01*
X2574036Y711708D01*
X2554224Y711708D01*
X2485644Y643128D01*
X1452372Y643128D01*
X2636520Y545592D02*
X2637300Y507300D01*
D20*
X1452372Y643128D03*
D19*
X2464308Y373380D02*
X2464308Y205740D01*
X2464308Y373380D02*
X2462784Y374904D01*
X2462784Y409956D02*
X2462784Y492252D01*
X2462784Y409956D02*
X2462784Y374904D01*
X2462784Y492252D02*
X2464308Y493776D01*
X2464308Y205740D02*
X2427300Y205400D01*
X2464308Y493776D02*
X2464600Y494600D01*
X2595372Y458724D02*
X2595372Y452628D01*
X2595372Y458724D02*
X2630424Y493776D01*
X2595372Y452628D02*
X2557300Y452700D01*
X2630424Y493776D02*
X2630950Y494600D01*
X2552700Y569976D02*
X2552700Y577596D01*
X2552700Y569976D02*
X2589276Y533400D01*
X2599944Y533400D02*
X2630424Y533400D01*
X2599944Y533400D02*
X2589276Y533400D01*
X2552700Y577596D02*
X2544600Y577300D01*
X2630424Y533400D02*
X2630950Y494600D01*
X2599944Y670560D02*
X2570988Y699516D01*
X2599944Y670560D02*
X2599944Y533400D01*
X2570988Y699516D02*
X2570000Y700000D01*
X2590800Y409956D02*
X2462784Y409956D01*
X2590800Y409956D02*
X2595372Y414528D01*
X2595400Y414600D01*
X283464Y545592D02*
X259080Y545592D01*
X283464Y545592D02*
X307848Y569976D01*
X259080Y545592D02*
X259050Y507300D01*
X307848Y569976D02*
X307300Y570950D01*
X344424Y569976D02*
X381000Y533400D01*
X380950Y494600D01*
X344424Y569976D02*
X307300Y570950D01*
X414528Y199644D02*
X414528Y155448D01*
X414528Y199644D02*
X294132Y320040D01*
X294132Y414528D01*
X414528Y155448D02*
X414600Y154600D01*
X294600Y414600D02*
X294132Y414528D01*
X367284Y493776D02*
X381000Y493776D01*
X367284Y493776D02*
X332232Y458724D01*
X381000Y493776D02*
X380950Y494600D01*
X332232Y458724D02*
X294600Y459050D01*
X344424Y615696D02*
X344424Y659892D01*
X309372Y694944D01*
X309372Y704088D01*
X316992Y711708D01*
X361188Y711708D01*
X364236Y708660D01*
X344424Y615696D02*
X345400Y615400D01*
X364275Y707807D02*
X364236Y708660D01*
M02*
