G04 EAGLE Gerber RS-274X export*
G75*
%MOMM*%
%FSLAX34Y34*%
%LPD*%
%INSilkscreen Top*%
%IPPOS*%
%AMOC8*
5,1,8,0,0,1.08239X$1,22.5*%
G01*
G04 Define Apertures*
%ADD10C,0.100000*%
%ADD11C,0.200000*%
%ADD12C,0.127000*%
%ADD13C,0.152400*%
G36*
X438494Y400475D02*
X438027Y400487D01*
X437577Y400523D01*
X437142Y400583D01*
X436724Y400668D01*
X436322Y400776D01*
X435937Y400908D01*
X435567Y401065D01*
X435214Y401246D01*
X434880Y401449D01*
X434565Y401674D01*
X434271Y401920D01*
X433998Y402188D01*
X433745Y402478D01*
X433512Y402788D01*
X433300Y403121D01*
X433108Y403475D01*
X432937Y403847D01*
X432790Y404234D01*
X432665Y404637D01*
X432563Y405054D01*
X432483Y405487D01*
X432426Y405936D01*
X432392Y406399D01*
X432381Y406877D01*
X432387Y407242D01*
X432406Y407597D01*
X432438Y407942D01*
X432482Y408277D01*
X432539Y408601D01*
X432609Y408916D01*
X432691Y409220D01*
X432786Y409515D01*
X432894Y409799D01*
X433014Y410073D01*
X433147Y410337D01*
X433292Y410591D01*
X433621Y411069D01*
X434001Y411506D01*
X434426Y411897D01*
X434653Y412073D01*
X434891Y412236D01*
X435138Y412386D01*
X435395Y412523D01*
X435662Y412647D01*
X435939Y412758D01*
X436226Y412855D01*
X436523Y412940D01*
X436829Y413012D01*
X437146Y413070D01*
X437473Y413116D01*
X437809Y413149D01*
X438155Y413168D01*
X438512Y413175D01*
X438975Y413163D01*
X439422Y413128D01*
X439854Y413069D01*
X440270Y412988D01*
X440671Y412882D01*
X441056Y412753D01*
X441425Y412601D01*
X441779Y412426D01*
X442115Y412228D01*
X442430Y412009D01*
X442725Y411769D01*
X442999Y411507D01*
X443254Y411225D01*
X443487Y410921D01*
X443701Y410596D01*
X443894Y410249D01*
X444065Y409884D01*
X444214Y409503D01*
X444340Y409106D01*
X444442Y408693D01*
X444522Y408263D01*
X444580Y407817D01*
X444614Y407355D01*
X444625Y406877D01*
X444614Y406401D01*
X444579Y405940D01*
X444521Y405493D01*
X444440Y405062D01*
X444336Y404646D01*
X444209Y404245D01*
X444059Y403859D01*
X443885Y403488D01*
X443690Y403135D01*
X443475Y402803D01*
X443240Y402492D01*
X442984Y402202D01*
X442709Y401934D01*
X442413Y401686D01*
X442097Y401460D01*
X441761Y401254D01*
X441407Y401072D01*
X441038Y400913D01*
X440653Y400779D01*
X440253Y400670D01*
X439836Y400584D01*
X439405Y400524D01*
X438957Y400487D01*
X438494Y400475D01*
G37*
%LPC*%
G36*
X438494Y401832D02*
X439013Y401853D01*
X439501Y401915D01*
X439957Y402018D01*
X440383Y402162D01*
X440777Y402347D01*
X441141Y402574D01*
X441473Y402842D01*
X441774Y403151D01*
X442042Y403497D01*
X442274Y403878D01*
X442471Y404293D01*
X442632Y404741D01*
X442757Y405224D01*
X442846Y405741D01*
X442899Y406292D01*
X442917Y406877D01*
X442899Y407438D01*
X442845Y407967D01*
X442755Y408466D01*
X442629Y408933D01*
X442467Y409370D01*
X442269Y409776D01*
X442036Y410151D01*
X441766Y410495D01*
X441463Y410803D01*
X441130Y411069D01*
X440768Y411295D01*
X440376Y411480D01*
X439955Y411624D01*
X439503Y411726D01*
X439022Y411788D01*
X438512Y411808D01*
X437997Y411788D01*
X437512Y411727D01*
X437058Y411626D01*
X436633Y411484D01*
X436239Y411302D01*
X435874Y411079D01*
X435540Y410816D01*
X435236Y410512D01*
X434965Y410172D01*
X434730Y409799D01*
X434532Y409393D01*
X434369Y408955D01*
X434243Y408485D01*
X434152Y407981D01*
X434098Y407446D01*
X434080Y406877D01*
X434098Y406312D01*
X434153Y405777D01*
X434244Y405271D01*
X434372Y404796D01*
X434537Y404351D01*
X434738Y403935D01*
X434975Y403550D01*
X435249Y403194D01*
X435556Y402875D01*
X435891Y402599D01*
X436254Y402364D01*
X436645Y402173D01*
X437065Y402024D01*
X437513Y401918D01*
X437990Y401854D01*
X438494Y401832D01*
G37*
%LPD*%
G36*
X399850Y400650D02*
X390128Y400650D01*
X390128Y412991D01*
X399491Y412991D01*
X399491Y411624D01*
X391801Y411624D01*
X391801Y407666D01*
X398965Y407666D01*
X398965Y406317D01*
X391801Y406317D01*
X391801Y402016D01*
X399850Y402016D01*
X399850Y400650D01*
G37*
G36*
X463481Y400475D02*
X462932Y400487D01*
X462412Y400524D01*
X461923Y400585D01*
X461463Y400671D01*
X461032Y400781D01*
X460631Y400916D01*
X460260Y401075D01*
X459918Y401259D01*
X459606Y401467D01*
X459324Y401700D01*
X459071Y401957D01*
X458848Y402239D01*
X458655Y402545D01*
X458491Y402875D01*
X458357Y403231D01*
X458252Y403610D01*
X459872Y403934D01*
X459952Y403666D01*
X460052Y403415D01*
X460171Y403183D01*
X460310Y402970D01*
X460469Y402775D01*
X460648Y402599D01*
X460846Y402441D01*
X461064Y402301D01*
X461302Y402179D01*
X461560Y402073D01*
X461839Y401983D01*
X462139Y401910D01*
X462459Y401853D01*
X462799Y401812D01*
X463161Y401788D01*
X463542Y401780D01*
X463936Y401789D01*
X464306Y401815D01*
X464653Y401858D01*
X464978Y401919D01*
X465279Y401997D01*
X465556Y402093D01*
X465811Y402206D01*
X466043Y402336D01*
X466249Y402483D01*
X466428Y402647D01*
X466579Y402826D01*
X466703Y403022D01*
X466799Y403235D01*
X466868Y403463D01*
X466909Y403708D01*
X466923Y403969D01*
X466906Y404257D01*
X466854Y404517D01*
X466768Y404748D01*
X466647Y404950D01*
X466495Y405131D01*
X466315Y405294D01*
X466108Y405441D01*
X465872Y405572D01*
X465610Y405690D01*
X465325Y405798D01*
X465015Y405896D01*
X464681Y405984D01*
X463148Y406343D01*
X462461Y406505D01*
X461862Y406667D01*
X461351Y406829D01*
X460928Y406991D01*
X460569Y407158D01*
X460250Y407334D01*
X459971Y407519D01*
X459732Y407714D01*
X459526Y407922D01*
X459346Y408146D01*
X459191Y408388D01*
X459062Y408647D01*
X458961Y408924D01*
X458888Y409220D01*
X458845Y409537D01*
X458830Y409873D01*
X458849Y410258D01*
X458906Y410620D01*
X459001Y410959D01*
X459133Y411276D01*
X459304Y411570D01*
X459512Y411842D01*
X459759Y412090D01*
X460043Y412316D01*
X460363Y412518D01*
X460715Y412692D01*
X461100Y412839D01*
X461518Y412960D01*
X461968Y413054D01*
X462451Y413121D01*
X462967Y413161D01*
X463516Y413175D01*
X464026Y413165D01*
X464505Y413134D01*
X464953Y413084D01*
X465371Y413014D01*
X465757Y412923D01*
X466112Y412813D01*
X466437Y412682D01*
X466730Y412531D01*
X466998Y412356D01*
X467245Y412152D01*
X467471Y411921D01*
X467676Y411661D01*
X467861Y411372D01*
X468024Y411055D01*
X468167Y410710D01*
X468289Y410337D01*
X466643Y410048D01*
X466567Y410285D01*
X466476Y410505D01*
X466370Y410708D01*
X466249Y410894D01*
X466112Y411064D01*
X465960Y411216D01*
X465792Y411352D01*
X465609Y411471D01*
X465410Y411575D01*
X465192Y411665D01*
X464955Y411741D01*
X464701Y411803D01*
X464428Y411851D01*
X464136Y411886D01*
X463826Y411907D01*
X463498Y411913D01*
X463139Y411906D01*
X462802Y411883D01*
X462487Y411845D01*
X462193Y411791D01*
X461922Y411722D01*
X461672Y411638D01*
X461445Y411538D01*
X461239Y411423D01*
X461056Y411293D01*
X460898Y411148D01*
X460764Y410987D01*
X460654Y410812D01*
X460569Y410622D01*
X460508Y410416D01*
X460471Y410196D01*
X460459Y409960D01*
X460478Y409688D01*
X460535Y409440D01*
X460629Y409217D01*
X460761Y409019D01*
X460929Y408840D01*
X461130Y408675D01*
X461365Y408524D01*
X461633Y408388D01*
X461988Y408252D01*
X462485Y408100D01*
X463122Y407934D01*
X463901Y407753D01*
X465036Y407486D01*
X465588Y407337D01*
X466117Y407162D01*
X466618Y406957D01*
X467085Y406720D01*
X467303Y406586D01*
X467507Y406437D01*
X467695Y406275D01*
X467869Y406098D01*
X468026Y405906D01*
X468166Y405697D01*
X468287Y405472D01*
X468390Y405231D01*
X468472Y404970D01*
X468531Y404688D01*
X468567Y404383D01*
X468578Y404057D01*
X468557Y403642D01*
X468495Y403251D01*
X468391Y402885D01*
X468244Y402542D01*
X468057Y402223D01*
X467827Y401929D01*
X467556Y401658D01*
X467243Y401412D01*
X466892Y401192D01*
X466507Y401002D01*
X466088Y400841D01*
X465634Y400709D01*
X465147Y400607D01*
X464626Y400533D01*
X464070Y400490D01*
X463481Y400475D01*
G37*
G36*
X501457Y400650D02*
X499784Y400650D01*
X499784Y412991D01*
X501457Y412991D01*
X501457Y406807D01*
X507404Y412991D01*
X509375Y412991D01*
X504119Y407631D01*
X510075Y400650D01*
X507999Y400650D01*
X503068Y406606D01*
X501457Y405380D01*
X501457Y400650D01*
G37*
G36*
X492272Y400475D02*
X491813Y400487D01*
X491370Y400523D01*
X490943Y400584D01*
X490532Y400669D01*
X490137Y400778D01*
X489757Y400911D01*
X489393Y401068D01*
X489044Y401250D01*
X488714Y401454D01*
X488404Y401679D01*
X488114Y401925D01*
X487844Y402192D01*
X487595Y402479D01*
X487366Y402787D01*
X487157Y403116D01*
X486968Y403466D01*
X486801Y403834D01*
X486656Y404219D01*
X486533Y404621D01*
X486433Y405039D01*
X486355Y405474D01*
X486299Y405925D01*
X486266Y406393D01*
X486255Y406877D01*
X486261Y407241D01*
X486280Y407595D01*
X486311Y407939D01*
X486354Y408273D01*
X486410Y408597D01*
X486479Y408911D01*
X486560Y409215D01*
X486653Y409509D01*
X486759Y409793D01*
X486877Y410067D01*
X487151Y410585D01*
X487475Y411064D01*
X487849Y411502D01*
X488266Y411894D01*
X488722Y412234D01*
X488965Y412384D01*
X489217Y412521D01*
X489478Y412645D01*
X489749Y412756D01*
X490030Y412855D01*
X490320Y412939D01*
X490620Y413011D01*
X490930Y413070D01*
X491249Y413116D01*
X491577Y413149D01*
X491915Y413168D01*
X492263Y413175D01*
X492746Y413163D01*
X493208Y413127D01*
X493650Y413066D01*
X494072Y412982D01*
X494473Y412874D01*
X494854Y412741D01*
X495215Y412585D01*
X495556Y412404D01*
X495876Y412200D01*
X496174Y411972D01*
X496450Y411721D01*
X496704Y411447D01*
X496936Y411150D01*
X497146Y410829D01*
X497334Y410485D01*
X497501Y410118D01*
X495915Y409592D01*
X495800Y409854D01*
X495668Y410099D01*
X495520Y410329D01*
X495356Y410543D01*
X495175Y410741D01*
X494978Y410923D01*
X494765Y411089D01*
X494536Y411239D01*
X494293Y411373D01*
X494039Y411488D01*
X493773Y411586D01*
X493497Y411666D01*
X493209Y411728D01*
X492911Y411773D01*
X492601Y411799D01*
X492281Y411808D01*
X491782Y411788D01*
X491313Y411726D01*
X490871Y411623D01*
X490459Y411479D01*
X490074Y411293D01*
X489719Y411067D01*
X489391Y410799D01*
X489092Y410490D01*
X488826Y410145D01*
X488594Y409770D01*
X488399Y409364D01*
X488238Y408928D01*
X488114Y408461D01*
X488025Y407964D01*
X487972Y407436D01*
X487954Y406877D01*
X487972Y406324D01*
X488028Y405799D01*
X488121Y405301D01*
X488250Y404831D01*
X488417Y404389D01*
X488621Y403975D01*
X488862Y403588D01*
X489141Y403229D01*
X489450Y402906D01*
X489786Y402626D01*
X490148Y402389D01*
X490536Y402195D01*
X490951Y402044D01*
X491391Y401936D01*
X491858Y401871D01*
X492351Y401850D01*
X492670Y401860D01*
X492979Y401890D01*
X493278Y401940D01*
X493566Y402010D01*
X493845Y402101D01*
X494114Y402211D01*
X494373Y402341D01*
X494621Y402491D01*
X494860Y402662D01*
X495088Y402852D01*
X495307Y403063D01*
X495515Y403293D01*
X495713Y403544D01*
X495902Y403815D01*
X496080Y404105D01*
X496248Y404416D01*
X497614Y403733D01*
X497414Y403346D01*
X497195Y402984D01*
X496956Y402645D01*
X496698Y402329D01*
X496421Y402038D01*
X496124Y401771D01*
X495808Y401527D01*
X495473Y401307D01*
X495121Y401112D01*
X494756Y400943D01*
X494376Y400800D01*
X493983Y400683D01*
X493576Y400592D01*
X493155Y400527D01*
X492720Y400488D01*
X492272Y400475D01*
G37*
G36*
X403769Y400650D02*
X402096Y400650D01*
X402096Y412991D01*
X410864Y412991D01*
X410864Y411624D01*
X403769Y411624D01*
X403769Y407035D01*
X410654Y407035D01*
X410654Y405651D01*
X403769Y405651D01*
X403769Y400650D01*
G37*
G36*
X452274Y400650D02*
X450610Y400650D01*
X450610Y405765D01*
X445863Y412991D01*
X447702Y412991D01*
X451460Y407114D01*
X455199Y412991D01*
X457039Y412991D01*
X452274Y405765D01*
X452274Y400650D01*
G37*
G36*
X417900Y400650D02*
X416236Y400650D01*
X416236Y411624D01*
X411997Y411624D01*
X411997Y412991D01*
X422139Y412991D01*
X422139Y411624D01*
X417900Y411624D01*
X417900Y400650D01*
G37*
G36*
X475712Y400650D02*
X474048Y400650D01*
X474048Y411624D01*
X469809Y411624D01*
X469809Y412991D01*
X479952Y412991D01*
X479952Y411624D01*
X475712Y411624D01*
X475712Y400650D01*
G37*
G36*
X373721Y400475D02*
X373339Y400488D01*
X372977Y400525D01*
X372635Y400589D01*
X372313Y400677D01*
X372011Y400791D01*
X371728Y400931D01*
X371466Y401095D01*
X371223Y401285D01*
X371000Y401500D01*
X370798Y401741D01*
X370615Y402007D01*
X370452Y402298D01*
X370309Y402614D01*
X370186Y402956D01*
X370082Y403323D01*
X369999Y403715D01*
X371637Y403987D01*
X371682Y403740D01*
X371740Y403507D01*
X371811Y403288D01*
X371893Y403083D01*
X371988Y402892D01*
X372095Y402714D01*
X372215Y402551D01*
X372346Y402402D01*
X372489Y402268D01*
X372640Y402153D01*
X372800Y402055D01*
X372968Y401975D01*
X373146Y401912D01*
X373332Y401868D01*
X373527Y401841D01*
X373730Y401832D01*
X373952Y401842D01*
X374162Y401872D01*
X374359Y401920D01*
X374545Y401989D01*
X374718Y402077D01*
X374880Y402185D01*
X375029Y402312D01*
X375167Y402459D01*
X375290Y402624D01*
X375396Y402808D01*
X375487Y403010D01*
X375561Y403230D01*
X375618Y403469D01*
X375659Y403726D01*
X375684Y404000D01*
X375692Y404294D01*
X375692Y411624D01*
X373319Y411624D01*
X373319Y412991D01*
X377356Y412991D01*
X377356Y404329D01*
X377341Y403892D01*
X377295Y403479D01*
X377219Y403090D01*
X377113Y402725D01*
X376976Y402384D01*
X376809Y402066D01*
X376612Y401773D01*
X376384Y401504D01*
X376130Y401263D01*
X375853Y401054D01*
X375554Y400877D01*
X375232Y400732D01*
X374888Y400620D01*
X374522Y400539D01*
X374133Y400491D01*
X373721Y400475D01*
G37*
G36*
X426565Y400475D02*
X426183Y400488D01*
X425821Y400525D01*
X425479Y400589D01*
X425157Y400677D01*
X424854Y400791D01*
X424572Y400931D01*
X424309Y401095D01*
X424067Y401285D01*
X423844Y401500D01*
X423641Y401741D01*
X423458Y402007D01*
X423295Y402298D01*
X423152Y402614D01*
X423029Y402956D01*
X422926Y403323D01*
X422843Y403715D01*
X424481Y403987D01*
X424526Y403740D01*
X424584Y403507D01*
X424654Y403288D01*
X424737Y403083D01*
X424832Y402892D01*
X424939Y402714D01*
X425058Y402551D01*
X425190Y402402D01*
X425332Y402268D01*
X425483Y402153D01*
X425643Y402055D01*
X425812Y401975D01*
X425989Y401912D01*
X426175Y401868D01*
X426370Y401841D01*
X426574Y401832D01*
X426796Y401842D01*
X427005Y401872D01*
X427203Y401920D01*
X427388Y401989D01*
X427562Y402077D01*
X427723Y402185D01*
X427873Y402312D01*
X428010Y402459D01*
X428133Y402624D01*
X428240Y402808D01*
X428331Y403010D01*
X428404Y403230D01*
X428462Y403469D01*
X428503Y403726D01*
X428528Y404000D01*
X428536Y404294D01*
X428536Y411624D01*
X426162Y411624D01*
X426162Y412991D01*
X430200Y412991D01*
X430200Y404329D01*
X430185Y403892D01*
X430139Y403479D01*
X430063Y403090D01*
X429957Y402725D01*
X429820Y402384D01*
X429653Y402066D01*
X429456Y401773D01*
X429228Y401504D01*
X428973Y401263D01*
X428697Y401054D01*
X428398Y400877D01*
X428076Y400732D01*
X427732Y400620D01*
X427365Y400539D01*
X426977Y400491D01*
X426565Y400475D01*
G37*
G36*
X388068Y400650D02*
X380159Y400650D01*
X380159Y412991D01*
X381832Y412991D01*
X381832Y402016D01*
X388068Y402016D01*
X388068Y400650D01*
G37*
G36*
X483703Y400650D02*
X482030Y400650D01*
X482030Y412991D01*
X483703Y412991D01*
X483703Y400650D01*
G37*
G36*
X2454463Y410475D02*
X2453996Y410487D01*
X2453545Y410523D01*
X2453111Y410583D01*
X2452693Y410668D01*
X2452291Y410776D01*
X2451905Y410908D01*
X2451536Y411065D01*
X2451183Y411246D01*
X2450848Y411449D01*
X2450534Y411674D01*
X2450240Y411920D01*
X2449967Y412188D01*
X2449714Y412478D01*
X2449481Y412788D01*
X2449268Y413121D01*
X2449077Y413475D01*
X2448906Y413847D01*
X2448758Y414234D01*
X2448634Y414637D01*
X2448531Y415054D01*
X2448452Y415487D01*
X2448395Y415936D01*
X2448361Y416399D01*
X2448350Y416877D01*
X2448356Y417242D01*
X2448375Y417597D01*
X2448407Y417942D01*
X2448451Y418277D01*
X2448508Y418601D01*
X2448577Y418916D01*
X2448660Y419220D01*
X2448755Y419515D01*
X2448862Y419799D01*
X2448983Y420073D01*
X2449115Y420337D01*
X2449261Y420591D01*
X2449590Y421069D01*
X2449970Y421506D01*
X2450395Y421897D01*
X2450622Y422073D01*
X2450859Y422236D01*
X2451107Y422386D01*
X2451364Y422523D01*
X2451631Y422647D01*
X2451908Y422758D01*
X2452195Y422855D01*
X2452491Y422940D01*
X2452798Y423012D01*
X2453115Y423070D01*
X2453441Y423116D01*
X2453778Y423149D01*
X2454124Y423168D01*
X2454481Y423175D01*
X2454944Y423163D01*
X2455391Y423128D01*
X2455823Y423069D01*
X2456239Y422988D01*
X2456639Y422882D01*
X2457024Y422753D01*
X2457394Y422601D01*
X2457747Y422426D01*
X2458083Y422228D01*
X2458399Y422009D01*
X2458694Y421769D01*
X2458968Y421507D01*
X2459222Y421225D01*
X2459456Y420921D01*
X2459670Y420596D01*
X2459863Y420249D01*
X2460034Y419884D01*
X2460183Y419503D01*
X2460308Y419106D01*
X2460411Y418693D01*
X2460491Y418263D01*
X2460548Y417817D01*
X2460583Y417355D01*
X2460594Y416877D01*
X2460582Y416401D01*
X2460548Y415940D01*
X2460490Y415493D01*
X2460409Y415062D01*
X2460305Y414646D01*
X2460178Y414245D01*
X2460027Y413859D01*
X2459854Y413488D01*
X2459659Y413135D01*
X2459444Y412803D01*
X2459208Y412492D01*
X2458953Y412202D01*
X2458677Y411934D01*
X2458382Y411686D01*
X2458066Y411460D01*
X2457730Y411254D01*
X2457376Y411072D01*
X2457007Y410913D01*
X2456622Y410779D01*
X2456221Y410670D01*
X2455805Y410584D01*
X2455373Y410524D01*
X2454926Y410487D01*
X2454463Y410475D01*
G37*
%LPC*%
G36*
X2454463Y411832D02*
X2454982Y411853D01*
X2455469Y411915D01*
X2455926Y412018D01*
X2456352Y412162D01*
X2456746Y412347D01*
X2457109Y412574D01*
X2457442Y412842D01*
X2457743Y413151D01*
X2458011Y413497D01*
X2458243Y413878D01*
X2458440Y414293D01*
X2458600Y414741D01*
X2458725Y415224D01*
X2458815Y415741D01*
X2458868Y416292D01*
X2458886Y416877D01*
X2458868Y417438D01*
X2458814Y417967D01*
X2458724Y418466D01*
X2458598Y418933D01*
X2458436Y419370D01*
X2458238Y419776D01*
X2458004Y420151D01*
X2457734Y420495D01*
X2457432Y420803D01*
X2457099Y421069D01*
X2456737Y421295D01*
X2456345Y421480D01*
X2455923Y421624D01*
X2455472Y421726D01*
X2454991Y421788D01*
X2454481Y421808D01*
X2453966Y421788D01*
X2453481Y421727D01*
X2453026Y421626D01*
X2452602Y421484D01*
X2452207Y421302D01*
X2451843Y421079D01*
X2451509Y420816D01*
X2451205Y420512D01*
X2450934Y420172D01*
X2450699Y419799D01*
X2450500Y419393D01*
X2450338Y418955D01*
X2450211Y418485D01*
X2450121Y417981D01*
X2450067Y417446D01*
X2450049Y416877D01*
X2450067Y416312D01*
X2450122Y415777D01*
X2450213Y415271D01*
X2450341Y414796D01*
X2450505Y414351D01*
X2450706Y413935D01*
X2450944Y413550D01*
X2451218Y413194D01*
X2451524Y412875D01*
X2451859Y412599D01*
X2452222Y412364D01*
X2452614Y412173D01*
X2453034Y412024D01*
X2453482Y411918D01*
X2453958Y411854D01*
X2454463Y411832D01*
G37*
%LPD*%
G36*
X2385863Y410650D02*
X2384190Y410650D01*
X2384190Y422991D01*
X2389997Y422991D01*
X2390503Y422976D01*
X2390980Y422932D01*
X2391427Y422860D01*
X2391844Y422758D01*
X2392232Y422626D01*
X2392589Y422466D01*
X2392917Y422277D01*
X2393216Y422058D01*
X2393482Y421813D01*
X2393712Y421546D01*
X2393907Y421256D01*
X2394067Y420942D01*
X2394191Y420606D01*
X2394279Y420247D01*
X2394332Y419866D01*
X2394350Y419461D01*
X2394338Y419124D01*
X2394300Y418801D01*
X2394237Y418491D01*
X2394150Y418195D01*
X2394037Y417913D01*
X2393899Y417645D01*
X2393737Y417390D01*
X2393549Y417149D01*
X2393339Y416925D01*
X2393110Y416724D01*
X2392862Y416543D01*
X2392751Y416477D01*
X2392595Y416385D01*
X2392309Y416248D01*
X2392004Y416132D01*
X2391680Y416039D01*
X2391337Y415966D01*
X2392829Y413703D01*
X2394841Y410650D01*
X2392914Y410650D01*
X2389708Y415774D01*
X2385863Y415774D01*
X2385863Y410650D01*
G37*
%LPC*%
G36*
X2389901Y417096D02*
X2390222Y417106D01*
X2390525Y417135D01*
X2390808Y417183D01*
X2391073Y417251D01*
X2391320Y417337D01*
X2391547Y417444D01*
X2391756Y417569D01*
X2391946Y417714D01*
X2392115Y417876D01*
X2392262Y418053D01*
X2392386Y418246D01*
X2392488Y418455D01*
X2392567Y418679D01*
X2392623Y418918D01*
X2392657Y419173D01*
X2392668Y419444D01*
X2392657Y419705D01*
X2392623Y419950D01*
X2392566Y420180D01*
X2392486Y420393D01*
X2392383Y420590D01*
X2392257Y420771D01*
X2392109Y420937D01*
X2391937Y421086D01*
X2391744Y421218D01*
X2391531Y421333D01*
X2391298Y421430D01*
X2391045Y421510D01*
X2390771Y421571D01*
X2390478Y421615D01*
X2390164Y421642D01*
X2389831Y421651D01*
X2385863Y421651D01*
X2385863Y417096D01*
X2389901Y417096D01*
G37*
%LPD*%
G36*
X2407777Y410475D02*
X2407301Y410487D01*
X2406843Y410523D01*
X2406400Y410583D01*
X2405975Y410668D01*
X2405566Y410776D01*
X2405174Y410908D01*
X2404799Y411065D01*
X2404440Y411246D01*
X2404100Y411449D01*
X2403781Y411673D01*
X2403482Y411919D01*
X2403204Y412186D01*
X2402947Y412474D01*
X2402710Y412784D01*
X2402494Y413114D01*
X2402298Y413466D01*
X2402125Y413836D01*
X2401975Y414223D01*
X2401847Y414625D01*
X2401743Y415044D01*
X2401662Y415478D01*
X2401605Y415928D01*
X2401570Y416395D01*
X2401558Y416877D01*
X2401565Y417248D01*
X2401584Y417607D01*
X2401615Y417956D01*
X2401659Y418295D01*
X2401716Y418622D01*
X2401785Y418940D01*
X2401867Y419246D01*
X2401961Y419542D01*
X2402068Y419827D01*
X2402188Y420102D01*
X2402320Y420366D01*
X2402465Y420620D01*
X2402622Y420863D01*
X2402792Y421095D01*
X2403170Y421528D01*
X2403593Y421914D01*
X2403820Y422088D01*
X2404057Y422249D01*
X2404305Y422396D01*
X2404562Y422532D01*
X2404830Y422654D01*
X2405108Y422763D01*
X2405396Y422860D01*
X2405694Y422943D01*
X2406003Y423014D01*
X2406321Y423072D01*
X2406650Y423117D01*
X2406989Y423149D01*
X2407339Y423168D01*
X2407698Y423175D01*
X2408198Y423164D01*
X2408675Y423131D01*
X2409127Y423077D01*
X2409555Y423002D01*
X2409959Y422904D01*
X2410339Y422786D01*
X2410695Y422645D01*
X2411026Y422483D01*
X2411337Y422297D01*
X2411629Y422085D01*
X2411903Y421847D01*
X2412158Y421583D01*
X2412396Y421293D01*
X2412614Y420977D01*
X2412815Y420635D01*
X2412997Y420267D01*
X2411403Y419794D01*
X2411265Y420048D01*
X2411115Y420284D01*
X2410953Y420502D01*
X2410778Y420703D01*
X2410590Y420885D01*
X2410391Y421050D01*
X2410178Y421197D01*
X2409953Y421327D01*
X2409715Y421440D01*
X2409463Y421537D01*
X2409197Y421620D01*
X2408917Y421688D01*
X2408622Y421741D01*
X2408314Y421778D01*
X2407991Y421801D01*
X2407654Y421808D01*
X2407136Y421788D01*
X2406649Y421728D01*
X2406193Y421627D01*
X2405769Y421485D01*
X2405376Y421304D01*
X2405015Y421082D01*
X2404686Y420819D01*
X2404387Y420517D01*
X2404123Y420177D01*
X2403893Y419805D01*
X2403699Y419399D01*
X2403540Y418961D01*
X2403416Y418489D01*
X2403328Y417985D01*
X2403275Y417448D01*
X2403258Y416877D01*
X2403276Y416308D01*
X2403333Y415770D01*
X2403426Y415262D01*
X2403558Y414785D01*
X2403726Y414339D01*
X2403932Y413924D01*
X2404176Y413539D01*
X2404457Y413186D01*
X2404772Y412868D01*
X2405115Y412594D01*
X2405487Y412361D01*
X2405887Y412171D01*
X2406317Y412023D01*
X2406775Y411917D01*
X2407261Y411854D01*
X2407777Y411832D01*
X2408371Y411855D01*
X2408945Y411924D01*
X2409499Y412039D01*
X2410032Y412200D01*
X2410531Y412401D01*
X2410979Y412634D01*
X2411378Y412900D01*
X2411727Y413199D01*
X2411727Y415423D01*
X2408040Y415423D01*
X2408040Y416825D01*
X2413269Y416825D01*
X2413269Y412568D01*
X2413016Y412326D01*
X2412750Y412097D01*
X2412471Y411883D01*
X2412177Y411682D01*
X2411870Y411496D01*
X2411548Y411324D01*
X2411213Y411166D01*
X2410864Y411022D01*
X2410505Y410894D01*
X2410138Y410783D01*
X2409763Y410689D01*
X2409381Y410612D01*
X2408991Y410552D01*
X2408594Y410509D01*
X2408189Y410483D01*
X2407777Y410475D01*
G37*
G36*
X2417738Y410650D02*
X2416065Y410650D01*
X2416065Y422991D01*
X2417738Y422991D01*
X2417738Y417771D01*
X2424412Y417771D01*
X2424412Y422991D01*
X2426085Y422991D01*
X2426085Y410650D01*
X2424412Y410650D01*
X2424412Y416369D01*
X2417738Y416369D01*
X2417738Y410650D01*
G37*
G36*
X2479450Y410475D02*
X2478901Y410487D01*
X2478381Y410524D01*
X2477891Y410585D01*
X2477431Y410671D01*
X2477001Y410781D01*
X2476600Y410916D01*
X2476229Y411075D01*
X2475887Y411259D01*
X2475575Y411467D01*
X2475293Y411700D01*
X2475040Y411957D01*
X2474817Y412239D01*
X2474623Y412545D01*
X2474460Y412875D01*
X2474325Y413231D01*
X2474221Y413610D01*
X2475841Y413934D01*
X2475921Y413666D01*
X2476021Y413415D01*
X2476140Y413183D01*
X2476279Y412970D01*
X2476438Y412775D01*
X2476616Y412599D01*
X2476814Y412441D01*
X2477032Y412301D01*
X2477270Y412179D01*
X2477529Y412073D01*
X2477808Y411983D01*
X2478107Y411910D01*
X2478427Y411853D01*
X2478768Y411812D01*
X2479129Y411788D01*
X2479511Y411780D01*
X2479904Y411789D01*
X2480275Y411815D01*
X2480622Y411858D01*
X2480946Y411919D01*
X2481247Y411997D01*
X2481525Y412093D01*
X2481780Y412206D01*
X2482012Y412336D01*
X2482218Y412483D01*
X2482397Y412647D01*
X2482548Y412826D01*
X2482672Y413022D01*
X2482768Y413235D01*
X2482837Y413463D01*
X2482878Y413708D01*
X2482892Y413969D01*
X2482875Y414257D01*
X2482823Y414517D01*
X2482737Y414748D01*
X2482616Y414950D01*
X2482464Y415131D01*
X2482284Y415294D01*
X2482076Y415441D01*
X2481841Y415572D01*
X2481579Y415690D01*
X2481293Y415798D01*
X2480983Y415896D01*
X2480650Y415984D01*
X2479117Y416343D01*
X2478430Y416505D01*
X2477830Y416667D01*
X2477319Y416829D01*
X2476897Y416991D01*
X2476538Y417158D01*
X2476219Y417334D01*
X2475940Y417519D01*
X2475701Y417714D01*
X2475495Y417922D01*
X2475315Y418146D01*
X2475160Y418388D01*
X2475031Y418647D01*
X2474929Y418924D01*
X2474857Y419220D01*
X2474813Y419537D01*
X2474799Y419873D01*
X2474818Y420258D01*
X2474875Y420620D01*
X2474969Y420959D01*
X2475102Y421276D01*
X2475273Y421570D01*
X2475481Y421842D01*
X2475728Y422090D01*
X2476012Y422316D01*
X2476332Y422518D01*
X2476684Y422692D01*
X2477069Y422839D01*
X2477487Y422960D01*
X2477937Y423054D01*
X2478420Y423121D01*
X2478936Y423161D01*
X2479485Y423175D01*
X2479995Y423165D01*
X2480474Y423134D01*
X2480922Y423084D01*
X2481339Y423014D01*
X2481726Y422923D01*
X2482081Y422813D01*
X2482406Y422682D01*
X2482699Y422531D01*
X2482967Y422356D01*
X2483214Y422152D01*
X2483440Y421921D01*
X2483645Y421661D01*
X2483829Y421372D01*
X2483993Y421055D01*
X2484136Y420710D01*
X2484258Y420337D01*
X2482611Y420048D01*
X2482536Y420285D01*
X2482445Y420505D01*
X2482339Y420708D01*
X2482217Y420894D01*
X2482080Y421064D01*
X2481928Y421216D01*
X2481761Y421352D01*
X2481578Y421471D01*
X2481378Y421575D01*
X2481160Y421665D01*
X2480924Y421741D01*
X2480669Y421803D01*
X2480396Y421851D01*
X2480105Y421886D01*
X2479795Y421907D01*
X2479467Y421913D01*
X2479108Y421906D01*
X2478771Y421883D01*
X2478456Y421845D01*
X2478162Y421791D01*
X2477891Y421722D01*
X2477641Y421638D01*
X2477413Y421538D01*
X2477207Y421423D01*
X2477025Y421293D01*
X2476866Y421148D01*
X2476732Y420987D01*
X2476623Y420812D01*
X2476538Y420622D01*
X2476477Y420416D01*
X2476440Y420196D01*
X2476428Y419960D01*
X2476447Y419688D01*
X2476503Y419440D01*
X2476598Y419217D01*
X2476730Y419019D01*
X2476898Y418840D01*
X2477099Y418675D01*
X2477334Y418524D01*
X2477602Y418388D01*
X2477957Y418252D01*
X2478453Y418100D01*
X2479091Y417934D01*
X2479870Y417753D01*
X2481004Y417486D01*
X2481557Y417337D01*
X2482086Y417162D01*
X2482586Y416957D01*
X2483054Y416720D01*
X2483272Y416586D01*
X2483475Y416437D01*
X2483664Y416275D01*
X2483838Y416098D01*
X2483995Y415906D01*
X2484134Y415697D01*
X2484256Y415472D01*
X2484359Y415231D01*
X2484441Y414970D01*
X2484500Y414688D01*
X2484535Y414383D01*
X2484547Y414057D01*
X2484526Y413642D01*
X2484464Y413251D01*
X2484359Y412885D01*
X2484213Y412542D01*
X2484025Y412223D01*
X2483796Y411929D01*
X2483524Y411658D01*
X2483211Y411412D01*
X2482860Y411192D01*
X2482475Y411002D01*
X2482056Y410841D01*
X2481603Y410709D01*
X2481116Y410607D01*
X2480595Y410533D01*
X2480039Y410490D01*
X2479450Y410475D01*
G37*
G36*
X2517426Y410650D02*
X2515753Y410650D01*
X2515753Y422991D01*
X2517426Y422991D01*
X2517426Y416807D01*
X2523373Y422991D01*
X2525343Y422991D01*
X2520088Y417631D01*
X2526044Y410650D01*
X2523968Y410650D01*
X2519037Y416606D01*
X2517426Y415380D01*
X2517426Y410650D01*
G37*
G36*
X2508241Y410475D02*
X2507782Y410487D01*
X2507339Y410523D01*
X2506912Y410584D01*
X2506501Y410669D01*
X2506105Y410778D01*
X2505725Y410911D01*
X2505361Y411068D01*
X2505013Y411250D01*
X2504683Y411454D01*
X2504373Y411679D01*
X2504083Y411925D01*
X2503813Y412192D01*
X2503564Y412479D01*
X2503335Y412787D01*
X2503126Y413116D01*
X2502937Y413466D01*
X2502770Y413834D01*
X2502625Y414219D01*
X2502502Y414621D01*
X2502402Y415039D01*
X2502324Y415474D01*
X2502268Y415925D01*
X2502235Y416393D01*
X2502223Y416877D01*
X2502230Y417241D01*
X2502248Y417595D01*
X2502279Y417939D01*
X2502323Y418273D01*
X2502379Y418597D01*
X2502448Y418911D01*
X2502529Y419215D01*
X2502622Y419509D01*
X2502728Y419793D01*
X2502846Y420067D01*
X2503120Y420585D01*
X2503444Y421064D01*
X2503817Y421502D01*
X2504235Y421894D01*
X2504691Y422234D01*
X2504933Y422384D01*
X2505185Y422521D01*
X2505447Y422645D01*
X2505718Y422756D01*
X2505999Y422855D01*
X2506289Y422939D01*
X2506589Y423011D01*
X2506898Y423070D01*
X2507217Y423116D01*
X2507546Y423149D01*
X2507884Y423168D01*
X2508232Y423175D01*
X2508714Y423163D01*
X2509177Y423127D01*
X2509619Y423066D01*
X2510040Y422982D01*
X2510442Y422874D01*
X2510823Y422741D01*
X2511184Y422585D01*
X2511525Y422404D01*
X2511845Y422200D01*
X2512142Y421972D01*
X2512418Y421721D01*
X2512672Y421447D01*
X2512904Y421150D01*
X2513115Y420829D01*
X2513303Y420485D01*
X2513469Y420118D01*
X2511884Y419592D01*
X2511769Y419854D01*
X2511637Y420099D01*
X2511489Y420329D01*
X2511325Y420543D01*
X2511144Y420741D01*
X2510947Y420923D01*
X2510734Y421089D01*
X2510505Y421239D01*
X2510261Y421373D01*
X2510007Y421488D01*
X2509742Y421586D01*
X2509466Y421666D01*
X2509178Y421728D01*
X2508880Y421773D01*
X2508570Y421799D01*
X2508249Y421808D01*
X2507751Y421788D01*
X2507281Y421726D01*
X2506840Y421623D01*
X2506427Y421479D01*
X2506043Y421293D01*
X2505687Y421067D01*
X2505360Y420799D01*
X2505061Y420490D01*
X2504794Y420145D01*
X2504563Y419770D01*
X2504367Y419364D01*
X2504207Y418928D01*
X2504083Y418461D01*
X2503994Y417964D01*
X2503940Y417436D01*
X2503923Y416877D01*
X2503941Y416324D01*
X2503997Y415799D01*
X2504089Y415301D01*
X2504219Y414831D01*
X2504386Y414389D01*
X2504590Y413975D01*
X2504831Y413588D01*
X2505109Y413229D01*
X2505419Y412906D01*
X2505755Y412626D01*
X2506117Y412389D01*
X2506505Y412195D01*
X2506920Y412044D01*
X2507360Y411936D01*
X2507827Y411871D01*
X2508319Y411850D01*
X2508638Y411860D01*
X2508947Y411890D01*
X2509246Y411940D01*
X2509535Y412010D01*
X2509814Y412101D01*
X2510083Y412211D01*
X2510341Y412341D01*
X2510590Y412491D01*
X2510829Y412662D01*
X2511057Y412852D01*
X2511276Y413063D01*
X2511484Y413293D01*
X2511682Y413544D01*
X2511871Y413815D01*
X2512049Y414105D01*
X2512217Y414416D01*
X2513583Y413733D01*
X2513383Y413346D01*
X2513164Y412984D01*
X2512925Y412645D01*
X2512667Y412329D01*
X2512390Y412038D01*
X2512093Y411771D01*
X2511777Y411527D01*
X2511442Y411307D01*
X2511090Y411112D01*
X2510724Y410943D01*
X2510345Y410800D01*
X2509952Y410683D01*
X2509545Y410592D01*
X2509124Y410527D01*
X2508689Y410488D01*
X2508241Y410475D01*
G37*
G36*
X2468243Y410650D02*
X2466579Y410650D01*
X2466579Y415765D01*
X2461832Y422991D01*
X2463671Y422991D01*
X2467428Y417114D01*
X2471168Y422991D01*
X2473008Y422991D01*
X2468243Y415765D01*
X2468243Y410650D01*
G37*
G36*
X2433869Y410650D02*
X2432205Y410650D01*
X2432205Y421624D01*
X2427965Y421624D01*
X2427965Y422991D01*
X2438108Y422991D01*
X2438108Y421624D01*
X2433869Y421624D01*
X2433869Y410650D01*
G37*
G36*
X2491681Y410650D02*
X2490017Y410650D01*
X2490017Y421624D01*
X2485778Y421624D01*
X2485778Y422991D01*
X2495920Y422991D01*
X2495920Y421624D01*
X2491681Y421624D01*
X2491681Y410650D01*
G37*
G36*
X2377753Y410475D02*
X2377371Y410488D01*
X2377009Y410525D01*
X2376666Y410589D01*
X2376344Y410677D01*
X2376042Y410791D01*
X2375759Y410931D01*
X2375497Y411095D01*
X2375254Y411285D01*
X2375032Y411500D01*
X2374829Y411741D01*
X2374646Y412007D01*
X2374483Y412298D01*
X2374340Y412614D01*
X2374217Y412956D01*
X2374114Y413323D01*
X2374030Y413715D01*
X2375668Y413987D01*
X2375714Y413740D01*
X2375772Y413507D01*
X2375842Y413288D01*
X2375924Y413083D01*
X2376019Y412892D01*
X2376126Y412714D01*
X2376246Y412551D01*
X2376378Y412402D01*
X2376520Y412268D01*
X2376671Y412153D01*
X2376831Y412055D01*
X2376999Y411975D01*
X2377177Y411912D01*
X2377363Y411868D01*
X2377558Y411841D01*
X2377761Y411832D01*
X2377983Y411842D01*
X2378193Y411872D01*
X2378390Y411920D01*
X2378576Y411989D01*
X2378749Y412077D01*
X2378911Y412185D01*
X2379060Y412312D01*
X2379198Y412459D01*
X2379321Y412624D01*
X2379428Y412808D01*
X2379518Y413010D01*
X2379592Y413230D01*
X2379649Y413469D01*
X2379690Y413726D01*
X2379715Y414000D01*
X2379723Y414294D01*
X2379723Y421624D01*
X2377350Y421624D01*
X2377350Y422991D01*
X2381387Y422991D01*
X2381387Y414329D01*
X2381372Y413892D01*
X2381327Y413479D01*
X2381251Y413090D01*
X2381144Y412725D01*
X2381008Y412384D01*
X2380841Y412066D01*
X2380643Y411773D01*
X2380415Y411504D01*
X2380161Y411263D01*
X2379884Y411054D01*
X2379585Y410877D01*
X2379264Y410732D01*
X2378919Y410620D01*
X2378553Y410539D01*
X2378164Y410491D01*
X2377753Y410475D01*
G37*
G36*
X2442534Y410475D02*
X2442152Y410488D01*
X2441790Y410525D01*
X2441448Y410589D01*
X2441125Y410677D01*
X2440823Y410791D01*
X2440541Y410931D01*
X2440278Y411095D01*
X2440036Y411285D01*
X2439813Y411500D01*
X2439610Y411741D01*
X2439427Y412007D01*
X2439264Y412298D01*
X2439121Y412614D01*
X2438998Y412956D01*
X2438895Y413323D01*
X2438812Y413715D01*
X2440449Y413987D01*
X2440495Y413740D01*
X2440553Y413507D01*
X2440623Y413288D01*
X2440706Y413083D01*
X2440800Y412892D01*
X2440908Y412714D01*
X2441027Y412551D01*
X2441159Y412402D01*
X2441301Y412268D01*
X2441452Y412153D01*
X2441612Y412055D01*
X2441781Y411975D01*
X2441958Y411912D01*
X2442144Y411868D01*
X2442339Y411841D01*
X2442543Y411832D01*
X2442764Y411842D01*
X2442974Y411872D01*
X2443172Y411920D01*
X2443357Y411989D01*
X2443531Y412077D01*
X2443692Y412185D01*
X2443842Y412312D01*
X2443979Y412459D01*
X2444102Y412624D01*
X2444209Y412808D01*
X2444299Y413010D01*
X2444373Y413230D01*
X2444431Y413469D01*
X2444472Y413726D01*
X2444496Y414000D01*
X2444505Y414294D01*
X2444505Y421624D01*
X2442131Y421624D01*
X2442131Y422991D01*
X2446169Y422991D01*
X2446169Y414329D01*
X2446154Y413892D01*
X2446108Y413479D01*
X2446032Y413090D01*
X2445926Y412725D01*
X2445789Y412384D01*
X2445622Y412066D01*
X2445424Y411773D01*
X2445197Y411504D01*
X2444942Y411263D01*
X2444666Y411054D01*
X2444366Y410877D01*
X2444045Y410732D01*
X2443701Y410620D01*
X2443334Y410539D01*
X2442945Y410491D01*
X2442534Y410475D01*
G37*
G36*
X2399016Y410650D02*
X2397343Y410650D01*
X2397343Y422991D01*
X2399016Y422991D01*
X2399016Y410650D01*
G37*
G36*
X2499672Y410650D02*
X2497999Y410650D01*
X2497999Y422991D01*
X2499672Y422991D01*
X2499672Y410650D01*
G37*
G36*
X344092Y640354D02*
X343599Y640355D01*
X343132Y640384D01*
X342691Y640441D01*
X342277Y640526D01*
X341889Y640639D01*
X341527Y640779D01*
X341192Y640948D01*
X340884Y641145D01*
X340601Y641369D01*
X340346Y641621D01*
X340116Y641902D01*
X339913Y642210D01*
X339737Y642546D01*
X339587Y642910D01*
X341156Y643430D01*
X341268Y643172D01*
X341397Y642936D01*
X341544Y642720D01*
X341708Y642526D01*
X341889Y642351D01*
X342088Y642198D01*
X342304Y642065D01*
X342537Y641953D01*
X342788Y641861D01*
X343058Y641788D01*
X343345Y641733D01*
X343652Y641696D01*
X343976Y641679D01*
X344319Y641680D01*
X344681Y641700D01*
X345061Y641738D01*
X345450Y641795D01*
X345815Y641866D01*
X346154Y641951D01*
X346468Y642051D01*
X346758Y642165D01*
X347022Y642294D01*
X347261Y642437D01*
X347475Y642595D01*
X347662Y642766D01*
X347819Y642950D01*
X347947Y643147D01*
X348046Y643357D01*
X348116Y643579D01*
X348156Y643815D01*
X348168Y644063D01*
X348149Y644324D01*
X348097Y644607D01*
X348014Y644858D01*
X347900Y645077D01*
X347756Y645264D01*
X347583Y645424D01*
X347385Y645564D01*
X347161Y645685D01*
X346911Y645786D01*
X346637Y645871D01*
X346340Y645943D01*
X346021Y646003D01*
X345678Y646050D01*
X344113Y646219D01*
X343411Y646296D01*
X342797Y646384D01*
X342270Y646483D01*
X341831Y646592D01*
X341454Y646714D01*
X341116Y646850D01*
X340817Y647000D01*
X340556Y647164D01*
X340326Y647345D01*
X340120Y647546D01*
X339937Y647767D01*
X339777Y648008D01*
X339643Y648270D01*
X339534Y648556D01*
X339453Y648865D01*
X339397Y649197D01*
X339369Y649581D01*
X339382Y649947D01*
X339434Y650296D01*
X339527Y650627D01*
X339661Y650939D01*
X339835Y651234D01*
X340049Y651511D01*
X340304Y651770D01*
X340596Y652008D01*
X340925Y652224D01*
X341289Y652418D01*
X341689Y652588D01*
X342124Y652737D01*
X342596Y652862D01*
X343103Y652965D01*
X343646Y653045D01*
X344153Y653097D01*
X344633Y653126D01*
X345084Y653130D01*
X345506Y653111D01*
X345901Y653068D01*
X346267Y653002D01*
X346605Y652912D01*
X346915Y652798D01*
X347202Y652657D01*
X347472Y652485D01*
X347724Y652282D01*
X347960Y652049D01*
X348178Y651785D01*
X348379Y651491D01*
X348563Y651166D01*
X348730Y650810D01*
X347130Y650323D01*
X347027Y650548D01*
X346910Y650756D01*
X346779Y650944D01*
X346636Y651114D01*
X346480Y651266D01*
X346310Y651399D01*
X346127Y651513D01*
X345931Y651609D01*
X345720Y651688D01*
X345493Y651750D01*
X345249Y651797D01*
X344989Y651828D01*
X344712Y651842D01*
X344419Y651841D01*
X344109Y651824D01*
X343782Y651791D01*
X343427Y651740D01*
X343095Y651676D01*
X342787Y651599D01*
X342502Y651510D01*
X342241Y651409D01*
X342003Y651295D01*
X341789Y651168D01*
X341599Y651029D01*
X341434Y650877D01*
X341294Y650714D01*
X341181Y650539D01*
X341093Y650351D01*
X341032Y650152D01*
X340996Y649941D01*
X340987Y649717D01*
X341004Y649482D01*
X341056Y649214D01*
X341142Y648975D01*
X341263Y648765D01*
X341418Y648584D01*
X341607Y648427D01*
X341826Y648288D01*
X342078Y648167D01*
X342360Y648065D01*
X342729Y647972D01*
X343241Y647883D01*
X343894Y647795D01*
X344689Y647711D01*
X345847Y647584D01*
X346414Y647503D01*
X346961Y647394D01*
X347482Y647252D01*
X347975Y647073D01*
X348208Y646966D01*
X348428Y646844D01*
X348635Y646706D01*
X348829Y646551D01*
X349008Y646380D01*
X349172Y646190D01*
X349320Y645981D01*
X349452Y645754D01*
X349565Y645506D01*
X349658Y645232D01*
X349730Y644935D01*
X349782Y644612D01*
X349812Y644198D01*
X349797Y643802D01*
X349738Y643426D01*
X349635Y643068D01*
X349487Y642729D01*
X349295Y642408D01*
X349059Y642107D01*
X348778Y641824D01*
X348457Y641563D01*
X348098Y641327D01*
X347701Y641117D01*
X347268Y640930D01*
X346797Y640769D01*
X346288Y640633D01*
X345742Y640522D01*
X345159Y640435D01*
X344612Y640381D01*
X344092Y640354D01*
G37*
G36*
X362269Y642713D02*
X362106Y644043D01*
X365227Y644426D01*
X364070Y653850D01*
X361548Y651537D01*
X361366Y653015D01*
X364017Y655361D01*
X365460Y655538D01*
X366800Y644619D01*
X369782Y644985D01*
X369945Y643655D01*
X362269Y642713D01*
G37*
G36*
X352479Y641511D02*
X350975Y653760D01*
X352636Y653963D01*
X353973Y643071D01*
X360163Y643831D01*
X360329Y642475D01*
X352479Y641511D01*
G37*
G36*
X2596855Y689182D02*
X2595682Y689388D01*
X2596243Y691913D01*
X2593809Y691426D01*
X2593621Y692633D01*
X2596165Y692834D01*
X2594949Y695272D01*
X2596085Y695712D01*
X2596987Y693258D01*
X2598722Y695229D01*
X2599639Y694427D01*
X2597631Y692575D01*
X2599935Y691520D01*
X2599343Y690433D01*
X2597203Y691762D01*
X2596855Y689182D01*
G37*
G36*
X2544737Y647426D02*
X2542840Y647761D01*
X2540573Y653363D01*
X2536786Y654031D01*
X2535896Y648985D01*
X2534249Y649275D01*
X2536392Y661429D01*
X2542110Y660420D01*
X2542607Y660318D01*
X2543068Y660192D01*
X2543496Y660043D01*
X2543889Y659870D01*
X2544248Y659674D01*
X2544572Y659454D01*
X2544862Y659210D01*
X2545118Y658943D01*
X2545338Y658656D01*
X2545518Y658352D01*
X2545660Y658033D01*
X2545762Y657696D01*
X2545826Y657344D01*
X2545851Y656975D01*
X2545837Y656590D01*
X2545784Y656188D01*
X2545714Y655859D01*
X2545620Y655547D01*
X2545505Y655253D01*
X2545367Y654977D01*
X2545207Y654719D01*
X2545025Y654478D01*
X2544820Y654255D01*
X2544594Y654050D01*
X2544348Y653867D01*
X2544088Y653708D01*
X2543812Y653573D01*
X2543692Y653528D01*
X2543522Y653464D01*
X2543216Y653378D01*
X2542896Y653318D01*
X2542561Y653282D01*
X2542210Y653270D01*
X2543286Y650782D01*
X2544737Y647426D01*
G37*
%LPC*%
G36*
X2541901Y654560D02*
X2542174Y654581D01*
X2542431Y654623D01*
X2542674Y654688D01*
X2542901Y654776D01*
X2543113Y654885D01*
X2543308Y655015D01*
X2543484Y655165D01*
X2543639Y655333D01*
X2543776Y655521D01*
X2543892Y655728D01*
X2543990Y655954D01*
X2544067Y656199D01*
X2544125Y656463D01*
X2544159Y656723D01*
X2544168Y656970D01*
X2544152Y657206D01*
X2544110Y657430D01*
X2544043Y657642D01*
X2543951Y657842D01*
X2543833Y658031D01*
X2543690Y658207D01*
X2543523Y658371D01*
X2543333Y658521D01*
X2543121Y658657D01*
X2542885Y658780D01*
X2542627Y658888D01*
X2542345Y658982D01*
X2542041Y659063D01*
X2541714Y659130D01*
X2537807Y659819D01*
X2537016Y655333D01*
X2540992Y654632D01*
X2541310Y654586D01*
X2541613Y654562D01*
X2541901Y654560D01*
G37*
%LPD*%
G36*
X2528598Y650228D02*
X2528072Y650246D01*
X2527517Y650299D01*
X2526934Y650387D01*
X2526395Y650495D01*
X2525890Y650621D01*
X2525419Y650767D01*
X2524980Y650931D01*
X2524576Y651114D01*
X2524204Y651316D01*
X2523866Y651538D01*
X2523562Y651778D01*
X2523291Y652037D01*
X2523053Y652315D01*
X2522849Y652613D01*
X2522678Y652929D01*
X2522541Y653264D01*
X2522437Y653618D01*
X2522366Y653991D01*
X2522329Y654383D01*
X2523981Y654421D01*
X2524013Y654142D01*
X2524068Y653879D01*
X2524145Y653629D01*
X2524245Y653395D01*
X2524367Y653176D01*
X2524512Y652971D01*
X2524680Y652781D01*
X2524870Y652606D01*
X2525084Y652444D01*
X2525320Y652295D01*
X2525579Y652158D01*
X2525861Y652034D01*
X2526167Y651922D01*
X2526495Y651823D01*
X2526846Y651736D01*
X2527221Y651662D01*
X2527610Y651602D01*
X2527979Y651564D01*
X2528329Y651546D01*
X2528659Y651550D01*
X2528969Y651574D01*
X2529259Y651620D01*
X2529529Y651687D01*
X2529780Y651775D01*
X2530009Y651885D01*
X2530213Y652015D01*
X2530394Y652165D01*
X2530549Y652337D01*
X2530681Y652529D01*
X2530789Y652742D01*
X2530872Y652976D01*
X2530931Y653231D01*
X2530964Y653518D01*
X2530958Y653782D01*
X2530913Y654025D01*
X2530829Y654245D01*
X2530711Y654449D01*
X2530562Y654641D01*
X2530383Y654822D01*
X2530174Y654992D01*
X2529937Y655154D01*
X2529674Y655309D01*
X2529386Y655460D01*
X2529072Y655604D01*
X2527625Y656224D01*
X2526976Y656503D01*
X2526415Y656767D01*
X2525939Y657015D01*
X2525551Y657248D01*
X2525227Y657475D01*
X2524943Y657703D01*
X2524701Y657934D01*
X2524499Y658167D01*
X2524332Y658408D01*
X2524194Y658660D01*
X2524083Y658925D01*
X2524001Y659202D01*
X2523950Y659493D01*
X2523930Y659797D01*
X2523942Y660117D01*
X2523986Y660450D01*
X2524071Y660826D01*
X2524190Y661173D01*
X2524342Y661491D01*
X2524528Y661780D01*
X2524747Y662040D01*
X2525000Y662271D01*
X2525286Y662473D01*
X2525605Y662646D01*
X2525954Y662789D01*
X2526332Y662899D01*
X2526736Y662978D01*
X2527169Y663024D01*
X2527629Y663038D01*
X2528116Y663020D01*
X2528631Y662970D01*
X2529174Y662888D01*
X2529674Y662790D01*
X2530141Y662677D01*
X2530574Y662550D01*
X2530972Y662408D01*
X2531337Y662251D01*
X2531668Y662081D01*
X2531965Y661896D01*
X2532228Y661696D01*
X2532461Y661477D01*
X2532669Y661234D01*
X2532851Y660966D01*
X2533008Y660675D01*
X2533140Y660359D01*
X2533246Y660018D01*
X2533327Y659654D01*
X2533382Y659265D01*
X2531710Y659266D01*
X2531677Y659512D01*
X2531626Y659745D01*
X2531556Y659963D01*
X2531469Y660168D01*
X2531364Y660359D01*
X2531240Y660535D01*
X2531099Y660698D01*
X2530939Y660847D01*
X2530761Y660984D01*
X2530562Y661110D01*
X2530342Y661226D01*
X2530102Y661332D01*
X2529842Y661427D01*
X2529561Y661511D01*
X2529259Y661585D01*
X2528938Y661649D01*
X2528583Y661704D01*
X2528246Y661740D01*
X2527929Y661757D01*
X2527631Y661755D01*
X2527352Y661734D01*
X2527091Y661695D01*
X2526850Y661636D01*
X2526627Y661559D01*
X2526424Y661462D01*
X2526243Y661347D01*
X2526084Y661212D01*
X2525945Y661059D01*
X2525828Y660886D01*
X2525732Y660694D01*
X2525658Y660483D01*
X2525605Y660254D01*
X2525577Y659982D01*
X2525589Y659728D01*
X2525644Y659492D01*
X2525739Y659274D01*
X2525874Y659068D01*
X2526043Y658871D01*
X2526248Y658682D01*
X2526488Y658501D01*
X2526814Y658305D01*
X2527277Y658070D01*
X2527876Y657796D01*
X2528612Y657482D01*
X2529682Y657022D01*
X2530201Y656779D01*
X2530691Y656515D01*
X2531149Y656227D01*
X2531568Y655912D01*
X2531759Y655742D01*
X2531934Y655560D01*
X2532091Y655367D01*
X2532232Y655163D01*
X2532353Y654946D01*
X2532454Y654717D01*
X2532535Y654474D01*
X2532594Y654219D01*
X2532630Y653948D01*
X2532639Y653659D01*
X2532621Y653353D01*
X2532576Y653030D01*
X2532483Y652625D01*
X2532354Y652251D01*
X2532187Y651908D01*
X2531984Y651596D01*
X2531744Y651315D01*
X2531467Y651065D01*
X2531152Y650845D01*
X2530801Y650657D01*
X2530418Y650502D01*
X2530005Y650381D01*
X2529565Y650295D01*
X2529095Y650244D01*
X2528598Y650228D01*
G37*
G36*
X2554533Y645699D02*
X2546917Y647042D01*
X2547150Y648361D01*
X2550246Y647815D01*
X2551895Y657165D01*
X2548807Y655691D01*
X2549065Y657157D01*
X2552286Y658626D01*
X2553718Y658374D01*
X2551807Y647540D01*
X2554766Y647018D01*
X2554533Y645699D01*
G37*
G36*
X2607286Y127605D02*
X2606819Y127617D01*
X2606368Y127653D01*
X2605933Y127713D01*
X2605515Y127798D01*
X2605113Y127906D01*
X2604728Y128038D01*
X2604358Y128195D01*
X2604005Y128376D01*
X2603671Y128579D01*
X2603357Y128804D01*
X2603063Y129050D01*
X2602789Y129318D01*
X2602536Y129608D01*
X2602303Y129918D01*
X2602091Y130251D01*
X2601899Y130605D01*
X2601729Y130977D01*
X2601581Y131364D01*
X2601456Y131767D01*
X2601354Y132184D01*
X2601274Y132617D01*
X2601218Y133066D01*
X2601183Y133529D01*
X2601172Y134007D01*
X2601178Y134372D01*
X2601197Y134727D01*
X2601229Y135072D01*
X2601273Y135407D01*
X2601330Y135731D01*
X2601400Y136046D01*
X2601482Y136350D01*
X2601577Y136645D01*
X2601685Y136929D01*
X2601805Y137203D01*
X2601938Y137467D01*
X2602084Y137721D01*
X2602413Y138199D01*
X2602792Y138636D01*
X2603217Y139027D01*
X2603445Y139203D01*
X2603682Y139366D01*
X2603929Y139516D01*
X2604186Y139653D01*
X2604453Y139777D01*
X2604730Y139888D01*
X2605017Y139985D01*
X2605314Y140070D01*
X2605621Y140142D01*
X2605937Y140200D01*
X2606264Y140246D01*
X2606600Y140279D01*
X2606947Y140298D01*
X2607303Y140305D01*
X2607766Y140293D01*
X2608213Y140258D01*
X2608645Y140199D01*
X2609061Y140118D01*
X2609462Y140012D01*
X2609847Y139883D01*
X2610216Y139731D01*
X2610570Y139556D01*
X2610906Y139358D01*
X2611221Y139139D01*
X2611516Y138899D01*
X2611791Y138637D01*
X2612045Y138355D01*
X2612279Y138051D01*
X2612492Y137726D01*
X2612685Y137379D01*
X2612857Y137014D01*
X2613005Y136633D01*
X2613131Y136236D01*
X2613234Y135823D01*
X2613314Y135393D01*
X2613371Y134947D01*
X2613405Y134485D01*
X2613417Y134007D01*
X2613405Y133531D01*
X2613370Y133070D01*
X2613312Y132623D01*
X2613232Y132192D01*
X2613127Y131776D01*
X2613000Y131375D01*
X2612850Y130989D01*
X2612676Y130618D01*
X2612481Y130265D01*
X2612266Y129933D01*
X2612031Y129622D01*
X2611775Y129332D01*
X2611500Y129064D01*
X2611204Y128816D01*
X2610888Y128590D01*
X2610552Y128384D01*
X2610199Y128202D01*
X2609829Y128043D01*
X2609444Y127909D01*
X2609044Y127800D01*
X2608628Y127714D01*
X2608196Y127654D01*
X2607749Y127617D01*
X2607286Y127605D01*
G37*
%LPC*%
G36*
X2607286Y128962D02*
X2607804Y128983D01*
X2608292Y129045D01*
X2608749Y129148D01*
X2609174Y129292D01*
X2609569Y129477D01*
X2609932Y129704D01*
X2610264Y129972D01*
X2610566Y130281D01*
X2610834Y130627D01*
X2611066Y131008D01*
X2611262Y131423D01*
X2611423Y131871D01*
X2611548Y132354D01*
X2611637Y132871D01*
X2611691Y133422D01*
X2611709Y134007D01*
X2611691Y134568D01*
X2611637Y135097D01*
X2611547Y135596D01*
X2611421Y136063D01*
X2611259Y136500D01*
X2611061Y136906D01*
X2610827Y137281D01*
X2610557Y137625D01*
X2610254Y137933D01*
X2609922Y138199D01*
X2609559Y138425D01*
X2609168Y138610D01*
X2608746Y138754D01*
X2608295Y138856D01*
X2607814Y138918D01*
X2607303Y138938D01*
X2606788Y138918D01*
X2606303Y138857D01*
X2605849Y138756D01*
X2605424Y138614D01*
X2605030Y138432D01*
X2604666Y138209D01*
X2604331Y137946D01*
X2604027Y137642D01*
X2603756Y137302D01*
X2603522Y136929D01*
X2603323Y136523D01*
X2603160Y136085D01*
X2603034Y135615D01*
X2602943Y135111D01*
X2602889Y134576D01*
X2602871Y134007D01*
X2602890Y133442D01*
X2602944Y132907D01*
X2603036Y132401D01*
X2603164Y131926D01*
X2603328Y131481D01*
X2603529Y131065D01*
X2603766Y130680D01*
X2604041Y130324D01*
X2604347Y130005D01*
X2604682Y129729D01*
X2605045Y129494D01*
X2605436Y129303D01*
X2605856Y129154D01*
X2606304Y129048D01*
X2606781Y128984D01*
X2607286Y128962D01*
G37*
%LPD*%
G36*
X2593441Y127780D02*
X2588825Y127780D01*
X2588825Y140121D01*
X2592907Y140121D01*
X2593293Y140115D01*
X2593668Y140096D01*
X2594032Y140066D01*
X2594385Y140023D01*
X2594727Y139967D01*
X2595057Y139900D01*
X2595376Y139820D01*
X2595684Y139728D01*
X2595981Y139623D01*
X2596267Y139507D01*
X2596541Y139378D01*
X2596804Y139236D01*
X2597057Y139083D01*
X2597298Y138917D01*
X2597527Y138739D01*
X2597746Y138549D01*
X2597952Y138347D01*
X2598145Y138135D01*
X2598325Y137912D01*
X2598491Y137680D01*
X2598644Y137436D01*
X2598784Y137183D01*
X2598910Y136919D01*
X2599023Y136645D01*
X2599123Y136360D01*
X2599210Y136065D01*
X2599283Y135760D01*
X2599343Y135444D01*
X2599389Y135118D01*
X2599423Y134781D01*
X2599443Y134435D01*
X2599449Y134077D01*
X2599438Y133608D01*
X2599403Y133153D01*
X2599345Y132712D01*
X2599263Y132287D01*
X2599158Y131877D01*
X2599031Y131482D01*
X2598879Y131101D01*
X2598705Y130736D01*
X2598509Y130388D01*
X2598294Y130062D01*
X2598059Y129756D01*
X2597805Y129471D01*
X2597531Y129208D01*
X2597238Y128965D01*
X2596926Y128743D01*
X2596594Y128542D01*
X2596246Y128363D01*
X2595885Y128209D01*
X2595510Y128078D01*
X2595123Y127970D01*
X2594722Y127887D01*
X2594308Y127828D01*
X2593881Y127792D01*
X2593441Y127780D01*
G37*
%LPC*%
G36*
X2593248Y129120D02*
X2593583Y129129D01*
X2593907Y129157D01*
X2594220Y129204D01*
X2594524Y129269D01*
X2594817Y129353D01*
X2595100Y129455D01*
X2595373Y129576D01*
X2595635Y129716D01*
X2595885Y129873D01*
X2596120Y130046D01*
X2596340Y130236D01*
X2596545Y130443D01*
X2596735Y130665D01*
X2596910Y130905D01*
X2597070Y131160D01*
X2597216Y131432D01*
X2597345Y131719D01*
X2597457Y132018D01*
X2597552Y132330D01*
X2597630Y132654D01*
X2597690Y132991D01*
X2597733Y133341D01*
X2597759Y133703D01*
X2597768Y134077D01*
X2597748Y134634D01*
X2597689Y135157D01*
X2597591Y135645D01*
X2597453Y136100D01*
X2597277Y136520D01*
X2597061Y136906D01*
X2596805Y137258D01*
X2596511Y137576D01*
X2596179Y137859D01*
X2595812Y138103D01*
X2595410Y138310D01*
X2594973Y138480D01*
X2594500Y138611D01*
X2593992Y138705D01*
X2593450Y138762D01*
X2592872Y138781D01*
X2590498Y138781D01*
X2590498Y129120D01*
X2593248Y129120D01*
G37*
%LPD*%
G36*
X2567904Y127780D02*
X2566231Y127780D01*
X2566231Y140121D01*
X2571425Y140121D01*
X2571930Y140106D01*
X2572405Y140060D01*
X2572850Y139984D01*
X2573267Y139878D01*
X2573654Y139741D01*
X2574012Y139574D01*
X2574340Y139376D01*
X2574640Y139149D01*
X2574907Y138893D01*
X2575138Y138613D01*
X2575333Y138307D01*
X2575494Y137977D01*
X2575618Y137622D01*
X2575707Y137242D01*
X2575760Y136837D01*
X2575778Y136407D01*
X2575760Y135980D01*
X2575707Y135576D01*
X2575618Y135194D01*
X2575493Y134835D01*
X2575332Y134498D01*
X2575135Y134184D01*
X2574903Y133892D01*
X2574635Y133622D01*
X2574337Y133380D01*
X2574013Y133170D01*
X2573663Y132992D01*
X2573288Y132847D01*
X2572887Y132734D01*
X2572460Y132653D01*
X2572008Y132605D01*
X2571530Y132588D01*
X2567904Y132588D01*
X2567904Y127780D01*
G37*
%LPC*%
G36*
X2571294Y133911D02*
X2571633Y133921D01*
X2571951Y133950D01*
X2572246Y133998D01*
X2572520Y134066D01*
X2572772Y134153D01*
X2573002Y134260D01*
X2573210Y134385D01*
X2573396Y134531D01*
X2573560Y134695D01*
X2573702Y134879D01*
X2573823Y135083D01*
X2573921Y135305D01*
X2573998Y135547D01*
X2574053Y135809D01*
X2574086Y136089D01*
X2574097Y136390D01*
X2574085Y136679D01*
X2574052Y136950D01*
X2573996Y137202D01*
X2573917Y137436D01*
X2573816Y137651D01*
X2573693Y137847D01*
X2573547Y138024D01*
X2573378Y138183D01*
X2573188Y138323D01*
X2572974Y138444D01*
X2572739Y138547D01*
X2572481Y138631D01*
X2572200Y138697D01*
X2571897Y138743D01*
X2571572Y138771D01*
X2571224Y138781D01*
X2567904Y138781D01*
X2567904Y133911D01*
X2571294Y133911D01*
G37*
%LPD*%
G36*
X2577154Y127780D02*
X2575420Y127780D01*
X2580456Y140121D01*
X2582357Y140121D01*
X2587314Y127780D01*
X2585606Y127780D01*
X2584196Y131389D01*
X2578573Y131389D01*
X2577154Y127780D01*
G37*
%LPC*%
G36*
X2583697Y132694D02*
X2582112Y136766D01*
X2581866Y137410D01*
X2581621Y138133D01*
X2581385Y138860D01*
X2581306Y138614D01*
X2581034Y137784D01*
X2580658Y136749D01*
X2579081Y132694D01*
X2583697Y132694D01*
G37*
%LPD*%
G36*
X2620662Y127605D02*
X2620290Y127613D01*
X2619929Y127639D01*
X2619580Y127682D01*
X2619244Y127743D01*
X2618919Y127820D01*
X2618606Y127915D01*
X2618306Y128027D01*
X2618017Y128157D01*
X2617743Y128302D01*
X2617484Y128464D01*
X2617241Y128641D01*
X2617015Y128833D01*
X2616804Y129041D01*
X2616608Y129265D01*
X2616429Y129504D01*
X2616266Y129759D01*
X2616120Y130028D01*
X2615994Y130310D01*
X2615887Y130604D01*
X2615799Y130911D01*
X2615731Y131231D01*
X2615683Y131563D01*
X2615654Y131907D01*
X2615644Y132264D01*
X2615644Y140121D01*
X2617317Y140121D01*
X2617317Y132405D01*
X2617330Y131995D01*
X2617370Y131610D01*
X2617437Y131251D01*
X2617531Y130918D01*
X2617652Y130610D01*
X2617800Y130327D01*
X2617974Y130070D01*
X2618175Y129838D01*
X2618402Y129633D01*
X2618652Y129455D01*
X2618926Y129305D01*
X2619224Y129181D01*
X2619546Y129086D01*
X2619891Y129017D01*
X2620261Y128976D01*
X2620654Y128962D01*
X2621058Y128977D01*
X2621440Y129019D01*
X2621798Y129090D01*
X2622133Y129189D01*
X2622445Y129317D01*
X2622734Y129472D01*
X2622999Y129656D01*
X2623242Y129869D01*
X2623458Y130109D01*
X2623646Y130374D01*
X2623805Y130666D01*
X2623935Y130985D01*
X2624036Y131329D01*
X2624108Y131699D01*
X2624151Y132096D01*
X2624166Y132518D01*
X2624166Y140121D01*
X2625830Y140121D01*
X2625830Y132422D01*
X2625820Y132054D01*
X2625790Y131699D01*
X2625741Y131357D01*
X2625671Y131027D01*
X2625582Y130711D01*
X2625473Y130407D01*
X2625344Y130116D01*
X2625195Y129838D01*
X2625028Y129575D01*
X2624845Y129327D01*
X2624645Y129096D01*
X2624429Y128880D01*
X2624196Y128681D01*
X2623947Y128497D01*
X2623681Y128330D01*
X2623400Y128179D01*
X2623103Y128044D01*
X2622793Y127928D01*
X2622471Y127829D01*
X2622135Y127748D01*
X2621786Y127686D01*
X2621425Y127641D01*
X2621050Y127614D01*
X2620662Y127605D01*
G37*
G36*
X2633535Y127780D02*
X2631871Y127780D01*
X2631871Y138754D01*
X2627632Y138754D01*
X2627632Y140121D01*
X2637774Y140121D01*
X2637774Y138754D01*
X2633535Y138754D01*
X2633535Y127780D01*
G37*
G36*
X2657547Y127780D02*
X2649638Y127780D01*
X2649638Y140121D01*
X2651311Y140121D01*
X2651311Y129146D01*
X2657547Y129146D01*
X2657547Y127780D01*
G37*
G36*
X2664012Y129357D02*
X2662724Y129357D01*
X2662724Y133105D01*
X2659011Y133105D01*
X2659011Y134384D01*
X2662724Y134384D01*
X2662724Y138133D01*
X2664012Y138133D01*
X2664012Y134384D01*
X2667726Y134384D01*
X2667726Y133105D01*
X2664012Y133105D01*
X2664012Y129357D01*
G37*
G36*
X2648375Y124215D02*
X2637926Y124215D01*
X2637926Y125354D01*
X2648375Y125354D01*
X2648375Y124215D01*
G37*
G36*
X2607286Y77605D02*
X2606819Y77617D01*
X2606368Y77653D01*
X2605933Y77713D01*
X2605515Y77798D01*
X2605113Y77906D01*
X2604728Y78038D01*
X2604358Y78195D01*
X2604005Y78376D01*
X2603671Y78579D01*
X2603357Y78804D01*
X2603063Y79050D01*
X2602789Y79318D01*
X2602536Y79608D01*
X2602303Y79918D01*
X2602091Y80251D01*
X2601899Y80605D01*
X2601729Y80977D01*
X2601581Y81364D01*
X2601456Y81767D01*
X2601354Y82184D01*
X2601274Y82617D01*
X2601218Y83066D01*
X2601183Y83529D01*
X2601172Y84007D01*
X2601178Y84372D01*
X2601197Y84727D01*
X2601229Y85072D01*
X2601273Y85407D01*
X2601330Y85731D01*
X2601400Y86046D01*
X2601482Y86350D01*
X2601577Y86645D01*
X2601685Y86929D01*
X2601805Y87203D01*
X2601938Y87467D01*
X2602084Y87721D01*
X2602413Y88199D01*
X2602792Y88636D01*
X2603217Y89027D01*
X2603445Y89203D01*
X2603682Y89366D01*
X2603929Y89516D01*
X2604186Y89653D01*
X2604453Y89777D01*
X2604730Y89888D01*
X2605017Y89985D01*
X2605314Y90070D01*
X2605621Y90142D01*
X2605937Y90200D01*
X2606264Y90246D01*
X2606600Y90279D01*
X2606947Y90298D01*
X2607303Y90305D01*
X2607766Y90293D01*
X2608213Y90258D01*
X2608645Y90199D01*
X2609061Y90118D01*
X2609462Y90012D01*
X2609847Y89883D01*
X2610216Y89731D01*
X2610570Y89556D01*
X2610906Y89358D01*
X2611221Y89139D01*
X2611516Y88899D01*
X2611791Y88637D01*
X2612045Y88355D01*
X2612279Y88051D01*
X2612492Y87726D01*
X2612685Y87379D01*
X2612857Y87014D01*
X2613005Y86633D01*
X2613131Y86236D01*
X2613234Y85823D01*
X2613314Y85393D01*
X2613371Y84947D01*
X2613405Y84485D01*
X2613417Y84007D01*
X2613405Y83531D01*
X2613370Y83070D01*
X2613312Y82623D01*
X2613232Y82192D01*
X2613127Y81776D01*
X2613000Y81375D01*
X2612850Y80989D01*
X2612676Y80618D01*
X2612481Y80265D01*
X2612266Y79933D01*
X2612031Y79622D01*
X2611775Y79332D01*
X2611500Y79064D01*
X2611204Y78816D01*
X2610888Y78590D01*
X2610552Y78384D01*
X2610199Y78202D01*
X2609829Y78043D01*
X2609444Y77909D01*
X2609044Y77800D01*
X2608628Y77714D01*
X2608196Y77654D01*
X2607749Y77617D01*
X2607286Y77605D01*
G37*
%LPC*%
G36*
X2607286Y78962D02*
X2607804Y78983D01*
X2608292Y79045D01*
X2608749Y79148D01*
X2609174Y79292D01*
X2609569Y79477D01*
X2609932Y79704D01*
X2610264Y79972D01*
X2610566Y80281D01*
X2610834Y80627D01*
X2611066Y81008D01*
X2611262Y81423D01*
X2611423Y81871D01*
X2611548Y82354D01*
X2611637Y82871D01*
X2611691Y83422D01*
X2611709Y84007D01*
X2611691Y84568D01*
X2611637Y85097D01*
X2611547Y85596D01*
X2611421Y86063D01*
X2611259Y86500D01*
X2611061Y86906D01*
X2610827Y87281D01*
X2610557Y87625D01*
X2610254Y87933D01*
X2609922Y88199D01*
X2609559Y88425D01*
X2609168Y88610D01*
X2608746Y88754D01*
X2608295Y88856D01*
X2607814Y88918D01*
X2607303Y88938D01*
X2606788Y88918D01*
X2606303Y88857D01*
X2605849Y88756D01*
X2605424Y88614D01*
X2605030Y88432D01*
X2604666Y88209D01*
X2604331Y87946D01*
X2604027Y87642D01*
X2603756Y87302D01*
X2603522Y86929D01*
X2603323Y86523D01*
X2603160Y86085D01*
X2603034Y85615D01*
X2602943Y85111D01*
X2602889Y84576D01*
X2602871Y84007D01*
X2602890Y83442D01*
X2602944Y82907D01*
X2603036Y82401D01*
X2603164Y81926D01*
X2603328Y81481D01*
X2603529Y81065D01*
X2603766Y80680D01*
X2604041Y80324D01*
X2604347Y80005D01*
X2604682Y79729D01*
X2605045Y79494D01*
X2605436Y79303D01*
X2605856Y79154D01*
X2606304Y79048D01*
X2606781Y78984D01*
X2607286Y78962D01*
G37*
%LPD*%
G36*
X2593441Y77780D02*
X2588825Y77780D01*
X2588825Y90121D01*
X2592907Y90121D01*
X2593293Y90115D01*
X2593668Y90096D01*
X2594032Y90066D01*
X2594385Y90023D01*
X2594727Y89967D01*
X2595057Y89900D01*
X2595376Y89820D01*
X2595684Y89728D01*
X2595981Y89623D01*
X2596267Y89507D01*
X2596541Y89378D01*
X2596804Y89236D01*
X2597057Y89083D01*
X2597298Y88917D01*
X2597527Y88739D01*
X2597746Y88549D01*
X2597952Y88347D01*
X2598145Y88135D01*
X2598325Y87912D01*
X2598491Y87680D01*
X2598644Y87436D01*
X2598784Y87183D01*
X2598910Y86919D01*
X2599023Y86645D01*
X2599123Y86360D01*
X2599210Y86065D01*
X2599283Y85760D01*
X2599343Y85444D01*
X2599389Y85118D01*
X2599423Y84781D01*
X2599443Y84435D01*
X2599449Y84077D01*
X2599438Y83608D01*
X2599403Y83153D01*
X2599345Y82712D01*
X2599263Y82287D01*
X2599158Y81877D01*
X2599031Y81482D01*
X2598879Y81101D01*
X2598705Y80736D01*
X2598509Y80388D01*
X2598294Y80062D01*
X2598059Y79756D01*
X2597805Y79471D01*
X2597531Y79208D01*
X2597238Y78965D01*
X2596926Y78743D01*
X2596594Y78542D01*
X2596246Y78363D01*
X2595885Y78209D01*
X2595510Y78078D01*
X2595123Y77970D01*
X2594722Y77887D01*
X2594308Y77828D01*
X2593881Y77792D01*
X2593441Y77780D01*
G37*
%LPC*%
G36*
X2593248Y79120D02*
X2593583Y79129D01*
X2593907Y79157D01*
X2594220Y79204D01*
X2594524Y79269D01*
X2594817Y79353D01*
X2595100Y79455D01*
X2595373Y79576D01*
X2595635Y79716D01*
X2595885Y79873D01*
X2596120Y80046D01*
X2596340Y80236D01*
X2596545Y80443D01*
X2596735Y80665D01*
X2596910Y80905D01*
X2597070Y81160D01*
X2597216Y81432D01*
X2597345Y81719D01*
X2597457Y82018D01*
X2597552Y82330D01*
X2597630Y82654D01*
X2597690Y82991D01*
X2597733Y83341D01*
X2597759Y83703D01*
X2597768Y84077D01*
X2597748Y84634D01*
X2597689Y85157D01*
X2597591Y85645D01*
X2597453Y86100D01*
X2597277Y86520D01*
X2597061Y86906D01*
X2596805Y87258D01*
X2596511Y87576D01*
X2596179Y87859D01*
X2595812Y88103D01*
X2595410Y88310D01*
X2594973Y88480D01*
X2594500Y88611D01*
X2593992Y88705D01*
X2593450Y88762D01*
X2592872Y88781D01*
X2590498Y88781D01*
X2590498Y79120D01*
X2593248Y79120D01*
G37*
%LPD*%
G36*
X2567904Y77780D02*
X2566231Y77780D01*
X2566231Y90121D01*
X2571425Y90121D01*
X2571930Y90106D01*
X2572405Y90060D01*
X2572850Y89984D01*
X2573267Y89878D01*
X2573654Y89741D01*
X2574012Y89574D01*
X2574340Y89376D01*
X2574640Y89149D01*
X2574907Y88893D01*
X2575138Y88613D01*
X2575333Y88307D01*
X2575494Y87977D01*
X2575618Y87622D01*
X2575707Y87242D01*
X2575760Y86837D01*
X2575778Y86407D01*
X2575760Y85980D01*
X2575707Y85576D01*
X2575618Y85194D01*
X2575493Y84835D01*
X2575332Y84498D01*
X2575135Y84184D01*
X2574903Y83892D01*
X2574635Y83622D01*
X2574337Y83380D01*
X2574013Y83170D01*
X2573663Y82992D01*
X2573288Y82847D01*
X2572887Y82734D01*
X2572460Y82653D01*
X2572008Y82605D01*
X2571530Y82588D01*
X2567904Y82588D01*
X2567904Y77780D01*
G37*
%LPC*%
G36*
X2571294Y83911D02*
X2571633Y83921D01*
X2571951Y83950D01*
X2572246Y83998D01*
X2572520Y84066D01*
X2572772Y84153D01*
X2573002Y84260D01*
X2573210Y84385D01*
X2573396Y84531D01*
X2573560Y84695D01*
X2573702Y84879D01*
X2573823Y85083D01*
X2573921Y85305D01*
X2573998Y85547D01*
X2574053Y85809D01*
X2574086Y86089D01*
X2574097Y86390D01*
X2574085Y86679D01*
X2574052Y86950D01*
X2573996Y87202D01*
X2573917Y87436D01*
X2573816Y87651D01*
X2573693Y87847D01*
X2573547Y88024D01*
X2573378Y88183D01*
X2573188Y88323D01*
X2572974Y88444D01*
X2572739Y88547D01*
X2572481Y88631D01*
X2572200Y88697D01*
X2571897Y88743D01*
X2571572Y88771D01*
X2571224Y88781D01*
X2567904Y88781D01*
X2567904Y83911D01*
X2571294Y83911D01*
G37*
%LPD*%
G36*
X2577154Y77780D02*
X2575420Y77780D01*
X2580456Y90121D01*
X2582357Y90121D01*
X2587314Y77780D01*
X2585606Y77780D01*
X2584196Y81389D01*
X2578573Y81389D01*
X2577154Y77780D01*
G37*
%LPC*%
G36*
X2583697Y82694D02*
X2582112Y86766D01*
X2581866Y87410D01*
X2581621Y88133D01*
X2581385Y88860D01*
X2581306Y88614D01*
X2581034Y87784D01*
X2580658Y86749D01*
X2579081Y82694D01*
X2583697Y82694D01*
G37*
%LPD*%
G36*
X2620662Y77605D02*
X2620290Y77613D01*
X2619929Y77639D01*
X2619580Y77682D01*
X2619244Y77743D01*
X2618919Y77820D01*
X2618606Y77915D01*
X2618306Y78027D01*
X2618017Y78157D01*
X2617743Y78302D01*
X2617484Y78464D01*
X2617241Y78641D01*
X2617015Y78833D01*
X2616804Y79041D01*
X2616608Y79265D01*
X2616429Y79504D01*
X2616266Y79759D01*
X2616120Y80028D01*
X2615994Y80310D01*
X2615887Y80604D01*
X2615799Y80911D01*
X2615731Y81231D01*
X2615683Y81563D01*
X2615654Y81907D01*
X2615644Y82264D01*
X2615644Y90121D01*
X2617317Y90121D01*
X2617317Y82405D01*
X2617330Y81995D01*
X2617370Y81610D01*
X2617437Y81251D01*
X2617531Y80918D01*
X2617652Y80610D01*
X2617800Y80327D01*
X2617974Y80070D01*
X2618175Y79838D01*
X2618402Y79633D01*
X2618652Y79455D01*
X2618926Y79305D01*
X2619224Y79181D01*
X2619546Y79086D01*
X2619891Y79017D01*
X2620261Y78976D01*
X2620654Y78962D01*
X2621058Y78977D01*
X2621440Y79019D01*
X2621798Y79090D01*
X2622133Y79189D01*
X2622445Y79317D01*
X2622734Y79472D01*
X2622999Y79656D01*
X2623242Y79869D01*
X2623458Y80109D01*
X2623646Y80374D01*
X2623805Y80666D01*
X2623935Y80985D01*
X2624036Y81329D01*
X2624108Y81699D01*
X2624151Y82096D01*
X2624166Y82518D01*
X2624166Y90121D01*
X2625830Y90121D01*
X2625830Y82422D01*
X2625820Y82054D01*
X2625790Y81699D01*
X2625741Y81357D01*
X2625671Y81027D01*
X2625582Y80711D01*
X2625473Y80407D01*
X2625344Y80116D01*
X2625195Y79838D01*
X2625028Y79575D01*
X2624845Y79327D01*
X2624645Y79096D01*
X2624429Y78880D01*
X2624196Y78681D01*
X2623947Y78497D01*
X2623681Y78330D01*
X2623400Y78179D01*
X2623103Y78044D01*
X2622793Y77928D01*
X2622471Y77829D01*
X2622135Y77748D01*
X2621786Y77686D01*
X2621425Y77641D01*
X2621050Y77614D01*
X2620662Y77605D01*
G37*
G36*
X2633535Y77780D02*
X2631871Y77780D01*
X2631871Y88754D01*
X2627632Y88754D01*
X2627632Y90121D01*
X2637774Y90121D01*
X2637774Y88754D01*
X2633535Y88754D01*
X2633535Y77780D01*
G37*
G36*
X2657547Y77780D02*
X2649638Y77780D01*
X2649638Y90121D01*
X2651311Y90121D01*
X2651311Y79146D01*
X2657547Y79146D01*
X2657547Y77780D01*
G37*
G36*
X2648375Y74215D02*
X2637926Y74215D01*
X2637926Y75354D01*
X2648375Y75354D01*
X2648375Y74215D01*
G37*
G36*
X2663311Y81844D02*
X2658932Y81844D01*
X2658932Y83245D01*
X2663311Y83245D01*
X2663311Y81844D01*
G37*
G36*
X267286Y127605D02*
X266819Y127617D01*
X266368Y127653D01*
X265933Y127713D01*
X265515Y127798D01*
X265113Y127906D01*
X264728Y128038D01*
X264358Y128195D01*
X264005Y128376D01*
X263671Y128579D01*
X263357Y128804D01*
X263063Y129050D01*
X262789Y129318D01*
X262536Y129608D01*
X262303Y129918D01*
X262091Y130251D01*
X261899Y130605D01*
X261729Y130977D01*
X261581Y131364D01*
X261456Y131767D01*
X261354Y132184D01*
X261274Y132617D01*
X261218Y133066D01*
X261183Y133529D01*
X261172Y134007D01*
X261178Y134372D01*
X261197Y134727D01*
X261229Y135072D01*
X261273Y135407D01*
X261330Y135731D01*
X261400Y136046D01*
X261482Y136350D01*
X261577Y136645D01*
X261685Y136929D01*
X261805Y137203D01*
X261938Y137467D01*
X262084Y137721D01*
X262413Y138199D01*
X262792Y138636D01*
X263217Y139027D01*
X263445Y139203D01*
X263682Y139366D01*
X263929Y139516D01*
X264186Y139653D01*
X264453Y139777D01*
X264730Y139888D01*
X265017Y139985D01*
X265314Y140070D01*
X265621Y140142D01*
X265937Y140200D01*
X266264Y140246D01*
X266600Y140279D01*
X266947Y140298D01*
X267303Y140305D01*
X267766Y140293D01*
X268213Y140258D01*
X268645Y140199D01*
X269061Y140118D01*
X269462Y140012D01*
X269847Y139883D01*
X270216Y139731D01*
X270570Y139556D01*
X270906Y139358D01*
X271221Y139139D01*
X271516Y138899D01*
X271791Y138637D01*
X272045Y138355D01*
X272279Y138051D01*
X272492Y137726D01*
X272685Y137379D01*
X272857Y137014D01*
X273005Y136633D01*
X273131Y136236D01*
X273234Y135823D01*
X273314Y135393D01*
X273371Y134947D01*
X273405Y134485D01*
X273417Y134007D01*
X273405Y133531D01*
X273370Y133070D01*
X273312Y132623D01*
X273232Y132192D01*
X273127Y131776D01*
X273000Y131375D01*
X272850Y130989D01*
X272676Y130618D01*
X272481Y130265D01*
X272266Y129933D01*
X272031Y129622D01*
X271775Y129332D01*
X271500Y129064D01*
X271204Y128816D01*
X270888Y128590D01*
X270552Y128384D01*
X270199Y128202D01*
X269829Y128043D01*
X269444Y127909D01*
X269044Y127800D01*
X268628Y127714D01*
X268196Y127654D01*
X267749Y127617D01*
X267286Y127605D01*
G37*
%LPC*%
G36*
X267286Y128962D02*
X267804Y128983D01*
X268292Y129045D01*
X268749Y129148D01*
X269174Y129292D01*
X269569Y129477D01*
X269932Y129704D01*
X270264Y129972D01*
X270566Y130281D01*
X270834Y130627D01*
X271066Y131008D01*
X271262Y131423D01*
X271423Y131871D01*
X271548Y132354D01*
X271637Y132871D01*
X271691Y133422D01*
X271709Y134007D01*
X271691Y134568D01*
X271637Y135097D01*
X271547Y135596D01*
X271421Y136063D01*
X271259Y136500D01*
X271061Y136906D01*
X270827Y137281D01*
X270557Y137625D01*
X270254Y137933D01*
X269922Y138199D01*
X269559Y138425D01*
X269168Y138610D01*
X268746Y138754D01*
X268295Y138856D01*
X267814Y138918D01*
X267303Y138938D01*
X266788Y138918D01*
X266303Y138857D01*
X265849Y138756D01*
X265424Y138614D01*
X265030Y138432D01*
X264666Y138209D01*
X264331Y137946D01*
X264027Y137642D01*
X263756Y137302D01*
X263522Y136929D01*
X263323Y136523D01*
X263160Y136085D01*
X263034Y135615D01*
X262943Y135111D01*
X262889Y134576D01*
X262871Y134007D01*
X262890Y133442D01*
X262944Y132907D01*
X263036Y132401D01*
X263164Y131926D01*
X263328Y131481D01*
X263529Y131065D01*
X263766Y130680D01*
X264041Y130324D01*
X264347Y130005D01*
X264682Y129729D01*
X265045Y129494D01*
X265436Y129303D01*
X265856Y129154D01*
X266304Y129048D01*
X266781Y128984D01*
X267286Y128962D01*
G37*
%LPD*%
G36*
X253441Y127780D02*
X248825Y127780D01*
X248825Y140121D01*
X252907Y140121D01*
X253293Y140115D01*
X253668Y140096D01*
X254032Y140066D01*
X254385Y140023D01*
X254727Y139967D01*
X255057Y139900D01*
X255376Y139820D01*
X255684Y139728D01*
X255981Y139623D01*
X256267Y139507D01*
X256541Y139378D01*
X256804Y139236D01*
X257057Y139083D01*
X257298Y138917D01*
X257527Y138739D01*
X257746Y138549D01*
X257952Y138347D01*
X258145Y138135D01*
X258325Y137912D01*
X258491Y137680D01*
X258644Y137436D01*
X258784Y137183D01*
X258910Y136919D01*
X259023Y136645D01*
X259123Y136360D01*
X259210Y136065D01*
X259283Y135760D01*
X259343Y135444D01*
X259389Y135118D01*
X259423Y134781D01*
X259443Y134435D01*
X259449Y134077D01*
X259438Y133608D01*
X259403Y133153D01*
X259345Y132712D01*
X259263Y132287D01*
X259158Y131877D01*
X259031Y131482D01*
X258879Y131101D01*
X258705Y130736D01*
X258509Y130388D01*
X258294Y130062D01*
X258059Y129756D01*
X257805Y129471D01*
X257531Y129208D01*
X257238Y128965D01*
X256926Y128743D01*
X256594Y128542D01*
X256246Y128363D01*
X255885Y128209D01*
X255510Y128078D01*
X255123Y127970D01*
X254722Y127887D01*
X254308Y127828D01*
X253881Y127792D01*
X253441Y127780D01*
G37*
%LPC*%
G36*
X253248Y129120D02*
X253583Y129129D01*
X253907Y129157D01*
X254220Y129204D01*
X254524Y129269D01*
X254817Y129353D01*
X255100Y129455D01*
X255373Y129576D01*
X255635Y129716D01*
X255885Y129873D01*
X256120Y130046D01*
X256340Y130236D01*
X256545Y130443D01*
X256735Y130665D01*
X256910Y130905D01*
X257070Y131160D01*
X257216Y131432D01*
X257345Y131719D01*
X257457Y132018D01*
X257552Y132330D01*
X257630Y132654D01*
X257690Y132991D01*
X257733Y133341D01*
X257759Y133703D01*
X257768Y134077D01*
X257748Y134634D01*
X257689Y135157D01*
X257591Y135645D01*
X257453Y136100D01*
X257277Y136520D01*
X257061Y136906D01*
X256805Y137258D01*
X256511Y137576D01*
X256179Y137859D01*
X255812Y138103D01*
X255410Y138310D01*
X254973Y138480D01*
X254500Y138611D01*
X253992Y138705D01*
X253450Y138762D01*
X252872Y138781D01*
X250498Y138781D01*
X250498Y129120D01*
X253248Y129120D01*
G37*
%LPD*%
G36*
X311311Y127780D02*
X309638Y127780D01*
X309638Y140121D01*
X315445Y140121D01*
X315951Y140106D01*
X316427Y140062D01*
X316874Y139990D01*
X317292Y139888D01*
X317679Y139756D01*
X318037Y139596D01*
X318365Y139407D01*
X318663Y139188D01*
X318929Y138943D01*
X319160Y138676D01*
X319355Y138386D01*
X319514Y138072D01*
X319638Y137736D01*
X319727Y137377D01*
X319780Y136996D01*
X319798Y136591D01*
X319785Y136254D01*
X319748Y135931D01*
X319685Y135621D01*
X319597Y135325D01*
X319485Y135043D01*
X319347Y134775D01*
X319184Y134520D01*
X318996Y134279D01*
X318786Y134055D01*
X318557Y133854D01*
X318310Y133673D01*
X318199Y133607D01*
X318043Y133515D01*
X317757Y133378D01*
X317452Y133262D01*
X317128Y133169D01*
X316785Y133096D01*
X318276Y130833D01*
X320288Y127780D01*
X318361Y127780D01*
X315156Y132904D01*
X311311Y132904D01*
X311311Y127780D01*
G37*
%LPC*%
G36*
X315348Y134226D02*
X315670Y134236D01*
X315972Y134265D01*
X316256Y134313D01*
X316521Y134381D01*
X316767Y134467D01*
X316995Y134574D01*
X317203Y134699D01*
X317393Y134844D01*
X317563Y135006D01*
X317710Y135183D01*
X317834Y135376D01*
X317935Y135585D01*
X318014Y135809D01*
X318071Y136048D01*
X318105Y136303D01*
X318116Y136574D01*
X318105Y136835D01*
X318070Y137080D01*
X318013Y137310D01*
X317933Y137523D01*
X317830Y137720D01*
X317705Y137901D01*
X317556Y138067D01*
X317385Y138216D01*
X317192Y138348D01*
X316979Y138463D01*
X316746Y138560D01*
X316492Y138640D01*
X316219Y138701D01*
X315925Y138745D01*
X315612Y138772D01*
X315278Y138781D01*
X311311Y138781D01*
X311311Y134226D01*
X315348Y134226D01*
G37*
%LPD*%
G36*
X227904Y127780D02*
X226231Y127780D01*
X226231Y140121D01*
X231425Y140121D01*
X231930Y140106D01*
X232405Y140060D01*
X232850Y139984D01*
X233267Y139878D01*
X233654Y139741D01*
X234012Y139574D01*
X234340Y139376D01*
X234640Y139149D01*
X234907Y138893D01*
X235138Y138613D01*
X235333Y138307D01*
X235494Y137977D01*
X235618Y137622D01*
X235707Y137242D01*
X235760Y136837D01*
X235778Y136407D01*
X235760Y135980D01*
X235707Y135576D01*
X235618Y135194D01*
X235493Y134835D01*
X235332Y134498D01*
X235135Y134184D01*
X234903Y133892D01*
X234635Y133622D01*
X234337Y133380D01*
X234013Y133170D01*
X233663Y132992D01*
X233288Y132847D01*
X232887Y132734D01*
X232460Y132653D01*
X232008Y132605D01*
X231530Y132588D01*
X227904Y132588D01*
X227904Y127780D01*
G37*
%LPC*%
G36*
X231294Y133911D02*
X231633Y133921D01*
X231951Y133950D01*
X232246Y133998D01*
X232520Y134066D01*
X232772Y134153D01*
X233002Y134260D01*
X233210Y134385D01*
X233396Y134531D01*
X233560Y134695D01*
X233702Y134879D01*
X233823Y135083D01*
X233921Y135305D01*
X233998Y135547D01*
X234053Y135809D01*
X234086Y136089D01*
X234097Y136390D01*
X234085Y136679D01*
X234052Y136950D01*
X233996Y137202D01*
X233917Y137436D01*
X233816Y137651D01*
X233693Y137847D01*
X233547Y138024D01*
X233378Y138183D01*
X233188Y138323D01*
X232974Y138444D01*
X232739Y138547D01*
X232481Y138631D01*
X232200Y138697D01*
X231897Y138743D01*
X231572Y138771D01*
X231224Y138781D01*
X227904Y138781D01*
X227904Y133911D01*
X231294Y133911D01*
G37*
%LPD*%
G36*
X237154Y127780D02*
X235420Y127780D01*
X240456Y140121D01*
X242357Y140121D01*
X247314Y127780D01*
X245606Y127780D01*
X244196Y131389D01*
X238573Y131389D01*
X237154Y127780D01*
G37*
%LPC*%
G36*
X243697Y132694D02*
X242112Y136766D01*
X241866Y137410D01*
X241621Y138133D01*
X241385Y138860D01*
X241306Y138614D01*
X241034Y137784D01*
X240658Y136749D01*
X239081Y132694D01*
X243697Y132694D01*
G37*
%LPD*%
G36*
X280662Y127605D02*
X280290Y127613D01*
X279929Y127639D01*
X279580Y127682D01*
X279244Y127743D01*
X278919Y127820D01*
X278606Y127915D01*
X278306Y128027D01*
X278017Y128157D01*
X277743Y128302D01*
X277484Y128464D01*
X277241Y128641D01*
X277015Y128833D01*
X276804Y129041D01*
X276608Y129265D01*
X276429Y129504D01*
X276266Y129759D01*
X276120Y130028D01*
X275994Y130310D01*
X275887Y130604D01*
X275799Y130911D01*
X275731Y131231D01*
X275683Y131563D01*
X275654Y131907D01*
X275644Y132264D01*
X275644Y140121D01*
X277317Y140121D01*
X277317Y132405D01*
X277330Y131995D01*
X277370Y131610D01*
X277437Y131251D01*
X277531Y130918D01*
X277652Y130610D01*
X277800Y130327D01*
X277974Y130070D01*
X278175Y129838D01*
X278402Y129633D01*
X278652Y129455D01*
X278926Y129305D01*
X279224Y129181D01*
X279546Y129086D01*
X279891Y129017D01*
X280261Y128976D01*
X280654Y128962D01*
X281058Y128977D01*
X281440Y129019D01*
X281798Y129090D01*
X282133Y129189D01*
X282445Y129317D01*
X282734Y129472D01*
X282999Y129656D01*
X283242Y129869D01*
X283458Y130109D01*
X283646Y130374D01*
X283805Y130666D01*
X283935Y130985D01*
X284036Y131329D01*
X284108Y131699D01*
X284151Y132096D01*
X284166Y132518D01*
X284166Y140121D01*
X285830Y140121D01*
X285830Y132422D01*
X285820Y132054D01*
X285790Y131699D01*
X285741Y131357D01*
X285671Y131027D01*
X285582Y130711D01*
X285473Y130407D01*
X285344Y130116D01*
X285195Y129838D01*
X285028Y129575D01*
X284845Y129327D01*
X284645Y129096D01*
X284429Y128880D01*
X284196Y128681D01*
X283947Y128497D01*
X283681Y128330D01*
X283400Y128179D01*
X283103Y128044D01*
X282793Y127928D01*
X282471Y127829D01*
X282135Y127748D01*
X281786Y127686D01*
X281425Y127641D01*
X281050Y127614D01*
X280662Y127605D01*
G37*
G36*
X293535Y127780D02*
X291871Y127780D01*
X291871Y138754D01*
X287632Y138754D01*
X287632Y140121D01*
X297774Y140121D01*
X297774Y138754D01*
X293535Y138754D01*
X293535Y127780D01*
G37*
G36*
X327012Y129357D02*
X325724Y129357D01*
X325724Y133105D01*
X322011Y133105D01*
X322011Y134384D01*
X325724Y134384D01*
X325724Y138133D01*
X327012Y138133D01*
X327012Y134384D01*
X330726Y134384D01*
X330726Y133105D01*
X327012Y133105D01*
X327012Y129357D01*
G37*
G36*
X308375Y124215D02*
X297926Y124215D01*
X297926Y125354D01*
X308375Y125354D01*
X308375Y124215D01*
G37*
G36*
X267286Y77605D02*
X266819Y77617D01*
X266368Y77653D01*
X265933Y77713D01*
X265515Y77798D01*
X265113Y77906D01*
X264728Y78038D01*
X264358Y78195D01*
X264005Y78376D01*
X263671Y78579D01*
X263357Y78804D01*
X263063Y79050D01*
X262789Y79318D01*
X262536Y79608D01*
X262303Y79918D01*
X262091Y80251D01*
X261899Y80605D01*
X261729Y80977D01*
X261581Y81364D01*
X261456Y81767D01*
X261354Y82184D01*
X261274Y82617D01*
X261218Y83066D01*
X261183Y83529D01*
X261172Y84007D01*
X261178Y84372D01*
X261197Y84727D01*
X261229Y85072D01*
X261273Y85407D01*
X261330Y85731D01*
X261400Y86046D01*
X261482Y86350D01*
X261577Y86645D01*
X261685Y86929D01*
X261805Y87203D01*
X261938Y87467D01*
X262084Y87721D01*
X262413Y88199D01*
X262792Y88636D01*
X263217Y89027D01*
X263445Y89203D01*
X263682Y89366D01*
X263929Y89516D01*
X264186Y89653D01*
X264453Y89777D01*
X264730Y89888D01*
X265017Y89985D01*
X265314Y90070D01*
X265621Y90142D01*
X265937Y90200D01*
X266264Y90246D01*
X266600Y90279D01*
X266947Y90298D01*
X267303Y90305D01*
X267766Y90293D01*
X268213Y90258D01*
X268645Y90199D01*
X269061Y90118D01*
X269462Y90012D01*
X269847Y89883D01*
X270216Y89731D01*
X270570Y89556D01*
X270906Y89358D01*
X271221Y89139D01*
X271516Y88899D01*
X271791Y88637D01*
X272045Y88355D01*
X272279Y88051D01*
X272492Y87726D01*
X272685Y87379D01*
X272857Y87014D01*
X273005Y86633D01*
X273131Y86236D01*
X273234Y85823D01*
X273314Y85393D01*
X273371Y84947D01*
X273405Y84485D01*
X273417Y84007D01*
X273405Y83531D01*
X273370Y83070D01*
X273312Y82623D01*
X273232Y82192D01*
X273127Y81776D01*
X273000Y81375D01*
X272850Y80989D01*
X272676Y80618D01*
X272481Y80265D01*
X272266Y79933D01*
X272031Y79622D01*
X271775Y79332D01*
X271500Y79064D01*
X271204Y78816D01*
X270888Y78590D01*
X270552Y78384D01*
X270199Y78202D01*
X269829Y78043D01*
X269444Y77909D01*
X269044Y77800D01*
X268628Y77714D01*
X268196Y77654D01*
X267749Y77617D01*
X267286Y77605D01*
G37*
%LPC*%
G36*
X267286Y78962D02*
X267804Y78983D01*
X268292Y79045D01*
X268749Y79148D01*
X269174Y79292D01*
X269569Y79477D01*
X269932Y79704D01*
X270264Y79972D01*
X270566Y80281D01*
X270834Y80627D01*
X271066Y81008D01*
X271262Y81423D01*
X271423Y81871D01*
X271548Y82354D01*
X271637Y82871D01*
X271691Y83422D01*
X271709Y84007D01*
X271691Y84568D01*
X271637Y85097D01*
X271547Y85596D01*
X271421Y86063D01*
X271259Y86500D01*
X271061Y86906D01*
X270827Y87281D01*
X270557Y87625D01*
X270254Y87933D01*
X269922Y88199D01*
X269559Y88425D01*
X269168Y88610D01*
X268746Y88754D01*
X268295Y88856D01*
X267814Y88918D01*
X267303Y88938D01*
X266788Y88918D01*
X266303Y88857D01*
X265849Y88756D01*
X265424Y88614D01*
X265030Y88432D01*
X264666Y88209D01*
X264331Y87946D01*
X264027Y87642D01*
X263756Y87302D01*
X263522Y86929D01*
X263323Y86523D01*
X263160Y86085D01*
X263034Y85615D01*
X262943Y85111D01*
X262889Y84576D01*
X262871Y84007D01*
X262890Y83442D01*
X262944Y82907D01*
X263036Y82401D01*
X263164Y81926D01*
X263328Y81481D01*
X263529Y81065D01*
X263766Y80680D01*
X264041Y80324D01*
X264347Y80005D01*
X264682Y79729D01*
X265045Y79494D01*
X265436Y79303D01*
X265856Y79154D01*
X266304Y79048D01*
X266781Y78984D01*
X267286Y78962D01*
G37*
%LPD*%
G36*
X253441Y77780D02*
X248825Y77780D01*
X248825Y90121D01*
X252907Y90121D01*
X253293Y90115D01*
X253668Y90096D01*
X254032Y90066D01*
X254385Y90023D01*
X254727Y89967D01*
X255057Y89900D01*
X255376Y89820D01*
X255684Y89728D01*
X255981Y89623D01*
X256267Y89507D01*
X256541Y89378D01*
X256804Y89236D01*
X257057Y89083D01*
X257298Y88917D01*
X257527Y88739D01*
X257746Y88549D01*
X257952Y88347D01*
X258145Y88135D01*
X258325Y87912D01*
X258491Y87680D01*
X258644Y87436D01*
X258784Y87183D01*
X258910Y86919D01*
X259023Y86645D01*
X259123Y86360D01*
X259210Y86065D01*
X259283Y85760D01*
X259343Y85444D01*
X259389Y85118D01*
X259423Y84781D01*
X259443Y84435D01*
X259449Y84077D01*
X259438Y83608D01*
X259403Y83153D01*
X259345Y82712D01*
X259263Y82287D01*
X259158Y81877D01*
X259031Y81482D01*
X258879Y81101D01*
X258705Y80736D01*
X258509Y80388D01*
X258294Y80062D01*
X258059Y79756D01*
X257805Y79471D01*
X257531Y79208D01*
X257238Y78965D01*
X256926Y78743D01*
X256594Y78542D01*
X256246Y78363D01*
X255885Y78209D01*
X255510Y78078D01*
X255123Y77970D01*
X254722Y77887D01*
X254308Y77828D01*
X253881Y77792D01*
X253441Y77780D01*
G37*
%LPC*%
G36*
X253248Y79120D02*
X253583Y79129D01*
X253907Y79157D01*
X254220Y79204D01*
X254524Y79269D01*
X254817Y79353D01*
X255100Y79455D01*
X255373Y79576D01*
X255635Y79716D01*
X255885Y79873D01*
X256120Y80046D01*
X256340Y80236D01*
X256545Y80443D01*
X256735Y80665D01*
X256910Y80905D01*
X257070Y81160D01*
X257216Y81432D01*
X257345Y81719D01*
X257457Y82018D01*
X257552Y82330D01*
X257630Y82654D01*
X257690Y82991D01*
X257733Y83341D01*
X257759Y83703D01*
X257768Y84077D01*
X257748Y84634D01*
X257689Y85157D01*
X257591Y85645D01*
X257453Y86100D01*
X257277Y86520D01*
X257061Y86906D01*
X256805Y87258D01*
X256511Y87576D01*
X256179Y87859D01*
X255812Y88103D01*
X255410Y88310D01*
X254973Y88480D01*
X254500Y88611D01*
X253992Y88705D01*
X253450Y88762D01*
X252872Y88781D01*
X250498Y88781D01*
X250498Y79120D01*
X253248Y79120D01*
G37*
%LPD*%
G36*
X311311Y77780D02*
X309638Y77780D01*
X309638Y90121D01*
X315445Y90121D01*
X315951Y90106D01*
X316427Y90062D01*
X316874Y89990D01*
X317292Y89888D01*
X317679Y89756D01*
X318037Y89596D01*
X318365Y89407D01*
X318663Y89188D01*
X318929Y88943D01*
X319160Y88676D01*
X319355Y88386D01*
X319514Y88072D01*
X319638Y87736D01*
X319727Y87377D01*
X319780Y86996D01*
X319798Y86591D01*
X319785Y86254D01*
X319748Y85931D01*
X319685Y85621D01*
X319597Y85325D01*
X319485Y85043D01*
X319347Y84775D01*
X319184Y84520D01*
X318996Y84279D01*
X318786Y84055D01*
X318557Y83854D01*
X318310Y83673D01*
X318199Y83607D01*
X318043Y83515D01*
X317757Y83378D01*
X317452Y83262D01*
X317128Y83169D01*
X316785Y83096D01*
X318276Y80833D01*
X320288Y77780D01*
X318361Y77780D01*
X315156Y82904D01*
X311311Y82904D01*
X311311Y77780D01*
G37*
%LPC*%
G36*
X315348Y84226D02*
X315670Y84236D01*
X315972Y84265D01*
X316256Y84313D01*
X316521Y84381D01*
X316767Y84467D01*
X316995Y84574D01*
X317203Y84699D01*
X317393Y84844D01*
X317563Y85006D01*
X317710Y85183D01*
X317834Y85376D01*
X317935Y85585D01*
X318014Y85809D01*
X318071Y86048D01*
X318105Y86303D01*
X318116Y86574D01*
X318105Y86835D01*
X318070Y87080D01*
X318013Y87310D01*
X317933Y87523D01*
X317830Y87720D01*
X317705Y87901D01*
X317556Y88067D01*
X317385Y88216D01*
X317192Y88348D01*
X316979Y88463D01*
X316746Y88560D01*
X316492Y88640D01*
X316219Y88701D01*
X315925Y88745D01*
X315612Y88772D01*
X315278Y88781D01*
X311311Y88781D01*
X311311Y84226D01*
X315348Y84226D01*
G37*
%LPD*%
G36*
X227904Y77780D02*
X226231Y77780D01*
X226231Y90121D01*
X231425Y90121D01*
X231930Y90106D01*
X232405Y90060D01*
X232850Y89984D01*
X233267Y89878D01*
X233654Y89741D01*
X234012Y89574D01*
X234340Y89376D01*
X234640Y89149D01*
X234907Y88893D01*
X235138Y88613D01*
X235333Y88307D01*
X235494Y87977D01*
X235618Y87622D01*
X235707Y87242D01*
X235760Y86837D01*
X235778Y86407D01*
X235760Y85980D01*
X235707Y85576D01*
X235618Y85194D01*
X235493Y84835D01*
X235332Y84498D01*
X235135Y84184D01*
X234903Y83892D01*
X234635Y83622D01*
X234337Y83380D01*
X234013Y83170D01*
X233663Y82992D01*
X233288Y82847D01*
X232887Y82734D01*
X232460Y82653D01*
X232008Y82605D01*
X231530Y82588D01*
X227904Y82588D01*
X227904Y77780D01*
G37*
%LPC*%
G36*
X231294Y83911D02*
X231633Y83921D01*
X231951Y83950D01*
X232246Y83998D01*
X232520Y84066D01*
X232772Y84153D01*
X233002Y84260D01*
X233210Y84385D01*
X233396Y84531D01*
X233560Y84695D01*
X233702Y84879D01*
X233823Y85083D01*
X233921Y85305D01*
X233998Y85547D01*
X234053Y85809D01*
X234086Y86089D01*
X234097Y86390D01*
X234085Y86679D01*
X234052Y86950D01*
X233996Y87202D01*
X233917Y87436D01*
X233816Y87651D01*
X233693Y87847D01*
X233547Y88024D01*
X233378Y88183D01*
X233188Y88323D01*
X232974Y88444D01*
X232739Y88547D01*
X232481Y88631D01*
X232200Y88697D01*
X231897Y88743D01*
X231572Y88771D01*
X231224Y88781D01*
X227904Y88781D01*
X227904Y83911D01*
X231294Y83911D01*
G37*
%LPD*%
G36*
X237154Y77780D02*
X235420Y77780D01*
X240456Y90121D01*
X242357Y90121D01*
X247314Y77780D01*
X245606Y77780D01*
X244196Y81389D01*
X238573Y81389D01*
X237154Y77780D01*
G37*
%LPC*%
G36*
X243697Y82694D02*
X242112Y86766D01*
X241866Y87410D01*
X241621Y88133D01*
X241385Y88860D01*
X241306Y88614D01*
X241034Y87784D01*
X240658Y86749D01*
X239081Y82694D01*
X243697Y82694D01*
G37*
%LPD*%
G36*
X280662Y77605D02*
X280290Y77613D01*
X279929Y77639D01*
X279580Y77682D01*
X279244Y77743D01*
X278919Y77820D01*
X278606Y77915D01*
X278306Y78027D01*
X278017Y78157D01*
X277743Y78302D01*
X277484Y78464D01*
X277241Y78641D01*
X277015Y78833D01*
X276804Y79041D01*
X276608Y79265D01*
X276429Y79504D01*
X276266Y79759D01*
X276120Y80028D01*
X275994Y80310D01*
X275887Y80604D01*
X275799Y80911D01*
X275731Y81231D01*
X275683Y81563D01*
X275654Y81907D01*
X275644Y82264D01*
X275644Y90121D01*
X277317Y90121D01*
X277317Y82405D01*
X277330Y81995D01*
X277370Y81610D01*
X277437Y81251D01*
X277531Y80918D01*
X277652Y80610D01*
X277800Y80327D01*
X277974Y80070D01*
X278175Y79838D01*
X278402Y79633D01*
X278652Y79455D01*
X278926Y79305D01*
X279224Y79181D01*
X279546Y79086D01*
X279891Y79017D01*
X280261Y78976D01*
X280654Y78962D01*
X281058Y78977D01*
X281440Y79019D01*
X281798Y79090D01*
X282133Y79189D01*
X282445Y79317D01*
X282734Y79472D01*
X282999Y79656D01*
X283242Y79869D01*
X283458Y80109D01*
X283646Y80374D01*
X283805Y80666D01*
X283935Y80985D01*
X284036Y81329D01*
X284108Y81699D01*
X284151Y82096D01*
X284166Y82518D01*
X284166Y90121D01*
X285830Y90121D01*
X285830Y82422D01*
X285820Y82054D01*
X285790Y81699D01*
X285741Y81357D01*
X285671Y81027D01*
X285582Y80711D01*
X285473Y80407D01*
X285344Y80116D01*
X285195Y79838D01*
X285028Y79575D01*
X284845Y79327D01*
X284645Y79096D01*
X284429Y78880D01*
X284196Y78681D01*
X283947Y78497D01*
X283681Y78330D01*
X283400Y78179D01*
X283103Y78044D01*
X282793Y77928D01*
X282471Y77829D01*
X282135Y77748D01*
X281786Y77686D01*
X281425Y77641D01*
X281050Y77614D01*
X280662Y77605D01*
G37*
G36*
X293535Y77780D02*
X291871Y77780D01*
X291871Y88754D01*
X287632Y88754D01*
X287632Y90121D01*
X297774Y90121D01*
X297774Y88754D01*
X293535Y88754D01*
X293535Y77780D01*
G37*
G36*
X308375Y74215D02*
X297926Y74215D01*
X297926Y75354D01*
X308375Y75354D01*
X308375Y74215D01*
G37*
G36*
X326311Y81844D02*
X321932Y81844D01*
X321932Y83245D01*
X326311Y83245D01*
X326311Y81844D01*
G37*
D10*
X461000Y346000D02*
X461000Y380000D01*
X419000Y380000D01*
X419000Y346000D01*
D11*
X450000Y335000D02*
X449956Y334998D01*
X449913Y334992D01*
X449871Y334983D01*
X449829Y334970D01*
X449789Y334953D01*
X449750Y334933D01*
X449713Y334910D01*
X449679Y334883D01*
X449646Y334854D01*
X449617Y334821D01*
X449590Y334787D01*
X449567Y334750D01*
X449547Y334711D01*
X449530Y334671D01*
X449517Y334629D01*
X449508Y334587D01*
X449502Y334544D01*
X449500Y334500D01*
X449502Y334456D01*
X449508Y334413D01*
X449517Y334371D01*
X449530Y334329D01*
X449547Y334289D01*
X449567Y334250D01*
X449590Y334213D01*
X449617Y334179D01*
X449646Y334146D01*
X449679Y334117D01*
X449713Y334090D01*
X449750Y334067D01*
X449789Y334047D01*
X449829Y334030D01*
X449871Y334017D01*
X449913Y334008D01*
X449956Y334002D01*
X450000Y334000D01*
X450044Y334002D01*
X450087Y334008D01*
X450129Y334017D01*
X450171Y334030D01*
X450211Y334047D01*
X450250Y334067D01*
X450287Y334090D01*
X450321Y334117D01*
X450354Y334146D01*
X450383Y334179D01*
X450410Y334213D01*
X450433Y334250D01*
X450453Y334289D01*
X450470Y334329D01*
X450483Y334371D01*
X450492Y334413D01*
X450498Y334456D01*
X450500Y334500D01*
X450498Y334544D01*
X450492Y334587D01*
X450483Y334629D01*
X450470Y334671D01*
X450453Y334711D01*
X450433Y334750D01*
X450410Y334787D01*
X450383Y334821D01*
X450354Y334854D01*
X450321Y334883D01*
X450287Y334910D01*
X450250Y334933D01*
X450211Y334953D01*
X450171Y334970D01*
X450129Y334983D01*
X450087Y334992D01*
X450044Y334998D01*
X450000Y335000D01*
D10*
X2471000Y356000D02*
X2471000Y390000D01*
X2429000Y390000D01*
X2429000Y356000D01*
D11*
X2460000Y345000D02*
X2459956Y344998D01*
X2459913Y344992D01*
X2459871Y344983D01*
X2459829Y344970D01*
X2459789Y344953D01*
X2459750Y344933D01*
X2459713Y344910D01*
X2459679Y344883D01*
X2459646Y344854D01*
X2459617Y344821D01*
X2459590Y344787D01*
X2459567Y344750D01*
X2459547Y344711D01*
X2459530Y344671D01*
X2459517Y344629D01*
X2459508Y344587D01*
X2459502Y344544D01*
X2459500Y344500D01*
X2459502Y344456D01*
X2459508Y344413D01*
X2459517Y344371D01*
X2459530Y344329D01*
X2459547Y344289D01*
X2459567Y344250D01*
X2459590Y344213D01*
X2459617Y344179D01*
X2459646Y344146D01*
X2459679Y344117D01*
X2459713Y344090D01*
X2459750Y344067D01*
X2459789Y344047D01*
X2459829Y344030D01*
X2459871Y344017D01*
X2459913Y344008D01*
X2459956Y344002D01*
X2460000Y344000D01*
X2460044Y344002D01*
X2460087Y344008D01*
X2460129Y344017D01*
X2460171Y344030D01*
X2460211Y344047D01*
X2460250Y344067D01*
X2460287Y344090D01*
X2460321Y344117D01*
X2460354Y344146D01*
X2460383Y344179D01*
X2460410Y344213D01*
X2460433Y344250D01*
X2460453Y344289D01*
X2460470Y344329D01*
X2460483Y344371D01*
X2460492Y344413D01*
X2460498Y344456D01*
X2460500Y344500D01*
X2460498Y344544D01*
X2460492Y344587D01*
X2460483Y344629D01*
X2460470Y344671D01*
X2460453Y344711D01*
X2460433Y344750D01*
X2460410Y344787D01*
X2460383Y344821D01*
X2460354Y344854D01*
X2460321Y344883D01*
X2460287Y344910D01*
X2460250Y344933D01*
X2460211Y344953D01*
X2460171Y344970D01*
X2460129Y344983D01*
X2460087Y344992D01*
X2460044Y344998D01*
X2460000Y345000D01*
D12*
X2539365Y430312D02*
X2539363Y430377D01*
X2539357Y430441D01*
X2539347Y430505D01*
X2539334Y430569D01*
X2539316Y430631D01*
X2539295Y430692D01*
X2539271Y430752D01*
X2539242Y430810D01*
X2539210Y430867D01*
X2539175Y430921D01*
X2539137Y430973D01*
X2539095Y431023D01*
X2539051Y431070D01*
X2539004Y431114D01*
X2538954Y431156D01*
X2538902Y431194D01*
X2538848Y431229D01*
X2538791Y431261D01*
X2538733Y431290D01*
X2538673Y431314D01*
X2538612Y431335D01*
X2538550Y431353D01*
X2538486Y431366D01*
X2538422Y431376D01*
X2538358Y431382D01*
X2538293Y431384D01*
X2539365Y430312D02*
X2539363Y430218D01*
X2539357Y430124D01*
X2539347Y430030D01*
X2539334Y429937D01*
X2539316Y429845D01*
X2539295Y429753D01*
X2539270Y429662D01*
X2539241Y429572D01*
X2539208Y429484D01*
X2539172Y429397D01*
X2539132Y429312D01*
X2539089Y429228D01*
X2539042Y429147D01*
X2538992Y429067D01*
X2538939Y428989D01*
X2538882Y428914D01*
X2538823Y428841D01*
X2538760Y428771D01*
X2538695Y428703D01*
X2535611Y428838D02*
X2535546Y428840D01*
X2535482Y428846D01*
X2535418Y428856D01*
X2535354Y428869D01*
X2535292Y428887D01*
X2535231Y428908D01*
X2535171Y428932D01*
X2535113Y428961D01*
X2535056Y428993D01*
X2535002Y429028D01*
X2534950Y429066D01*
X2534900Y429108D01*
X2534853Y429152D01*
X2534809Y429199D01*
X2534767Y429249D01*
X2534729Y429301D01*
X2534694Y429355D01*
X2534662Y429412D01*
X2534633Y429470D01*
X2534609Y429530D01*
X2534588Y429591D01*
X2534570Y429653D01*
X2534557Y429717D01*
X2534547Y429781D01*
X2534541Y429845D01*
X2534539Y429910D01*
X2534541Y429996D01*
X2534546Y430082D01*
X2534556Y430168D01*
X2534569Y430253D01*
X2534585Y430338D01*
X2534605Y430422D01*
X2534629Y430505D01*
X2534656Y430587D01*
X2534687Y430667D01*
X2534721Y430747D01*
X2534759Y430824D01*
X2534800Y430900D01*
X2534844Y430974D01*
X2534891Y431047D01*
X2534941Y431117D01*
X2536549Y429373D02*
X2536516Y429320D01*
X2536479Y429269D01*
X2536440Y429220D01*
X2536398Y429173D01*
X2536353Y429129D01*
X2536306Y429088D01*
X2536257Y429049D01*
X2536205Y429013D01*
X2536151Y428980D01*
X2536096Y428951D01*
X2536039Y428925D01*
X2535980Y428902D01*
X2535921Y428882D01*
X2535860Y428866D01*
X2535799Y428853D01*
X2535736Y428844D01*
X2535674Y428839D01*
X2535611Y428837D01*
X2537355Y430848D02*
X2537388Y430901D01*
X2537425Y430952D01*
X2537464Y431001D01*
X2537506Y431048D01*
X2537551Y431092D01*
X2537598Y431133D01*
X2537647Y431172D01*
X2537699Y431208D01*
X2537753Y431241D01*
X2537808Y431270D01*
X2537865Y431296D01*
X2537924Y431319D01*
X2537983Y431339D01*
X2538044Y431355D01*
X2538105Y431368D01*
X2538168Y431377D01*
X2538230Y431382D01*
X2538293Y431384D01*
X2537354Y430848D02*
X2536550Y429373D01*
X2536684Y434336D02*
X2536684Y435676D01*
X2536683Y435676D02*
X2536685Y435747D01*
X2536691Y435819D01*
X2536700Y435889D01*
X2536713Y435959D01*
X2536730Y436029D01*
X2536751Y436097D01*
X2536775Y436164D01*
X2536803Y436230D01*
X2536834Y436294D01*
X2536869Y436357D01*
X2536907Y436417D01*
X2536948Y436476D01*
X2536992Y436532D01*
X2537039Y436586D01*
X2537088Y436637D01*
X2537141Y436685D01*
X2537196Y436731D01*
X2537253Y436773D01*
X2537313Y436813D01*
X2537374Y436849D01*
X2537438Y436882D01*
X2537503Y436911D01*
X2537569Y436937D01*
X2537637Y436960D01*
X2537706Y436979D01*
X2537776Y436994D01*
X2537846Y437005D01*
X2537917Y437013D01*
X2537988Y437017D01*
X2538060Y437017D01*
X2538131Y437013D01*
X2538202Y437005D01*
X2538272Y436994D01*
X2538342Y436979D01*
X2538411Y436960D01*
X2538479Y436937D01*
X2538545Y436911D01*
X2538610Y436882D01*
X2538674Y436849D01*
X2538735Y436813D01*
X2538795Y436773D01*
X2538852Y436731D01*
X2538907Y436685D01*
X2538960Y436637D01*
X2539009Y436586D01*
X2539056Y436532D01*
X2539100Y436476D01*
X2539141Y436417D01*
X2539179Y436357D01*
X2539214Y436294D01*
X2539245Y436230D01*
X2539273Y436164D01*
X2539297Y436097D01*
X2539318Y436029D01*
X2539335Y435959D01*
X2539348Y435889D01*
X2539357Y435819D01*
X2539363Y435747D01*
X2539365Y435676D01*
X2539365Y434336D01*
X2534539Y434336D01*
X2534539Y435676D01*
X2534541Y435741D01*
X2534547Y435805D01*
X2534557Y435869D01*
X2534570Y435933D01*
X2534588Y435995D01*
X2534609Y436056D01*
X2534633Y436116D01*
X2534662Y436174D01*
X2534694Y436231D01*
X2534729Y436285D01*
X2534767Y436337D01*
X2534809Y436387D01*
X2534853Y436434D01*
X2534900Y436478D01*
X2534950Y436520D01*
X2535002Y436558D01*
X2535056Y436593D01*
X2535113Y436625D01*
X2535171Y436654D01*
X2535231Y436678D01*
X2535292Y436699D01*
X2535354Y436717D01*
X2535418Y436730D01*
X2535482Y436740D01*
X2535546Y436746D01*
X2535611Y436748D01*
X2535676Y436746D01*
X2535740Y436740D01*
X2535804Y436730D01*
X2535868Y436717D01*
X2535930Y436699D01*
X2535991Y436678D01*
X2536051Y436654D01*
X2536109Y436625D01*
X2536166Y436593D01*
X2536220Y436558D01*
X2536272Y436520D01*
X2536322Y436478D01*
X2536369Y436434D01*
X2536413Y436387D01*
X2536455Y436337D01*
X2536493Y436285D01*
X2536528Y436231D01*
X2536560Y436174D01*
X2536589Y436116D01*
X2536613Y436056D01*
X2536634Y435995D01*
X2536652Y435933D01*
X2536665Y435869D01*
X2536675Y435805D01*
X2536681Y435741D01*
X2536683Y435676D01*
X289365Y421241D02*
X289363Y421306D01*
X289357Y421370D01*
X289347Y421434D01*
X289334Y421498D01*
X289316Y421560D01*
X289295Y421621D01*
X289271Y421681D01*
X289242Y421739D01*
X289210Y421796D01*
X289175Y421850D01*
X289137Y421902D01*
X289095Y421952D01*
X289051Y421999D01*
X289004Y422043D01*
X288954Y422085D01*
X288902Y422123D01*
X288848Y422158D01*
X288791Y422190D01*
X288733Y422219D01*
X288673Y422243D01*
X288612Y422264D01*
X288550Y422282D01*
X288486Y422295D01*
X288422Y422305D01*
X288358Y422311D01*
X288293Y422313D01*
X289365Y421241D02*
X289363Y421147D01*
X289357Y421053D01*
X289347Y420959D01*
X289334Y420866D01*
X289316Y420774D01*
X289295Y420682D01*
X289270Y420591D01*
X289241Y420501D01*
X289208Y420413D01*
X289172Y420326D01*
X289132Y420241D01*
X289089Y420157D01*
X289042Y420076D01*
X288992Y419996D01*
X288939Y419918D01*
X288882Y419843D01*
X288823Y419770D01*
X288760Y419700D01*
X288695Y419632D01*
X285611Y419767D02*
X285546Y419769D01*
X285482Y419775D01*
X285418Y419785D01*
X285354Y419798D01*
X285292Y419816D01*
X285231Y419837D01*
X285171Y419861D01*
X285113Y419890D01*
X285056Y419922D01*
X285002Y419957D01*
X284950Y419995D01*
X284900Y420037D01*
X284853Y420081D01*
X284809Y420128D01*
X284767Y420178D01*
X284729Y420230D01*
X284694Y420284D01*
X284662Y420341D01*
X284633Y420399D01*
X284609Y420459D01*
X284588Y420520D01*
X284570Y420582D01*
X284557Y420646D01*
X284547Y420710D01*
X284541Y420774D01*
X284539Y420839D01*
X284541Y420925D01*
X284546Y421011D01*
X284556Y421097D01*
X284569Y421182D01*
X284585Y421267D01*
X284605Y421351D01*
X284629Y421434D01*
X284656Y421516D01*
X284687Y421596D01*
X284721Y421676D01*
X284759Y421753D01*
X284800Y421829D01*
X284844Y421903D01*
X284891Y421976D01*
X284941Y422046D01*
X286549Y420303D02*
X286516Y420250D01*
X286479Y420199D01*
X286440Y420150D01*
X286398Y420103D01*
X286353Y420059D01*
X286306Y420018D01*
X286257Y419979D01*
X286205Y419943D01*
X286151Y419910D01*
X286096Y419881D01*
X286039Y419855D01*
X285980Y419832D01*
X285921Y419812D01*
X285860Y419796D01*
X285799Y419783D01*
X285736Y419774D01*
X285674Y419769D01*
X285611Y419767D01*
X287355Y421777D02*
X287388Y421830D01*
X287425Y421881D01*
X287464Y421930D01*
X287506Y421977D01*
X287551Y422021D01*
X287598Y422062D01*
X287647Y422101D01*
X287699Y422137D01*
X287753Y422170D01*
X287808Y422199D01*
X287865Y422225D01*
X287924Y422248D01*
X287983Y422268D01*
X288044Y422284D01*
X288105Y422297D01*
X288168Y422306D01*
X288230Y422311D01*
X288293Y422313D01*
X287354Y421777D02*
X286550Y420303D01*
X284539Y425119D02*
X289365Y425119D01*
X284539Y425119D02*
X284539Y426459D01*
X284541Y426529D01*
X284546Y426599D01*
X284556Y426669D01*
X284568Y426738D01*
X284585Y426806D01*
X284605Y426873D01*
X284628Y426940D01*
X284655Y427004D01*
X284685Y427068D01*
X284719Y427130D01*
X284755Y427189D01*
X284795Y427247D01*
X284838Y427303D01*
X284883Y427356D01*
X284932Y427407D01*
X284983Y427456D01*
X285036Y427501D01*
X285092Y427544D01*
X285150Y427584D01*
X285210Y427620D01*
X285271Y427654D01*
X285335Y427684D01*
X285399Y427711D01*
X285466Y427734D01*
X285533Y427754D01*
X285601Y427771D01*
X285670Y427783D01*
X285740Y427793D01*
X285810Y427798D01*
X285880Y427800D01*
X288024Y427800D01*
X288094Y427798D01*
X288164Y427793D01*
X288234Y427783D01*
X288303Y427771D01*
X288371Y427754D01*
X288438Y427734D01*
X288505Y427711D01*
X288569Y427684D01*
X288633Y427654D01*
X288695Y427620D01*
X288754Y427584D01*
X288812Y427544D01*
X288868Y427501D01*
X288921Y427456D01*
X288972Y427407D01*
X289021Y427356D01*
X289066Y427303D01*
X289109Y427247D01*
X289149Y427189D01*
X289185Y427129D01*
X289219Y427068D01*
X289249Y427004D01*
X289276Y426940D01*
X289299Y426873D01*
X289319Y426806D01*
X289336Y426738D01*
X289348Y426669D01*
X289358Y426599D01*
X289363Y426529D01*
X289365Y426459D01*
X289365Y425119D01*
X288024Y430788D02*
X285880Y430788D01*
X285880Y430787D02*
X285809Y430789D01*
X285737Y430795D01*
X285667Y430804D01*
X285597Y430817D01*
X285527Y430834D01*
X285459Y430855D01*
X285392Y430879D01*
X285326Y430907D01*
X285262Y430938D01*
X285199Y430973D01*
X285139Y431011D01*
X285080Y431052D01*
X285024Y431096D01*
X284970Y431143D01*
X284919Y431192D01*
X284871Y431245D01*
X284825Y431300D01*
X284783Y431357D01*
X284743Y431417D01*
X284707Y431478D01*
X284674Y431542D01*
X284645Y431607D01*
X284619Y431673D01*
X284596Y431741D01*
X284577Y431810D01*
X284562Y431880D01*
X284551Y431950D01*
X284543Y432021D01*
X284539Y432092D01*
X284539Y432164D01*
X284543Y432235D01*
X284551Y432306D01*
X284562Y432376D01*
X284577Y432446D01*
X284596Y432515D01*
X284619Y432583D01*
X284645Y432649D01*
X284674Y432714D01*
X284707Y432778D01*
X284743Y432839D01*
X284783Y432899D01*
X284825Y432956D01*
X284871Y433011D01*
X284919Y433064D01*
X284970Y433113D01*
X285024Y433160D01*
X285080Y433204D01*
X285139Y433245D01*
X285199Y433283D01*
X285262Y433318D01*
X285326Y433349D01*
X285392Y433377D01*
X285459Y433401D01*
X285527Y433422D01*
X285597Y433439D01*
X285667Y433452D01*
X285737Y433461D01*
X285809Y433467D01*
X285880Y433469D01*
X288024Y433469D01*
X288095Y433467D01*
X288167Y433461D01*
X288237Y433452D01*
X288307Y433439D01*
X288377Y433422D01*
X288445Y433401D01*
X288512Y433377D01*
X288578Y433349D01*
X288642Y433318D01*
X288705Y433283D01*
X288765Y433245D01*
X288824Y433204D01*
X288880Y433160D01*
X288934Y433113D01*
X288985Y433064D01*
X289033Y433011D01*
X289079Y432956D01*
X289121Y432899D01*
X289161Y432839D01*
X289197Y432778D01*
X289230Y432714D01*
X289259Y432649D01*
X289285Y432583D01*
X289308Y432515D01*
X289327Y432446D01*
X289342Y432376D01*
X289353Y432306D01*
X289361Y432235D01*
X289365Y432164D01*
X289365Y432092D01*
X289361Y432021D01*
X289353Y431950D01*
X289342Y431880D01*
X289327Y431810D01*
X289308Y431741D01*
X289285Y431673D01*
X289259Y431607D01*
X289230Y431542D01*
X289197Y431478D01*
X289161Y431417D01*
X289121Y431357D01*
X289079Y431300D01*
X289033Y431245D01*
X288985Y431192D01*
X288934Y431143D01*
X288880Y431096D01*
X288824Y431052D01*
X288765Y431011D01*
X288705Y430973D01*
X288642Y430938D01*
X288578Y430907D01*
X288512Y430879D01*
X288445Y430855D01*
X288377Y430834D01*
X288307Y430817D01*
X288237Y430804D01*
X288167Y430795D01*
X288095Y430789D01*
X288024Y430787D01*
X284539Y436202D02*
X289365Y437274D01*
X286148Y438346D01*
X289365Y439419D01*
X284539Y440491D01*
X284539Y443407D02*
X289365Y443407D01*
X289365Y446088D02*
X284539Y443407D01*
X284539Y446088D02*
X289365Y446088D01*
X223527Y550635D02*
X223592Y550637D01*
X223656Y550643D01*
X223720Y550653D01*
X223784Y550666D01*
X223846Y550684D01*
X223907Y550705D01*
X223967Y550729D01*
X224025Y550758D01*
X224082Y550790D01*
X224136Y550825D01*
X224188Y550863D01*
X224238Y550905D01*
X224285Y550949D01*
X224329Y550996D01*
X224371Y551046D01*
X224409Y551098D01*
X224444Y551152D01*
X224476Y551209D01*
X224505Y551267D01*
X224529Y551327D01*
X224550Y551388D01*
X224568Y551450D01*
X224581Y551514D01*
X224591Y551578D01*
X224597Y551642D01*
X224599Y551707D01*
X223527Y550635D02*
X223433Y550637D01*
X223339Y550643D01*
X223245Y550653D01*
X223152Y550666D01*
X223060Y550684D01*
X222968Y550705D01*
X222877Y550730D01*
X222787Y550759D01*
X222699Y550792D01*
X222612Y550828D01*
X222527Y550868D01*
X222443Y550911D01*
X222362Y550958D01*
X222282Y551008D01*
X222204Y551061D01*
X222129Y551118D01*
X222056Y551177D01*
X221986Y551240D01*
X221918Y551305D01*
X222053Y554389D02*
X222055Y554454D01*
X222061Y554518D01*
X222071Y554582D01*
X222084Y554646D01*
X222102Y554708D01*
X222123Y554769D01*
X222147Y554829D01*
X222176Y554887D01*
X222208Y554944D01*
X222243Y554998D01*
X222281Y555050D01*
X222323Y555100D01*
X222367Y555147D01*
X222414Y555191D01*
X222464Y555233D01*
X222516Y555271D01*
X222570Y555306D01*
X222627Y555338D01*
X222685Y555367D01*
X222745Y555391D01*
X222806Y555412D01*
X222868Y555430D01*
X222932Y555443D01*
X222996Y555453D01*
X223060Y555459D01*
X223125Y555461D01*
X223211Y555459D01*
X223297Y555454D01*
X223383Y555444D01*
X223468Y555431D01*
X223553Y555415D01*
X223637Y555395D01*
X223720Y555371D01*
X223802Y555344D01*
X223882Y555313D01*
X223962Y555279D01*
X224039Y555241D01*
X224115Y555200D01*
X224189Y555156D01*
X224261Y555109D01*
X224332Y555059D01*
X222589Y553451D02*
X222536Y553484D01*
X222485Y553521D01*
X222436Y553560D01*
X222389Y553602D01*
X222345Y553647D01*
X222304Y553694D01*
X222265Y553743D01*
X222229Y553795D01*
X222196Y553849D01*
X222167Y553904D01*
X222141Y553961D01*
X222118Y554020D01*
X222098Y554079D01*
X222082Y554140D01*
X222069Y554201D01*
X222060Y554264D01*
X222055Y554326D01*
X222053Y554389D01*
X224063Y552645D02*
X224116Y552612D01*
X224167Y552575D01*
X224216Y552536D01*
X224263Y552494D01*
X224307Y552449D01*
X224348Y552402D01*
X224387Y552353D01*
X224423Y552301D01*
X224456Y552247D01*
X224485Y552192D01*
X224511Y552135D01*
X224534Y552076D01*
X224554Y552017D01*
X224570Y551956D01*
X224583Y551895D01*
X224592Y551832D01*
X224597Y551770D01*
X224599Y551707D01*
X224063Y552646D02*
X222589Y553450D01*
X227424Y555461D02*
X227424Y550635D01*
X229569Y550635D01*
X232179Y550635D02*
X234324Y550635D01*
X232179Y550635D02*
X232179Y555461D01*
X234324Y555461D01*
X233788Y553316D02*
X232179Y553316D01*
X236934Y555461D02*
X236934Y550635D01*
X236934Y555461D02*
X239079Y555461D01*
X239079Y553316D02*
X236934Y553316D01*
X242461Y555461D02*
X242461Y550635D01*
X241121Y555461D02*
X243802Y555461D01*
D13*
X2517510Y744590D02*
X2590051Y731799D01*
X2517510Y744590D02*
X2509482Y699065D01*
X2504278Y669548D02*
X2576819Y656757D01*
X2577612Y661260D01*
X2582023Y686274D02*
X2590051Y731799D01*
X2505072Y674050D02*
X2504278Y669548D01*
D12*
X395679Y485611D02*
X395677Y485546D01*
X395671Y485482D01*
X395661Y485418D01*
X395648Y485354D01*
X395630Y485292D01*
X395609Y485231D01*
X395585Y485171D01*
X395556Y485113D01*
X395524Y485056D01*
X395489Y485002D01*
X395451Y484950D01*
X395409Y484900D01*
X395365Y484853D01*
X395318Y484809D01*
X395268Y484767D01*
X395216Y484729D01*
X395162Y484694D01*
X395105Y484662D01*
X395047Y484633D01*
X394987Y484609D01*
X394926Y484588D01*
X394864Y484570D01*
X394800Y484557D01*
X394736Y484547D01*
X394672Y484541D01*
X394607Y484539D01*
X394513Y484541D01*
X394419Y484547D01*
X394325Y484557D01*
X394232Y484570D01*
X394140Y484588D01*
X394048Y484609D01*
X393957Y484634D01*
X393867Y484663D01*
X393779Y484696D01*
X393692Y484732D01*
X393607Y484772D01*
X393523Y484815D01*
X393442Y484862D01*
X393362Y484912D01*
X393284Y484965D01*
X393209Y485022D01*
X393136Y485081D01*
X393066Y485144D01*
X392998Y485209D01*
X393132Y488293D02*
X393134Y488358D01*
X393140Y488422D01*
X393150Y488486D01*
X393163Y488550D01*
X393181Y488612D01*
X393202Y488673D01*
X393226Y488733D01*
X393255Y488791D01*
X393287Y488848D01*
X393322Y488902D01*
X393360Y488954D01*
X393402Y489004D01*
X393446Y489051D01*
X393493Y489095D01*
X393543Y489137D01*
X393595Y489175D01*
X393649Y489210D01*
X393706Y489242D01*
X393764Y489271D01*
X393824Y489295D01*
X393885Y489316D01*
X393947Y489334D01*
X394011Y489347D01*
X394075Y489357D01*
X394139Y489363D01*
X394204Y489365D01*
X394290Y489363D01*
X394376Y489358D01*
X394462Y489348D01*
X394547Y489335D01*
X394632Y489319D01*
X394716Y489299D01*
X394799Y489275D01*
X394881Y489248D01*
X394961Y489217D01*
X395041Y489183D01*
X395118Y489145D01*
X395194Y489104D01*
X395268Y489060D01*
X395340Y489013D01*
X395411Y488963D01*
X393668Y487355D02*
X393615Y487388D01*
X393564Y487425D01*
X393515Y487464D01*
X393468Y487506D01*
X393424Y487551D01*
X393383Y487598D01*
X393344Y487647D01*
X393308Y487699D01*
X393275Y487753D01*
X393246Y487808D01*
X393220Y487865D01*
X393197Y487924D01*
X393177Y487983D01*
X393161Y488044D01*
X393148Y488105D01*
X393139Y488168D01*
X393134Y488230D01*
X393132Y488293D01*
X395143Y486549D02*
X395196Y486516D01*
X395247Y486479D01*
X395296Y486440D01*
X395343Y486398D01*
X395387Y486353D01*
X395428Y486306D01*
X395467Y486257D01*
X395503Y486205D01*
X395536Y486151D01*
X395565Y486096D01*
X395591Y486039D01*
X395614Y485980D01*
X395634Y485921D01*
X395650Y485860D01*
X395663Y485799D01*
X395672Y485736D01*
X395677Y485674D01*
X395679Y485611D01*
X395143Y486550D02*
X393668Y487354D01*
X398548Y489365D02*
X398548Y484539D01*
X398548Y489365D02*
X399889Y489365D01*
X399960Y489363D01*
X400032Y489357D01*
X400102Y489348D01*
X400172Y489335D01*
X400242Y489318D01*
X400310Y489297D01*
X400377Y489273D01*
X400443Y489245D01*
X400507Y489214D01*
X400570Y489179D01*
X400630Y489141D01*
X400689Y489100D01*
X400745Y489056D01*
X400799Y489009D01*
X400850Y488960D01*
X400898Y488907D01*
X400944Y488852D01*
X400986Y488795D01*
X401026Y488735D01*
X401062Y488674D01*
X401095Y488610D01*
X401124Y488545D01*
X401150Y488479D01*
X401173Y488411D01*
X401192Y488342D01*
X401207Y488272D01*
X401218Y488202D01*
X401226Y488131D01*
X401230Y488060D01*
X401230Y487988D01*
X401226Y487917D01*
X401218Y487846D01*
X401207Y487776D01*
X401192Y487706D01*
X401173Y487637D01*
X401150Y487569D01*
X401124Y487503D01*
X401095Y487438D01*
X401062Y487374D01*
X401026Y487313D01*
X400986Y487253D01*
X400944Y487196D01*
X400898Y487141D01*
X400850Y487088D01*
X400799Y487039D01*
X400745Y486992D01*
X400689Y486948D01*
X400630Y486907D01*
X400570Y486869D01*
X400507Y486834D01*
X400443Y486803D01*
X400377Y486775D01*
X400310Y486751D01*
X400242Y486730D01*
X400172Y486713D01*
X400102Y486700D01*
X400032Y486691D01*
X399960Y486685D01*
X399889Y486683D01*
X399889Y486684D02*
X398548Y486684D01*
X400157Y486684D02*
X401229Y484539D01*
X404214Y484539D02*
X404214Y489365D01*
X403678Y484539D02*
X404750Y484539D01*
X404750Y489365D02*
X403678Y489365D01*
X409322Y487220D02*
X410126Y487220D01*
X410126Y484539D01*
X408518Y484539D01*
X408453Y484541D01*
X408389Y484547D01*
X408325Y484557D01*
X408261Y484570D01*
X408199Y484588D01*
X408138Y484609D01*
X408078Y484633D01*
X408020Y484662D01*
X407963Y484694D01*
X407909Y484729D01*
X407857Y484767D01*
X407807Y484809D01*
X407760Y484853D01*
X407716Y484900D01*
X407674Y484950D01*
X407636Y485002D01*
X407601Y485056D01*
X407569Y485113D01*
X407540Y485171D01*
X407516Y485231D01*
X407495Y485292D01*
X407477Y485354D01*
X407464Y485418D01*
X407454Y485482D01*
X407448Y485546D01*
X407446Y485611D01*
X407445Y485611D02*
X407445Y488293D01*
X407446Y488293D02*
X407448Y488358D01*
X407454Y488422D01*
X407464Y488486D01*
X407477Y488550D01*
X407495Y488612D01*
X407516Y488673D01*
X407540Y488733D01*
X407569Y488791D01*
X407601Y488848D01*
X407636Y488902D01*
X407674Y488954D01*
X407716Y489004D01*
X407760Y489051D01*
X407807Y489095D01*
X407857Y489137D01*
X407909Y489175D01*
X407963Y489210D01*
X408020Y489242D01*
X408078Y489271D01*
X408138Y489295D01*
X408199Y489316D01*
X408261Y489334D01*
X408325Y489347D01*
X408389Y489357D01*
X408453Y489363D01*
X408518Y489365D01*
X410126Y489365D01*
X413298Y489365D02*
X413298Y484539D01*
X413298Y487220D02*
X415979Y487220D01*
X415979Y489365D02*
X415979Y484539D01*
X419942Y484539D02*
X419942Y489365D01*
X421282Y489365D02*
X418601Y489365D01*
X419753Y211707D02*
X419751Y211642D01*
X419745Y211578D01*
X419735Y211514D01*
X419722Y211450D01*
X419704Y211388D01*
X419683Y211327D01*
X419659Y211267D01*
X419630Y211209D01*
X419598Y211152D01*
X419563Y211098D01*
X419525Y211046D01*
X419483Y210996D01*
X419439Y210949D01*
X419392Y210905D01*
X419342Y210863D01*
X419290Y210825D01*
X419236Y210790D01*
X419179Y210758D01*
X419121Y210729D01*
X419061Y210705D01*
X419000Y210684D01*
X418938Y210666D01*
X418874Y210653D01*
X418810Y210643D01*
X418746Y210637D01*
X418681Y210635D01*
X418587Y210637D01*
X418493Y210643D01*
X418399Y210653D01*
X418306Y210666D01*
X418214Y210684D01*
X418122Y210705D01*
X418031Y210730D01*
X417941Y210759D01*
X417853Y210792D01*
X417766Y210828D01*
X417681Y210868D01*
X417597Y210911D01*
X417516Y210958D01*
X417436Y211008D01*
X417358Y211061D01*
X417283Y211118D01*
X417210Y211177D01*
X417140Y211240D01*
X417072Y211305D01*
X417207Y214389D02*
X417209Y214454D01*
X417215Y214518D01*
X417225Y214582D01*
X417238Y214646D01*
X417256Y214708D01*
X417277Y214769D01*
X417301Y214829D01*
X417330Y214887D01*
X417362Y214944D01*
X417397Y214998D01*
X417435Y215050D01*
X417477Y215100D01*
X417521Y215147D01*
X417568Y215191D01*
X417618Y215233D01*
X417670Y215271D01*
X417724Y215306D01*
X417781Y215338D01*
X417839Y215367D01*
X417899Y215391D01*
X417960Y215412D01*
X418022Y215430D01*
X418086Y215443D01*
X418150Y215453D01*
X418214Y215459D01*
X418279Y215461D01*
X418365Y215459D01*
X418451Y215454D01*
X418537Y215444D01*
X418622Y215431D01*
X418707Y215415D01*
X418791Y215395D01*
X418874Y215371D01*
X418956Y215344D01*
X419036Y215313D01*
X419116Y215279D01*
X419193Y215241D01*
X419269Y215200D01*
X419343Y215156D01*
X419415Y215109D01*
X419486Y215059D01*
X417742Y213451D02*
X417689Y213484D01*
X417638Y213521D01*
X417589Y213560D01*
X417542Y213602D01*
X417498Y213647D01*
X417457Y213694D01*
X417418Y213743D01*
X417382Y213795D01*
X417349Y213849D01*
X417320Y213904D01*
X417294Y213961D01*
X417271Y214020D01*
X417251Y214079D01*
X417235Y214140D01*
X417222Y214201D01*
X417213Y214264D01*
X417208Y214326D01*
X417206Y214389D01*
X419217Y212645D02*
X419270Y212612D01*
X419321Y212575D01*
X419370Y212536D01*
X419417Y212494D01*
X419461Y212449D01*
X419502Y212402D01*
X419541Y212353D01*
X419577Y212301D01*
X419610Y212247D01*
X419639Y212192D01*
X419665Y212135D01*
X419688Y212076D01*
X419708Y212017D01*
X419724Y211956D01*
X419737Y211895D01*
X419746Y211832D01*
X419751Y211770D01*
X419753Y211707D01*
X419217Y212646D02*
X417742Y213450D01*
X423801Y210635D02*
X423866Y210637D01*
X423930Y210643D01*
X423994Y210653D01*
X424058Y210666D01*
X424120Y210684D01*
X424181Y210705D01*
X424241Y210729D01*
X424299Y210758D01*
X424356Y210790D01*
X424410Y210825D01*
X424462Y210863D01*
X424512Y210905D01*
X424559Y210949D01*
X424603Y210996D01*
X424645Y211046D01*
X424683Y211098D01*
X424718Y211152D01*
X424750Y211209D01*
X424779Y211267D01*
X424803Y211327D01*
X424824Y211388D01*
X424842Y211450D01*
X424855Y211514D01*
X424865Y211578D01*
X424871Y211642D01*
X424873Y211707D01*
X423801Y210635D02*
X423707Y210637D01*
X423613Y210643D01*
X423519Y210653D01*
X423426Y210666D01*
X423334Y210684D01*
X423242Y210705D01*
X423151Y210730D01*
X423061Y210759D01*
X422973Y210792D01*
X422886Y210828D01*
X422801Y210868D01*
X422717Y210911D01*
X422636Y210958D01*
X422556Y211008D01*
X422478Y211061D01*
X422403Y211118D01*
X422330Y211177D01*
X422260Y211240D01*
X422192Y211305D01*
X422327Y214389D02*
X422329Y214454D01*
X422335Y214518D01*
X422345Y214582D01*
X422358Y214646D01*
X422376Y214708D01*
X422397Y214769D01*
X422421Y214829D01*
X422450Y214887D01*
X422482Y214944D01*
X422517Y214998D01*
X422555Y215050D01*
X422597Y215100D01*
X422641Y215147D01*
X422688Y215191D01*
X422738Y215233D01*
X422790Y215271D01*
X422844Y215306D01*
X422901Y215338D01*
X422959Y215367D01*
X423019Y215391D01*
X423080Y215412D01*
X423142Y215430D01*
X423206Y215443D01*
X423270Y215453D01*
X423334Y215459D01*
X423399Y215461D01*
X423485Y215459D01*
X423571Y215454D01*
X423657Y215444D01*
X423742Y215431D01*
X423827Y215415D01*
X423911Y215395D01*
X423994Y215371D01*
X424076Y215344D01*
X424156Y215313D01*
X424236Y215279D01*
X424313Y215241D01*
X424389Y215200D01*
X424463Y215156D01*
X424535Y215109D01*
X424606Y215059D01*
X422863Y213451D02*
X422810Y213484D01*
X422759Y213521D01*
X422710Y213560D01*
X422663Y213602D01*
X422619Y213647D01*
X422578Y213694D01*
X422539Y213743D01*
X422503Y213795D01*
X422470Y213849D01*
X422441Y213904D01*
X422415Y213961D01*
X422392Y214020D01*
X422372Y214079D01*
X422356Y214140D01*
X422343Y214201D01*
X422334Y214264D01*
X422329Y214326D01*
X422327Y214389D01*
X424338Y212645D02*
X424391Y212612D01*
X424442Y212575D01*
X424491Y212536D01*
X424538Y212494D01*
X424582Y212449D01*
X424623Y212402D01*
X424662Y212353D01*
X424698Y212301D01*
X424731Y212247D01*
X424760Y212192D01*
X424786Y212135D01*
X424809Y212076D01*
X424829Y212017D01*
X424845Y211956D01*
X424858Y211895D01*
X424867Y211832D01*
X424872Y211770D01*
X424874Y211707D01*
X424338Y212646D02*
X422863Y213450D01*
X427699Y210635D02*
X429843Y210635D01*
X427699Y210635D02*
X427699Y215461D01*
X429843Y215461D01*
X429307Y213316D02*
X427699Y213316D01*
X432453Y215461D02*
X432453Y210635D01*
X434598Y210635D01*
X437208Y210635D02*
X439353Y210635D01*
X437208Y210635D02*
X437208Y215461D01*
X439353Y215461D01*
X438817Y213316D02*
X437208Y213316D01*
X442804Y210635D02*
X443877Y210635D01*
X442804Y210635D02*
X442739Y210637D01*
X442675Y210643D01*
X442611Y210653D01*
X442547Y210666D01*
X442485Y210684D01*
X442424Y210705D01*
X442364Y210729D01*
X442306Y210758D01*
X442249Y210790D01*
X442195Y210825D01*
X442143Y210863D01*
X442093Y210905D01*
X442046Y210949D01*
X442002Y210996D01*
X441960Y211046D01*
X441922Y211098D01*
X441887Y211152D01*
X441855Y211209D01*
X441826Y211267D01*
X441802Y211327D01*
X441781Y211388D01*
X441763Y211450D01*
X441750Y211514D01*
X441740Y211578D01*
X441734Y211642D01*
X441732Y211707D01*
X441732Y214389D01*
X441734Y214454D01*
X441740Y214518D01*
X441750Y214582D01*
X441763Y214646D01*
X441781Y214708D01*
X441802Y214769D01*
X441826Y214829D01*
X441855Y214887D01*
X441887Y214944D01*
X441922Y214998D01*
X441960Y215050D01*
X442002Y215100D01*
X442046Y215147D01*
X442093Y215191D01*
X442143Y215233D01*
X442195Y215271D01*
X442249Y215306D01*
X442306Y215338D01*
X442364Y215367D01*
X442424Y215391D01*
X442485Y215412D01*
X442547Y215430D01*
X442611Y215443D01*
X442675Y215453D01*
X442739Y215459D01*
X442804Y215461D01*
X443877Y215461D01*
X447307Y215461D02*
X447307Y210635D01*
X445967Y215461D02*
X448648Y215461D01*
X2434424Y144539D02*
X2434489Y144541D01*
X2434553Y144547D01*
X2434617Y144557D01*
X2434681Y144570D01*
X2434743Y144588D01*
X2434804Y144609D01*
X2434864Y144633D01*
X2434922Y144662D01*
X2434979Y144694D01*
X2435033Y144729D01*
X2435085Y144767D01*
X2435135Y144809D01*
X2435182Y144853D01*
X2435226Y144900D01*
X2435268Y144950D01*
X2435306Y145002D01*
X2435341Y145056D01*
X2435373Y145113D01*
X2435402Y145171D01*
X2435426Y145231D01*
X2435447Y145292D01*
X2435465Y145354D01*
X2435478Y145418D01*
X2435488Y145482D01*
X2435494Y145546D01*
X2435496Y145611D01*
X2434424Y144539D02*
X2434330Y144541D01*
X2434236Y144547D01*
X2434142Y144557D01*
X2434049Y144570D01*
X2433957Y144588D01*
X2433865Y144609D01*
X2433774Y144634D01*
X2433684Y144663D01*
X2433596Y144696D01*
X2433509Y144732D01*
X2433424Y144772D01*
X2433340Y144815D01*
X2433259Y144862D01*
X2433179Y144912D01*
X2433101Y144965D01*
X2433026Y145022D01*
X2432953Y145081D01*
X2432883Y145144D01*
X2432815Y145209D01*
X2432950Y148293D02*
X2432952Y148358D01*
X2432958Y148422D01*
X2432968Y148486D01*
X2432981Y148550D01*
X2432999Y148612D01*
X2433020Y148673D01*
X2433044Y148733D01*
X2433073Y148791D01*
X2433105Y148848D01*
X2433140Y148902D01*
X2433178Y148954D01*
X2433220Y149004D01*
X2433264Y149051D01*
X2433311Y149095D01*
X2433361Y149137D01*
X2433413Y149175D01*
X2433467Y149210D01*
X2433524Y149242D01*
X2433582Y149271D01*
X2433642Y149295D01*
X2433703Y149316D01*
X2433765Y149334D01*
X2433829Y149347D01*
X2433893Y149357D01*
X2433957Y149363D01*
X2434022Y149365D01*
X2434108Y149363D01*
X2434194Y149358D01*
X2434280Y149348D01*
X2434365Y149335D01*
X2434450Y149319D01*
X2434534Y149299D01*
X2434617Y149275D01*
X2434699Y149248D01*
X2434779Y149217D01*
X2434859Y149183D01*
X2434936Y149145D01*
X2435012Y149104D01*
X2435086Y149060D01*
X2435158Y149013D01*
X2435229Y148963D01*
X2433485Y147355D02*
X2433432Y147388D01*
X2433381Y147425D01*
X2433332Y147464D01*
X2433285Y147506D01*
X2433241Y147551D01*
X2433200Y147598D01*
X2433161Y147647D01*
X2433125Y147699D01*
X2433092Y147753D01*
X2433063Y147808D01*
X2433037Y147865D01*
X2433014Y147924D01*
X2432994Y147983D01*
X2432978Y148044D01*
X2432965Y148105D01*
X2432956Y148168D01*
X2432951Y148230D01*
X2432949Y148293D01*
X2434960Y146549D02*
X2435013Y146516D01*
X2435064Y146479D01*
X2435113Y146440D01*
X2435160Y146398D01*
X2435204Y146353D01*
X2435245Y146306D01*
X2435284Y146257D01*
X2435320Y146205D01*
X2435353Y146151D01*
X2435382Y146096D01*
X2435408Y146039D01*
X2435431Y145980D01*
X2435451Y145921D01*
X2435467Y145860D01*
X2435480Y145799D01*
X2435489Y145736D01*
X2435494Y145674D01*
X2435496Y145611D01*
X2434960Y146550D02*
X2433485Y147354D01*
X2439544Y144539D02*
X2439609Y144541D01*
X2439673Y144547D01*
X2439737Y144557D01*
X2439801Y144570D01*
X2439863Y144588D01*
X2439924Y144609D01*
X2439984Y144633D01*
X2440042Y144662D01*
X2440099Y144694D01*
X2440153Y144729D01*
X2440205Y144767D01*
X2440255Y144809D01*
X2440302Y144853D01*
X2440346Y144900D01*
X2440388Y144950D01*
X2440426Y145002D01*
X2440461Y145056D01*
X2440493Y145113D01*
X2440522Y145171D01*
X2440546Y145231D01*
X2440567Y145292D01*
X2440585Y145354D01*
X2440598Y145418D01*
X2440608Y145482D01*
X2440614Y145546D01*
X2440616Y145611D01*
X2439544Y144539D02*
X2439450Y144541D01*
X2439356Y144547D01*
X2439262Y144557D01*
X2439169Y144570D01*
X2439077Y144588D01*
X2438985Y144609D01*
X2438894Y144634D01*
X2438804Y144663D01*
X2438716Y144696D01*
X2438629Y144732D01*
X2438544Y144772D01*
X2438460Y144815D01*
X2438379Y144862D01*
X2438299Y144912D01*
X2438221Y144965D01*
X2438146Y145022D01*
X2438073Y145081D01*
X2438003Y145144D01*
X2437935Y145209D01*
X2438070Y148293D02*
X2438072Y148358D01*
X2438078Y148422D01*
X2438088Y148486D01*
X2438101Y148550D01*
X2438119Y148612D01*
X2438140Y148673D01*
X2438164Y148733D01*
X2438193Y148791D01*
X2438225Y148848D01*
X2438260Y148902D01*
X2438298Y148954D01*
X2438340Y149004D01*
X2438384Y149051D01*
X2438431Y149095D01*
X2438481Y149137D01*
X2438533Y149175D01*
X2438587Y149210D01*
X2438644Y149242D01*
X2438702Y149271D01*
X2438762Y149295D01*
X2438823Y149316D01*
X2438885Y149334D01*
X2438949Y149347D01*
X2439013Y149357D01*
X2439077Y149363D01*
X2439142Y149365D01*
X2439228Y149363D01*
X2439314Y149358D01*
X2439400Y149348D01*
X2439485Y149335D01*
X2439570Y149319D01*
X2439654Y149299D01*
X2439737Y149275D01*
X2439819Y149248D01*
X2439899Y149217D01*
X2439979Y149183D01*
X2440056Y149145D01*
X2440132Y149104D01*
X2440206Y149060D01*
X2440278Y149013D01*
X2440349Y148963D01*
X2438606Y147355D02*
X2438553Y147388D01*
X2438502Y147425D01*
X2438453Y147464D01*
X2438406Y147506D01*
X2438362Y147551D01*
X2438321Y147598D01*
X2438282Y147647D01*
X2438246Y147699D01*
X2438213Y147753D01*
X2438184Y147808D01*
X2438158Y147865D01*
X2438135Y147924D01*
X2438115Y147983D01*
X2438099Y148044D01*
X2438086Y148105D01*
X2438077Y148168D01*
X2438072Y148230D01*
X2438070Y148293D01*
X2440081Y146549D02*
X2440134Y146516D01*
X2440185Y146479D01*
X2440234Y146440D01*
X2440281Y146398D01*
X2440325Y146353D01*
X2440366Y146306D01*
X2440405Y146257D01*
X2440441Y146205D01*
X2440474Y146151D01*
X2440503Y146096D01*
X2440529Y146039D01*
X2440552Y145980D01*
X2440572Y145921D01*
X2440588Y145860D01*
X2440601Y145799D01*
X2440610Y145736D01*
X2440615Y145674D01*
X2440617Y145611D01*
X2440081Y146550D02*
X2438606Y147354D01*
X2444214Y149365D02*
X2444214Y144539D01*
X2442873Y149365D02*
X2445554Y149365D01*
X2449335Y149365D02*
X2447726Y144539D01*
X2450943Y144539D02*
X2449335Y149365D01*
X2450541Y145746D02*
X2448128Y145746D01*
X2453727Y144539D02*
X2453727Y149365D01*
X2455067Y149365D01*
X2455138Y149363D01*
X2455210Y149357D01*
X2455280Y149348D01*
X2455350Y149335D01*
X2455420Y149318D01*
X2455488Y149297D01*
X2455555Y149273D01*
X2455621Y149245D01*
X2455685Y149214D01*
X2455748Y149179D01*
X2455808Y149141D01*
X2455867Y149100D01*
X2455923Y149056D01*
X2455977Y149009D01*
X2456028Y148960D01*
X2456076Y148907D01*
X2456122Y148852D01*
X2456164Y148795D01*
X2456204Y148735D01*
X2456240Y148674D01*
X2456273Y148610D01*
X2456302Y148545D01*
X2456328Y148479D01*
X2456351Y148411D01*
X2456370Y148342D01*
X2456385Y148272D01*
X2456396Y148202D01*
X2456404Y148131D01*
X2456408Y148060D01*
X2456408Y147988D01*
X2456404Y147917D01*
X2456396Y147846D01*
X2456385Y147776D01*
X2456370Y147706D01*
X2456351Y147637D01*
X2456328Y147569D01*
X2456302Y147503D01*
X2456273Y147438D01*
X2456240Y147374D01*
X2456204Y147313D01*
X2456164Y147253D01*
X2456122Y147196D01*
X2456076Y147141D01*
X2456028Y147088D01*
X2455977Y147039D01*
X2455923Y146992D01*
X2455867Y146948D01*
X2455808Y146907D01*
X2455748Y146869D01*
X2455685Y146834D01*
X2455621Y146803D01*
X2455555Y146775D01*
X2455488Y146751D01*
X2455420Y146730D01*
X2455350Y146713D01*
X2455280Y146700D01*
X2455210Y146691D01*
X2455138Y146685D01*
X2455067Y146683D01*
X2455067Y146684D02*
X2453727Y146684D01*
X2455336Y146684D02*
X2456408Y144539D01*
X2460124Y144539D02*
X2460124Y149365D01*
X2458784Y149365D02*
X2461465Y149365D01*
X355461Y591666D02*
X355459Y591731D01*
X355453Y591795D01*
X355443Y591859D01*
X355430Y591923D01*
X355412Y591985D01*
X355391Y592046D01*
X355367Y592106D01*
X355338Y592164D01*
X355306Y592221D01*
X355271Y592275D01*
X355233Y592327D01*
X355191Y592377D01*
X355147Y592424D01*
X355100Y592468D01*
X355050Y592510D01*
X354998Y592548D01*
X354944Y592583D01*
X354887Y592615D01*
X354829Y592644D01*
X354769Y592668D01*
X354708Y592689D01*
X354646Y592707D01*
X354582Y592720D01*
X354518Y592730D01*
X354454Y592736D01*
X354389Y592738D01*
X355461Y591666D02*
X355459Y591572D01*
X355453Y591478D01*
X355443Y591384D01*
X355430Y591291D01*
X355412Y591199D01*
X355391Y591107D01*
X355366Y591016D01*
X355337Y590926D01*
X355304Y590838D01*
X355268Y590751D01*
X355228Y590666D01*
X355185Y590582D01*
X355138Y590501D01*
X355088Y590421D01*
X355035Y590343D01*
X354978Y590268D01*
X354919Y590195D01*
X354856Y590125D01*
X354791Y590057D01*
X351707Y590191D02*
X351642Y590193D01*
X351578Y590199D01*
X351514Y590209D01*
X351450Y590222D01*
X351388Y590240D01*
X351327Y590261D01*
X351267Y590285D01*
X351209Y590314D01*
X351152Y590346D01*
X351098Y590381D01*
X351046Y590419D01*
X350996Y590461D01*
X350949Y590505D01*
X350905Y590552D01*
X350863Y590602D01*
X350825Y590654D01*
X350790Y590708D01*
X350758Y590765D01*
X350729Y590823D01*
X350705Y590883D01*
X350684Y590944D01*
X350666Y591006D01*
X350653Y591070D01*
X350643Y591134D01*
X350637Y591198D01*
X350635Y591263D01*
X350637Y591349D01*
X350642Y591435D01*
X350652Y591521D01*
X350665Y591606D01*
X350681Y591691D01*
X350701Y591775D01*
X350725Y591858D01*
X350752Y591940D01*
X350783Y592020D01*
X350817Y592100D01*
X350855Y592177D01*
X350896Y592253D01*
X350940Y592327D01*
X350987Y592400D01*
X351037Y592470D01*
X352645Y590727D02*
X352612Y590674D01*
X352575Y590623D01*
X352536Y590574D01*
X352494Y590527D01*
X352449Y590483D01*
X352402Y590442D01*
X352353Y590403D01*
X352301Y590367D01*
X352247Y590334D01*
X352192Y590305D01*
X352135Y590279D01*
X352076Y590256D01*
X352017Y590236D01*
X351956Y590220D01*
X351895Y590207D01*
X351832Y590198D01*
X351770Y590193D01*
X351707Y590191D01*
X353451Y592202D02*
X353484Y592255D01*
X353521Y592306D01*
X353560Y592355D01*
X353602Y592402D01*
X353647Y592446D01*
X353694Y592487D01*
X353743Y592526D01*
X353795Y592562D01*
X353849Y592595D01*
X353904Y592624D01*
X353961Y592650D01*
X354020Y592673D01*
X354079Y592693D01*
X354140Y592709D01*
X354201Y592722D01*
X354264Y592731D01*
X354326Y592736D01*
X354389Y592738D01*
X353450Y592202D02*
X352646Y590727D01*
X354120Y595543D02*
X350635Y595543D01*
X354120Y595543D02*
X354191Y595545D01*
X354263Y595551D01*
X354333Y595560D01*
X354403Y595573D01*
X354473Y595590D01*
X354541Y595611D01*
X354608Y595635D01*
X354674Y595663D01*
X354738Y595694D01*
X354801Y595729D01*
X354861Y595767D01*
X354920Y595808D01*
X354976Y595852D01*
X355030Y595899D01*
X355081Y595948D01*
X355129Y596001D01*
X355175Y596056D01*
X355217Y596113D01*
X355257Y596173D01*
X355293Y596234D01*
X355326Y596298D01*
X355355Y596363D01*
X355381Y596429D01*
X355404Y596497D01*
X355423Y596566D01*
X355438Y596636D01*
X355449Y596706D01*
X355457Y596777D01*
X355461Y596848D01*
X355461Y596920D01*
X355457Y596991D01*
X355449Y597062D01*
X355438Y597132D01*
X355423Y597202D01*
X355404Y597271D01*
X355381Y597339D01*
X355355Y597405D01*
X355326Y597470D01*
X355293Y597534D01*
X355257Y597595D01*
X355217Y597655D01*
X355175Y597712D01*
X355129Y597767D01*
X355081Y597820D01*
X355030Y597869D01*
X354976Y597916D01*
X354920Y597960D01*
X354861Y598001D01*
X354801Y598039D01*
X354738Y598074D01*
X354674Y598105D01*
X354608Y598133D01*
X354541Y598157D01*
X354473Y598178D01*
X354403Y598195D01*
X354333Y598208D01*
X354263Y598217D01*
X354191Y598223D01*
X354120Y598225D01*
X354120Y598224D02*
X350635Y598224D01*
X350635Y601542D02*
X355461Y601542D01*
X350635Y601542D02*
X350635Y602882D01*
X350637Y602953D01*
X350643Y603025D01*
X350652Y603095D01*
X350665Y603165D01*
X350682Y603235D01*
X350703Y603303D01*
X350727Y603370D01*
X350755Y603436D01*
X350786Y603500D01*
X350821Y603563D01*
X350859Y603623D01*
X350900Y603682D01*
X350944Y603738D01*
X350991Y603792D01*
X351040Y603843D01*
X351093Y603891D01*
X351148Y603937D01*
X351205Y603979D01*
X351265Y604019D01*
X351326Y604055D01*
X351390Y604088D01*
X351455Y604117D01*
X351521Y604143D01*
X351589Y604166D01*
X351658Y604185D01*
X351728Y604200D01*
X351798Y604211D01*
X351869Y604219D01*
X351940Y604223D01*
X352012Y604223D01*
X352083Y604219D01*
X352154Y604211D01*
X352224Y604200D01*
X352294Y604185D01*
X352363Y604166D01*
X352431Y604143D01*
X352497Y604117D01*
X352562Y604088D01*
X352626Y604055D01*
X352687Y604019D01*
X352747Y603979D01*
X352804Y603937D01*
X352859Y603891D01*
X352912Y603843D01*
X352961Y603792D01*
X353008Y603738D01*
X353052Y603682D01*
X353093Y603623D01*
X353131Y603563D01*
X353166Y603500D01*
X353197Y603436D01*
X353225Y603370D01*
X353249Y603303D01*
X353270Y603235D01*
X353287Y603165D01*
X353300Y603095D01*
X353309Y603025D01*
X353315Y602953D01*
X353317Y602882D01*
X353316Y602882D02*
X353316Y601542D01*
X2604389Y595694D02*
X2604454Y595692D01*
X2604518Y595686D01*
X2604582Y595676D01*
X2604646Y595663D01*
X2604708Y595645D01*
X2604769Y595624D01*
X2604829Y595600D01*
X2604887Y595571D01*
X2604944Y595539D01*
X2604998Y595504D01*
X2605050Y595466D01*
X2605100Y595424D01*
X2605147Y595380D01*
X2605191Y595333D01*
X2605233Y595283D01*
X2605271Y595231D01*
X2605306Y595177D01*
X2605338Y595120D01*
X2605367Y595062D01*
X2605391Y595002D01*
X2605412Y594941D01*
X2605430Y594879D01*
X2605443Y594815D01*
X2605453Y594751D01*
X2605459Y594687D01*
X2605461Y594622D01*
X2605459Y594528D01*
X2605453Y594434D01*
X2605443Y594340D01*
X2605430Y594247D01*
X2605412Y594155D01*
X2605391Y594063D01*
X2605366Y593972D01*
X2605337Y593882D01*
X2605304Y593794D01*
X2605268Y593707D01*
X2605228Y593622D01*
X2605185Y593538D01*
X2605138Y593457D01*
X2605088Y593377D01*
X2605035Y593299D01*
X2604978Y593224D01*
X2604919Y593151D01*
X2604856Y593081D01*
X2604791Y593013D01*
X2601707Y593148D02*
X2601642Y593150D01*
X2601578Y593156D01*
X2601514Y593166D01*
X2601450Y593179D01*
X2601388Y593197D01*
X2601327Y593218D01*
X2601267Y593242D01*
X2601209Y593271D01*
X2601152Y593303D01*
X2601098Y593338D01*
X2601046Y593376D01*
X2600996Y593418D01*
X2600949Y593462D01*
X2600905Y593509D01*
X2600863Y593559D01*
X2600825Y593611D01*
X2600790Y593665D01*
X2600758Y593722D01*
X2600729Y593780D01*
X2600705Y593840D01*
X2600684Y593901D01*
X2600666Y593963D01*
X2600653Y594027D01*
X2600643Y594091D01*
X2600637Y594155D01*
X2600635Y594220D01*
X2600637Y594306D01*
X2600642Y594392D01*
X2600652Y594478D01*
X2600665Y594563D01*
X2600681Y594648D01*
X2600701Y594732D01*
X2600725Y594815D01*
X2600752Y594897D01*
X2600783Y594977D01*
X2600817Y595057D01*
X2600855Y595134D01*
X2600896Y595210D01*
X2600940Y595284D01*
X2600987Y595357D01*
X2601037Y595427D01*
X2602645Y593684D02*
X2602612Y593631D01*
X2602575Y593580D01*
X2602536Y593531D01*
X2602494Y593484D01*
X2602449Y593440D01*
X2602402Y593399D01*
X2602353Y593360D01*
X2602301Y593324D01*
X2602247Y593291D01*
X2602192Y593262D01*
X2602135Y593236D01*
X2602076Y593213D01*
X2602017Y593193D01*
X2601956Y593177D01*
X2601895Y593164D01*
X2601832Y593155D01*
X2601770Y593150D01*
X2601707Y593148D01*
X2603451Y595159D02*
X2603484Y595212D01*
X2603521Y595263D01*
X2603560Y595312D01*
X2603602Y595359D01*
X2603647Y595403D01*
X2603694Y595444D01*
X2603743Y595483D01*
X2603795Y595519D01*
X2603849Y595552D01*
X2603904Y595581D01*
X2603961Y595607D01*
X2604020Y595630D01*
X2604079Y595650D01*
X2604140Y595666D01*
X2604201Y595679D01*
X2604264Y595688D01*
X2604326Y595693D01*
X2604389Y595695D01*
X2603450Y595159D02*
X2602646Y593684D01*
X2605461Y598049D02*
X2600635Y601266D01*
X2600635Y598049D02*
X2605461Y601266D01*
X2481414Y551707D02*
X2481412Y551642D01*
X2481406Y551578D01*
X2481396Y551514D01*
X2481383Y551450D01*
X2481365Y551388D01*
X2481344Y551327D01*
X2481320Y551267D01*
X2481291Y551209D01*
X2481259Y551152D01*
X2481224Y551098D01*
X2481186Y551046D01*
X2481144Y550996D01*
X2481100Y550949D01*
X2481053Y550905D01*
X2481003Y550863D01*
X2480951Y550825D01*
X2480897Y550790D01*
X2480840Y550758D01*
X2480782Y550729D01*
X2480722Y550705D01*
X2480661Y550684D01*
X2480599Y550666D01*
X2480535Y550653D01*
X2480471Y550643D01*
X2480407Y550637D01*
X2480342Y550635D01*
X2480248Y550637D01*
X2480154Y550643D01*
X2480060Y550653D01*
X2479967Y550666D01*
X2479875Y550684D01*
X2479783Y550705D01*
X2479692Y550730D01*
X2479602Y550759D01*
X2479514Y550792D01*
X2479427Y550828D01*
X2479342Y550868D01*
X2479258Y550911D01*
X2479177Y550958D01*
X2479097Y551008D01*
X2479019Y551061D01*
X2478944Y551118D01*
X2478871Y551177D01*
X2478801Y551240D01*
X2478733Y551305D01*
X2478868Y554389D02*
X2478870Y554454D01*
X2478876Y554518D01*
X2478886Y554582D01*
X2478899Y554646D01*
X2478917Y554708D01*
X2478938Y554769D01*
X2478962Y554829D01*
X2478991Y554887D01*
X2479023Y554944D01*
X2479058Y554998D01*
X2479096Y555050D01*
X2479138Y555100D01*
X2479182Y555147D01*
X2479229Y555191D01*
X2479279Y555233D01*
X2479331Y555271D01*
X2479385Y555306D01*
X2479442Y555338D01*
X2479500Y555367D01*
X2479560Y555391D01*
X2479621Y555412D01*
X2479683Y555430D01*
X2479747Y555443D01*
X2479811Y555453D01*
X2479875Y555459D01*
X2479940Y555461D01*
X2480026Y555459D01*
X2480112Y555454D01*
X2480198Y555444D01*
X2480283Y555431D01*
X2480368Y555415D01*
X2480452Y555395D01*
X2480535Y555371D01*
X2480617Y555344D01*
X2480697Y555313D01*
X2480777Y555279D01*
X2480854Y555241D01*
X2480930Y555200D01*
X2481004Y555156D01*
X2481076Y555109D01*
X2481147Y555059D01*
X2479404Y553451D02*
X2479351Y553484D01*
X2479300Y553521D01*
X2479251Y553560D01*
X2479204Y553602D01*
X2479160Y553647D01*
X2479119Y553694D01*
X2479080Y553743D01*
X2479044Y553795D01*
X2479011Y553849D01*
X2478982Y553904D01*
X2478956Y553961D01*
X2478933Y554020D01*
X2478913Y554079D01*
X2478897Y554140D01*
X2478884Y554201D01*
X2478875Y554264D01*
X2478870Y554326D01*
X2478868Y554389D01*
X2480879Y552645D02*
X2480932Y552612D01*
X2480983Y552575D01*
X2481032Y552536D01*
X2481079Y552494D01*
X2481123Y552449D01*
X2481164Y552402D01*
X2481203Y552353D01*
X2481239Y552301D01*
X2481272Y552247D01*
X2481301Y552192D01*
X2481327Y552135D01*
X2481350Y552076D01*
X2481370Y552017D01*
X2481386Y551956D01*
X2481399Y551895D01*
X2481408Y551832D01*
X2481413Y551770D01*
X2481415Y551707D01*
X2480879Y552646D02*
X2479404Y553450D01*
X2483769Y555461D02*
X2485378Y553182D01*
X2486986Y555461D01*
X2485378Y553182D02*
X2485378Y550635D01*
X2654622Y484539D02*
X2654687Y484541D01*
X2654751Y484547D01*
X2654815Y484557D01*
X2654879Y484570D01*
X2654941Y484588D01*
X2655002Y484609D01*
X2655062Y484633D01*
X2655120Y484662D01*
X2655177Y484694D01*
X2655231Y484729D01*
X2655283Y484767D01*
X2655333Y484809D01*
X2655380Y484853D01*
X2655424Y484900D01*
X2655466Y484950D01*
X2655504Y485002D01*
X2655539Y485056D01*
X2655571Y485113D01*
X2655600Y485171D01*
X2655624Y485231D01*
X2655645Y485292D01*
X2655663Y485354D01*
X2655676Y485418D01*
X2655686Y485482D01*
X2655692Y485546D01*
X2655694Y485611D01*
X2654622Y484539D02*
X2654528Y484541D01*
X2654434Y484547D01*
X2654340Y484557D01*
X2654247Y484570D01*
X2654155Y484588D01*
X2654063Y484609D01*
X2653972Y484634D01*
X2653882Y484663D01*
X2653794Y484696D01*
X2653707Y484732D01*
X2653622Y484772D01*
X2653538Y484815D01*
X2653457Y484862D01*
X2653377Y484912D01*
X2653299Y484965D01*
X2653224Y485022D01*
X2653151Y485081D01*
X2653081Y485144D01*
X2653013Y485209D01*
X2653148Y488293D02*
X2653150Y488358D01*
X2653156Y488422D01*
X2653166Y488486D01*
X2653179Y488550D01*
X2653197Y488612D01*
X2653218Y488673D01*
X2653242Y488733D01*
X2653271Y488791D01*
X2653303Y488848D01*
X2653338Y488902D01*
X2653376Y488954D01*
X2653418Y489004D01*
X2653462Y489051D01*
X2653509Y489095D01*
X2653559Y489137D01*
X2653611Y489175D01*
X2653665Y489210D01*
X2653722Y489242D01*
X2653780Y489271D01*
X2653840Y489295D01*
X2653901Y489316D01*
X2653963Y489334D01*
X2654027Y489347D01*
X2654091Y489357D01*
X2654155Y489363D01*
X2654220Y489365D01*
X2654306Y489363D01*
X2654392Y489358D01*
X2654478Y489348D01*
X2654563Y489335D01*
X2654648Y489319D01*
X2654732Y489299D01*
X2654815Y489275D01*
X2654897Y489248D01*
X2654977Y489217D01*
X2655057Y489183D01*
X2655134Y489145D01*
X2655210Y489104D01*
X2655284Y489060D01*
X2655356Y489013D01*
X2655427Y488963D01*
X2653684Y487355D02*
X2653631Y487388D01*
X2653580Y487425D01*
X2653531Y487464D01*
X2653484Y487506D01*
X2653440Y487551D01*
X2653399Y487598D01*
X2653360Y487647D01*
X2653324Y487699D01*
X2653291Y487753D01*
X2653262Y487808D01*
X2653236Y487865D01*
X2653213Y487924D01*
X2653193Y487983D01*
X2653177Y488044D01*
X2653164Y488105D01*
X2653155Y488168D01*
X2653150Y488230D01*
X2653148Y488293D01*
X2655159Y486549D02*
X2655212Y486516D01*
X2655263Y486479D01*
X2655312Y486440D01*
X2655359Y486398D01*
X2655403Y486353D01*
X2655444Y486306D01*
X2655483Y486257D01*
X2655519Y486205D01*
X2655552Y486151D01*
X2655581Y486096D01*
X2655607Y486039D01*
X2655630Y485980D01*
X2655650Y485921D01*
X2655666Y485860D01*
X2655679Y485799D01*
X2655688Y485736D01*
X2655693Y485674D01*
X2655695Y485611D01*
X2655159Y486550D02*
X2653684Y487354D01*
X2658049Y484539D02*
X2659658Y489365D01*
X2661266Y484539D01*
X2660864Y485746D02*
X2658451Y485746D01*
M02*
