G04 EAGLE Gerber RS-274X export*
G75*
%MOMM*%
%FSLAX34Y34*%
%LPD*%
%INSilkscreen Bottom*%
%IPPOS*%
%AMOC8*
5,1,8,0,0,1.08239X$1,22.5*%
G01*
G04 Define Apertures*
%ADD10C,0.127000*%
%ADD11C,0.152400*%
%ADD12C,0.406400*%
G36*
X1620281Y528665D02*
X1607940Y528665D01*
X1607940Y533281D01*
X1607952Y533721D01*
X1607988Y534148D01*
X1608047Y534562D01*
X1608130Y534963D01*
X1608238Y535350D01*
X1608369Y535725D01*
X1608523Y536086D01*
X1608702Y536434D01*
X1608903Y536766D01*
X1609125Y537078D01*
X1609368Y537371D01*
X1609631Y537645D01*
X1609916Y537899D01*
X1610222Y538134D01*
X1610548Y538349D01*
X1610896Y538545D01*
X1611261Y538719D01*
X1611642Y538871D01*
X1612037Y538998D01*
X1612447Y539103D01*
X1612872Y539185D01*
X1613313Y539243D01*
X1613768Y539278D01*
X1614237Y539289D01*
X1614595Y539283D01*
X1614941Y539263D01*
X1615278Y539229D01*
X1615604Y539183D01*
X1615920Y539123D01*
X1616225Y539050D01*
X1616520Y538963D01*
X1616805Y538863D01*
X1617079Y538750D01*
X1617343Y538624D01*
X1617596Y538484D01*
X1617840Y538331D01*
X1618072Y538165D01*
X1618295Y537985D01*
X1618507Y537792D01*
X1618709Y537586D01*
X1618899Y537367D01*
X1619077Y537138D01*
X1619243Y536897D01*
X1619396Y536644D01*
X1619538Y536381D01*
X1619667Y536107D01*
X1619783Y535821D01*
X1619888Y535524D01*
X1619980Y535216D01*
X1620060Y534897D01*
X1620127Y534567D01*
X1620183Y534225D01*
X1620226Y533872D01*
X1620256Y533508D01*
X1620275Y533133D01*
X1620281Y532747D01*
X1620281Y528665D01*
G37*
%LPC*%
G36*
X1618941Y530338D02*
X1618941Y532712D01*
X1618922Y533290D01*
X1618865Y533832D01*
X1618771Y534340D01*
X1618640Y534813D01*
X1618470Y535250D01*
X1618263Y535652D01*
X1618019Y536019D01*
X1617736Y536351D01*
X1617418Y536645D01*
X1617066Y536901D01*
X1616680Y537117D01*
X1616260Y537293D01*
X1615805Y537431D01*
X1615317Y537529D01*
X1614794Y537588D01*
X1614237Y537608D01*
X1613863Y537599D01*
X1613501Y537573D01*
X1613151Y537530D01*
X1612814Y537470D01*
X1612490Y537392D01*
X1612178Y537297D01*
X1611879Y537185D01*
X1611592Y537056D01*
X1611320Y536910D01*
X1611065Y536750D01*
X1610825Y536575D01*
X1610603Y536385D01*
X1610396Y536180D01*
X1610206Y535960D01*
X1610033Y535725D01*
X1609876Y535475D01*
X1609736Y535213D01*
X1609615Y534940D01*
X1609513Y534657D01*
X1609429Y534364D01*
X1609364Y534060D01*
X1609317Y533747D01*
X1609289Y533423D01*
X1609280Y533088D01*
X1609280Y530338D01*
X1618941Y530338D01*
G37*
%LPD*%
G36*
X1620281Y506071D02*
X1607940Y506071D01*
X1607940Y507744D01*
X1612748Y507744D01*
X1612748Y511370D01*
X1612765Y511848D01*
X1612813Y512300D01*
X1612894Y512727D01*
X1613007Y513128D01*
X1613152Y513503D01*
X1613330Y513853D01*
X1613540Y514177D01*
X1613782Y514475D01*
X1614052Y514743D01*
X1614344Y514975D01*
X1614658Y515172D01*
X1614995Y515333D01*
X1615354Y515458D01*
X1615736Y515547D01*
X1616140Y515600D01*
X1616567Y515618D01*
X1616997Y515600D01*
X1617402Y515547D01*
X1617782Y515458D01*
X1618137Y515334D01*
X1618467Y515173D01*
X1618773Y514978D01*
X1619053Y514747D01*
X1619309Y514480D01*
X1619536Y514180D01*
X1619734Y513852D01*
X1619901Y513494D01*
X1620038Y513107D01*
X1620144Y512690D01*
X1620220Y512245D01*
X1620266Y511770D01*
X1620281Y511265D01*
X1620281Y506071D01*
G37*
%LPC*%
G36*
X1618941Y507744D02*
X1618941Y511064D01*
X1618931Y511412D01*
X1618903Y511737D01*
X1618857Y512040D01*
X1618791Y512321D01*
X1618707Y512579D01*
X1618604Y512814D01*
X1618483Y513028D01*
X1618343Y513218D01*
X1618184Y513387D01*
X1618007Y513533D01*
X1617811Y513656D01*
X1617596Y513757D01*
X1617362Y513836D01*
X1617110Y513892D01*
X1616839Y513925D01*
X1616550Y513937D01*
X1616249Y513926D01*
X1615969Y513893D01*
X1615707Y513838D01*
X1615465Y513761D01*
X1615243Y513663D01*
X1615039Y513542D01*
X1614855Y513400D01*
X1614691Y513236D01*
X1614545Y513050D01*
X1614420Y512842D01*
X1614313Y512612D01*
X1614226Y512360D01*
X1614158Y512086D01*
X1614110Y511791D01*
X1614081Y511473D01*
X1614071Y511134D01*
X1614071Y507744D01*
X1618941Y507744D01*
G37*
%LPD*%
G36*
X1607940Y515260D02*
X1607940Y516994D01*
X1611549Y518413D01*
X1611549Y524036D01*
X1607940Y525446D01*
X1607940Y527154D01*
X1620281Y522197D01*
X1620281Y520296D01*
X1607940Y515260D01*
G37*
%LPC*%
G36*
X1612854Y518921D02*
X1616909Y520498D01*
X1617944Y520874D01*
X1618774Y521146D01*
X1619020Y521225D01*
X1618293Y521461D01*
X1617570Y521706D01*
X1616926Y521952D01*
X1612854Y523537D01*
X1612854Y518921D01*
G37*
%LPD*%
G36*
X293145Y689182D02*
X292797Y691762D01*
X290657Y690433D01*
X290065Y691520D01*
X292369Y692575D01*
X290362Y694427D01*
X291278Y695229D01*
X293013Y693258D01*
X293915Y695712D01*
X295051Y695272D01*
X293835Y692834D01*
X296379Y692633D01*
X296191Y691426D01*
X293758Y691913D01*
X294318Y689388D01*
X293145Y689182D01*
G37*
G36*
X1880023Y581867D02*
X1879635Y581876D01*
X1879260Y581903D01*
X1878898Y581948D01*
X1878548Y582011D01*
X1878212Y582092D01*
X1877889Y582190D01*
X1877579Y582307D01*
X1877282Y582442D01*
X1876999Y582593D01*
X1876733Y582761D01*
X1876484Y582945D01*
X1876251Y583145D01*
X1876034Y583361D01*
X1875834Y583593D01*
X1875650Y583840D01*
X1875483Y584104D01*
X1875334Y584383D01*
X1875205Y584674D01*
X1875095Y584978D01*
X1875006Y585295D01*
X1874936Y585625D01*
X1874887Y585968D01*
X1874857Y586324D01*
X1874847Y586693D01*
X1874847Y594405D01*
X1876514Y594405D01*
X1876514Y586789D01*
X1876528Y586366D01*
X1876572Y585969D01*
X1876644Y585598D01*
X1876745Y585253D01*
X1876876Y584934D01*
X1877035Y584642D01*
X1877223Y584375D01*
X1877440Y584135D01*
X1877683Y583922D01*
X1877949Y583738D01*
X1878238Y583582D01*
X1878551Y583454D01*
X1878886Y583355D01*
X1879245Y583284D01*
X1879627Y583241D01*
X1880032Y583227D01*
X1880426Y583241D01*
X1880796Y583282D01*
X1881142Y583350D01*
X1881465Y583446D01*
X1881763Y583570D01*
X1882038Y583721D01*
X1882288Y583899D01*
X1882515Y584104D01*
X1882717Y584337D01*
X1882891Y584594D01*
X1883039Y584877D01*
X1883160Y585186D01*
X1883254Y585520D01*
X1883321Y585879D01*
X1883362Y586265D01*
X1883375Y586675D01*
X1883375Y594405D01*
X1885051Y594405D01*
X1885051Y586535D01*
X1885041Y586177D01*
X1885012Y585832D01*
X1884963Y585499D01*
X1884895Y585179D01*
X1884808Y584872D01*
X1884700Y584577D01*
X1884574Y584295D01*
X1884428Y584025D01*
X1884264Y583770D01*
X1884085Y583530D01*
X1883889Y583306D01*
X1883678Y583098D01*
X1883450Y582905D01*
X1883207Y582727D01*
X1882948Y582566D01*
X1882673Y582420D01*
X1882384Y582290D01*
X1882083Y582178D01*
X1881770Y582083D01*
X1881445Y582005D01*
X1881108Y581945D01*
X1880758Y581902D01*
X1880397Y581876D01*
X1880023Y581867D01*
G37*
G36*
X1872100Y582043D02*
X1864352Y582043D01*
X1864352Y583385D01*
X1867362Y583385D01*
X1867362Y594405D01*
X1868818Y594405D01*
X1871740Y592396D01*
X1871740Y590904D01*
X1868950Y592896D01*
X1868950Y583385D01*
X1872100Y583385D01*
X1872100Y582043D01*
G37*
G36*
X1020695Y757780D02*
X1016079Y757780D01*
X1015639Y757792D01*
X1015212Y757828D01*
X1014798Y757887D01*
X1014397Y757970D01*
X1014010Y758078D01*
X1013635Y758209D01*
X1013274Y758363D01*
X1012926Y758542D01*
X1012594Y758743D01*
X1012282Y758965D01*
X1011989Y759208D01*
X1011715Y759471D01*
X1011461Y759756D01*
X1011226Y760062D01*
X1011011Y760388D01*
X1010815Y760736D01*
X1010641Y761101D01*
X1010489Y761482D01*
X1010362Y761877D01*
X1010257Y762287D01*
X1010175Y762712D01*
X1010117Y763153D01*
X1010082Y763608D01*
X1010071Y764077D01*
X1010077Y764435D01*
X1010097Y764781D01*
X1010131Y765118D01*
X1010177Y765444D01*
X1010237Y765760D01*
X1010310Y766065D01*
X1010397Y766360D01*
X1010497Y766645D01*
X1010610Y766919D01*
X1010736Y767183D01*
X1010876Y767436D01*
X1011029Y767680D01*
X1011195Y767912D01*
X1011375Y768135D01*
X1011568Y768347D01*
X1011774Y768549D01*
X1011993Y768739D01*
X1012223Y768917D01*
X1012463Y769083D01*
X1012716Y769236D01*
X1012979Y769378D01*
X1013253Y769507D01*
X1013539Y769623D01*
X1013836Y769728D01*
X1014144Y769820D01*
X1014463Y769900D01*
X1014793Y769967D01*
X1015135Y770023D01*
X1015488Y770066D01*
X1015852Y770096D01*
X1016227Y770115D01*
X1016613Y770121D01*
X1020695Y770121D01*
X1020695Y757780D01*
G37*
%LPC*%
G36*
X1019022Y759120D02*
X1019022Y768781D01*
X1016648Y768781D01*
X1016070Y768762D01*
X1015528Y768705D01*
X1015020Y768611D01*
X1014547Y768480D01*
X1014110Y768310D01*
X1013708Y768103D01*
X1013341Y767859D01*
X1013009Y767576D01*
X1012715Y767258D01*
X1012459Y766906D01*
X1012243Y766520D01*
X1012067Y766100D01*
X1011929Y765645D01*
X1011831Y765157D01*
X1011772Y764634D01*
X1011752Y764077D01*
X1011761Y763703D01*
X1011787Y763341D01*
X1011830Y762991D01*
X1011890Y762654D01*
X1011968Y762330D01*
X1012063Y762018D01*
X1012175Y761719D01*
X1012304Y761432D01*
X1012450Y761160D01*
X1012610Y760905D01*
X1012785Y760665D01*
X1012975Y760443D01*
X1013180Y760236D01*
X1013400Y760046D01*
X1013635Y759873D01*
X1013885Y759716D01*
X1014147Y759576D01*
X1014420Y759455D01*
X1014703Y759353D01*
X1014996Y759269D01*
X1015300Y759204D01*
X1015614Y759157D01*
X1015938Y759129D01*
X1016272Y759120D01*
X1019022Y759120D01*
G37*
%LPD*%
G36*
X1043289Y757780D02*
X1041616Y757780D01*
X1041616Y762588D01*
X1037990Y762588D01*
X1037512Y762605D01*
X1037060Y762653D01*
X1036633Y762734D01*
X1036232Y762847D01*
X1035857Y762992D01*
X1035507Y763170D01*
X1035183Y763380D01*
X1034885Y763622D01*
X1034617Y763892D01*
X1034385Y764184D01*
X1034188Y764498D01*
X1034028Y764835D01*
X1033903Y765194D01*
X1033813Y765576D01*
X1033760Y765980D01*
X1033742Y766407D01*
X1033760Y766837D01*
X1033813Y767242D01*
X1033902Y767622D01*
X1034026Y767977D01*
X1034187Y768307D01*
X1034382Y768613D01*
X1034614Y768893D01*
X1034880Y769149D01*
X1035180Y769376D01*
X1035508Y769574D01*
X1035866Y769741D01*
X1036253Y769878D01*
X1036670Y769984D01*
X1037115Y770060D01*
X1037590Y770106D01*
X1038095Y770121D01*
X1043289Y770121D01*
X1043289Y757780D01*
G37*
%LPC*%
G36*
X1041616Y763911D02*
X1041616Y768781D01*
X1038296Y768781D01*
X1037948Y768771D01*
X1037623Y768743D01*
X1037320Y768697D01*
X1037039Y768631D01*
X1036781Y768547D01*
X1036546Y768444D01*
X1036332Y768323D01*
X1036142Y768183D01*
X1035973Y768024D01*
X1035827Y767847D01*
X1035704Y767651D01*
X1035603Y767436D01*
X1035524Y767202D01*
X1035468Y766950D01*
X1035435Y766679D01*
X1035423Y766390D01*
X1035434Y766089D01*
X1035467Y765809D01*
X1035522Y765547D01*
X1035599Y765305D01*
X1035697Y765083D01*
X1035818Y764879D01*
X1035960Y764695D01*
X1036124Y764531D01*
X1036310Y764385D01*
X1036518Y764260D01*
X1036748Y764153D01*
X1037000Y764066D01*
X1037274Y763998D01*
X1037569Y763950D01*
X1037887Y763921D01*
X1038226Y763911D01*
X1041616Y763911D01*
G37*
%LPD*%
G36*
X1023914Y757780D02*
X1022206Y757780D01*
X1027163Y770121D01*
X1029064Y770121D01*
X1034100Y757780D01*
X1032366Y757780D01*
X1030947Y761389D01*
X1025324Y761389D01*
X1023914Y757780D01*
G37*
%LPC*%
G36*
X1030439Y762694D02*
X1028862Y766749D01*
X1028486Y767784D01*
X1028214Y768614D01*
X1028135Y768860D01*
X1027899Y768133D01*
X1027654Y767410D01*
X1027408Y766766D01*
X1025823Y762694D01*
X1030439Y762694D01*
G37*
%LPD*%
G36*
X994752Y757780D02*
X992738Y757780D01*
X992738Y770121D01*
X994244Y770121D01*
X994244Y762028D01*
X994218Y761021D01*
X994139Y759540D01*
X1000813Y770121D01*
X1002757Y770121D01*
X1002757Y757780D01*
X1001268Y757780D01*
X1001268Y765978D01*
X1001312Y767441D01*
X1001356Y768290D01*
X994752Y757780D01*
G37*
G36*
X989789Y757780D02*
X981880Y757780D01*
X981880Y759146D01*
X988116Y759146D01*
X988116Y770121D01*
X989789Y770121D01*
X989789Y757780D01*
G37*
G36*
X1007542Y757780D02*
X1005869Y757780D01*
X1005869Y770121D01*
X1007542Y770121D01*
X1007542Y757780D01*
G37*
G36*
X1160695Y757780D02*
X1156079Y757780D01*
X1155639Y757792D01*
X1155212Y757828D01*
X1154798Y757887D01*
X1154397Y757970D01*
X1154010Y758078D01*
X1153635Y758209D01*
X1153274Y758363D01*
X1152926Y758542D01*
X1152594Y758743D01*
X1152282Y758965D01*
X1151989Y759208D01*
X1151715Y759471D01*
X1151461Y759756D01*
X1151226Y760062D01*
X1151011Y760388D01*
X1150815Y760736D01*
X1150641Y761101D01*
X1150489Y761482D01*
X1150362Y761877D01*
X1150257Y762287D01*
X1150175Y762712D01*
X1150117Y763153D01*
X1150082Y763608D01*
X1150071Y764077D01*
X1150077Y764435D01*
X1150097Y764781D01*
X1150131Y765118D01*
X1150177Y765444D01*
X1150237Y765760D01*
X1150310Y766065D01*
X1150397Y766360D01*
X1150497Y766645D01*
X1150610Y766919D01*
X1150736Y767183D01*
X1150876Y767436D01*
X1151029Y767680D01*
X1151195Y767912D01*
X1151375Y768135D01*
X1151568Y768347D01*
X1151774Y768549D01*
X1151993Y768739D01*
X1152223Y768917D01*
X1152463Y769083D01*
X1152716Y769236D01*
X1152979Y769378D01*
X1153253Y769507D01*
X1153539Y769623D01*
X1153836Y769728D01*
X1154144Y769820D01*
X1154463Y769900D01*
X1154793Y769967D01*
X1155135Y770023D01*
X1155488Y770066D01*
X1155852Y770096D01*
X1156227Y770115D01*
X1156613Y770121D01*
X1160695Y770121D01*
X1160695Y757780D01*
G37*
%LPC*%
G36*
X1159022Y759120D02*
X1159022Y768781D01*
X1156648Y768781D01*
X1156070Y768762D01*
X1155528Y768705D01*
X1155020Y768611D01*
X1154547Y768480D01*
X1154110Y768310D01*
X1153708Y768103D01*
X1153341Y767859D01*
X1153009Y767576D01*
X1152715Y767258D01*
X1152459Y766906D01*
X1152243Y766520D01*
X1152067Y766100D01*
X1151929Y765645D01*
X1151831Y765157D01*
X1151772Y764634D01*
X1151752Y764077D01*
X1151761Y763703D01*
X1151787Y763341D01*
X1151830Y762991D01*
X1151890Y762654D01*
X1151968Y762330D01*
X1152063Y762018D01*
X1152175Y761719D01*
X1152304Y761432D01*
X1152450Y761160D01*
X1152610Y760905D01*
X1152785Y760665D01*
X1152975Y760443D01*
X1153180Y760236D01*
X1153400Y760046D01*
X1153635Y759873D01*
X1153885Y759716D01*
X1154147Y759576D01*
X1154420Y759455D01*
X1154703Y759353D01*
X1154996Y759269D01*
X1155300Y759204D01*
X1155614Y759157D01*
X1155938Y759129D01*
X1156272Y759120D01*
X1159022Y759120D01*
G37*
%LPD*%
G36*
X1121065Y757780D02*
X1119138Y757780D01*
X1121150Y760833D01*
X1122642Y763096D01*
X1122299Y763169D01*
X1121975Y763262D01*
X1121670Y763378D01*
X1121384Y763515D01*
X1121228Y763607D01*
X1121117Y763673D01*
X1120869Y763854D01*
X1120640Y764055D01*
X1120430Y764279D01*
X1120242Y764520D01*
X1120079Y764775D01*
X1119942Y765043D01*
X1119829Y765325D01*
X1119741Y765621D01*
X1119679Y765931D01*
X1119641Y766254D01*
X1119629Y766591D01*
X1119646Y766996D01*
X1119700Y767377D01*
X1119788Y767736D01*
X1119912Y768072D01*
X1120072Y768386D01*
X1120267Y768676D01*
X1120497Y768943D01*
X1120763Y769188D01*
X1121061Y769407D01*
X1121389Y769596D01*
X1121747Y769756D01*
X1122135Y769888D01*
X1122552Y769990D01*
X1122999Y770062D01*
X1123475Y770106D01*
X1123982Y770121D01*
X1129789Y770121D01*
X1129789Y757780D01*
X1128116Y757780D01*
X1128116Y762904D01*
X1124271Y762904D01*
X1121065Y757780D01*
G37*
%LPC*%
G36*
X1128116Y764226D02*
X1128116Y768781D01*
X1124148Y768781D01*
X1123814Y768772D01*
X1123501Y768745D01*
X1123207Y768701D01*
X1122934Y768640D01*
X1122681Y768560D01*
X1122448Y768463D01*
X1122235Y768348D01*
X1122042Y768216D01*
X1121870Y768067D01*
X1121722Y767901D01*
X1121596Y767720D01*
X1121493Y767523D01*
X1121413Y767310D01*
X1121356Y767080D01*
X1121322Y766835D01*
X1121310Y766574D01*
X1121322Y766303D01*
X1121355Y766048D01*
X1121412Y765809D01*
X1121491Y765585D01*
X1121593Y765376D01*
X1121717Y765183D01*
X1121864Y765006D01*
X1122033Y764844D01*
X1122223Y764699D01*
X1122432Y764574D01*
X1122659Y764467D01*
X1122905Y764381D01*
X1123170Y764313D01*
X1123454Y764265D01*
X1123757Y764236D01*
X1124078Y764226D01*
X1128116Y764226D01*
G37*
%LPD*%
G36*
X1183289Y757780D02*
X1181616Y757780D01*
X1181616Y762588D01*
X1177990Y762588D01*
X1177512Y762605D01*
X1177060Y762653D01*
X1176633Y762734D01*
X1176232Y762847D01*
X1175857Y762992D01*
X1175507Y763170D01*
X1175183Y763380D01*
X1174885Y763622D01*
X1174617Y763892D01*
X1174385Y764184D01*
X1174188Y764498D01*
X1174028Y764835D01*
X1173903Y765194D01*
X1173813Y765576D01*
X1173760Y765980D01*
X1173742Y766407D01*
X1173760Y766837D01*
X1173813Y767242D01*
X1173902Y767622D01*
X1174026Y767977D01*
X1174187Y768307D01*
X1174382Y768613D01*
X1174614Y768893D01*
X1174880Y769149D01*
X1175180Y769376D01*
X1175508Y769574D01*
X1175866Y769741D01*
X1176253Y769878D01*
X1176670Y769984D01*
X1177115Y770060D01*
X1177590Y770106D01*
X1178095Y770121D01*
X1183289Y770121D01*
X1183289Y757780D01*
G37*
%LPC*%
G36*
X1181616Y763911D02*
X1181616Y768781D01*
X1178296Y768781D01*
X1177948Y768771D01*
X1177623Y768743D01*
X1177320Y768697D01*
X1177039Y768631D01*
X1176781Y768547D01*
X1176546Y768444D01*
X1176332Y768323D01*
X1176142Y768183D01*
X1175973Y768024D01*
X1175827Y767847D01*
X1175704Y767651D01*
X1175603Y767436D01*
X1175524Y767202D01*
X1175468Y766950D01*
X1175435Y766679D01*
X1175423Y766390D01*
X1175434Y766089D01*
X1175467Y765809D01*
X1175522Y765547D01*
X1175599Y765305D01*
X1175697Y765083D01*
X1175818Y764879D01*
X1175960Y764695D01*
X1176124Y764531D01*
X1176310Y764385D01*
X1176518Y764260D01*
X1176748Y764153D01*
X1177000Y764066D01*
X1177274Y763998D01*
X1177569Y763950D01*
X1177887Y763921D01*
X1178226Y763911D01*
X1181616Y763911D01*
G37*
%LPD*%
G36*
X1163914Y757780D02*
X1162206Y757780D01*
X1167163Y770121D01*
X1169064Y770121D01*
X1174100Y757780D01*
X1172366Y757780D01*
X1170947Y761389D01*
X1165324Y761389D01*
X1163914Y757780D01*
G37*
%LPC*%
G36*
X1170439Y762694D02*
X1168862Y766749D01*
X1168486Y767784D01*
X1168214Y768614D01*
X1168135Y768860D01*
X1167899Y768133D01*
X1167654Y767410D01*
X1167408Y766766D01*
X1165823Y762694D01*
X1170439Y762694D01*
G37*
%LPD*%
G36*
X1134752Y757780D02*
X1132738Y757780D01*
X1132738Y770121D01*
X1134244Y770121D01*
X1134244Y762028D01*
X1134218Y761021D01*
X1134139Y759540D01*
X1140813Y770121D01*
X1142757Y770121D01*
X1142757Y757780D01*
X1141268Y757780D01*
X1141268Y765978D01*
X1141312Y767441D01*
X1141356Y768290D01*
X1134752Y757780D01*
G37*
G36*
X1147542Y757780D02*
X1145869Y757780D01*
X1145869Y770121D01*
X1147542Y770121D01*
X1147542Y757780D01*
G37*
G36*
X1470820Y757780D02*
X1466204Y757780D01*
X1465764Y757792D01*
X1465337Y757828D01*
X1464923Y757887D01*
X1464522Y757970D01*
X1464135Y758078D01*
X1463760Y758209D01*
X1463399Y758363D01*
X1463051Y758542D01*
X1462719Y758743D01*
X1462407Y758965D01*
X1462114Y759208D01*
X1461840Y759471D01*
X1461586Y759756D01*
X1461351Y760062D01*
X1461136Y760388D01*
X1460940Y760736D01*
X1460766Y761101D01*
X1460614Y761482D01*
X1460487Y761877D01*
X1460382Y762287D01*
X1460300Y762712D01*
X1460242Y763153D01*
X1460207Y763608D01*
X1460196Y764077D01*
X1460202Y764435D01*
X1460222Y764781D01*
X1460256Y765118D01*
X1460302Y765444D01*
X1460362Y765760D01*
X1460435Y766065D01*
X1460522Y766360D01*
X1460622Y766645D01*
X1460735Y766919D01*
X1460861Y767183D01*
X1461001Y767436D01*
X1461154Y767680D01*
X1461320Y767912D01*
X1461500Y768135D01*
X1461693Y768347D01*
X1461899Y768549D01*
X1462118Y768739D01*
X1462348Y768917D01*
X1462588Y769083D01*
X1462841Y769236D01*
X1463104Y769378D01*
X1463378Y769507D01*
X1463664Y769623D01*
X1463961Y769728D01*
X1464269Y769820D01*
X1464588Y769900D01*
X1464918Y769967D01*
X1465260Y770023D01*
X1465613Y770066D01*
X1465977Y770096D01*
X1466352Y770115D01*
X1466738Y770121D01*
X1470820Y770121D01*
X1470820Y757780D01*
G37*
%LPC*%
G36*
X1469147Y759120D02*
X1469147Y768781D01*
X1466773Y768781D01*
X1466195Y768762D01*
X1465653Y768705D01*
X1465145Y768611D01*
X1464672Y768480D01*
X1464235Y768310D01*
X1463833Y768103D01*
X1463466Y767859D01*
X1463134Y767576D01*
X1462840Y767258D01*
X1462584Y766906D01*
X1462368Y766520D01*
X1462192Y766100D01*
X1462054Y765645D01*
X1461956Y765157D01*
X1461897Y764634D01*
X1461877Y764077D01*
X1461886Y763703D01*
X1461912Y763341D01*
X1461955Y762991D01*
X1462015Y762654D01*
X1462093Y762330D01*
X1462188Y762018D01*
X1462300Y761719D01*
X1462429Y761432D01*
X1462575Y761160D01*
X1462735Y760905D01*
X1462910Y760665D01*
X1463100Y760443D01*
X1463305Y760236D01*
X1463525Y760046D01*
X1463760Y759873D01*
X1464010Y759716D01*
X1464272Y759576D01*
X1464545Y759455D01*
X1464828Y759353D01*
X1465121Y759269D01*
X1465425Y759204D01*
X1465739Y759157D01*
X1466063Y759129D01*
X1466397Y759120D01*
X1469147Y759120D01*
G37*
%LPD*%
G36*
X1510695Y757780D02*
X1506079Y757780D01*
X1505639Y757792D01*
X1505212Y757828D01*
X1504798Y757887D01*
X1504397Y757970D01*
X1504010Y758078D01*
X1503635Y758209D01*
X1503274Y758363D01*
X1502926Y758542D01*
X1502594Y758743D01*
X1502282Y758965D01*
X1501989Y759208D01*
X1501715Y759471D01*
X1501461Y759756D01*
X1501226Y760062D01*
X1501011Y760388D01*
X1500815Y760736D01*
X1500641Y761101D01*
X1500489Y761482D01*
X1500362Y761877D01*
X1500257Y762287D01*
X1500175Y762712D01*
X1500117Y763153D01*
X1500082Y763608D01*
X1500071Y764077D01*
X1500077Y764435D01*
X1500097Y764781D01*
X1500131Y765118D01*
X1500177Y765444D01*
X1500237Y765760D01*
X1500310Y766065D01*
X1500397Y766360D01*
X1500497Y766645D01*
X1500610Y766919D01*
X1500736Y767183D01*
X1500876Y767436D01*
X1501029Y767680D01*
X1501195Y767912D01*
X1501375Y768135D01*
X1501568Y768347D01*
X1501774Y768549D01*
X1501993Y768739D01*
X1502223Y768917D01*
X1502463Y769083D01*
X1502716Y769236D01*
X1502979Y769378D01*
X1503253Y769507D01*
X1503539Y769623D01*
X1503836Y769728D01*
X1504144Y769820D01*
X1504463Y769900D01*
X1504793Y769967D01*
X1505135Y770023D01*
X1505488Y770066D01*
X1505852Y770096D01*
X1506227Y770115D01*
X1506613Y770121D01*
X1510695Y770121D01*
X1510695Y757780D01*
G37*
%LPC*%
G36*
X1509022Y759120D02*
X1509022Y768781D01*
X1506648Y768781D01*
X1506070Y768762D01*
X1505528Y768705D01*
X1505020Y768611D01*
X1504547Y768480D01*
X1504110Y768310D01*
X1503708Y768103D01*
X1503341Y767859D01*
X1503009Y767576D01*
X1502715Y767258D01*
X1502459Y766906D01*
X1502243Y766520D01*
X1502067Y766100D01*
X1501929Y765645D01*
X1501831Y765157D01*
X1501772Y764634D01*
X1501752Y764077D01*
X1501761Y763703D01*
X1501787Y763341D01*
X1501830Y762991D01*
X1501890Y762654D01*
X1501968Y762330D01*
X1502063Y762018D01*
X1502175Y761719D01*
X1502304Y761432D01*
X1502450Y761160D01*
X1502610Y760905D01*
X1502785Y760665D01*
X1502975Y760443D01*
X1503180Y760236D01*
X1503400Y760046D01*
X1503635Y759873D01*
X1503885Y759716D01*
X1504147Y759576D01*
X1504420Y759455D01*
X1504703Y759353D01*
X1504996Y759269D01*
X1505300Y759204D01*
X1505614Y759157D01*
X1505938Y759129D01*
X1506272Y759120D01*
X1509022Y759120D01*
G37*
%LPD*%
G36*
X1475065Y757780D02*
X1473138Y757780D01*
X1475150Y760833D01*
X1476642Y763096D01*
X1476299Y763169D01*
X1475975Y763262D01*
X1475670Y763378D01*
X1475384Y763515D01*
X1475228Y763607D01*
X1475117Y763673D01*
X1474869Y763854D01*
X1474640Y764055D01*
X1474430Y764279D01*
X1474242Y764520D01*
X1474079Y764775D01*
X1473942Y765043D01*
X1473829Y765325D01*
X1473741Y765621D01*
X1473679Y765931D01*
X1473641Y766254D01*
X1473629Y766591D01*
X1473646Y766996D01*
X1473700Y767377D01*
X1473788Y767736D01*
X1473912Y768072D01*
X1474072Y768386D01*
X1474267Y768676D01*
X1474497Y768943D01*
X1474763Y769188D01*
X1475061Y769407D01*
X1475389Y769596D01*
X1475747Y769756D01*
X1476135Y769888D01*
X1476552Y769990D01*
X1476999Y770062D01*
X1477475Y770106D01*
X1477982Y770121D01*
X1483789Y770121D01*
X1483789Y757780D01*
X1482116Y757780D01*
X1482116Y762904D01*
X1478271Y762904D01*
X1475065Y757780D01*
G37*
%LPC*%
G36*
X1482116Y764226D02*
X1482116Y768781D01*
X1478148Y768781D01*
X1477814Y768772D01*
X1477501Y768745D01*
X1477207Y768701D01*
X1476934Y768640D01*
X1476681Y768560D01*
X1476448Y768463D01*
X1476235Y768348D01*
X1476042Y768216D01*
X1475870Y768067D01*
X1475722Y767901D01*
X1475596Y767720D01*
X1475493Y767523D01*
X1475413Y767310D01*
X1475356Y767080D01*
X1475322Y766835D01*
X1475310Y766574D01*
X1475322Y766303D01*
X1475355Y766048D01*
X1475412Y765809D01*
X1475491Y765585D01*
X1475593Y765376D01*
X1475717Y765183D01*
X1475864Y765006D01*
X1476033Y764844D01*
X1476223Y764699D01*
X1476432Y764574D01*
X1476659Y764467D01*
X1476905Y764381D01*
X1477170Y764313D01*
X1477454Y764265D01*
X1477757Y764236D01*
X1478078Y764226D01*
X1482116Y764226D01*
G37*
%LPD*%
G36*
X1533289Y757780D02*
X1531616Y757780D01*
X1531616Y762588D01*
X1527990Y762588D01*
X1527512Y762605D01*
X1527060Y762653D01*
X1526633Y762734D01*
X1526232Y762847D01*
X1525857Y762992D01*
X1525507Y763170D01*
X1525183Y763380D01*
X1524885Y763622D01*
X1524617Y763892D01*
X1524385Y764184D01*
X1524188Y764498D01*
X1524028Y764835D01*
X1523903Y765194D01*
X1523813Y765576D01*
X1523760Y765980D01*
X1523742Y766407D01*
X1523760Y766837D01*
X1523813Y767242D01*
X1523902Y767622D01*
X1524026Y767977D01*
X1524187Y768307D01*
X1524382Y768613D01*
X1524614Y768893D01*
X1524880Y769149D01*
X1525180Y769376D01*
X1525508Y769574D01*
X1525866Y769741D01*
X1526253Y769878D01*
X1526670Y769984D01*
X1527115Y770060D01*
X1527590Y770106D01*
X1528095Y770121D01*
X1533289Y770121D01*
X1533289Y757780D01*
G37*
%LPC*%
G36*
X1531616Y763911D02*
X1531616Y768781D01*
X1528296Y768781D01*
X1527948Y768771D01*
X1527623Y768743D01*
X1527320Y768697D01*
X1527039Y768631D01*
X1526781Y768547D01*
X1526546Y768444D01*
X1526332Y768323D01*
X1526142Y768183D01*
X1525973Y768024D01*
X1525827Y767847D01*
X1525704Y767651D01*
X1525603Y767436D01*
X1525524Y767202D01*
X1525468Y766950D01*
X1525435Y766679D01*
X1525423Y766390D01*
X1525434Y766089D01*
X1525467Y765809D01*
X1525522Y765547D01*
X1525599Y765305D01*
X1525697Y765083D01*
X1525818Y764879D01*
X1525960Y764695D01*
X1526124Y764531D01*
X1526310Y764385D01*
X1526518Y764260D01*
X1526748Y764153D01*
X1527000Y764066D01*
X1527274Y763998D01*
X1527569Y763950D01*
X1527887Y763921D01*
X1528226Y763911D01*
X1531616Y763911D01*
G37*
%LPD*%
G36*
X1513914Y757780D02*
X1512206Y757780D01*
X1517163Y770121D01*
X1519064Y770121D01*
X1524100Y757780D01*
X1522366Y757780D01*
X1520947Y761389D01*
X1515324Y761389D01*
X1513914Y757780D01*
G37*
%LPC*%
G36*
X1520439Y762694D02*
X1518862Y766749D01*
X1518486Y767784D01*
X1518214Y768614D01*
X1518135Y768860D01*
X1517899Y768133D01*
X1517654Y767410D01*
X1517408Y766766D01*
X1515823Y762694D01*
X1520439Y762694D01*
G37*
%LPD*%
G36*
X1492077Y757605D02*
X1491665Y757613D01*
X1491260Y757639D01*
X1490863Y757682D01*
X1490473Y757742D01*
X1490091Y757819D01*
X1489716Y757913D01*
X1489349Y758024D01*
X1488989Y758152D01*
X1488641Y758296D01*
X1488305Y758454D01*
X1487984Y758626D01*
X1487677Y758812D01*
X1487383Y759013D01*
X1487103Y759227D01*
X1486837Y759456D01*
X1486585Y759698D01*
X1486585Y763955D01*
X1491814Y763955D01*
X1491814Y762553D01*
X1488127Y762553D01*
X1488127Y760329D01*
X1488476Y760030D01*
X1488874Y759764D01*
X1489323Y759531D01*
X1489822Y759330D01*
X1490355Y759169D01*
X1490909Y759054D01*
X1491483Y758985D01*
X1492077Y758962D01*
X1492592Y758984D01*
X1493079Y759047D01*
X1493537Y759153D01*
X1493966Y759301D01*
X1494367Y759491D01*
X1494739Y759724D01*
X1495082Y759998D01*
X1495396Y760316D01*
X1495678Y760669D01*
X1495921Y761054D01*
X1496128Y761469D01*
X1496296Y761915D01*
X1496428Y762392D01*
X1496521Y762900D01*
X1496577Y763438D01*
X1496596Y764007D01*
X1496579Y764578D01*
X1496526Y765115D01*
X1496437Y765619D01*
X1496314Y766091D01*
X1496155Y766529D01*
X1495961Y766935D01*
X1495731Y767307D01*
X1495466Y767647D01*
X1495168Y767949D01*
X1494839Y768212D01*
X1494477Y768434D01*
X1494085Y768615D01*
X1493661Y768757D01*
X1493205Y768858D01*
X1492718Y768918D01*
X1492199Y768938D01*
X1491863Y768931D01*
X1491540Y768908D01*
X1491232Y768871D01*
X1490937Y768818D01*
X1490657Y768750D01*
X1490391Y768667D01*
X1490138Y768570D01*
X1489900Y768457D01*
X1489676Y768327D01*
X1489463Y768180D01*
X1489263Y768015D01*
X1489076Y767833D01*
X1488901Y767632D01*
X1488738Y767414D01*
X1488588Y767178D01*
X1488451Y766924D01*
X1486857Y767397D01*
X1487039Y767765D01*
X1487239Y768107D01*
X1487458Y768423D01*
X1487695Y768713D01*
X1487951Y768977D01*
X1488225Y769215D01*
X1488517Y769427D01*
X1488827Y769613D01*
X1489159Y769775D01*
X1489515Y769916D01*
X1489895Y770034D01*
X1490299Y770132D01*
X1490727Y770207D01*
X1491179Y770261D01*
X1491655Y770294D01*
X1492156Y770305D01*
X1492515Y770298D01*
X1492864Y770279D01*
X1493204Y770247D01*
X1493532Y770202D01*
X1493851Y770144D01*
X1494160Y770073D01*
X1494458Y769990D01*
X1494746Y769893D01*
X1495024Y769784D01*
X1495292Y769662D01*
X1495549Y769526D01*
X1495796Y769379D01*
X1496034Y769218D01*
X1496261Y769044D01*
X1496684Y768658D01*
X1497062Y768225D01*
X1497232Y767993D01*
X1497389Y767750D01*
X1497534Y767496D01*
X1497666Y767232D01*
X1497785Y766957D01*
X1497893Y766672D01*
X1497987Y766376D01*
X1498069Y766070D01*
X1498138Y765752D01*
X1498195Y765425D01*
X1498239Y765086D01*
X1498270Y764737D01*
X1498289Y764378D01*
X1498295Y764007D01*
X1498284Y763525D01*
X1498249Y763058D01*
X1498191Y762608D01*
X1498110Y762174D01*
X1498006Y761755D01*
X1497879Y761353D01*
X1497729Y760966D01*
X1497555Y760596D01*
X1497360Y760244D01*
X1497144Y759914D01*
X1496907Y759604D01*
X1496650Y759316D01*
X1496372Y759049D01*
X1496073Y758803D01*
X1495754Y758579D01*
X1495414Y758376D01*
X1495055Y758195D01*
X1494680Y758038D01*
X1494288Y757906D01*
X1493879Y757798D01*
X1493453Y757713D01*
X1493011Y757653D01*
X1492552Y757617D01*
X1492077Y757605D01*
G37*
G36*
X1592789Y757780D02*
X1588173Y757780D01*
X1587733Y757792D01*
X1587306Y757828D01*
X1586892Y757887D01*
X1586491Y757970D01*
X1586104Y758078D01*
X1585729Y758209D01*
X1585368Y758363D01*
X1585020Y758542D01*
X1584688Y758743D01*
X1584375Y758965D01*
X1584082Y759208D01*
X1583809Y759471D01*
X1583555Y759756D01*
X1583320Y760062D01*
X1583105Y760388D01*
X1582909Y760736D01*
X1582734Y761101D01*
X1582583Y761482D01*
X1582455Y761877D01*
X1582351Y762287D01*
X1582269Y762712D01*
X1582211Y763153D01*
X1582176Y763608D01*
X1582164Y764077D01*
X1582171Y764435D01*
X1582191Y764781D01*
X1582224Y765118D01*
X1582271Y765444D01*
X1582331Y765760D01*
X1582404Y766065D01*
X1582491Y766360D01*
X1582590Y766645D01*
X1582703Y766919D01*
X1582830Y767183D01*
X1582970Y767436D01*
X1583123Y767680D01*
X1583289Y767912D01*
X1583469Y768135D01*
X1583662Y768347D01*
X1583868Y768549D01*
X1584087Y768739D01*
X1584316Y768917D01*
X1584557Y769083D01*
X1584809Y769236D01*
X1585073Y769378D01*
X1585347Y769507D01*
X1585633Y769623D01*
X1585930Y769728D01*
X1586238Y769820D01*
X1586557Y769900D01*
X1586887Y769967D01*
X1587229Y770023D01*
X1587582Y770066D01*
X1587946Y770096D01*
X1588321Y770115D01*
X1588707Y770121D01*
X1592789Y770121D01*
X1592789Y757780D01*
G37*
%LPC*%
G36*
X1591116Y759120D02*
X1591116Y768781D01*
X1588742Y768781D01*
X1588164Y768762D01*
X1587621Y768705D01*
X1587114Y768611D01*
X1586641Y768480D01*
X1586204Y768310D01*
X1585802Y768103D01*
X1585435Y767859D01*
X1585103Y767576D01*
X1584808Y767258D01*
X1584553Y766906D01*
X1584337Y766520D01*
X1584160Y766100D01*
X1584023Y765645D01*
X1583925Y765157D01*
X1583866Y764634D01*
X1583846Y764077D01*
X1583855Y763703D01*
X1583881Y763341D01*
X1583924Y762991D01*
X1583984Y762654D01*
X1584062Y762330D01*
X1584157Y762018D01*
X1584269Y761719D01*
X1584398Y761432D01*
X1584543Y761160D01*
X1584704Y760905D01*
X1584879Y760665D01*
X1585069Y760443D01*
X1585274Y760236D01*
X1585494Y760046D01*
X1585729Y759873D01*
X1585979Y759716D01*
X1586241Y759576D01*
X1586514Y759455D01*
X1586797Y759353D01*
X1587090Y759269D01*
X1587394Y759204D01*
X1587707Y759157D01*
X1588031Y759129D01*
X1588366Y759120D01*
X1591116Y759120D01*
G37*
%LPD*%
G36*
X1605757Y757780D02*
X1601142Y757780D01*
X1600701Y757792D01*
X1600274Y757828D01*
X1599861Y757887D01*
X1599460Y757970D01*
X1599072Y758078D01*
X1598698Y758209D01*
X1598337Y758363D01*
X1597989Y758542D01*
X1597657Y758743D01*
X1597344Y758965D01*
X1597051Y759208D01*
X1596778Y759471D01*
X1596524Y759756D01*
X1596289Y760062D01*
X1596074Y760388D01*
X1595878Y760736D01*
X1595703Y761101D01*
X1595552Y761482D01*
X1595424Y761877D01*
X1595319Y762287D01*
X1595238Y762712D01*
X1595180Y763153D01*
X1595145Y763608D01*
X1595133Y764077D01*
X1595140Y764435D01*
X1595160Y764781D01*
X1595193Y765118D01*
X1595240Y765444D01*
X1595300Y765760D01*
X1595373Y766065D01*
X1595459Y766360D01*
X1595559Y766645D01*
X1595672Y766919D01*
X1595799Y767183D01*
X1595938Y767436D01*
X1596091Y767680D01*
X1596258Y767912D01*
X1596438Y768135D01*
X1596630Y768347D01*
X1596837Y768549D01*
X1597055Y768739D01*
X1597285Y768917D01*
X1597526Y769083D01*
X1597778Y769236D01*
X1598041Y769378D01*
X1598316Y769507D01*
X1598601Y769623D01*
X1598898Y769728D01*
X1599206Y769820D01*
X1599526Y769900D01*
X1599856Y769967D01*
X1600198Y770023D01*
X1600550Y770066D01*
X1600914Y770096D01*
X1601290Y770115D01*
X1601676Y770121D01*
X1605757Y770121D01*
X1605757Y757780D01*
G37*
%LPC*%
G36*
X1604084Y759120D02*
X1604084Y768781D01*
X1601711Y768781D01*
X1601133Y768762D01*
X1600590Y768705D01*
X1600082Y768611D01*
X1599610Y768480D01*
X1599173Y768310D01*
X1598770Y768103D01*
X1598404Y767859D01*
X1598072Y767576D01*
X1597777Y767258D01*
X1597522Y766906D01*
X1597306Y766520D01*
X1597129Y766100D01*
X1596992Y765645D01*
X1596893Y765157D01*
X1596835Y764634D01*
X1596815Y764077D01*
X1596823Y763703D01*
X1596849Y763341D01*
X1596892Y762991D01*
X1596953Y762654D01*
X1597030Y762330D01*
X1597125Y762018D01*
X1597237Y761719D01*
X1597367Y761432D01*
X1597512Y761160D01*
X1597672Y760905D01*
X1597848Y760665D01*
X1598038Y760443D01*
X1598243Y760236D01*
X1598463Y760046D01*
X1598698Y759873D01*
X1598948Y759716D01*
X1599210Y759576D01*
X1599483Y759455D01*
X1599766Y759353D01*
X1600059Y759269D01*
X1600362Y759204D01*
X1600676Y759157D01*
X1601000Y759129D01*
X1601334Y759120D01*
X1604084Y759120D01*
G37*
%LPD*%
G36*
X1630695Y757780D02*
X1626079Y757780D01*
X1625639Y757792D01*
X1625212Y757828D01*
X1624798Y757887D01*
X1624397Y757970D01*
X1624010Y758078D01*
X1623635Y758209D01*
X1623274Y758363D01*
X1622926Y758542D01*
X1622594Y758743D01*
X1622282Y758965D01*
X1621989Y759208D01*
X1621715Y759471D01*
X1621461Y759756D01*
X1621226Y760062D01*
X1621011Y760388D01*
X1620815Y760736D01*
X1620641Y761101D01*
X1620489Y761482D01*
X1620362Y761877D01*
X1620257Y762287D01*
X1620175Y762712D01*
X1620117Y763153D01*
X1620082Y763608D01*
X1620071Y764077D01*
X1620077Y764435D01*
X1620097Y764781D01*
X1620131Y765118D01*
X1620177Y765444D01*
X1620237Y765760D01*
X1620310Y766065D01*
X1620397Y766360D01*
X1620497Y766645D01*
X1620610Y766919D01*
X1620736Y767183D01*
X1620876Y767436D01*
X1621029Y767680D01*
X1621195Y767912D01*
X1621375Y768135D01*
X1621568Y768347D01*
X1621774Y768549D01*
X1621993Y768739D01*
X1622223Y768917D01*
X1622463Y769083D01*
X1622716Y769236D01*
X1622979Y769378D01*
X1623253Y769507D01*
X1623539Y769623D01*
X1623836Y769728D01*
X1624144Y769820D01*
X1624463Y769900D01*
X1624793Y769967D01*
X1625135Y770023D01*
X1625488Y770066D01*
X1625852Y770096D01*
X1626227Y770115D01*
X1626613Y770121D01*
X1630695Y770121D01*
X1630695Y757780D01*
G37*
%LPC*%
G36*
X1629022Y759120D02*
X1629022Y768781D01*
X1626648Y768781D01*
X1626070Y768762D01*
X1625528Y768705D01*
X1625020Y768611D01*
X1624547Y768480D01*
X1624110Y768310D01*
X1623708Y768103D01*
X1623341Y767859D01*
X1623009Y767576D01*
X1622715Y767258D01*
X1622459Y766906D01*
X1622243Y766520D01*
X1622067Y766100D01*
X1621929Y765645D01*
X1621831Y765157D01*
X1621772Y764634D01*
X1621752Y764077D01*
X1621761Y763703D01*
X1621787Y763341D01*
X1621830Y762991D01*
X1621890Y762654D01*
X1621968Y762330D01*
X1622063Y762018D01*
X1622175Y761719D01*
X1622304Y761432D01*
X1622450Y761160D01*
X1622610Y760905D01*
X1622785Y760665D01*
X1622975Y760443D01*
X1623180Y760236D01*
X1623400Y760046D01*
X1623635Y759873D01*
X1623885Y759716D01*
X1624147Y759576D01*
X1624420Y759455D01*
X1624703Y759353D01*
X1624996Y759269D01*
X1625300Y759204D01*
X1625614Y759157D01*
X1625938Y759129D01*
X1626272Y759120D01*
X1629022Y759120D01*
G37*
%LPD*%
G36*
X1653289Y757780D02*
X1651616Y757780D01*
X1651616Y762588D01*
X1647990Y762588D01*
X1647512Y762605D01*
X1647060Y762653D01*
X1646633Y762734D01*
X1646232Y762847D01*
X1645857Y762992D01*
X1645507Y763170D01*
X1645183Y763380D01*
X1644885Y763622D01*
X1644617Y763892D01*
X1644385Y764184D01*
X1644188Y764498D01*
X1644028Y764835D01*
X1643903Y765194D01*
X1643813Y765576D01*
X1643760Y765980D01*
X1643742Y766407D01*
X1643760Y766837D01*
X1643813Y767242D01*
X1643902Y767622D01*
X1644026Y767977D01*
X1644187Y768307D01*
X1644382Y768613D01*
X1644614Y768893D01*
X1644880Y769149D01*
X1645180Y769376D01*
X1645508Y769574D01*
X1645866Y769741D01*
X1646253Y769878D01*
X1646670Y769984D01*
X1647115Y770060D01*
X1647590Y770106D01*
X1648095Y770121D01*
X1653289Y770121D01*
X1653289Y757780D01*
G37*
%LPC*%
G36*
X1651616Y763911D02*
X1651616Y768781D01*
X1648296Y768781D01*
X1647948Y768771D01*
X1647623Y768743D01*
X1647320Y768697D01*
X1647039Y768631D01*
X1646781Y768547D01*
X1646546Y768444D01*
X1646332Y768323D01*
X1646142Y768183D01*
X1645973Y768024D01*
X1645827Y767847D01*
X1645704Y767651D01*
X1645603Y767436D01*
X1645524Y767202D01*
X1645468Y766950D01*
X1645435Y766679D01*
X1645423Y766390D01*
X1645434Y766089D01*
X1645467Y765809D01*
X1645522Y765547D01*
X1645599Y765305D01*
X1645697Y765083D01*
X1645818Y764879D01*
X1645960Y764695D01*
X1646124Y764531D01*
X1646310Y764385D01*
X1646518Y764260D01*
X1646748Y764153D01*
X1647000Y764066D01*
X1647274Y763998D01*
X1647569Y763950D01*
X1647887Y763921D01*
X1648226Y763911D01*
X1651616Y763911D01*
G37*
%LPD*%
G36*
X1633914Y757780D02*
X1632206Y757780D01*
X1637163Y770121D01*
X1639064Y770121D01*
X1644100Y757780D01*
X1642366Y757780D01*
X1640947Y761389D01*
X1635324Y761389D01*
X1633914Y757780D01*
G37*
%LPC*%
G36*
X1640439Y762694D02*
X1638862Y766749D01*
X1638486Y767784D01*
X1638214Y768614D01*
X1638135Y768860D01*
X1637899Y768133D01*
X1637654Y767410D01*
X1637408Y766766D01*
X1635823Y762694D01*
X1640439Y762694D01*
G37*
%LPD*%
G36*
X1614083Y757780D02*
X1612348Y757780D01*
X1607312Y770121D01*
X1609073Y770121D01*
X1612471Y761432D01*
X1613207Y759251D01*
X1613942Y761432D01*
X1617358Y770121D01*
X1619119Y770121D01*
X1614083Y757780D01*
G37*
D10*
X1166880Y536081D02*
X1166880Y537421D01*
X1166881Y537421D02*
X1166879Y537492D01*
X1166873Y537564D01*
X1166864Y537634D01*
X1166851Y537704D01*
X1166834Y537774D01*
X1166813Y537842D01*
X1166789Y537909D01*
X1166761Y537975D01*
X1166730Y538039D01*
X1166695Y538102D01*
X1166657Y538162D01*
X1166616Y538221D01*
X1166572Y538277D01*
X1166525Y538331D01*
X1166476Y538382D01*
X1166423Y538430D01*
X1166368Y538476D01*
X1166311Y538518D01*
X1166251Y538558D01*
X1166190Y538594D01*
X1166126Y538627D01*
X1166061Y538656D01*
X1165995Y538682D01*
X1165927Y538705D01*
X1165858Y538724D01*
X1165788Y538739D01*
X1165718Y538750D01*
X1165647Y538758D01*
X1165576Y538762D01*
X1165504Y538762D01*
X1165433Y538758D01*
X1165362Y538750D01*
X1165292Y538739D01*
X1165222Y538724D01*
X1165153Y538705D01*
X1165085Y538682D01*
X1165019Y538656D01*
X1164954Y538627D01*
X1164890Y538594D01*
X1164829Y538558D01*
X1164769Y538518D01*
X1164712Y538476D01*
X1164657Y538430D01*
X1164604Y538382D01*
X1164555Y538331D01*
X1164508Y538277D01*
X1164464Y538221D01*
X1164423Y538162D01*
X1164385Y538102D01*
X1164350Y538039D01*
X1164319Y537975D01*
X1164291Y537909D01*
X1164267Y537842D01*
X1164246Y537774D01*
X1164229Y537704D01*
X1164216Y537634D01*
X1164207Y537564D01*
X1164201Y537492D01*
X1164199Y537421D01*
X1164199Y536081D01*
X1169025Y536081D01*
X1169025Y537421D01*
X1169023Y537486D01*
X1169017Y537550D01*
X1169007Y537614D01*
X1168994Y537678D01*
X1168976Y537740D01*
X1168955Y537801D01*
X1168931Y537861D01*
X1168902Y537919D01*
X1168870Y537976D01*
X1168835Y538030D01*
X1168797Y538082D01*
X1168755Y538132D01*
X1168711Y538179D01*
X1168664Y538223D01*
X1168614Y538265D01*
X1168562Y538303D01*
X1168508Y538338D01*
X1168451Y538370D01*
X1168393Y538399D01*
X1168333Y538423D01*
X1168272Y538444D01*
X1168210Y538462D01*
X1168146Y538475D01*
X1168082Y538485D01*
X1168018Y538491D01*
X1167953Y538493D01*
X1167888Y538491D01*
X1167824Y538485D01*
X1167760Y538475D01*
X1167696Y538462D01*
X1167634Y538444D01*
X1167573Y538423D01*
X1167513Y538399D01*
X1167455Y538370D01*
X1167398Y538338D01*
X1167344Y538303D01*
X1167292Y538265D01*
X1167242Y538223D01*
X1167195Y538179D01*
X1167151Y538132D01*
X1167109Y538082D01*
X1167071Y538030D01*
X1167036Y537976D01*
X1167004Y537919D01*
X1166975Y537861D01*
X1166951Y537801D01*
X1166930Y537740D01*
X1166912Y537678D01*
X1166899Y537614D01*
X1166889Y537550D01*
X1166883Y537486D01*
X1166881Y537421D01*
X1167953Y541238D02*
X1169025Y542578D01*
X1164199Y542578D01*
X1164199Y541238D02*
X1164199Y543919D01*
D11*
X372490Y744590D02*
X299950Y731799D01*
X372490Y744590D02*
X380518Y699065D01*
X385722Y669548D02*
X313182Y656757D01*
X312388Y661260D01*
X307977Y686274D02*
X299950Y731799D01*
X384929Y674050D02*
X385722Y669548D01*
D10*
X321707Y573451D02*
X321642Y573449D01*
X321578Y573443D01*
X321514Y573433D01*
X321450Y573420D01*
X321388Y573402D01*
X321327Y573381D01*
X321267Y573357D01*
X321209Y573328D01*
X321152Y573296D01*
X321098Y573261D01*
X321046Y573223D01*
X320996Y573181D01*
X320949Y573137D01*
X320905Y573090D01*
X320863Y573040D01*
X320825Y572988D01*
X320790Y572934D01*
X320758Y572877D01*
X320729Y572819D01*
X320705Y572759D01*
X320684Y572698D01*
X320666Y572636D01*
X320653Y572572D01*
X320643Y572508D01*
X320637Y572444D01*
X320635Y572379D01*
X320637Y572285D01*
X320643Y572191D01*
X320653Y572097D01*
X320666Y572004D01*
X320684Y571912D01*
X320705Y571820D01*
X320730Y571729D01*
X320759Y571639D01*
X320792Y571551D01*
X320828Y571464D01*
X320868Y571379D01*
X320911Y571295D01*
X320958Y571214D01*
X321008Y571134D01*
X321061Y571056D01*
X321118Y570981D01*
X321177Y570908D01*
X321240Y570838D01*
X321305Y570770D01*
X324389Y570905D02*
X324454Y570907D01*
X324518Y570913D01*
X324582Y570923D01*
X324646Y570936D01*
X324708Y570954D01*
X324769Y570975D01*
X324829Y570999D01*
X324887Y571028D01*
X324944Y571060D01*
X324998Y571095D01*
X325050Y571133D01*
X325100Y571175D01*
X325147Y571219D01*
X325191Y571266D01*
X325233Y571316D01*
X325271Y571368D01*
X325306Y571422D01*
X325338Y571479D01*
X325367Y571537D01*
X325391Y571597D01*
X325412Y571658D01*
X325430Y571720D01*
X325443Y571784D01*
X325453Y571848D01*
X325459Y571912D01*
X325461Y571977D01*
X325459Y572063D01*
X325454Y572149D01*
X325444Y572235D01*
X325431Y572320D01*
X325415Y572405D01*
X325395Y572489D01*
X325371Y572572D01*
X325344Y572654D01*
X325313Y572734D01*
X325279Y572814D01*
X325241Y572891D01*
X325200Y572967D01*
X325156Y573041D01*
X325109Y573113D01*
X325059Y573184D01*
X323451Y571441D02*
X323484Y571388D01*
X323521Y571337D01*
X323560Y571288D01*
X323602Y571241D01*
X323647Y571197D01*
X323694Y571156D01*
X323743Y571117D01*
X323795Y571081D01*
X323849Y571048D01*
X323904Y571019D01*
X323961Y570993D01*
X324020Y570970D01*
X324079Y570950D01*
X324140Y570934D01*
X324201Y570921D01*
X324264Y570912D01*
X324326Y570907D01*
X324389Y570905D01*
X322645Y572915D02*
X322612Y572968D01*
X322575Y573019D01*
X322536Y573068D01*
X322494Y573115D01*
X322449Y573159D01*
X322402Y573200D01*
X322353Y573239D01*
X322301Y573275D01*
X322247Y573308D01*
X322192Y573337D01*
X322135Y573363D01*
X322076Y573386D01*
X322017Y573406D01*
X321956Y573422D01*
X321895Y573435D01*
X321832Y573444D01*
X321770Y573449D01*
X321707Y573451D01*
X322646Y572915D02*
X323450Y571441D01*
X325461Y576276D02*
X320635Y576276D01*
X320635Y578421D01*
X325461Y582303D02*
X325459Y582371D01*
X325453Y582438D01*
X325444Y582505D01*
X325431Y582572D01*
X325414Y582637D01*
X325393Y582702D01*
X325369Y582765D01*
X325341Y582827D01*
X325310Y582887D01*
X325276Y582945D01*
X325238Y583001D01*
X325198Y583056D01*
X325154Y583107D01*
X325107Y583156D01*
X325058Y583203D01*
X325007Y583247D01*
X324952Y583287D01*
X324896Y583325D01*
X324838Y583359D01*
X324778Y583390D01*
X324716Y583418D01*
X324653Y583442D01*
X324588Y583463D01*
X324523Y583480D01*
X324456Y583493D01*
X324389Y583502D01*
X324322Y583508D01*
X324254Y583510D01*
X325461Y582303D02*
X325459Y582225D01*
X325453Y582147D01*
X325443Y582070D01*
X325430Y581993D01*
X325412Y581917D01*
X325391Y581842D01*
X325366Y581768D01*
X325337Y581696D01*
X325305Y581625D01*
X325269Y581556D01*
X325230Y581488D01*
X325187Y581423D01*
X325141Y581360D01*
X325092Y581299D01*
X325040Y581241D01*
X324985Y581186D01*
X324928Y581133D01*
X324868Y581084D01*
X324805Y581037D01*
X324740Y580994D01*
X324674Y580954D01*
X324605Y580917D01*
X324534Y580884D01*
X324462Y580854D01*
X324389Y580828D01*
X323316Y583108D02*
X323365Y583157D01*
X323417Y583204D01*
X323472Y583247D01*
X323529Y583288D01*
X323588Y583326D01*
X323649Y583360D01*
X323712Y583391D01*
X323776Y583419D01*
X323842Y583443D01*
X323908Y583463D01*
X323976Y583480D01*
X324045Y583493D01*
X324114Y583502D01*
X324184Y583508D01*
X324254Y583510D01*
X323316Y583108D02*
X320635Y580829D01*
X320635Y583510D01*
X2530635Y601922D02*
X2530637Y601987D01*
X2530643Y602051D01*
X2530653Y602115D01*
X2530666Y602179D01*
X2530684Y602241D01*
X2530705Y602302D01*
X2530729Y602362D01*
X2530758Y602420D01*
X2530790Y602477D01*
X2530825Y602531D01*
X2530863Y602583D01*
X2530905Y602633D01*
X2530949Y602680D01*
X2530996Y602724D01*
X2531046Y602766D01*
X2531098Y602804D01*
X2531152Y602839D01*
X2531209Y602871D01*
X2531267Y602900D01*
X2531327Y602924D01*
X2531388Y602945D01*
X2531450Y602963D01*
X2531514Y602976D01*
X2531578Y602986D01*
X2531642Y602992D01*
X2531707Y602994D01*
X2530635Y601922D02*
X2530637Y601828D01*
X2530643Y601734D01*
X2530653Y601640D01*
X2530666Y601547D01*
X2530684Y601455D01*
X2530705Y601363D01*
X2530730Y601272D01*
X2530759Y601182D01*
X2530792Y601094D01*
X2530828Y601007D01*
X2530868Y600922D01*
X2530911Y600838D01*
X2530958Y600757D01*
X2531008Y600677D01*
X2531061Y600599D01*
X2531118Y600524D01*
X2531177Y600451D01*
X2531240Y600381D01*
X2531305Y600313D01*
X2534389Y600448D02*
X2534454Y600450D01*
X2534518Y600456D01*
X2534582Y600466D01*
X2534646Y600479D01*
X2534708Y600497D01*
X2534769Y600518D01*
X2534829Y600542D01*
X2534887Y600571D01*
X2534944Y600603D01*
X2534998Y600638D01*
X2535050Y600676D01*
X2535100Y600718D01*
X2535147Y600762D01*
X2535191Y600809D01*
X2535233Y600859D01*
X2535271Y600911D01*
X2535306Y600965D01*
X2535338Y601022D01*
X2535367Y601080D01*
X2535391Y601140D01*
X2535412Y601201D01*
X2535430Y601263D01*
X2535443Y601327D01*
X2535453Y601391D01*
X2535459Y601455D01*
X2535461Y601520D01*
X2535459Y601606D01*
X2535454Y601692D01*
X2535444Y601778D01*
X2535431Y601863D01*
X2535415Y601948D01*
X2535395Y602032D01*
X2535371Y602115D01*
X2535344Y602197D01*
X2535313Y602277D01*
X2535279Y602357D01*
X2535241Y602434D01*
X2535200Y602510D01*
X2535156Y602584D01*
X2535109Y602656D01*
X2535059Y602727D01*
X2533451Y600983D02*
X2533484Y600930D01*
X2533521Y600879D01*
X2533560Y600830D01*
X2533602Y600783D01*
X2533647Y600739D01*
X2533694Y600698D01*
X2533743Y600659D01*
X2533795Y600623D01*
X2533849Y600590D01*
X2533904Y600561D01*
X2533961Y600535D01*
X2534020Y600512D01*
X2534079Y600492D01*
X2534140Y600476D01*
X2534201Y600463D01*
X2534264Y600454D01*
X2534326Y600449D01*
X2534389Y600447D01*
X2532645Y602458D02*
X2532612Y602511D01*
X2532575Y602562D01*
X2532536Y602611D01*
X2532494Y602658D01*
X2532449Y602702D01*
X2532402Y602743D01*
X2532353Y602782D01*
X2532301Y602818D01*
X2532247Y602851D01*
X2532192Y602880D01*
X2532135Y602906D01*
X2532076Y602929D01*
X2532017Y602949D01*
X2531956Y602965D01*
X2531895Y602978D01*
X2531832Y602987D01*
X2531770Y602992D01*
X2531707Y602994D01*
X2532646Y602458D02*
X2533450Y600983D01*
X2535461Y605863D02*
X2530635Y605863D01*
X2535461Y605863D02*
X2535461Y607204D01*
X2535459Y607275D01*
X2535453Y607347D01*
X2535444Y607417D01*
X2535431Y607487D01*
X2535414Y607557D01*
X2535393Y607625D01*
X2535369Y607692D01*
X2535341Y607758D01*
X2535310Y607822D01*
X2535275Y607885D01*
X2535237Y607945D01*
X2535196Y608004D01*
X2535152Y608060D01*
X2535105Y608114D01*
X2535056Y608165D01*
X2535003Y608213D01*
X2534948Y608259D01*
X2534891Y608301D01*
X2534831Y608341D01*
X2534770Y608377D01*
X2534706Y608410D01*
X2534641Y608439D01*
X2534575Y608465D01*
X2534507Y608488D01*
X2534438Y608507D01*
X2534368Y608522D01*
X2534298Y608533D01*
X2534227Y608541D01*
X2534156Y608545D01*
X2534084Y608545D01*
X2534013Y608541D01*
X2533942Y608533D01*
X2533872Y608522D01*
X2533802Y608507D01*
X2533733Y608488D01*
X2533665Y608465D01*
X2533599Y608439D01*
X2533534Y608410D01*
X2533470Y608377D01*
X2533409Y608341D01*
X2533349Y608301D01*
X2533292Y608259D01*
X2533237Y608213D01*
X2533184Y608165D01*
X2533135Y608114D01*
X2533088Y608060D01*
X2533044Y608004D01*
X2533003Y607945D01*
X2532965Y607885D01*
X2532930Y607822D01*
X2532899Y607758D01*
X2532871Y607692D01*
X2532847Y607625D01*
X2532826Y607557D01*
X2532809Y607487D01*
X2532796Y607417D01*
X2532787Y607347D01*
X2532781Y607275D01*
X2532779Y607204D01*
X2532780Y607204D02*
X2532780Y605863D01*
X2532780Y607472D02*
X2530635Y608544D01*
X2535461Y612760D02*
X2535459Y612828D01*
X2535453Y612895D01*
X2535444Y612962D01*
X2535431Y613029D01*
X2535414Y613094D01*
X2535393Y613159D01*
X2535369Y613222D01*
X2535341Y613284D01*
X2535310Y613344D01*
X2535276Y613402D01*
X2535238Y613458D01*
X2535198Y613513D01*
X2535154Y613564D01*
X2535107Y613613D01*
X2535058Y613660D01*
X2535007Y613704D01*
X2534952Y613744D01*
X2534896Y613782D01*
X2534838Y613816D01*
X2534778Y613847D01*
X2534716Y613875D01*
X2534653Y613899D01*
X2534588Y613920D01*
X2534523Y613937D01*
X2534456Y613950D01*
X2534389Y613959D01*
X2534322Y613965D01*
X2534254Y613967D01*
X2535461Y612760D02*
X2535459Y612682D01*
X2535453Y612604D01*
X2535443Y612527D01*
X2535430Y612450D01*
X2535412Y612374D01*
X2535391Y612299D01*
X2535366Y612225D01*
X2535337Y612153D01*
X2535305Y612082D01*
X2535269Y612013D01*
X2535230Y611945D01*
X2535187Y611880D01*
X2535141Y611817D01*
X2535092Y611756D01*
X2535040Y611698D01*
X2534985Y611643D01*
X2534928Y611590D01*
X2534868Y611541D01*
X2534805Y611494D01*
X2534740Y611451D01*
X2534674Y611411D01*
X2534605Y611374D01*
X2534534Y611341D01*
X2534462Y611311D01*
X2534389Y611285D01*
X2533316Y613565D02*
X2533365Y613614D01*
X2533417Y613661D01*
X2533472Y613704D01*
X2533529Y613745D01*
X2533588Y613783D01*
X2533649Y613817D01*
X2533712Y613848D01*
X2533776Y613876D01*
X2533842Y613900D01*
X2533908Y613920D01*
X2533976Y613937D01*
X2534045Y613950D01*
X2534114Y613959D01*
X2534184Y613965D01*
X2534254Y613967D01*
X2533316Y613565D02*
X2530635Y611286D01*
X2530635Y613967D01*
X1869160Y579500D02*
X1869160Y480500D01*
X1837660Y480500D01*
X1837660Y579500D01*
X1869160Y579500D01*
D12*
X1891996Y575000D02*
X1891998Y575075D01*
X1892004Y575149D01*
X1892014Y575223D01*
X1892027Y575296D01*
X1892045Y575369D01*
X1892066Y575440D01*
X1892091Y575511D01*
X1892120Y575580D01*
X1892153Y575647D01*
X1892189Y575712D01*
X1892228Y575776D01*
X1892270Y575837D01*
X1892316Y575896D01*
X1892365Y575953D01*
X1892417Y576006D01*
X1892471Y576057D01*
X1892528Y576106D01*
X1892588Y576150D01*
X1892650Y576192D01*
X1892714Y576231D01*
X1892780Y576266D01*
X1892847Y576297D01*
X1892917Y576325D01*
X1892987Y576349D01*
X1893059Y576370D01*
X1893132Y576386D01*
X1893205Y576399D01*
X1893280Y576408D01*
X1893354Y576413D01*
X1893429Y576414D01*
X1893503Y576411D01*
X1893578Y576404D01*
X1893651Y576393D01*
X1893725Y576379D01*
X1893797Y576360D01*
X1893868Y576338D01*
X1893938Y576312D01*
X1894007Y576282D01*
X1894073Y576249D01*
X1894138Y576212D01*
X1894201Y576172D01*
X1894262Y576128D01*
X1894320Y576082D01*
X1894376Y576032D01*
X1894429Y575980D01*
X1894480Y575925D01*
X1894527Y575867D01*
X1894571Y575807D01*
X1894612Y575744D01*
X1894650Y575680D01*
X1894684Y575614D01*
X1894715Y575545D01*
X1894742Y575476D01*
X1894765Y575405D01*
X1894784Y575333D01*
X1894800Y575260D01*
X1894812Y575186D01*
X1894820Y575112D01*
X1894824Y575037D01*
X1894824Y574963D01*
X1894820Y574888D01*
X1894812Y574814D01*
X1894800Y574740D01*
X1894784Y574667D01*
X1894765Y574595D01*
X1894742Y574524D01*
X1894715Y574455D01*
X1894684Y574386D01*
X1894650Y574320D01*
X1894612Y574256D01*
X1894571Y574193D01*
X1894527Y574133D01*
X1894480Y574075D01*
X1894429Y574020D01*
X1894376Y573968D01*
X1894320Y573918D01*
X1894262Y573872D01*
X1894201Y573828D01*
X1894138Y573788D01*
X1894073Y573751D01*
X1894007Y573718D01*
X1893938Y573688D01*
X1893868Y573662D01*
X1893797Y573640D01*
X1893725Y573621D01*
X1893651Y573607D01*
X1893578Y573596D01*
X1893503Y573589D01*
X1893429Y573586D01*
X1893354Y573587D01*
X1893280Y573592D01*
X1893205Y573601D01*
X1893132Y573614D01*
X1893059Y573630D01*
X1892987Y573651D01*
X1892917Y573675D01*
X1892847Y573703D01*
X1892780Y573734D01*
X1892714Y573769D01*
X1892650Y573808D01*
X1892588Y573850D01*
X1892528Y573894D01*
X1892471Y573943D01*
X1892417Y573994D01*
X1892365Y574047D01*
X1892316Y574104D01*
X1892270Y574163D01*
X1892228Y574224D01*
X1892189Y574288D01*
X1892153Y574353D01*
X1892120Y574420D01*
X1892091Y574489D01*
X1892066Y574560D01*
X1892045Y574631D01*
X1892027Y574704D01*
X1892014Y574777D01*
X1892004Y574851D01*
X1891998Y574925D01*
X1891996Y575000D01*
D10*
X1790750Y490241D02*
X1769250Y490241D01*
X1769250Y469759D02*
X1790750Y469759D01*
X1751000Y490467D02*
X1729000Y490467D01*
X1729000Y469533D02*
X1751000Y469533D01*
X1919000Y540467D02*
X1941000Y540467D01*
X1941000Y519533D02*
X1919000Y519533D01*
X1919250Y590241D02*
X1940750Y590241D01*
X1940750Y569759D02*
X1919250Y569759D01*
X1791000Y540467D02*
X1769000Y540467D01*
X1769000Y519533D02*
X1791000Y519533D01*
X1969000Y540467D02*
X1991000Y540467D01*
X1991000Y519533D02*
X1969000Y519533D01*
X1969000Y590467D02*
X1991000Y590467D01*
X1991000Y569533D02*
X1969000Y569533D01*
X1751000Y540467D02*
X1729000Y540467D01*
X1729000Y519533D02*
X1751000Y519533D01*
X1751000Y590467D02*
X1729000Y590467D01*
X1729000Y569533D02*
X1751000Y569533D01*
X1769000Y590467D02*
X1791000Y590467D01*
X1791000Y569533D02*
X1769000Y569533D01*
M02*
