G04 EAGLE Gerber RS-274X export*
G75*
%MOMM*%
%FSLAX34Y34*%
%LPD*%
%INSilkscreen Top*%
%IPPOS*%
%AMOC8*
5,1,8,0,0,1.08239X$1,22.5*%
G01*
G04 Define Apertures*
%ADD10C,0.100000*%
%ADD11C,0.200000*%
%ADD12C,0.127000*%
%ADD13C,0.152400*%
G36*
X378494Y300475D02*
X378027Y300487D01*
X377577Y300523D01*
X377142Y300583D01*
X376724Y300668D01*
X376322Y300776D01*
X375937Y300908D01*
X375567Y301065D01*
X375214Y301246D01*
X374880Y301449D01*
X374565Y301674D01*
X374271Y301920D01*
X373998Y302188D01*
X373745Y302478D01*
X373512Y302788D01*
X373300Y303121D01*
X373108Y303475D01*
X372937Y303847D01*
X372790Y304234D01*
X372665Y304637D01*
X372563Y305054D01*
X372483Y305487D01*
X372426Y305936D01*
X372392Y306399D01*
X372381Y306877D01*
X372387Y307242D01*
X372406Y307597D01*
X372438Y307942D01*
X372482Y308277D01*
X372539Y308601D01*
X372609Y308916D01*
X372691Y309220D01*
X372786Y309515D01*
X372894Y309799D01*
X373014Y310073D01*
X373147Y310337D01*
X373292Y310591D01*
X373621Y311069D01*
X374001Y311506D01*
X374426Y311897D01*
X374653Y312073D01*
X374891Y312236D01*
X375138Y312386D01*
X375395Y312523D01*
X375662Y312647D01*
X375939Y312758D01*
X376226Y312855D01*
X376523Y312940D01*
X376829Y313012D01*
X377146Y313070D01*
X377473Y313116D01*
X377809Y313149D01*
X378155Y313168D01*
X378512Y313175D01*
X378975Y313163D01*
X379422Y313128D01*
X379854Y313069D01*
X380270Y312988D01*
X380671Y312882D01*
X381056Y312753D01*
X381425Y312601D01*
X381779Y312426D01*
X382115Y312228D01*
X382430Y312009D01*
X382725Y311769D01*
X382999Y311507D01*
X383254Y311225D01*
X383487Y310921D01*
X383701Y310596D01*
X383894Y310249D01*
X384065Y309884D01*
X384214Y309503D01*
X384340Y309106D01*
X384442Y308693D01*
X384522Y308263D01*
X384580Y307817D01*
X384614Y307355D01*
X384625Y306877D01*
X384614Y306401D01*
X384579Y305940D01*
X384521Y305493D01*
X384440Y305062D01*
X384336Y304646D01*
X384209Y304245D01*
X384059Y303859D01*
X383885Y303488D01*
X383690Y303135D01*
X383475Y302803D01*
X383240Y302492D01*
X382984Y302202D01*
X382709Y301934D01*
X382413Y301686D01*
X382097Y301460D01*
X381761Y301254D01*
X381407Y301072D01*
X381038Y300913D01*
X380653Y300779D01*
X380253Y300670D01*
X379836Y300584D01*
X379405Y300524D01*
X378957Y300487D01*
X378494Y300475D01*
G37*
%LPC*%
G36*
X378494Y301832D02*
X379013Y301853D01*
X379501Y301915D01*
X379957Y302018D01*
X380383Y302162D01*
X380777Y302347D01*
X381141Y302574D01*
X381473Y302842D01*
X381774Y303151D01*
X382042Y303497D01*
X382274Y303878D01*
X382471Y304293D01*
X382632Y304741D01*
X382757Y305224D01*
X382846Y305741D01*
X382899Y306292D01*
X382917Y306877D01*
X382899Y307438D01*
X382845Y307967D01*
X382755Y308466D01*
X382629Y308933D01*
X382467Y309370D01*
X382269Y309776D01*
X382036Y310151D01*
X381766Y310495D01*
X381463Y310803D01*
X381130Y311069D01*
X380768Y311295D01*
X380376Y311480D01*
X379955Y311624D01*
X379503Y311726D01*
X379022Y311788D01*
X378512Y311808D01*
X377997Y311788D01*
X377512Y311727D01*
X377058Y311626D01*
X376633Y311484D01*
X376239Y311302D01*
X375874Y311079D01*
X375540Y310816D01*
X375236Y310512D01*
X374965Y310172D01*
X374730Y309799D01*
X374532Y309393D01*
X374369Y308955D01*
X374243Y308485D01*
X374152Y307981D01*
X374098Y307446D01*
X374080Y306877D01*
X374098Y306312D01*
X374153Y305777D01*
X374244Y305271D01*
X374372Y304796D01*
X374537Y304351D01*
X374738Y303935D01*
X374975Y303550D01*
X375249Y303194D01*
X375556Y302875D01*
X375891Y302599D01*
X376254Y302364D01*
X376645Y302173D01*
X377065Y302024D01*
X377513Y301918D01*
X377990Y301854D01*
X378494Y301832D01*
G37*
%LPD*%
G36*
X339850Y300650D02*
X330128Y300650D01*
X330128Y312991D01*
X339491Y312991D01*
X339491Y311624D01*
X331801Y311624D01*
X331801Y307666D01*
X338965Y307666D01*
X338965Y306317D01*
X331801Y306317D01*
X331801Y302016D01*
X339850Y302016D01*
X339850Y300650D01*
G37*
G36*
X403481Y300475D02*
X402932Y300487D01*
X402412Y300524D01*
X401923Y300585D01*
X401463Y300671D01*
X401032Y300781D01*
X400631Y300916D01*
X400260Y301075D01*
X399918Y301259D01*
X399606Y301467D01*
X399324Y301700D01*
X399071Y301957D01*
X398848Y302239D01*
X398655Y302545D01*
X398491Y302875D01*
X398357Y303231D01*
X398252Y303610D01*
X399872Y303934D01*
X399952Y303666D01*
X400052Y303415D01*
X400171Y303183D01*
X400310Y302970D01*
X400469Y302775D01*
X400648Y302599D01*
X400846Y302441D01*
X401064Y302301D01*
X401302Y302179D01*
X401560Y302073D01*
X401839Y301983D01*
X402139Y301910D01*
X402459Y301853D01*
X402799Y301812D01*
X403161Y301788D01*
X403542Y301780D01*
X403936Y301789D01*
X404306Y301815D01*
X404653Y301858D01*
X404978Y301919D01*
X405279Y301997D01*
X405556Y302093D01*
X405811Y302206D01*
X406043Y302336D01*
X406249Y302483D01*
X406428Y302647D01*
X406579Y302826D01*
X406703Y303022D01*
X406799Y303235D01*
X406868Y303463D01*
X406909Y303708D01*
X406923Y303969D01*
X406906Y304257D01*
X406854Y304517D01*
X406768Y304748D01*
X406647Y304950D01*
X406495Y305131D01*
X406315Y305294D01*
X406108Y305441D01*
X405872Y305572D01*
X405610Y305690D01*
X405325Y305798D01*
X405015Y305896D01*
X404681Y305984D01*
X403148Y306343D01*
X402461Y306505D01*
X401862Y306667D01*
X401351Y306829D01*
X400928Y306991D01*
X400569Y307158D01*
X400250Y307334D01*
X399971Y307519D01*
X399732Y307714D01*
X399526Y307922D01*
X399346Y308146D01*
X399191Y308388D01*
X399062Y308647D01*
X398961Y308924D01*
X398888Y309220D01*
X398845Y309537D01*
X398830Y309873D01*
X398849Y310258D01*
X398906Y310620D01*
X399001Y310959D01*
X399133Y311276D01*
X399304Y311570D01*
X399512Y311842D01*
X399759Y312090D01*
X400043Y312316D01*
X400363Y312518D01*
X400715Y312692D01*
X401100Y312839D01*
X401518Y312960D01*
X401968Y313054D01*
X402451Y313121D01*
X402967Y313161D01*
X403516Y313175D01*
X404026Y313165D01*
X404505Y313134D01*
X404953Y313084D01*
X405371Y313014D01*
X405757Y312923D01*
X406112Y312813D01*
X406437Y312682D01*
X406730Y312531D01*
X406998Y312356D01*
X407245Y312152D01*
X407471Y311921D01*
X407676Y311661D01*
X407861Y311372D01*
X408024Y311055D01*
X408167Y310710D01*
X408289Y310337D01*
X406643Y310048D01*
X406567Y310285D01*
X406476Y310505D01*
X406370Y310708D01*
X406249Y310894D01*
X406112Y311064D01*
X405960Y311216D01*
X405792Y311352D01*
X405609Y311471D01*
X405410Y311575D01*
X405192Y311665D01*
X404955Y311741D01*
X404701Y311803D01*
X404428Y311851D01*
X404136Y311886D01*
X403826Y311907D01*
X403498Y311913D01*
X403139Y311906D01*
X402802Y311883D01*
X402487Y311845D01*
X402193Y311791D01*
X401922Y311722D01*
X401672Y311638D01*
X401445Y311538D01*
X401239Y311423D01*
X401056Y311293D01*
X400898Y311148D01*
X400764Y310987D01*
X400654Y310812D01*
X400569Y310622D01*
X400508Y310416D01*
X400471Y310196D01*
X400459Y309960D01*
X400478Y309688D01*
X400535Y309440D01*
X400629Y309217D01*
X400761Y309019D01*
X400929Y308840D01*
X401130Y308675D01*
X401365Y308524D01*
X401633Y308388D01*
X401988Y308252D01*
X402485Y308100D01*
X403122Y307934D01*
X403901Y307753D01*
X405036Y307486D01*
X405588Y307337D01*
X406117Y307162D01*
X406618Y306957D01*
X407085Y306720D01*
X407303Y306586D01*
X407507Y306437D01*
X407695Y306275D01*
X407869Y306098D01*
X408026Y305906D01*
X408166Y305697D01*
X408287Y305472D01*
X408390Y305231D01*
X408472Y304970D01*
X408531Y304688D01*
X408567Y304383D01*
X408578Y304057D01*
X408557Y303642D01*
X408495Y303251D01*
X408391Y302885D01*
X408244Y302542D01*
X408057Y302223D01*
X407827Y301929D01*
X407556Y301658D01*
X407243Y301412D01*
X406892Y301192D01*
X406507Y301002D01*
X406088Y300841D01*
X405634Y300709D01*
X405147Y300607D01*
X404626Y300533D01*
X404070Y300490D01*
X403481Y300475D01*
G37*
G36*
X441457Y300650D02*
X439784Y300650D01*
X439784Y312991D01*
X441457Y312991D01*
X441457Y306807D01*
X447404Y312991D01*
X449375Y312991D01*
X444119Y307631D01*
X450075Y300650D01*
X447999Y300650D01*
X443068Y306606D01*
X441457Y305380D01*
X441457Y300650D01*
G37*
G36*
X432272Y300475D02*
X431813Y300487D01*
X431370Y300523D01*
X430943Y300584D01*
X430532Y300669D01*
X430137Y300778D01*
X429757Y300911D01*
X429393Y301068D01*
X429044Y301250D01*
X428714Y301454D01*
X428404Y301679D01*
X428114Y301925D01*
X427844Y302192D01*
X427595Y302479D01*
X427366Y302787D01*
X427157Y303116D01*
X426968Y303466D01*
X426801Y303834D01*
X426656Y304219D01*
X426533Y304621D01*
X426433Y305039D01*
X426355Y305474D01*
X426299Y305925D01*
X426266Y306393D01*
X426255Y306877D01*
X426261Y307241D01*
X426280Y307595D01*
X426311Y307939D01*
X426354Y308273D01*
X426410Y308597D01*
X426479Y308911D01*
X426560Y309215D01*
X426653Y309509D01*
X426759Y309793D01*
X426877Y310067D01*
X427151Y310585D01*
X427475Y311064D01*
X427849Y311502D01*
X428266Y311894D01*
X428722Y312234D01*
X428965Y312384D01*
X429217Y312521D01*
X429478Y312645D01*
X429749Y312756D01*
X430030Y312855D01*
X430320Y312939D01*
X430620Y313011D01*
X430930Y313070D01*
X431249Y313116D01*
X431577Y313149D01*
X431915Y313168D01*
X432263Y313175D01*
X432746Y313163D01*
X433208Y313127D01*
X433650Y313066D01*
X434072Y312982D01*
X434473Y312874D01*
X434854Y312741D01*
X435215Y312585D01*
X435556Y312404D01*
X435876Y312200D01*
X436174Y311972D01*
X436450Y311721D01*
X436704Y311447D01*
X436936Y311150D01*
X437146Y310829D01*
X437334Y310485D01*
X437501Y310118D01*
X435915Y309592D01*
X435800Y309854D01*
X435668Y310099D01*
X435520Y310329D01*
X435356Y310543D01*
X435175Y310741D01*
X434978Y310923D01*
X434765Y311089D01*
X434536Y311239D01*
X434293Y311373D01*
X434039Y311488D01*
X433773Y311586D01*
X433497Y311666D01*
X433209Y311728D01*
X432911Y311773D01*
X432601Y311799D01*
X432281Y311808D01*
X431782Y311788D01*
X431313Y311726D01*
X430871Y311623D01*
X430459Y311479D01*
X430074Y311293D01*
X429719Y311067D01*
X429391Y310799D01*
X429092Y310490D01*
X428826Y310145D01*
X428594Y309770D01*
X428399Y309364D01*
X428238Y308928D01*
X428114Y308461D01*
X428025Y307964D01*
X427972Y307436D01*
X427954Y306877D01*
X427972Y306324D01*
X428028Y305799D01*
X428121Y305301D01*
X428250Y304831D01*
X428417Y304389D01*
X428621Y303975D01*
X428862Y303588D01*
X429141Y303229D01*
X429450Y302906D01*
X429786Y302626D01*
X430148Y302389D01*
X430536Y302195D01*
X430951Y302044D01*
X431391Y301936D01*
X431858Y301871D01*
X432351Y301850D01*
X432670Y301860D01*
X432979Y301890D01*
X433278Y301940D01*
X433566Y302010D01*
X433845Y302101D01*
X434114Y302211D01*
X434373Y302341D01*
X434621Y302491D01*
X434860Y302662D01*
X435088Y302852D01*
X435307Y303063D01*
X435515Y303293D01*
X435713Y303544D01*
X435902Y303815D01*
X436080Y304105D01*
X436248Y304416D01*
X437614Y303733D01*
X437414Y303346D01*
X437195Y302984D01*
X436956Y302645D01*
X436698Y302329D01*
X436421Y302038D01*
X436124Y301771D01*
X435808Y301527D01*
X435473Y301307D01*
X435121Y301112D01*
X434756Y300943D01*
X434376Y300800D01*
X433983Y300683D01*
X433576Y300592D01*
X433155Y300527D01*
X432720Y300488D01*
X432272Y300475D01*
G37*
G36*
X343769Y300650D02*
X342096Y300650D01*
X342096Y312991D01*
X350864Y312991D01*
X350864Y311624D01*
X343769Y311624D01*
X343769Y307035D01*
X350654Y307035D01*
X350654Y305651D01*
X343769Y305651D01*
X343769Y300650D01*
G37*
G36*
X392274Y300650D02*
X390610Y300650D01*
X390610Y305765D01*
X385863Y312991D01*
X387702Y312991D01*
X391460Y307114D01*
X395199Y312991D01*
X397039Y312991D01*
X392274Y305765D01*
X392274Y300650D01*
G37*
G36*
X357900Y300650D02*
X356236Y300650D01*
X356236Y311624D01*
X351997Y311624D01*
X351997Y312991D01*
X362139Y312991D01*
X362139Y311624D01*
X357900Y311624D01*
X357900Y300650D01*
G37*
G36*
X415712Y300650D02*
X414048Y300650D01*
X414048Y311624D01*
X409809Y311624D01*
X409809Y312991D01*
X419952Y312991D01*
X419952Y311624D01*
X415712Y311624D01*
X415712Y300650D01*
G37*
G36*
X313721Y300475D02*
X313339Y300488D01*
X312977Y300525D01*
X312635Y300589D01*
X312313Y300677D01*
X312011Y300791D01*
X311728Y300931D01*
X311466Y301095D01*
X311223Y301285D01*
X311000Y301500D01*
X310798Y301741D01*
X310615Y302007D01*
X310452Y302298D01*
X310309Y302614D01*
X310186Y302956D01*
X310082Y303323D01*
X309999Y303715D01*
X311637Y303987D01*
X311682Y303740D01*
X311740Y303507D01*
X311811Y303288D01*
X311893Y303083D01*
X311988Y302892D01*
X312095Y302714D01*
X312215Y302551D01*
X312346Y302402D01*
X312489Y302268D01*
X312640Y302153D01*
X312800Y302055D01*
X312968Y301975D01*
X313146Y301912D01*
X313332Y301868D01*
X313527Y301841D01*
X313730Y301832D01*
X313952Y301842D01*
X314162Y301872D01*
X314359Y301920D01*
X314545Y301989D01*
X314718Y302077D01*
X314880Y302185D01*
X315029Y302312D01*
X315167Y302459D01*
X315290Y302624D01*
X315396Y302808D01*
X315487Y303010D01*
X315561Y303230D01*
X315618Y303469D01*
X315659Y303726D01*
X315684Y304000D01*
X315692Y304294D01*
X315692Y311624D01*
X313319Y311624D01*
X313319Y312991D01*
X317356Y312991D01*
X317356Y304329D01*
X317341Y303892D01*
X317295Y303479D01*
X317219Y303090D01*
X317113Y302725D01*
X316976Y302384D01*
X316809Y302066D01*
X316612Y301773D01*
X316384Y301504D01*
X316130Y301263D01*
X315853Y301054D01*
X315554Y300877D01*
X315232Y300732D01*
X314888Y300620D01*
X314522Y300539D01*
X314133Y300491D01*
X313721Y300475D01*
G37*
G36*
X366565Y300475D02*
X366183Y300488D01*
X365821Y300525D01*
X365479Y300589D01*
X365157Y300677D01*
X364854Y300791D01*
X364572Y300931D01*
X364309Y301095D01*
X364067Y301285D01*
X363844Y301500D01*
X363641Y301741D01*
X363458Y302007D01*
X363295Y302298D01*
X363152Y302614D01*
X363029Y302956D01*
X362926Y303323D01*
X362843Y303715D01*
X364481Y303987D01*
X364526Y303740D01*
X364584Y303507D01*
X364654Y303288D01*
X364737Y303083D01*
X364832Y302892D01*
X364939Y302714D01*
X365058Y302551D01*
X365190Y302402D01*
X365332Y302268D01*
X365483Y302153D01*
X365643Y302055D01*
X365812Y301975D01*
X365989Y301912D01*
X366175Y301868D01*
X366370Y301841D01*
X366574Y301832D01*
X366796Y301842D01*
X367005Y301872D01*
X367203Y301920D01*
X367388Y301989D01*
X367562Y302077D01*
X367723Y302185D01*
X367873Y302312D01*
X368010Y302459D01*
X368133Y302624D01*
X368240Y302808D01*
X368331Y303010D01*
X368404Y303230D01*
X368462Y303469D01*
X368503Y303726D01*
X368528Y304000D01*
X368536Y304294D01*
X368536Y311624D01*
X366162Y311624D01*
X366162Y312991D01*
X370200Y312991D01*
X370200Y304329D01*
X370185Y303892D01*
X370139Y303479D01*
X370063Y303090D01*
X369957Y302725D01*
X369820Y302384D01*
X369653Y302066D01*
X369456Y301773D01*
X369228Y301504D01*
X368973Y301263D01*
X368697Y301054D01*
X368398Y300877D01*
X368076Y300732D01*
X367732Y300620D01*
X367365Y300539D01*
X366977Y300491D01*
X366565Y300475D01*
G37*
G36*
X328068Y300650D02*
X320159Y300650D01*
X320159Y312991D01*
X321832Y312991D01*
X321832Y302016D01*
X328068Y302016D01*
X328068Y300650D01*
G37*
G36*
X423703Y300650D02*
X422030Y300650D01*
X422030Y312991D01*
X423703Y312991D01*
X423703Y300650D01*
G37*
G36*
X2514463Y310475D02*
X2513996Y310487D01*
X2513545Y310523D01*
X2513111Y310583D01*
X2512693Y310668D01*
X2512291Y310776D01*
X2511905Y310908D01*
X2511536Y311065D01*
X2511183Y311246D01*
X2510848Y311449D01*
X2510534Y311674D01*
X2510240Y311920D01*
X2509967Y312188D01*
X2509714Y312478D01*
X2509481Y312788D01*
X2509268Y313121D01*
X2509077Y313475D01*
X2508906Y313847D01*
X2508758Y314234D01*
X2508634Y314637D01*
X2508531Y315054D01*
X2508452Y315487D01*
X2508395Y315936D01*
X2508361Y316399D01*
X2508350Y316877D01*
X2508356Y317242D01*
X2508375Y317597D01*
X2508407Y317942D01*
X2508451Y318277D01*
X2508508Y318601D01*
X2508577Y318916D01*
X2508660Y319220D01*
X2508755Y319515D01*
X2508862Y319799D01*
X2508983Y320073D01*
X2509115Y320337D01*
X2509261Y320591D01*
X2509590Y321069D01*
X2509970Y321506D01*
X2510395Y321897D01*
X2510622Y322073D01*
X2510859Y322236D01*
X2511107Y322386D01*
X2511364Y322523D01*
X2511631Y322647D01*
X2511908Y322758D01*
X2512195Y322855D01*
X2512491Y322940D01*
X2512798Y323012D01*
X2513115Y323070D01*
X2513441Y323116D01*
X2513778Y323149D01*
X2514124Y323168D01*
X2514481Y323175D01*
X2514944Y323163D01*
X2515391Y323128D01*
X2515823Y323069D01*
X2516239Y322988D01*
X2516639Y322882D01*
X2517024Y322753D01*
X2517394Y322601D01*
X2517747Y322426D01*
X2518083Y322228D01*
X2518399Y322009D01*
X2518694Y321769D01*
X2518968Y321507D01*
X2519222Y321225D01*
X2519456Y320921D01*
X2519670Y320596D01*
X2519863Y320249D01*
X2520034Y319884D01*
X2520183Y319503D01*
X2520308Y319106D01*
X2520411Y318693D01*
X2520491Y318263D01*
X2520548Y317817D01*
X2520583Y317355D01*
X2520594Y316877D01*
X2520582Y316401D01*
X2520548Y315940D01*
X2520490Y315493D01*
X2520409Y315062D01*
X2520305Y314646D01*
X2520178Y314245D01*
X2520027Y313859D01*
X2519854Y313488D01*
X2519659Y313135D01*
X2519444Y312803D01*
X2519208Y312492D01*
X2518953Y312202D01*
X2518677Y311934D01*
X2518382Y311686D01*
X2518066Y311460D01*
X2517730Y311254D01*
X2517376Y311072D01*
X2517007Y310913D01*
X2516622Y310779D01*
X2516221Y310670D01*
X2515805Y310584D01*
X2515373Y310524D01*
X2514926Y310487D01*
X2514463Y310475D01*
G37*
%LPC*%
G36*
X2514463Y311832D02*
X2514982Y311853D01*
X2515469Y311915D01*
X2515926Y312018D01*
X2516352Y312162D01*
X2516746Y312347D01*
X2517109Y312574D01*
X2517442Y312842D01*
X2517743Y313151D01*
X2518011Y313497D01*
X2518243Y313878D01*
X2518440Y314293D01*
X2518600Y314741D01*
X2518725Y315224D01*
X2518815Y315741D01*
X2518868Y316292D01*
X2518886Y316877D01*
X2518868Y317438D01*
X2518814Y317967D01*
X2518724Y318466D01*
X2518598Y318933D01*
X2518436Y319370D01*
X2518238Y319776D01*
X2518004Y320151D01*
X2517734Y320495D01*
X2517432Y320803D01*
X2517099Y321069D01*
X2516737Y321295D01*
X2516345Y321480D01*
X2515923Y321624D01*
X2515472Y321726D01*
X2514991Y321788D01*
X2514481Y321808D01*
X2513966Y321788D01*
X2513481Y321727D01*
X2513026Y321626D01*
X2512602Y321484D01*
X2512207Y321302D01*
X2511843Y321079D01*
X2511509Y320816D01*
X2511205Y320512D01*
X2510934Y320172D01*
X2510699Y319799D01*
X2510500Y319393D01*
X2510338Y318955D01*
X2510211Y318485D01*
X2510121Y317981D01*
X2510067Y317446D01*
X2510049Y316877D01*
X2510067Y316312D01*
X2510122Y315777D01*
X2510213Y315271D01*
X2510341Y314796D01*
X2510505Y314351D01*
X2510706Y313935D01*
X2510944Y313550D01*
X2511218Y313194D01*
X2511524Y312875D01*
X2511859Y312599D01*
X2512222Y312364D01*
X2512614Y312173D01*
X2513034Y312024D01*
X2513482Y311918D01*
X2513958Y311854D01*
X2514463Y311832D01*
G37*
%LPD*%
G36*
X2445863Y310650D02*
X2444190Y310650D01*
X2444190Y322991D01*
X2449997Y322991D01*
X2450503Y322976D01*
X2450980Y322932D01*
X2451427Y322860D01*
X2451844Y322758D01*
X2452232Y322626D01*
X2452589Y322466D01*
X2452917Y322277D01*
X2453216Y322058D01*
X2453482Y321813D01*
X2453712Y321546D01*
X2453907Y321256D01*
X2454067Y320942D01*
X2454191Y320606D01*
X2454279Y320247D01*
X2454332Y319866D01*
X2454350Y319461D01*
X2454338Y319124D01*
X2454300Y318801D01*
X2454237Y318491D01*
X2454150Y318195D01*
X2454037Y317913D01*
X2453899Y317645D01*
X2453737Y317390D01*
X2453549Y317149D01*
X2453339Y316925D01*
X2453110Y316724D01*
X2452862Y316543D01*
X2452751Y316477D01*
X2452595Y316385D01*
X2452309Y316248D01*
X2452004Y316132D01*
X2451680Y316039D01*
X2451337Y315966D01*
X2452829Y313703D01*
X2454841Y310650D01*
X2452914Y310650D01*
X2449708Y315774D01*
X2445863Y315774D01*
X2445863Y310650D01*
G37*
%LPC*%
G36*
X2449901Y317096D02*
X2450222Y317106D01*
X2450525Y317135D01*
X2450808Y317183D01*
X2451073Y317251D01*
X2451320Y317337D01*
X2451547Y317444D01*
X2451756Y317569D01*
X2451946Y317714D01*
X2452115Y317876D01*
X2452262Y318053D01*
X2452386Y318246D01*
X2452488Y318455D01*
X2452567Y318679D01*
X2452623Y318918D01*
X2452657Y319173D01*
X2452668Y319444D01*
X2452657Y319705D01*
X2452623Y319950D01*
X2452566Y320180D01*
X2452486Y320393D01*
X2452383Y320590D01*
X2452257Y320771D01*
X2452109Y320937D01*
X2451937Y321086D01*
X2451744Y321218D01*
X2451531Y321333D01*
X2451298Y321430D01*
X2451045Y321510D01*
X2450771Y321571D01*
X2450478Y321615D01*
X2450164Y321642D01*
X2449831Y321651D01*
X2445863Y321651D01*
X2445863Y317096D01*
X2449901Y317096D01*
G37*
%LPD*%
G36*
X2467777Y310475D02*
X2467301Y310487D01*
X2466843Y310523D01*
X2466400Y310583D01*
X2465975Y310668D01*
X2465566Y310776D01*
X2465174Y310908D01*
X2464799Y311065D01*
X2464440Y311246D01*
X2464100Y311449D01*
X2463781Y311673D01*
X2463482Y311919D01*
X2463204Y312186D01*
X2462947Y312474D01*
X2462710Y312784D01*
X2462494Y313114D01*
X2462298Y313466D01*
X2462125Y313836D01*
X2461975Y314223D01*
X2461847Y314625D01*
X2461743Y315044D01*
X2461662Y315478D01*
X2461605Y315928D01*
X2461570Y316395D01*
X2461558Y316877D01*
X2461565Y317248D01*
X2461584Y317607D01*
X2461615Y317956D01*
X2461659Y318295D01*
X2461716Y318622D01*
X2461785Y318940D01*
X2461867Y319246D01*
X2461961Y319542D01*
X2462068Y319827D01*
X2462188Y320102D01*
X2462320Y320366D01*
X2462465Y320620D01*
X2462622Y320863D01*
X2462792Y321095D01*
X2463170Y321528D01*
X2463593Y321914D01*
X2463820Y322088D01*
X2464057Y322249D01*
X2464305Y322396D01*
X2464562Y322532D01*
X2464830Y322654D01*
X2465108Y322763D01*
X2465396Y322860D01*
X2465694Y322943D01*
X2466003Y323014D01*
X2466321Y323072D01*
X2466650Y323117D01*
X2466989Y323149D01*
X2467339Y323168D01*
X2467698Y323175D01*
X2468198Y323164D01*
X2468675Y323131D01*
X2469127Y323077D01*
X2469555Y323002D01*
X2469959Y322904D01*
X2470339Y322786D01*
X2470695Y322645D01*
X2471026Y322483D01*
X2471337Y322297D01*
X2471629Y322085D01*
X2471903Y321847D01*
X2472158Y321583D01*
X2472396Y321293D01*
X2472614Y320977D01*
X2472815Y320635D01*
X2472997Y320267D01*
X2471403Y319794D01*
X2471265Y320048D01*
X2471115Y320284D01*
X2470953Y320502D01*
X2470778Y320703D01*
X2470590Y320885D01*
X2470391Y321050D01*
X2470178Y321197D01*
X2469953Y321327D01*
X2469715Y321440D01*
X2469463Y321537D01*
X2469197Y321620D01*
X2468917Y321688D01*
X2468622Y321741D01*
X2468314Y321778D01*
X2467991Y321801D01*
X2467654Y321808D01*
X2467136Y321788D01*
X2466649Y321728D01*
X2466193Y321627D01*
X2465769Y321485D01*
X2465376Y321304D01*
X2465015Y321082D01*
X2464686Y320819D01*
X2464387Y320517D01*
X2464123Y320177D01*
X2463893Y319805D01*
X2463699Y319399D01*
X2463540Y318961D01*
X2463416Y318489D01*
X2463328Y317985D01*
X2463275Y317448D01*
X2463258Y316877D01*
X2463276Y316308D01*
X2463333Y315770D01*
X2463426Y315262D01*
X2463558Y314785D01*
X2463726Y314339D01*
X2463932Y313924D01*
X2464176Y313539D01*
X2464457Y313186D01*
X2464772Y312868D01*
X2465115Y312594D01*
X2465487Y312361D01*
X2465887Y312171D01*
X2466317Y312023D01*
X2466775Y311917D01*
X2467261Y311854D01*
X2467777Y311832D01*
X2468371Y311855D01*
X2468945Y311924D01*
X2469499Y312039D01*
X2470032Y312200D01*
X2470531Y312401D01*
X2470979Y312634D01*
X2471378Y312900D01*
X2471727Y313199D01*
X2471727Y315423D01*
X2468040Y315423D01*
X2468040Y316825D01*
X2473269Y316825D01*
X2473269Y312568D01*
X2473016Y312326D01*
X2472750Y312097D01*
X2472471Y311883D01*
X2472177Y311682D01*
X2471870Y311496D01*
X2471548Y311324D01*
X2471213Y311166D01*
X2470864Y311022D01*
X2470505Y310894D01*
X2470138Y310783D01*
X2469763Y310689D01*
X2469381Y310612D01*
X2468991Y310552D01*
X2468594Y310509D01*
X2468189Y310483D01*
X2467777Y310475D01*
G37*
G36*
X2477738Y310650D02*
X2476065Y310650D01*
X2476065Y322991D01*
X2477738Y322991D01*
X2477738Y317771D01*
X2484412Y317771D01*
X2484412Y322991D01*
X2486085Y322991D01*
X2486085Y310650D01*
X2484412Y310650D01*
X2484412Y316369D01*
X2477738Y316369D01*
X2477738Y310650D01*
G37*
G36*
X2539450Y310475D02*
X2538901Y310487D01*
X2538381Y310524D01*
X2537891Y310585D01*
X2537431Y310671D01*
X2537001Y310781D01*
X2536600Y310916D01*
X2536229Y311075D01*
X2535887Y311259D01*
X2535575Y311467D01*
X2535293Y311700D01*
X2535040Y311957D01*
X2534817Y312239D01*
X2534623Y312545D01*
X2534460Y312875D01*
X2534325Y313231D01*
X2534221Y313610D01*
X2535841Y313934D01*
X2535921Y313666D01*
X2536021Y313415D01*
X2536140Y313183D01*
X2536279Y312970D01*
X2536438Y312775D01*
X2536616Y312599D01*
X2536814Y312441D01*
X2537032Y312301D01*
X2537270Y312179D01*
X2537529Y312073D01*
X2537808Y311983D01*
X2538107Y311910D01*
X2538427Y311853D01*
X2538768Y311812D01*
X2539129Y311788D01*
X2539511Y311780D01*
X2539904Y311789D01*
X2540275Y311815D01*
X2540622Y311858D01*
X2540946Y311919D01*
X2541247Y311997D01*
X2541525Y312093D01*
X2541780Y312206D01*
X2542012Y312336D01*
X2542218Y312483D01*
X2542397Y312647D01*
X2542548Y312826D01*
X2542672Y313022D01*
X2542768Y313235D01*
X2542837Y313463D01*
X2542878Y313708D01*
X2542892Y313969D01*
X2542875Y314257D01*
X2542823Y314517D01*
X2542737Y314748D01*
X2542616Y314950D01*
X2542464Y315131D01*
X2542284Y315294D01*
X2542076Y315441D01*
X2541841Y315572D01*
X2541579Y315690D01*
X2541293Y315798D01*
X2540983Y315896D01*
X2540650Y315984D01*
X2539117Y316343D01*
X2538430Y316505D01*
X2537830Y316667D01*
X2537319Y316829D01*
X2536897Y316991D01*
X2536538Y317158D01*
X2536219Y317334D01*
X2535940Y317519D01*
X2535701Y317714D01*
X2535495Y317922D01*
X2535315Y318146D01*
X2535160Y318388D01*
X2535031Y318647D01*
X2534929Y318924D01*
X2534857Y319220D01*
X2534813Y319537D01*
X2534799Y319873D01*
X2534818Y320258D01*
X2534875Y320620D01*
X2534969Y320959D01*
X2535102Y321276D01*
X2535273Y321570D01*
X2535481Y321842D01*
X2535728Y322090D01*
X2536012Y322316D01*
X2536332Y322518D01*
X2536684Y322692D01*
X2537069Y322839D01*
X2537487Y322960D01*
X2537937Y323054D01*
X2538420Y323121D01*
X2538936Y323161D01*
X2539485Y323175D01*
X2539995Y323165D01*
X2540474Y323134D01*
X2540922Y323084D01*
X2541339Y323014D01*
X2541726Y322923D01*
X2542081Y322813D01*
X2542406Y322682D01*
X2542699Y322531D01*
X2542967Y322356D01*
X2543214Y322152D01*
X2543440Y321921D01*
X2543645Y321661D01*
X2543829Y321372D01*
X2543993Y321055D01*
X2544136Y320710D01*
X2544258Y320337D01*
X2542611Y320048D01*
X2542536Y320285D01*
X2542445Y320505D01*
X2542339Y320708D01*
X2542217Y320894D01*
X2542080Y321064D01*
X2541928Y321216D01*
X2541761Y321352D01*
X2541578Y321471D01*
X2541378Y321575D01*
X2541160Y321665D01*
X2540924Y321741D01*
X2540669Y321803D01*
X2540396Y321851D01*
X2540105Y321886D01*
X2539795Y321907D01*
X2539467Y321913D01*
X2539108Y321906D01*
X2538771Y321883D01*
X2538456Y321845D01*
X2538162Y321791D01*
X2537891Y321722D01*
X2537641Y321638D01*
X2537413Y321538D01*
X2537207Y321423D01*
X2537025Y321293D01*
X2536866Y321148D01*
X2536732Y320987D01*
X2536623Y320812D01*
X2536538Y320622D01*
X2536477Y320416D01*
X2536440Y320196D01*
X2536428Y319960D01*
X2536447Y319688D01*
X2536503Y319440D01*
X2536598Y319217D01*
X2536730Y319019D01*
X2536898Y318840D01*
X2537099Y318675D01*
X2537334Y318524D01*
X2537602Y318388D01*
X2537957Y318252D01*
X2538453Y318100D01*
X2539091Y317934D01*
X2539870Y317753D01*
X2541004Y317486D01*
X2541557Y317337D01*
X2542086Y317162D01*
X2542586Y316957D01*
X2543054Y316720D01*
X2543272Y316586D01*
X2543475Y316437D01*
X2543664Y316275D01*
X2543838Y316098D01*
X2543995Y315906D01*
X2544134Y315697D01*
X2544256Y315472D01*
X2544359Y315231D01*
X2544441Y314970D01*
X2544500Y314688D01*
X2544535Y314383D01*
X2544547Y314057D01*
X2544526Y313642D01*
X2544464Y313251D01*
X2544359Y312885D01*
X2544213Y312542D01*
X2544025Y312223D01*
X2543796Y311929D01*
X2543524Y311658D01*
X2543211Y311412D01*
X2542860Y311192D01*
X2542475Y311002D01*
X2542056Y310841D01*
X2541603Y310709D01*
X2541116Y310607D01*
X2540595Y310533D01*
X2540039Y310490D01*
X2539450Y310475D01*
G37*
G36*
X2577426Y310650D02*
X2575753Y310650D01*
X2575753Y322991D01*
X2577426Y322991D01*
X2577426Y316807D01*
X2583373Y322991D01*
X2585343Y322991D01*
X2580088Y317631D01*
X2586044Y310650D01*
X2583968Y310650D01*
X2579037Y316606D01*
X2577426Y315380D01*
X2577426Y310650D01*
G37*
G36*
X2568241Y310475D02*
X2567782Y310487D01*
X2567339Y310523D01*
X2566912Y310584D01*
X2566501Y310669D01*
X2566105Y310778D01*
X2565725Y310911D01*
X2565361Y311068D01*
X2565013Y311250D01*
X2564683Y311454D01*
X2564373Y311679D01*
X2564083Y311925D01*
X2563813Y312192D01*
X2563564Y312479D01*
X2563335Y312787D01*
X2563126Y313116D01*
X2562937Y313466D01*
X2562770Y313834D01*
X2562625Y314219D01*
X2562502Y314621D01*
X2562402Y315039D01*
X2562324Y315474D01*
X2562268Y315925D01*
X2562235Y316393D01*
X2562223Y316877D01*
X2562230Y317241D01*
X2562248Y317595D01*
X2562279Y317939D01*
X2562323Y318273D01*
X2562379Y318597D01*
X2562448Y318911D01*
X2562529Y319215D01*
X2562622Y319509D01*
X2562728Y319793D01*
X2562846Y320067D01*
X2563120Y320585D01*
X2563444Y321064D01*
X2563817Y321502D01*
X2564235Y321894D01*
X2564691Y322234D01*
X2564933Y322384D01*
X2565185Y322521D01*
X2565447Y322645D01*
X2565718Y322756D01*
X2565999Y322855D01*
X2566289Y322939D01*
X2566589Y323011D01*
X2566898Y323070D01*
X2567217Y323116D01*
X2567546Y323149D01*
X2567884Y323168D01*
X2568232Y323175D01*
X2568714Y323163D01*
X2569177Y323127D01*
X2569619Y323066D01*
X2570040Y322982D01*
X2570442Y322874D01*
X2570823Y322741D01*
X2571184Y322585D01*
X2571525Y322404D01*
X2571845Y322200D01*
X2572142Y321972D01*
X2572418Y321721D01*
X2572672Y321447D01*
X2572904Y321150D01*
X2573115Y320829D01*
X2573303Y320485D01*
X2573469Y320118D01*
X2571884Y319592D01*
X2571769Y319854D01*
X2571637Y320099D01*
X2571489Y320329D01*
X2571325Y320543D01*
X2571144Y320741D01*
X2570947Y320923D01*
X2570734Y321089D01*
X2570505Y321239D01*
X2570261Y321373D01*
X2570007Y321488D01*
X2569742Y321586D01*
X2569466Y321666D01*
X2569178Y321728D01*
X2568880Y321773D01*
X2568570Y321799D01*
X2568249Y321808D01*
X2567751Y321788D01*
X2567281Y321726D01*
X2566840Y321623D01*
X2566427Y321479D01*
X2566043Y321293D01*
X2565687Y321067D01*
X2565360Y320799D01*
X2565061Y320490D01*
X2564794Y320145D01*
X2564563Y319770D01*
X2564367Y319364D01*
X2564207Y318928D01*
X2564083Y318461D01*
X2563994Y317964D01*
X2563940Y317436D01*
X2563923Y316877D01*
X2563941Y316324D01*
X2563997Y315799D01*
X2564089Y315301D01*
X2564219Y314831D01*
X2564386Y314389D01*
X2564590Y313975D01*
X2564831Y313588D01*
X2565109Y313229D01*
X2565419Y312906D01*
X2565755Y312626D01*
X2566117Y312389D01*
X2566505Y312195D01*
X2566920Y312044D01*
X2567360Y311936D01*
X2567827Y311871D01*
X2568319Y311850D01*
X2568638Y311860D01*
X2568947Y311890D01*
X2569246Y311940D01*
X2569535Y312010D01*
X2569814Y312101D01*
X2570083Y312211D01*
X2570341Y312341D01*
X2570590Y312491D01*
X2570829Y312662D01*
X2571057Y312852D01*
X2571276Y313063D01*
X2571484Y313293D01*
X2571682Y313544D01*
X2571871Y313815D01*
X2572049Y314105D01*
X2572217Y314416D01*
X2573583Y313733D01*
X2573383Y313346D01*
X2573164Y312984D01*
X2572925Y312645D01*
X2572667Y312329D01*
X2572390Y312038D01*
X2572093Y311771D01*
X2571777Y311527D01*
X2571442Y311307D01*
X2571090Y311112D01*
X2570724Y310943D01*
X2570345Y310800D01*
X2569952Y310683D01*
X2569545Y310592D01*
X2569124Y310527D01*
X2568689Y310488D01*
X2568241Y310475D01*
G37*
G36*
X2528243Y310650D02*
X2526579Y310650D01*
X2526579Y315765D01*
X2521832Y322991D01*
X2523671Y322991D01*
X2527428Y317114D01*
X2531168Y322991D01*
X2533008Y322991D01*
X2528243Y315765D01*
X2528243Y310650D01*
G37*
G36*
X2493869Y310650D02*
X2492205Y310650D01*
X2492205Y321624D01*
X2487965Y321624D01*
X2487965Y322991D01*
X2498108Y322991D01*
X2498108Y321624D01*
X2493869Y321624D01*
X2493869Y310650D01*
G37*
G36*
X2551681Y310650D02*
X2550017Y310650D01*
X2550017Y321624D01*
X2545778Y321624D01*
X2545778Y322991D01*
X2555920Y322991D01*
X2555920Y321624D01*
X2551681Y321624D01*
X2551681Y310650D01*
G37*
G36*
X2437753Y310475D02*
X2437371Y310488D01*
X2437009Y310525D01*
X2436666Y310589D01*
X2436344Y310677D01*
X2436042Y310791D01*
X2435759Y310931D01*
X2435497Y311095D01*
X2435254Y311285D01*
X2435032Y311500D01*
X2434829Y311741D01*
X2434646Y312007D01*
X2434483Y312298D01*
X2434340Y312614D01*
X2434217Y312956D01*
X2434114Y313323D01*
X2434030Y313715D01*
X2435668Y313987D01*
X2435714Y313740D01*
X2435772Y313507D01*
X2435842Y313288D01*
X2435924Y313083D01*
X2436019Y312892D01*
X2436126Y312714D01*
X2436246Y312551D01*
X2436378Y312402D01*
X2436520Y312268D01*
X2436671Y312153D01*
X2436831Y312055D01*
X2436999Y311975D01*
X2437177Y311912D01*
X2437363Y311868D01*
X2437558Y311841D01*
X2437761Y311832D01*
X2437983Y311842D01*
X2438193Y311872D01*
X2438390Y311920D01*
X2438576Y311989D01*
X2438749Y312077D01*
X2438911Y312185D01*
X2439060Y312312D01*
X2439198Y312459D01*
X2439321Y312624D01*
X2439428Y312808D01*
X2439518Y313010D01*
X2439592Y313230D01*
X2439649Y313469D01*
X2439690Y313726D01*
X2439715Y314000D01*
X2439723Y314294D01*
X2439723Y321624D01*
X2437350Y321624D01*
X2437350Y322991D01*
X2441387Y322991D01*
X2441387Y314329D01*
X2441372Y313892D01*
X2441327Y313479D01*
X2441251Y313090D01*
X2441144Y312725D01*
X2441008Y312384D01*
X2440841Y312066D01*
X2440643Y311773D01*
X2440415Y311504D01*
X2440161Y311263D01*
X2439884Y311054D01*
X2439585Y310877D01*
X2439264Y310732D01*
X2438919Y310620D01*
X2438553Y310539D01*
X2438164Y310491D01*
X2437753Y310475D01*
G37*
G36*
X2502534Y310475D02*
X2502152Y310488D01*
X2501790Y310525D01*
X2501448Y310589D01*
X2501125Y310677D01*
X2500823Y310791D01*
X2500541Y310931D01*
X2500278Y311095D01*
X2500036Y311285D01*
X2499813Y311500D01*
X2499610Y311741D01*
X2499427Y312007D01*
X2499264Y312298D01*
X2499121Y312614D01*
X2498998Y312956D01*
X2498895Y313323D01*
X2498812Y313715D01*
X2500449Y313987D01*
X2500495Y313740D01*
X2500553Y313507D01*
X2500623Y313288D01*
X2500706Y313083D01*
X2500800Y312892D01*
X2500908Y312714D01*
X2501027Y312551D01*
X2501159Y312402D01*
X2501301Y312268D01*
X2501452Y312153D01*
X2501612Y312055D01*
X2501781Y311975D01*
X2501958Y311912D01*
X2502144Y311868D01*
X2502339Y311841D01*
X2502543Y311832D01*
X2502764Y311842D01*
X2502974Y311872D01*
X2503172Y311920D01*
X2503357Y311989D01*
X2503531Y312077D01*
X2503692Y312185D01*
X2503842Y312312D01*
X2503979Y312459D01*
X2504102Y312624D01*
X2504209Y312808D01*
X2504299Y313010D01*
X2504373Y313230D01*
X2504431Y313469D01*
X2504472Y313726D01*
X2504496Y314000D01*
X2504505Y314294D01*
X2504505Y321624D01*
X2502131Y321624D01*
X2502131Y322991D01*
X2506169Y322991D01*
X2506169Y314329D01*
X2506154Y313892D01*
X2506108Y313479D01*
X2506032Y313090D01*
X2505926Y312725D01*
X2505789Y312384D01*
X2505622Y312066D01*
X2505424Y311773D01*
X2505197Y311504D01*
X2504942Y311263D01*
X2504666Y311054D01*
X2504366Y310877D01*
X2504045Y310732D01*
X2503701Y310620D01*
X2503334Y310539D01*
X2502945Y310491D01*
X2502534Y310475D01*
G37*
G36*
X2459016Y310650D02*
X2457343Y310650D01*
X2457343Y322991D01*
X2459016Y322991D01*
X2459016Y310650D01*
G37*
G36*
X2559672Y310650D02*
X2557999Y310650D01*
X2557999Y322991D01*
X2559672Y322991D01*
X2559672Y310650D01*
G37*
G36*
X294092Y660354D02*
X293599Y660355D01*
X293132Y660384D01*
X292691Y660441D01*
X292277Y660526D01*
X291889Y660639D01*
X291527Y660779D01*
X291192Y660948D01*
X290884Y661145D01*
X290601Y661369D01*
X290346Y661621D01*
X290116Y661902D01*
X289913Y662210D01*
X289737Y662546D01*
X289587Y662910D01*
X291156Y663430D01*
X291268Y663172D01*
X291397Y662936D01*
X291544Y662720D01*
X291708Y662526D01*
X291889Y662351D01*
X292088Y662198D01*
X292304Y662065D01*
X292537Y661953D01*
X292788Y661861D01*
X293058Y661788D01*
X293345Y661733D01*
X293652Y661696D01*
X293976Y661679D01*
X294319Y661680D01*
X294681Y661700D01*
X295061Y661738D01*
X295450Y661795D01*
X295815Y661866D01*
X296154Y661951D01*
X296468Y662051D01*
X296758Y662165D01*
X297022Y662294D01*
X297261Y662437D01*
X297475Y662595D01*
X297662Y662766D01*
X297819Y662950D01*
X297947Y663147D01*
X298046Y663357D01*
X298116Y663579D01*
X298156Y663815D01*
X298168Y664063D01*
X298149Y664324D01*
X298097Y664607D01*
X298014Y664858D01*
X297900Y665077D01*
X297756Y665264D01*
X297583Y665424D01*
X297385Y665564D01*
X297161Y665685D01*
X296911Y665786D01*
X296637Y665871D01*
X296340Y665943D01*
X296021Y666003D01*
X295678Y666050D01*
X294113Y666219D01*
X293411Y666296D01*
X292797Y666384D01*
X292270Y666483D01*
X291831Y666592D01*
X291454Y666714D01*
X291116Y666850D01*
X290817Y667000D01*
X290556Y667164D01*
X290326Y667345D01*
X290120Y667546D01*
X289937Y667767D01*
X289777Y668008D01*
X289643Y668270D01*
X289534Y668556D01*
X289453Y668865D01*
X289397Y669197D01*
X289369Y669581D01*
X289382Y669947D01*
X289434Y670296D01*
X289527Y670627D01*
X289661Y670939D01*
X289835Y671234D01*
X290049Y671511D01*
X290304Y671770D01*
X290596Y672008D01*
X290925Y672224D01*
X291289Y672418D01*
X291689Y672588D01*
X292124Y672737D01*
X292596Y672862D01*
X293103Y672965D01*
X293646Y673045D01*
X294153Y673097D01*
X294633Y673126D01*
X295084Y673130D01*
X295506Y673111D01*
X295901Y673068D01*
X296267Y673002D01*
X296605Y672912D01*
X296915Y672798D01*
X297202Y672657D01*
X297472Y672485D01*
X297724Y672282D01*
X297960Y672049D01*
X298178Y671785D01*
X298379Y671491D01*
X298563Y671166D01*
X298730Y670810D01*
X297130Y670323D01*
X297027Y670548D01*
X296910Y670756D01*
X296779Y670944D01*
X296636Y671114D01*
X296480Y671266D01*
X296310Y671399D01*
X296127Y671513D01*
X295931Y671609D01*
X295720Y671688D01*
X295493Y671750D01*
X295249Y671797D01*
X294989Y671828D01*
X294712Y671842D01*
X294419Y671841D01*
X294109Y671824D01*
X293782Y671791D01*
X293427Y671740D01*
X293095Y671676D01*
X292787Y671599D01*
X292502Y671510D01*
X292241Y671409D01*
X292003Y671295D01*
X291789Y671168D01*
X291599Y671029D01*
X291434Y670877D01*
X291294Y670714D01*
X291181Y670539D01*
X291093Y670351D01*
X291032Y670152D01*
X290996Y669941D01*
X290987Y669717D01*
X291004Y669482D01*
X291056Y669214D01*
X291142Y668975D01*
X291263Y668765D01*
X291418Y668584D01*
X291607Y668427D01*
X291826Y668288D01*
X292078Y668167D01*
X292360Y668065D01*
X292729Y667972D01*
X293241Y667883D01*
X293894Y667795D01*
X294689Y667711D01*
X295847Y667584D01*
X296414Y667503D01*
X296961Y667394D01*
X297482Y667252D01*
X297975Y667073D01*
X298208Y666966D01*
X298428Y666844D01*
X298635Y666706D01*
X298829Y666551D01*
X299008Y666380D01*
X299172Y666190D01*
X299320Y665981D01*
X299452Y665754D01*
X299565Y665506D01*
X299658Y665232D01*
X299730Y664935D01*
X299782Y664612D01*
X299812Y664198D01*
X299797Y663802D01*
X299738Y663426D01*
X299635Y663068D01*
X299487Y662729D01*
X299295Y662408D01*
X299059Y662107D01*
X298778Y661824D01*
X298457Y661563D01*
X298098Y661327D01*
X297701Y661117D01*
X297268Y660930D01*
X296797Y660769D01*
X296288Y660633D01*
X295742Y660522D01*
X295159Y660435D01*
X294612Y660381D01*
X294092Y660354D01*
G37*
G36*
X312269Y662713D02*
X312106Y664043D01*
X315227Y664426D01*
X314070Y673850D01*
X311548Y671537D01*
X311366Y673015D01*
X314017Y675361D01*
X315460Y675538D01*
X316800Y664619D01*
X319782Y664985D01*
X319945Y663655D01*
X312269Y662713D01*
G37*
G36*
X302479Y661511D02*
X300975Y673760D01*
X302636Y673963D01*
X303973Y663071D01*
X310163Y663831D01*
X310329Y662475D01*
X302479Y661511D01*
G37*
G36*
X2646855Y709182D02*
X2645682Y709388D01*
X2646243Y711913D01*
X2643809Y711426D01*
X2643621Y712633D01*
X2646165Y712834D01*
X2644949Y715272D01*
X2646085Y715712D01*
X2646987Y713258D01*
X2648722Y715229D01*
X2649639Y714427D01*
X2647631Y712575D01*
X2649935Y711520D01*
X2649343Y710433D01*
X2647203Y711762D01*
X2646855Y709182D01*
G37*
G36*
X2594737Y667426D02*
X2592840Y667761D01*
X2590573Y673363D01*
X2586786Y674031D01*
X2585896Y668985D01*
X2584249Y669275D01*
X2586392Y681429D01*
X2592110Y680420D01*
X2592607Y680318D01*
X2593068Y680192D01*
X2593496Y680043D01*
X2593889Y679870D01*
X2594248Y679674D01*
X2594572Y679454D01*
X2594862Y679210D01*
X2595118Y678943D01*
X2595338Y678656D01*
X2595518Y678352D01*
X2595660Y678033D01*
X2595762Y677696D01*
X2595826Y677344D01*
X2595851Y676975D01*
X2595837Y676590D01*
X2595784Y676188D01*
X2595714Y675859D01*
X2595620Y675547D01*
X2595505Y675253D01*
X2595367Y674977D01*
X2595207Y674719D01*
X2595025Y674478D01*
X2594820Y674255D01*
X2594594Y674050D01*
X2594348Y673867D01*
X2594088Y673708D01*
X2593812Y673573D01*
X2593692Y673528D01*
X2593522Y673464D01*
X2593216Y673378D01*
X2592896Y673318D01*
X2592561Y673282D01*
X2592210Y673270D01*
X2593286Y670782D01*
X2594737Y667426D01*
G37*
%LPC*%
G36*
X2591901Y674560D02*
X2592174Y674581D01*
X2592431Y674623D01*
X2592674Y674688D01*
X2592901Y674776D01*
X2593113Y674885D01*
X2593308Y675015D01*
X2593484Y675165D01*
X2593639Y675333D01*
X2593776Y675521D01*
X2593892Y675728D01*
X2593990Y675954D01*
X2594067Y676199D01*
X2594125Y676463D01*
X2594159Y676723D01*
X2594168Y676970D01*
X2594152Y677206D01*
X2594110Y677430D01*
X2594043Y677642D01*
X2593951Y677842D01*
X2593833Y678031D01*
X2593690Y678207D01*
X2593523Y678371D01*
X2593333Y678521D01*
X2593121Y678657D01*
X2592885Y678780D01*
X2592627Y678888D01*
X2592345Y678982D01*
X2592041Y679063D01*
X2591714Y679130D01*
X2587807Y679819D01*
X2587016Y675333D01*
X2590992Y674632D01*
X2591310Y674586D01*
X2591613Y674562D01*
X2591901Y674560D01*
G37*
%LPD*%
G36*
X2578598Y670228D02*
X2578072Y670246D01*
X2577517Y670299D01*
X2576934Y670387D01*
X2576395Y670495D01*
X2575890Y670621D01*
X2575419Y670767D01*
X2574980Y670931D01*
X2574576Y671114D01*
X2574204Y671316D01*
X2573866Y671538D01*
X2573562Y671778D01*
X2573291Y672037D01*
X2573053Y672315D01*
X2572849Y672613D01*
X2572678Y672929D01*
X2572541Y673264D01*
X2572437Y673618D01*
X2572366Y673991D01*
X2572329Y674383D01*
X2573981Y674421D01*
X2574013Y674142D01*
X2574068Y673879D01*
X2574145Y673629D01*
X2574245Y673395D01*
X2574367Y673176D01*
X2574512Y672971D01*
X2574680Y672781D01*
X2574870Y672606D01*
X2575084Y672444D01*
X2575320Y672295D01*
X2575579Y672158D01*
X2575861Y672034D01*
X2576167Y671922D01*
X2576495Y671823D01*
X2576846Y671736D01*
X2577221Y671662D01*
X2577610Y671602D01*
X2577979Y671564D01*
X2578329Y671546D01*
X2578659Y671550D01*
X2578969Y671574D01*
X2579259Y671620D01*
X2579529Y671687D01*
X2579780Y671775D01*
X2580009Y671885D01*
X2580213Y672015D01*
X2580394Y672165D01*
X2580549Y672337D01*
X2580681Y672529D01*
X2580789Y672742D01*
X2580872Y672976D01*
X2580931Y673231D01*
X2580964Y673518D01*
X2580958Y673782D01*
X2580913Y674025D01*
X2580829Y674245D01*
X2580711Y674449D01*
X2580562Y674641D01*
X2580383Y674822D01*
X2580174Y674992D01*
X2579937Y675154D01*
X2579674Y675309D01*
X2579386Y675460D01*
X2579072Y675604D01*
X2577625Y676224D01*
X2576976Y676503D01*
X2576415Y676767D01*
X2575939Y677015D01*
X2575551Y677248D01*
X2575227Y677475D01*
X2574943Y677703D01*
X2574701Y677934D01*
X2574499Y678167D01*
X2574332Y678408D01*
X2574194Y678660D01*
X2574083Y678925D01*
X2574001Y679202D01*
X2573950Y679493D01*
X2573930Y679797D01*
X2573942Y680117D01*
X2573986Y680450D01*
X2574071Y680826D01*
X2574190Y681173D01*
X2574342Y681491D01*
X2574528Y681780D01*
X2574747Y682040D01*
X2575000Y682271D01*
X2575286Y682473D01*
X2575605Y682646D01*
X2575954Y682789D01*
X2576332Y682899D01*
X2576736Y682978D01*
X2577169Y683024D01*
X2577629Y683038D01*
X2578116Y683020D01*
X2578631Y682970D01*
X2579174Y682888D01*
X2579674Y682790D01*
X2580141Y682677D01*
X2580574Y682550D01*
X2580972Y682408D01*
X2581337Y682251D01*
X2581668Y682081D01*
X2581965Y681896D01*
X2582228Y681696D01*
X2582461Y681477D01*
X2582669Y681234D01*
X2582851Y680966D01*
X2583008Y680675D01*
X2583140Y680359D01*
X2583246Y680018D01*
X2583327Y679654D01*
X2583382Y679265D01*
X2581710Y679266D01*
X2581677Y679512D01*
X2581626Y679745D01*
X2581556Y679963D01*
X2581469Y680168D01*
X2581364Y680359D01*
X2581240Y680535D01*
X2581099Y680698D01*
X2580939Y680847D01*
X2580761Y680984D01*
X2580562Y681110D01*
X2580342Y681226D01*
X2580102Y681332D01*
X2579842Y681427D01*
X2579561Y681511D01*
X2579259Y681585D01*
X2578938Y681649D01*
X2578583Y681704D01*
X2578246Y681740D01*
X2577929Y681757D01*
X2577631Y681755D01*
X2577352Y681734D01*
X2577091Y681695D01*
X2576850Y681636D01*
X2576627Y681559D01*
X2576424Y681462D01*
X2576243Y681347D01*
X2576084Y681212D01*
X2575945Y681059D01*
X2575828Y680886D01*
X2575732Y680694D01*
X2575658Y680483D01*
X2575605Y680254D01*
X2575577Y679982D01*
X2575589Y679728D01*
X2575644Y679492D01*
X2575739Y679274D01*
X2575874Y679068D01*
X2576043Y678871D01*
X2576248Y678682D01*
X2576488Y678501D01*
X2576814Y678305D01*
X2577277Y678070D01*
X2577876Y677796D01*
X2578612Y677482D01*
X2579682Y677022D01*
X2580201Y676779D01*
X2580691Y676515D01*
X2581149Y676227D01*
X2581568Y675912D01*
X2581759Y675742D01*
X2581934Y675560D01*
X2582091Y675367D01*
X2582232Y675163D01*
X2582353Y674946D01*
X2582454Y674717D01*
X2582535Y674474D01*
X2582594Y674219D01*
X2582630Y673948D01*
X2582639Y673659D01*
X2582621Y673353D01*
X2582576Y673030D01*
X2582483Y672625D01*
X2582354Y672251D01*
X2582187Y671908D01*
X2581984Y671596D01*
X2581744Y671315D01*
X2581467Y671065D01*
X2581152Y670845D01*
X2580801Y670657D01*
X2580418Y670502D01*
X2580005Y670381D01*
X2579565Y670295D01*
X2579095Y670244D01*
X2578598Y670228D01*
G37*
G36*
X2604533Y665699D02*
X2596917Y667042D01*
X2597150Y668361D01*
X2600246Y667815D01*
X2601895Y677165D01*
X2598807Y675691D01*
X2599065Y677157D01*
X2602286Y678626D01*
X2603718Y678374D01*
X2601807Y667540D01*
X2604766Y667018D01*
X2604533Y665699D01*
G37*
G36*
X2607286Y127605D02*
X2606819Y127617D01*
X2606368Y127653D01*
X2605933Y127713D01*
X2605515Y127798D01*
X2605113Y127906D01*
X2604728Y128038D01*
X2604358Y128195D01*
X2604005Y128376D01*
X2603671Y128579D01*
X2603357Y128804D01*
X2603063Y129050D01*
X2602789Y129318D01*
X2602536Y129608D01*
X2602303Y129918D01*
X2602091Y130251D01*
X2601899Y130605D01*
X2601729Y130977D01*
X2601581Y131364D01*
X2601456Y131767D01*
X2601354Y132184D01*
X2601274Y132617D01*
X2601218Y133066D01*
X2601183Y133529D01*
X2601172Y134007D01*
X2601178Y134372D01*
X2601197Y134727D01*
X2601229Y135072D01*
X2601273Y135407D01*
X2601330Y135731D01*
X2601400Y136046D01*
X2601482Y136350D01*
X2601577Y136645D01*
X2601685Y136929D01*
X2601805Y137203D01*
X2601938Y137467D01*
X2602084Y137721D01*
X2602413Y138199D01*
X2602792Y138636D01*
X2603217Y139027D01*
X2603445Y139203D01*
X2603682Y139366D01*
X2603929Y139516D01*
X2604186Y139653D01*
X2604453Y139777D01*
X2604730Y139888D01*
X2605017Y139985D01*
X2605314Y140070D01*
X2605621Y140142D01*
X2605937Y140200D01*
X2606264Y140246D01*
X2606600Y140279D01*
X2606947Y140298D01*
X2607303Y140305D01*
X2607766Y140293D01*
X2608213Y140258D01*
X2608645Y140199D01*
X2609061Y140118D01*
X2609462Y140012D01*
X2609847Y139883D01*
X2610216Y139731D01*
X2610570Y139556D01*
X2610906Y139358D01*
X2611221Y139139D01*
X2611516Y138899D01*
X2611791Y138637D01*
X2612045Y138355D01*
X2612279Y138051D01*
X2612492Y137726D01*
X2612685Y137379D01*
X2612857Y137014D01*
X2613005Y136633D01*
X2613131Y136236D01*
X2613234Y135823D01*
X2613314Y135393D01*
X2613371Y134947D01*
X2613405Y134485D01*
X2613417Y134007D01*
X2613405Y133531D01*
X2613370Y133070D01*
X2613312Y132623D01*
X2613232Y132192D01*
X2613127Y131776D01*
X2613000Y131375D01*
X2612850Y130989D01*
X2612676Y130618D01*
X2612481Y130265D01*
X2612266Y129933D01*
X2612031Y129622D01*
X2611775Y129332D01*
X2611500Y129064D01*
X2611204Y128816D01*
X2610888Y128590D01*
X2610552Y128384D01*
X2610199Y128202D01*
X2609829Y128043D01*
X2609444Y127909D01*
X2609044Y127800D01*
X2608628Y127714D01*
X2608196Y127654D01*
X2607749Y127617D01*
X2607286Y127605D01*
G37*
%LPC*%
G36*
X2607286Y128962D02*
X2607804Y128983D01*
X2608292Y129045D01*
X2608749Y129148D01*
X2609174Y129292D01*
X2609569Y129477D01*
X2609932Y129704D01*
X2610264Y129972D01*
X2610566Y130281D01*
X2610834Y130627D01*
X2611066Y131008D01*
X2611262Y131423D01*
X2611423Y131871D01*
X2611548Y132354D01*
X2611637Y132871D01*
X2611691Y133422D01*
X2611709Y134007D01*
X2611691Y134568D01*
X2611637Y135097D01*
X2611547Y135596D01*
X2611421Y136063D01*
X2611259Y136500D01*
X2611061Y136906D01*
X2610827Y137281D01*
X2610557Y137625D01*
X2610254Y137933D01*
X2609922Y138199D01*
X2609559Y138425D01*
X2609168Y138610D01*
X2608746Y138754D01*
X2608295Y138856D01*
X2607814Y138918D01*
X2607303Y138938D01*
X2606788Y138918D01*
X2606303Y138857D01*
X2605849Y138756D01*
X2605424Y138614D01*
X2605030Y138432D01*
X2604666Y138209D01*
X2604331Y137946D01*
X2604027Y137642D01*
X2603756Y137302D01*
X2603522Y136929D01*
X2603323Y136523D01*
X2603160Y136085D01*
X2603034Y135615D01*
X2602943Y135111D01*
X2602889Y134576D01*
X2602871Y134007D01*
X2602890Y133442D01*
X2602944Y132907D01*
X2603036Y132401D01*
X2603164Y131926D01*
X2603328Y131481D01*
X2603529Y131065D01*
X2603766Y130680D01*
X2604041Y130324D01*
X2604347Y130005D01*
X2604682Y129729D01*
X2605045Y129494D01*
X2605436Y129303D01*
X2605856Y129154D01*
X2606304Y129048D01*
X2606781Y128984D01*
X2607286Y128962D01*
G37*
%LPD*%
G36*
X2593441Y127780D02*
X2588825Y127780D01*
X2588825Y140121D01*
X2592907Y140121D01*
X2593293Y140115D01*
X2593668Y140096D01*
X2594032Y140066D01*
X2594385Y140023D01*
X2594727Y139967D01*
X2595057Y139900D01*
X2595376Y139820D01*
X2595684Y139728D01*
X2595981Y139623D01*
X2596267Y139507D01*
X2596541Y139378D01*
X2596804Y139236D01*
X2597057Y139083D01*
X2597298Y138917D01*
X2597527Y138739D01*
X2597746Y138549D01*
X2597952Y138347D01*
X2598145Y138135D01*
X2598325Y137912D01*
X2598491Y137680D01*
X2598644Y137436D01*
X2598784Y137183D01*
X2598910Y136919D01*
X2599023Y136645D01*
X2599123Y136360D01*
X2599210Y136065D01*
X2599283Y135760D01*
X2599343Y135444D01*
X2599389Y135118D01*
X2599423Y134781D01*
X2599443Y134435D01*
X2599449Y134077D01*
X2599438Y133608D01*
X2599403Y133153D01*
X2599345Y132712D01*
X2599263Y132287D01*
X2599158Y131877D01*
X2599031Y131482D01*
X2598879Y131101D01*
X2598705Y130736D01*
X2598509Y130388D01*
X2598294Y130062D01*
X2598059Y129756D01*
X2597805Y129471D01*
X2597531Y129208D01*
X2597238Y128965D01*
X2596926Y128743D01*
X2596594Y128542D01*
X2596246Y128363D01*
X2595885Y128209D01*
X2595510Y128078D01*
X2595123Y127970D01*
X2594722Y127887D01*
X2594308Y127828D01*
X2593881Y127792D01*
X2593441Y127780D01*
G37*
%LPC*%
G36*
X2593248Y129120D02*
X2593583Y129129D01*
X2593907Y129157D01*
X2594220Y129204D01*
X2594524Y129269D01*
X2594817Y129353D01*
X2595100Y129455D01*
X2595373Y129576D01*
X2595635Y129716D01*
X2595885Y129873D01*
X2596120Y130046D01*
X2596340Y130236D01*
X2596545Y130443D01*
X2596735Y130665D01*
X2596910Y130905D01*
X2597070Y131160D01*
X2597216Y131432D01*
X2597345Y131719D01*
X2597457Y132018D01*
X2597552Y132330D01*
X2597630Y132654D01*
X2597690Y132991D01*
X2597733Y133341D01*
X2597759Y133703D01*
X2597768Y134077D01*
X2597748Y134634D01*
X2597689Y135157D01*
X2597591Y135645D01*
X2597453Y136100D01*
X2597277Y136520D01*
X2597061Y136906D01*
X2596805Y137258D01*
X2596511Y137576D01*
X2596179Y137859D01*
X2595812Y138103D01*
X2595410Y138310D01*
X2594973Y138480D01*
X2594500Y138611D01*
X2593992Y138705D01*
X2593450Y138762D01*
X2592872Y138781D01*
X2590498Y138781D01*
X2590498Y129120D01*
X2593248Y129120D01*
G37*
%LPD*%
G36*
X2567904Y127780D02*
X2566231Y127780D01*
X2566231Y140121D01*
X2571425Y140121D01*
X2571930Y140106D01*
X2572405Y140060D01*
X2572850Y139984D01*
X2573267Y139878D01*
X2573654Y139741D01*
X2574012Y139574D01*
X2574340Y139376D01*
X2574640Y139149D01*
X2574907Y138893D01*
X2575138Y138613D01*
X2575333Y138307D01*
X2575494Y137977D01*
X2575618Y137622D01*
X2575707Y137242D01*
X2575760Y136837D01*
X2575778Y136407D01*
X2575760Y135980D01*
X2575707Y135576D01*
X2575618Y135194D01*
X2575493Y134835D01*
X2575332Y134498D01*
X2575135Y134184D01*
X2574903Y133892D01*
X2574635Y133622D01*
X2574337Y133380D01*
X2574013Y133170D01*
X2573663Y132992D01*
X2573288Y132847D01*
X2572887Y132734D01*
X2572460Y132653D01*
X2572008Y132605D01*
X2571530Y132588D01*
X2567904Y132588D01*
X2567904Y127780D01*
G37*
%LPC*%
G36*
X2571294Y133911D02*
X2571633Y133921D01*
X2571951Y133950D01*
X2572246Y133998D01*
X2572520Y134066D01*
X2572772Y134153D01*
X2573002Y134260D01*
X2573210Y134385D01*
X2573396Y134531D01*
X2573560Y134695D01*
X2573702Y134879D01*
X2573823Y135083D01*
X2573921Y135305D01*
X2573998Y135547D01*
X2574053Y135809D01*
X2574086Y136089D01*
X2574097Y136390D01*
X2574085Y136679D01*
X2574052Y136950D01*
X2573996Y137202D01*
X2573917Y137436D01*
X2573816Y137651D01*
X2573693Y137847D01*
X2573547Y138024D01*
X2573378Y138183D01*
X2573188Y138323D01*
X2572974Y138444D01*
X2572739Y138547D01*
X2572481Y138631D01*
X2572200Y138697D01*
X2571897Y138743D01*
X2571572Y138771D01*
X2571224Y138781D01*
X2567904Y138781D01*
X2567904Y133911D01*
X2571294Y133911D01*
G37*
%LPD*%
G36*
X2577154Y127780D02*
X2575420Y127780D01*
X2580456Y140121D01*
X2582357Y140121D01*
X2587314Y127780D01*
X2585606Y127780D01*
X2584196Y131389D01*
X2578573Y131389D01*
X2577154Y127780D01*
G37*
%LPC*%
G36*
X2583697Y132694D02*
X2582112Y136766D01*
X2581866Y137410D01*
X2581621Y138133D01*
X2581385Y138860D01*
X2581306Y138614D01*
X2581034Y137784D01*
X2580658Y136749D01*
X2579081Y132694D01*
X2583697Y132694D01*
G37*
%LPD*%
G36*
X2620662Y127605D02*
X2620290Y127613D01*
X2619929Y127639D01*
X2619580Y127682D01*
X2619244Y127743D01*
X2618919Y127820D01*
X2618606Y127915D01*
X2618306Y128027D01*
X2618017Y128157D01*
X2617743Y128302D01*
X2617484Y128464D01*
X2617241Y128641D01*
X2617015Y128833D01*
X2616804Y129041D01*
X2616608Y129265D01*
X2616429Y129504D01*
X2616266Y129759D01*
X2616120Y130028D01*
X2615994Y130310D01*
X2615887Y130604D01*
X2615799Y130911D01*
X2615731Y131231D01*
X2615683Y131563D01*
X2615654Y131907D01*
X2615644Y132264D01*
X2615644Y140121D01*
X2617317Y140121D01*
X2617317Y132405D01*
X2617330Y131995D01*
X2617370Y131610D01*
X2617437Y131251D01*
X2617531Y130918D01*
X2617652Y130610D01*
X2617800Y130327D01*
X2617974Y130070D01*
X2618175Y129838D01*
X2618402Y129633D01*
X2618652Y129455D01*
X2618926Y129305D01*
X2619224Y129181D01*
X2619546Y129086D01*
X2619891Y129017D01*
X2620261Y128976D01*
X2620654Y128962D01*
X2621058Y128977D01*
X2621440Y129019D01*
X2621798Y129090D01*
X2622133Y129189D01*
X2622445Y129317D01*
X2622734Y129472D01*
X2622999Y129656D01*
X2623242Y129869D01*
X2623458Y130109D01*
X2623646Y130374D01*
X2623805Y130666D01*
X2623935Y130985D01*
X2624036Y131329D01*
X2624108Y131699D01*
X2624151Y132096D01*
X2624166Y132518D01*
X2624166Y140121D01*
X2625830Y140121D01*
X2625830Y132422D01*
X2625820Y132054D01*
X2625790Y131699D01*
X2625741Y131357D01*
X2625671Y131027D01*
X2625582Y130711D01*
X2625473Y130407D01*
X2625344Y130116D01*
X2625195Y129838D01*
X2625028Y129575D01*
X2624845Y129327D01*
X2624645Y129096D01*
X2624429Y128880D01*
X2624196Y128681D01*
X2623947Y128497D01*
X2623681Y128330D01*
X2623400Y128179D01*
X2623103Y128044D01*
X2622793Y127928D01*
X2622471Y127829D01*
X2622135Y127748D01*
X2621786Y127686D01*
X2621425Y127641D01*
X2621050Y127614D01*
X2620662Y127605D01*
G37*
G36*
X2633535Y127780D02*
X2631871Y127780D01*
X2631871Y138754D01*
X2627632Y138754D01*
X2627632Y140121D01*
X2637774Y140121D01*
X2637774Y138754D01*
X2633535Y138754D01*
X2633535Y127780D01*
G37*
G36*
X2657547Y127780D02*
X2649638Y127780D01*
X2649638Y140121D01*
X2651311Y140121D01*
X2651311Y129146D01*
X2657547Y129146D01*
X2657547Y127780D01*
G37*
G36*
X2664012Y129357D02*
X2662724Y129357D01*
X2662724Y133105D01*
X2659011Y133105D01*
X2659011Y134384D01*
X2662724Y134384D01*
X2662724Y138133D01*
X2664012Y138133D01*
X2664012Y134384D01*
X2667726Y134384D01*
X2667726Y133105D01*
X2664012Y133105D01*
X2664012Y129357D01*
G37*
G36*
X2648375Y124215D02*
X2637926Y124215D01*
X2637926Y125354D01*
X2648375Y125354D01*
X2648375Y124215D01*
G37*
G36*
X2607286Y77605D02*
X2606819Y77617D01*
X2606368Y77653D01*
X2605933Y77713D01*
X2605515Y77798D01*
X2605113Y77906D01*
X2604728Y78038D01*
X2604358Y78195D01*
X2604005Y78376D01*
X2603671Y78579D01*
X2603357Y78804D01*
X2603063Y79050D01*
X2602789Y79318D01*
X2602536Y79608D01*
X2602303Y79918D01*
X2602091Y80251D01*
X2601899Y80605D01*
X2601729Y80977D01*
X2601581Y81364D01*
X2601456Y81767D01*
X2601354Y82184D01*
X2601274Y82617D01*
X2601218Y83066D01*
X2601183Y83529D01*
X2601172Y84007D01*
X2601178Y84372D01*
X2601197Y84727D01*
X2601229Y85072D01*
X2601273Y85407D01*
X2601330Y85731D01*
X2601400Y86046D01*
X2601482Y86350D01*
X2601577Y86645D01*
X2601685Y86929D01*
X2601805Y87203D01*
X2601938Y87467D01*
X2602084Y87721D01*
X2602413Y88199D01*
X2602792Y88636D01*
X2603217Y89027D01*
X2603445Y89203D01*
X2603682Y89366D01*
X2603929Y89516D01*
X2604186Y89653D01*
X2604453Y89777D01*
X2604730Y89888D01*
X2605017Y89985D01*
X2605314Y90070D01*
X2605621Y90142D01*
X2605937Y90200D01*
X2606264Y90246D01*
X2606600Y90279D01*
X2606947Y90298D01*
X2607303Y90305D01*
X2607766Y90293D01*
X2608213Y90258D01*
X2608645Y90199D01*
X2609061Y90118D01*
X2609462Y90012D01*
X2609847Y89883D01*
X2610216Y89731D01*
X2610570Y89556D01*
X2610906Y89358D01*
X2611221Y89139D01*
X2611516Y88899D01*
X2611791Y88637D01*
X2612045Y88355D01*
X2612279Y88051D01*
X2612492Y87726D01*
X2612685Y87379D01*
X2612857Y87014D01*
X2613005Y86633D01*
X2613131Y86236D01*
X2613234Y85823D01*
X2613314Y85393D01*
X2613371Y84947D01*
X2613405Y84485D01*
X2613417Y84007D01*
X2613405Y83531D01*
X2613370Y83070D01*
X2613312Y82623D01*
X2613232Y82192D01*
X2613127Y81776D01*
X2613000Y81375D01*
X2612850Y80989D01*
X2612676Y80618D01*
X2612481Y80265D01*
X2612266Y79933D01*
X2612031Y79622D01*
X2611775Y79332D01*
X2611500Y79064D01*
X2611204Y78816D01*
X2610888Y78590D01*
X2610552Y78384D01*
X2610199Y78202D01*
X2609829Y78043D01*
X2609444Y77909D01*
X2609044Y77800D01*
X2608628Y77714D01*
X2608196Y77654D01*
X2607749Y77617D01*
X2607286Y77605D01*
G37*
%LPC*%
G36*
X2607286Y78962D02*
X2607804Y78983D01*
X2608292Y79045D01*
X2608749Y79148D01*
X2609174Y79292D01*
X2609569Y79477D01*
X2609932Y79704D01*
X2610264Y79972D01*
X2610566Y80281D01*
X2610834Y80627D01*
X2611066Y81008D01*
X2611262Y81423D01*
X2611423Y81871D01*
X2611548Y82354D01*
X2611637Y82871D01*
X2611691Y83422D01*
X2611709Y84007D01*
X2611691Y84568D01*
X2611637Y85097D01*
X2611547Y85596D01*
X2611421Y86063D01*
X2611259Y86500D01*
X2611061Y86906D01*
X2610827Y87281D01*
X2610557Y87625D01*
X2610254Y87933D01*
X2609922Y88199D01*
X2609559Y88425D01*
X2609168Y88610D01*
X2608746Y88754D01*
X2608295Y88856D01*
X2607814Y88918D01*
X2607303Y88938D01*
X2606788Y88918D01*
X2606303Y88857D01*
X2605849Y88756D01*
X2605424Y88614D01*
X2605030Y88432D01*
X2604666Y88209D01*
X2604331Y87946D01*
X2604027Y87642D01*
X2603756Y87302D01*
X2603522Y86929D01*
X2603323Y86523D01*
X2603160Y86085D01*
X2603034Y85615D01*
X2602943Y85111D01*
X2602889Y84576D01*
X2602871Y84007D01*
X2602890Y83442D01*
X2602944Y82907D01*
X2603036Y82401D01*
X2603164Y81926D01*
X2603328Y81481D01*
X2603529Y81065D01*
X2603766Y80680D01*
X2604041Y80324D01*
X2604347Y80005D01*
X2604682Y79729D01*
X2605045Y79494D01*
X2605436Y79303D01*
X2605856Y79154D01*
X2606304Y79048D01*
X2606781Y78984D01*
X2607286Y78962D01*
G37*
%LPD*%
G36*
X2593441Y77780D02*
X2588825Y77780D01*
X2588825Y90121D01*
X2592907Y90121D01*
X2593293Y90115D01*
X2593668Y90096D01*
X2594032Y90066D01*
X2594385Y90023D01*
X2594727Y89967D01*
X2595057Y89900D01*
X2595376Y89820D01*
X2595684Y89728D01*
X2595981Y89623D01*
X2596267Y89507D01*
X2596541Y89378D01*
X2596804Y89236D01*
X2597057Y89083D01*
X2597298Y88917D01*
X2597527Y88739D01*
X2597746Y88549D01*
X2597952Y88347D01*
X2598145Y88135D01*
X2598325Y87912D01*
X2598491Y87680D01*
X2598644Y87436D01*
X2598784Y87183D01*
X2598910Y86919D01*
X2599023Y86645D01*
X2599123Y86360D01*
X2599210Y86065D01*
X2599283Y85760D01*
X2599343Y85444D01*
X2599389Y85118D01*
X2599423Y84781D01*
X2599443Y84435D01*
X2599449Y84077D01*
X2599438Y83608D01*
X2599403Y83153D01*
X2599345Y82712D01*
X2599263Y82287D01*
X2599158Y81877D01*
X2599031Y81482D01*
X2598879Y81101D01*
X2598705Y80736D01*
X2598509Y80388D01*
X2598294Y80062D01*
X2598059Y79756D01*
X2597805Y79471D01*
X2597531Y79208D01*
X2597238Y78965D01*
X2596926Y78743D01*
X2596594Y78542D01*
X2596246Y78363D01*
X2595885Y78209D01*
X2595510Y78078D01*
X2595123Y77970D01*
X2594722Y77887D01*
X2594308Y77828D01*
X2593881Y77792D01*
X2593441Y77780D01*
G37*
%LPC*%
G36*
X2593248Y79120D02*
X2593583Y79129D01*
X2593907Y79157D01*
X2594220Y79204D01*
X2594524Y79269D01*
X2594817Y79353D01*
X2595100Y79455D01*
X2595373Y79576D01*
X2595635Y79716D01*
X2595885Y79873D01*
X2596120Y80046D01*
X2596340Y80236D01*
X2596545Y80443D01*
X2596735Y80665D01*
X2596910Y80905D01*
X2597070Y81160D01*
X2597216Y81432D01*
X2597345Y81719D01*
X2597457Y82018D01*
X2597552Y82330D01*
X2597630Y82654D01*
X2597690Y82991D01*
X2597733Y83341D01*
X2597759Y83703D01*
X2597768Y84077D01*
X2597748Y84634D01*
X2597689Y85157D01*
X2597591Y85645D01*
X2597453Y86100D01*
X2597277Y86520D01*
X2597061Y86906D01*
X2596805Y87258D01*
X2596511Y87576D01*
X2596179Y87859D01*
X2595812Y88103D01*
X2595410Y88310D01*
X2594973Y88480D01*
X2594500Y88611D01*
X2593992Y88705D01*
X2593450Y88762D01*
X2592872Y88781D01*
X2590498Y88781D01*
X2590498Y79120D01*
X2593248Y79120D01*
G37*
%LPD*%
G36*
X2567904Y77780D02*
X2566231Y77780D01*
X2566231Y90121D01*
X2571425Y90121D01*
X2571930Y90106D01*
X2572405Y90060D01*
X2572850Y89984D01*
X2573267Y89878D01*
X2573654Y89741D01*
X2574012Y89574D01*
X2574340Y89376D01*
X2574640Y89149D01*
X2574907Y88893D01*
X2575138Y88613D01*
X2575333Y88307D01*
X2575494Y87977D01*
X2575618Y87622D01*
X2575707Y87242D01*
X2575760Y86837D01*
X2575778Y86407D01*
X2575760Y85980D01*
X2575707Y85576D01*
X2575618Y85194D01*
X2575493Y84835D01*
X2575332Y84498D01*
X2575135Y84184D01*
X2574903Y83892D01*
X2574635Y83622D01*
X2574337Y83380D01*
X2574013Y83170D01*
X2573663Y82992D01*
X2573288Y82847D01*
X2572887Y82734D01*
X2572460Y82653D01*
X2572008Y82605D01*
X2571530Y82588D01*
X2567904Y82588D01*
X2567904Y77780D01*
G37*
%LPC*%
G36*
X2571294Y83911D02*
X2571633Y83921D01*
X2571951Y83950D01*
X2572246Y83998D01*
X2572520Y84066D01*
X2572772Y84153D01*
X2573002Y84260D01*
X2573210Y84385D01*
X2573396Y84531D01*
X2573560Y84695D01*
X2573702Y84879D01*
X2573823Y85083D01*
X2573921Y85305D01*
X2573998Y85547D01*
X2574053Y85809D01*
X2574086Y86089D01*
X2574097Y86390D01*
X2574085Y86679D01*
X2574052Y86950D01*
X2573996Y87202D01*
X2573917Y87436D01*
X2573816Y87651D01*
X2573693Y87847D01*
X2573547Y88024D01*
X2573378Y88183D01*
X2573188Y88323D01*
X2572974Y88444D01*
X2572739Y88547D01*
X2572481Y88631D01*
X2572200Y88697D01*
X2571897Y88743D01*
X2571572Y88771D01*
X2571224Y88781D01*
X2567904Y88781D01*
X2567904Y83911D01*
X2571294Y83911D01*
G37*
%LPD*%
G36*
X2577154Y77780D02*
X2575420Y77780D01*
X2580456Y90121D01*
X2582357Y90121D01*
X2587314Y77780D01*
X2585606Y77780D01*
X2584196Y81389D01*
X2578573Y81389D01*
X2577154Y77780D01*
G37*
%LPC*%
G36*
X2583697Y82694D02*
X2582112Y86766D01*
X2581866Y87410D01*
X2581621Y88133D01*
X2581385Y88860D01*
X2581306Y88614D01*
X2581034Y87784D01*
X2580658Y86749D01*
X2579081Y82694D01*
X2583697Y82694D01*
G37*
%LPD*%
G36*
X2620662Y77605D02*
X2620290Y77613D01*
X2619929Y77639D01*
X2619580Y77682D01*
X2619244Y77743D01*
X2618919Y77820D01*
X2618606Y77915D01*
X2618306Y78027D01*
X2618017Y78157D01*
X2617743Y78302D01*
X2617484Y78464D01*
X2617241Y78641D01*
X2617015Y78833D01*
X2616804Y79041D01*
X2616608Y79265D01*
X2616429Y79504D01*
X2616266Y79759D01*
X2616120Y80028D01*
X2615994Y80310D01*
X2615887Y80604D01*
X2615799Y80911D01*
X2615731Y81231D01*
X2615683Y81563D01*
X2615654Y81907D01*
X2615644Y82264D01*
X2615644Y90121D01*
X2617317Y90121D01*
X2617317Y82405D01*
X2617330Y81995D01*
X2617370Y81610D01*
X2617437Y81251D01*
X2617531Y80918D01*
X2617652Y80610D01*
X2617800Y80327D01*
X2617974Y80070D01*
X2618175Y79838D01*
X2618402Y79633D01*
X2618652Y79455D01*
X2618926Y79305D01*
X2619224Y79181D01*
X2619546Y79086D01*
X2619891Y79017D01*
X2620261Y78976D01*
X2620654Y78962D01*
X2621058Y78977D01*
X2621440Y79019D01*
X2621798Y79090D01*
X2622133Y79189D01*
X2622445Y79317D01*
X2622734Y79472D01*
X2622999Y79656D01*
X2623242Y79869D01*
X2623458Y80109D01*
X2623646Y80374D01*
X2623805Y80666D01*
X2623935Y80985D01*
X2624036Y81329D01*
X2624108Y81699D01*
X2624151Y82096D01*
X2624166Y82518D01*
X2624166Y90121D01*
X2625830Y90121D01*
X2625830Y82422D01*
X2625820Y82054D01*
X2625790Y81699D01*
X2625741Y81357D01*
X2625671Y81027D01*
X2625582Y80711D01*
X2625473Y80407D01*
X2625344Y80116D01*
X2625195Y79838D01*
X2625028Y79575D01*
X2624845Y79327D01*
X2624645Y79096D01*
X2624429Y78880D01*
X2624196Y78681D01*
X2623947Y78497D01*
X2623681Y78330D01*
X2623400Y78179D01*
X2623103Y78044D01*
X2622793Y77928D01*
X2622471Y77829D01*
X2622135Y77748D01*
X2621786Y77686D01*
X2621425Y77641D01*
X2621050Y77614D01*
X2620662Y77605D01*
G37*
G36*
X2633535Y77780D02*
X2631871Y77780D01*
X2631871Y88754D01*
X2627632Y88754D01*
X2627632Y90121D01*
X2637774Y90121D01*
X2637774Y88754D01*
X2633535Y88754D01*
X2633535Y77780D01*
G37*
G36*
X2657547Y77780D02*
X2649638Y77780D01*
X2649638Y90121D01*
X2651311Y90121D01*
X2651311Y79146D01*
X2657547Y79146D01*
X2657547Y77780D01*
G37*
G36*
X2648375Y74215D02*
X2637926Y74215D01*
X2637926Y75354D01*
X2648375Y75354D01*
X2648375Y74215D01*
G37*
G36*
X2663311Y81844D02*
X2658932Y81844D01*
X2658932Y83245D01*
X2663311Y83245D01*
X2663311Y81844D01*
G37*
G36*
X267286Y127605D02*
X266819Y127617D01*
X266368Y127653D01*
X265933Y127713D01*
X265515Y127798D01*
X265113Y127906D01*
X264728Y128038D01*
X264358Y128195D01*
X264005Y128376D01*
X263671Y128579D01*
X263357Y128804D01*
X263063Y129050D01*
X262789Y129318D01*
X262536Y129608D01*
X262303Y129918D01*
X262091Y130251D01*
X261899Y130605D01*
X261729Y130977D01*
X261581Y131364D01*
X261456Y131767D01*
X261354Y132184D01*
X261274Y132617D01*
X261218Y133066D01*
X261183Y133529D01*
X261172Y134007D01*
X261178Y134372D01*
X261197Y134727D01*
X261229Y135072D01*
X261273Y135407D01*
X261330Y135731D01*
X261400Y136046D01*
X261482Y136350D01*
X261577Y136645D01*
X261685Y136929D01*
X261805Y137203D01*
X261938Y137467D01*
X262084Y137721D01*
X262413Y138199D01*
X262792Y138636D01*
X263217Y139027D01*
X263445Y139203D01*
X263682Y139366D01*
X263929Y139516D01*
X264186Y139653D01*
X264453Y139777D01*
X264730Y139888D01*
X265017Y139985D01*
X265314Y140070D01*
X265621Y140142D01*
X265937Y140200D01*
X266264Y140246D01*
X266600Y140279D01*
X266947Y140298D01*
X267303Y140305D01*
X267766Y140293D01*
X268213Y140258D01*
X268645Y140199D01*
X269061Y140118D01*
X269462Y140012D01*
X269847Y139883D01*
X270216Y139731D01*
X270570Y139556D01*
X270906Y139358D01*
X271221Y139139D01*
X271516Y138899D01*
X271791Y138637D01*
X272045Y138355D01*
X272279Y138051D01*
X272492Y137726D01*
X272685Y137379D01*
X272857Y137014D01*
X273005Y136633D01*
X273131Y136236D01*
X273234Y135823D01*
X273314Y135393D01*
X273371Y134947D01*
X273405Y134485D01*
X273417Y134007D01*
X273405Y133531D01*
X273370Y133070D01*
X273312Y132623D01*
X273232Y132192D01*
X273127Y131776D01*
X273000Y131375D01*
X272850Y130989D01*
X272676Y130618D01*
X272481Y130265D01*
X272266Y129933D01*
X272031Y129622D01*
X271775Y129332D01*
X271500Y129064D01*
X271204Y128816D01*
X270888Y128590D01*
X270552Y128384D01*
X270199Y128202D01*
X269829Y128043D01*
X269444Y127909D01*
X269044Y127800D01*
X268628Y127714D01*
X268196Y127654D01*
X267749Y127617D01*
X267286Y127605D01*
G37*
%LPC*%
G36*
X267286Y128962D02*
X267804Y128983D01*
X268292Y129045D01*
X268749Y129148D01*
X269174Y129292D01*
X269569Y129477D01*
X269932Y129704D01*
X270264Y129972D01*
X270566Y130281D01*
X270834Y130627D01*
X271066Y131008D01*
X271262Y131423D01*
X271423Y131871D01*
X271548Y132354D01*
X271637Y132871D01*
X271691Y133422D01*
X271709Y134007D01*
X271691Y134568D01*
X271637Y135097D01*
X271547Y135596D01*
X271421Y136063D01*
X271259Y136500D01*
X271061Y136906D01*
X270827Y137281D01*
X270557Y137625D01*
X270254Y137933D01*
X269922Y138199D01*
X269559Y138425D01*
X269168Y138610D01*
X268746Y138754D01*
X268295Y138856D01*
X267814Y138918D01*
X267303Y138938D01*
X266788Y138918D01*
X266303Y138857D01*
X265849Y138756D01*
X265424Y138614D01*
X265030Y138432D01*
X264666Y138209D01*
X264331Y137946D01*
X264027Y137642D01*
X263756Y137302D01*
X263522Y136929D01*
X263323Y136523D01*
X263160Y136085D01*
X263034Y135615D01*
X262943Y135111D01*
X262889Y134576D01*
X262871Y134007D01*
X262890Y133442D01*
X262944Y132907D01*
X263036Y132401D01*
X263164Y131926D01*
X263328Y131481D01*
X263529Y131065D01*
X263766Y130680D01*
X264041Y130324D01*
X264347Y130005D01*
X264682Y129729D01*
X265045Y129494D01*
X265436Y129303D01*
X265856Y129154D01*
X266304Y129048D01*
X266781Y128984D01*
X267286Y128962D01*
G37*
%LPD*%
G36*
X253441Y127780D02*
X248825Y127780D01*
X248825Y140121D01*
X252907Y140121D01*
X253293Y140115D01*
X253668Y140096D01*
X254032Y140066D01*
X254385Y140023D01*
X254727Y139967D01*
X255057Y139900D01*
X255376Y139820D01*
X255684Y139728D01*
X255981Y139623D01*
X256267Y139507D01*
X256541Y139378D01*
X256804Y139236D01*
X257057Y139083D01*
X257298Y138917D01*
X257527Y138739D01*
X257746Y138549D01*
X257952Y138347D01*
X258145Y138135D01*
X258325Y137912D01*
X258491Y137680D01*
X258644Y137436D01*
X258784Y137183D01*
X258910Y136919D01*
X259023Y136645D01*
X259123Y136360D01*
X259210Y136065D01*
X259283Y135760D01*
X259343Y135444D01*
X259389Y135118D01*
X259423Y134781D01*
X259443Y134435D01*
X259449Y134077D01*
X259438Y133608D01*
X259403Y133153D01*
X259345Y132712D01*
X259263Y132287D01*
X259158Y131877D01*
X259031Y131482D01*
X258879Y131101D01*
X258705Y130736D01*
X258509Y130388D01*
X258294Y130062D01*
X258059Y129756D01*
X257805Y129471D01*
X257531Y129208D01*
X257238Y128965D01*
X256926Y128743D01*
X256594Y128542D01*
X256246Y128363D01*
X255885Y128209D01*
X255510Y128078D01*
X255123Y127970D01*
X254722Y127887D01*
X254308Y127828D01*
X253881Y127792D01*
X253441Y127780D01*
G37*
%LPC*%
G36*
X253248Y129120D02*
X253583Y129129D01*
X253907Y129157D01*
X254220Y129204D01*
X254524Y129269D01*
X254817Y129353D01*
X255100Y129455D01*
X255373Y129576D01*
X255635Y129716D01*
X255885Y129873D01*
X256120Y130046D01*
X256340Y130236D01*
X256545Y130443D01*
X256735Y130665D01*
X256910Y130905D01*
X257070Y131160D01*
X257216Y131432D01*
X257345Y131719D01*
X257457Y132018D01*
X257552Y132330D01*
X257630Y132654D01*
X257690Y132991D01*
X257733Y133341D01*
X257759Y133703D01*
X257768Y134077D01*
X257748Y134634D01*
X257689Y135157D01*
X257591Y135645D01*
X257453Y136100D01*
X257277Y136520D01*
X257061Y136906D01*
X256805Y137258D01*
X256511Y137576D01*
X256179Y137859D01*
X255812Y138103D01*
X255410Y138310D01*
X254973Y138480D01*
X254500Y138611D01*
X253992Y138705D01*
X253450Y138762D01*
X252872Y138781D01*
X250498Y138781D01*
X250498Y129120D01*
X253248Y129120D01*
G37*
%LPD*%
G36*
X311311Y127780D02*
X309638Y127780D01*
X309638Y140121D01*
X315445Y140121D01*
X315951Y140106D01*
X316427Y140062D01*
X316874Y139990D01*
X317292Y139888D01*
X317679Y139756D01*
X318037Y139596D01*
X318365Y139407D01*
X318663Y139188D01*
X318929Y138943D01*
X319160Y138676D01*
X319355Y138386D01*
X319514Y138072D01*
X319638Y137736D01*
X319727Y137377D01*
X319780Y136996D01*
X319798Y136591D01*
X319785Y136254D01*
X319748Y135931D01*
X319685Y135621D01*
X319597Y135325D01*
X319485Y135043D01*
X319347Y134775D01*
X319184Y134520D01*
X318996Y134279D01*
X318786Y134055D01*
X318557Y133854D01*
X318310Y133673D01*
X318199Y133607D01*
X318043Y133515D01*
X317757Y133378D01*
X317452Y133262D01*
X317128Y133169D01*
X316785Y133096D01*
X318276Y130833D01*
X320288Y127780D01*
X318361Y127780D01*
X315156Y132904D01*
X311311Y132904D01*
X311311Y127780D01*
G37*
%LPC*%
G36*
X315348Y134226D02*
X315670Y134236D01*
X315972Y134265D01*
X316256Y134313D01*
X316521Y134381D01*
X316767Y134467D01*
X316995Y134574D01*
X317203Y134699D01*
X317393Y134844D01*
X317563Y135006D01*
X317710Y135183D01*
X317834Y135376D01*
X317935Y135585D01*
X318014Y135809D01*
X318071Y136048D01*
X318105Y136303D01*
X318116Y136574D01*
X318105Y136835D01*
X318070Y137080D01*
X318013Y137310D01*
X317933Y137523D01*
X317830Y137720D01*
X317705Y137901D01*
X317556Y138067D01*
X317385Y138216D01*
X317192Y138348D01*
X316979Y138463D01*
X316746Y138560D01*
X316492Y138640D01*
X316219Y138701D01*
X315925Y138745D01*
X315612Y138772D01*
X315278Y138781D01*
X311311Y138781D01*
X311311Y134226D01*
X315348Y134226D01*
G37*
%LPD*%
G36*
X227904Y127780D02*
X226231Y127780D01*
X226231Y140121D01*
X231425Y140121D01*
X231930Y140106D01*
X232405Y140060D01*
X232850Y139984D01*
X233267Y139878D01*
X233654Y139741D01*
X234012Y139574D01*
X234340Y139376D01*
X234640Y139149D01*
X234907Y138893D01*
X235138Y138613D01*
X235333Y138307D01*
X235494Y137977D01*
X235618Y137622D01*
X235707Y137242D01*
X235760Y136837D01*
X235778Y136407D01*
X235760Y135980D01*
X235707Y135576D01*
X235618Y135194D01*
X235493Y134835D01*
X235332Y134498D01*
X235135Y134184D01*
X234903Y133892D01*
X234635Y133622D01*
X234337Y133380D01*
X234013Y133170D01*
X233663Y132992D01*
X233288Y132847D01*
X232887Y132734D01*
X232460Y132653D01*
X232008Y132605D01*
X231530Y132588D01*
X227904Y132588D01*
X227904Y127780D01*
G37*
%LPC*%
G36*
X231294Y133911D02*
X231633Y133921D01*
X231951Y133950D01*
X232246Y133998D01*
X232520Y134066D01*
X232772Y134153D01*
X233002Y134260D01*
X233210Y134385D01*
X233396Y134531D01*
X233560Y134695D01*
X233702Y134879D01*
X233823Y135083D01*
X233921Y135305D01*
X233998Y135547D01*
X234053Y135809D01*
X234086Y136089D01*
X234097Y136390D01*
X234085Y136679D01*
X234052Y136950D01*
X233996Y137202D01*
X233917Y137436D01*
X233816Y137651D01*
X233693Y137847D01*
X233547Y138024D01*
X233378Y138183D01*
X233188Y138323D01*
X232974Y138444D01*
X232739Y138547D01*
X232481Y138631D01*
X232200Y138697D01*
X231897Y138743D01*
X231572Y138771D01*
X231224Y138781D01*
X227904Y138781D01*
X227904Y133911D01*
X231294Y133911D01*
G37*
%LPD*%
G36*
X237154Y127780D02*
X235420Y127780D01*
X240456Y140121D01*
X242357Y140121D01*
X247314Y127780D01*
X245606Y127780D01*
X244196Y131389D01*
X238573Y131389D01*
X237154Y127780D01*
G37*
%LPC*%
G36*
X243697Y132694D02*
X242112Y136766D01*
X241866Y137410D01*
X241621Y138133D01*
X241385Y138860D01*
X241306Y138614D01*
X241034Y137784D01*
X240658Y136749D01*
X239081Y132694D01*
X243697Y132694D01*
G37*
%LPD*%
G36*
X280662Y127605D02*
X280290Y127613D01*
X279929Y127639D01*
X279580Y127682D01*
X279244Y127743D01*
X278919Y127820D01*
X278606Y127915D01*
X278306Y128027D01*
X278017Y128157D01*
X277743Y128302D01*
X277484Y128464D01*
X277241Y128641D01*
X277015Y128833D01*
X276804Y129041D01*
X276608Y129265D01*
X276429Y129504D01*
X276266Y129759D01*
X276120Y130028D01*
X275994Y130310D01*
X275887Y130604D01*
X275799Y130911D01*
X275731Y131231D01*
X275683Y131563D01*
X275654Y131907D01*
X275644Y132264D01*
X275644Y140121D01*
X277317Y140121D01*
X277317Y132405D01*
X277330Y131995D01*
X277370Y131610D01*
X277437Y131251D01*
X277531Y130918D01*
X277652Y130610D01*
X277800Y130327D01*
X277974Y130070D01*
X278175Y129838D01*
X278402Y129633D01*
X278652Y129455D01*
X278926Y129305D01*
X279224Y129181D01*
X279546Y129086D01*
X279891Y129017D01*
X280261Y128976D01*
X280654Y128962D01*
X281058Y128977D01*
X281440Y129019D01*
X281798Y129090D01*
X282133Y129189D01*
X282445Y129317D01*
X282734Y129472D01*
X282999Y129656D01*
X283242Y129869D01*
X283458Y130109D01*
X283646Y130374D01*
X283805Y130666D01*
X283935Y130985D01*
X284036Y131329D01*
X284108Y131699D01*
X284151Y132096D01*
X284166Y132518D01*
X284166Y140121D01*
X285830Y140121D01*
X285830Y132422D01*
X285820Y132054D01*
X285790Y131699D01*
X285741Y131357D01*
X285671Y131027D01*
X285582Y130711D01*
X285473Y130407D01*
X285344Y130116D01*
X285195Y129838D01*
X285028Y129575D01*
X284845Y129327D01*
X284645Y129096D01*
X284429Y128880D01*
X284196Y128681D01*
X283947Y128497D01*
X283681Y128330D01*
X283400Y128179D01*
X283103Y128044D01*
X282793Y127928D01*
X282471Y127829D01*
X282135Y127748D01*
X281786Y127686D01*
X281425Y127641D01*
X281050Y127614D01*
X280662Y127605D01*
G37*
G36*
X293535Y127780D02*
X291871Y127780D01*
X291871Y138754D01*
X287632Y138754D01*
X287632Y140121D01*
X297774Y140121D01*
X297774Y138754D01*
X293535Y138754D01*
X293535Y127780D01*
G37*
G36*
X327012Y129357D02*
X325724Y129357D01*
X325724Y133105D01*
X322011Y133105D01*
X322011Y134384D01*
X325724Y134384D01*
X325724Y138133D01*
X327012Y138133D01*
X327012Y134384D01*
X330726Y134384D01*
X330726Y133105D01*
X327012Y133105D01*
X327012Y129357D01*
G37*
G36*
X308375Y124215D02*
X297926Y124215D01*
X297926Y125354D01*
X308375Y125354D01*
X308375Y124215D01*
G37*
G36*
X267286Y77605D02*
X266819Y77617D01*
X266368Y77653D01*
X265933Y77713D01*
X265515Y77798D01*
X265113Y77906D01*
X264728Y78038D01*
X264358Y78195D01*
X264005Y78376D01*
X263671Y78579D01*
X263357Y78804D01*
X263063Y79050D01*
X262789Y79318D01*
X262536Y79608D01*
X262303Y79918D01*
X262091Y80251D01*
X261899Y80605D01*
X261729Y80977D01*
X261581Y81364D01*
X261456Y81767D01*
X261354Y82184D01*
X261274Y82617D01*
X261218Y83066D01*
X261183Y83529D01*
X261172Y84007D01*
X261178Y84372D01*
X261197Y84727D01*
X261229Y85072D01*
X261273Y85407D01*
X261330Y85731D01*
X261400Y86046D01*
X261482Y86350D01*
X261577Y86645D01*
X261685Y86929D01*
X261805Y87203D01*
X261938Y87467D01*
X262084Y87721D01*
X262413Y88199D01*
X262792Y88636D01*
X263217Y89027D01*
X263445Y89203D01*
X263682Y89366D01*
X263929Y89516D01*
X264186Y89653D01*
X264453Y89777D01*
X264730Y89888D01*
X265017Y89985D01*
X265314Y90070D01*
X265621Y90142D01*
X265937Y90200D01*
X266264Y90246D01*
X266600Y90279D01*
X266947Y90298D01*
X267303Y90305D01*
X267766Y90293D01*
X268213Y90258D01*
X268645Y90199D01*
X269061Y90118D01*
X269462Y90012D01*
X269847Y89883D01*
X270216Y89731D01*
X270570Y89556D01*
X270906Y89358D01*
X271221Y89139D01*
X271516Y88899D01*
X271791Y88637D01*
X272045Y88355D01*
X272279Y88051D01*
X272492Y87726D01*
X272685Y87379D01*
X272857Y87014D01*
X273005Y86633D01*
X273131Y86236D01*
X273234Y85823D01*
X273314Y85393D01*
X273371Y84947D01*
X273405Y84485D01*
X273417Y84007D01*
X273405Y83531D01*
X273370Y83070D01*
X273312Y82623D01*
X273232Y82192D01*
X273127Y81776D01*
X273000Y81375D01*
X272850Y80989D01*
X272676Y80618D01*
X272481Y80265D01*
X272266Y79933D01*
X272031Y79622D01*
X271775Y79332D01*
X271500Y79064D01*
X271204Y78816D01*
X270888Y78590D01*
X270552Y78384D01*
X270199Y78202D01*
X269829Y78043D01*
X269444Y77909D01*
X269044Y77800D01*
X268628Y77714D01*
X268196Y77654D01*
X267749Y77617D01*
X267286Y77605D01*
G37*
%LPC*%
G36*
X267286Y78962D02*
X267804Y78983D01*
X268292Y79045D01*
X268749Y79148D01*
X269174Y79292D01*
X269569Y79477D01*
X269932Y79704D01*
X270264Y79972D01*
X270566Y80281D01*
X270834Y80627D01*
X271066Y81008D01*
X271262Y81423D01*
X271423Y81871D01*
X271548Y82354D01*
X271637Y82871D01*
X271691Y83422D01*
X271709Y84007D01*
X271691Y84568D01*
X271637Y85097D01*
X271547Y85596D01*
X271421Y86063D01*
X271259Y86500D01*
X271061Y86906D01*
X270827Y87281D01*
X270557Y87625D01*
X270254Y87933D01*
X269922Y88199D01*
X269559Y88425D01*
X269168Y88610D01*
X268746Y88754D01*
X268295Y88856D01*
X267814Y88918D01*
X267303Y88938D01*
X266788Y88918D01*
X266303Y88857D01*
X265849Y88756D01*
X265424Y88614D01*
X265030Y88432D01*
X264666Y88209D01*
X264331Y87946D01*
X264027Y87642D01*
X263756Y87302D01*
X263522Y86929D01*
X263323Y86523D01*
X263160Y86085D01*
X263034Y85615D01*
X262943Y85111D01*
X262889Y84576D01*
X262871Y84007D01*
X262890Y83442D01*
X262944Y82907D01*
X263036Y82401D01*
X263164Y81926D01*
X263328Y81481D01*
X263529Y81065D01*
X263766Y80680D01*
X264041Y80324D01*
X264347Y80005D01*
X264682Y79729D01*
X265045Y79494D01*
X265436Y79303D01*
X265856Y79154D01*
X266304Y79048D01*
X266781Y78984D01*
X267286Y78962D01*
G37*
%LPD*%
G36*
X253441Y77780D02*
X248825Y77780D01*
X248825Y90121D01*
X252907Y90121D01*
X253293Y90115D01*
X253668Y90096D01*
X254032Y90066D01*
X254385Y90023D01*
X254727Y89967D01*
X255057Y89900D01*
X255376Y89820D01*
X255684Y89728D01*
X255981Y89623D01*
X256267Y89507D01*
X256541Y89378D01*
X256804Y89236D01*
X257057Y89083D01*
X257298Y88917D01*
X257527Y88739D01*
X257746Y88549D01*
X257952Y88347D01*
X258145Y88135D01*
X258325Y87912D01*
X258491Y87680D01*
X258644Y87436D01*
X258784Y87183D01*
X258910Y86919D01*
X259023Y86645D01*
X259123Y86360D01*
X259210Y86065D01*
X259283Y85760D01*
X259343Y85444D01*
X259389Y85118D01*
X259423Y84781D01*
X259443Y84435D01*
X259449Y84077D01*
X259438Y83608D01*
X259403Y83153D01*
X259345Y82712D01*
X259263Y82287D01*
X259158Y81877D01*
X259031Y81482D01*
X258879Y81101D01*
X258705Y80736D01*
X258509Y80388D01*
X258294Y80062D01*
X258059Y79756D01*
X257805Y79471D01*
X257531Y79208D01*
X257238Y78965D01*
X256926Y78743D01*
X256594Y78542D01*
X256246Y78363D01*
X255885Y78209D01*
X255510Y78078D01*
X255123Y77970D01*
X254722Y77887D01*
X254308Y77828D01*
X253881Y77792D01*
X253441Y77780D01*
G37*
%LPC*%
G36*
X253248Y79120D02*
X253583Y79129D01*
X253907Y79157D01*
X254220Y79204D01*
X254524Y79269D01*
X254817Y79353D01*
X255100Y79455D01*
X255373Y79576D01*
X255635Y79716D01*
X255885Y79873D01*
X256120Y80046D01*
X256340Y80236D01*
X256545Y80443D01*
X256735Y80665D01*
X256910Y80905D01*
X257070Y81160D01*
X257216Y81432D01*
X257345Y81719D01*
X257457Y82018D01*
X257552Y82330D01*
X257630Y82654D01*
X257690Y82991D01*
X257733Y83341D01*
X257759Y83703D01*
X257768Y84077D01*
X257748Y84634D01*
X257689Y85157D01*
X257591Y85645D01*
X257453Y86100D01*
X257277Y86520D01*
X257061Y86906D01*
X256805Y87258D01*
X256511Y87576D01*
X256179Y87859D01*
X255812Y88103D01*
X255410Y88310D01*
X254973Y88480D01*
X254500Y88611D01*
X253992Y88705D01*
X253450Y88762D01*
X252872Y88781D01*
X250498Y88781D01*
X250498Y79120D01*
X253248Y79120D01*
G37*
%LPD*%
G36*
X311311Y77780D02*
X309638Y77780D01*
X309638Y90121D01*
X315445Y90121D01*
X315951Y90106D01*
X316427Y90062D01*
X316874Y89990D01*
X317292Y89888D01*
X317679Y89756D01*
X318037Y89596D01*
X318365Y89407D01*
X318663Y89188D01*
X318929Y88943D01*
X319160Y88676D01*
X319355Y88386D01*
X319514Y88072D01*
X319638Y87736D01*
X319727Y87377D01*
X319780Y86996D01*
X319798Y86591D01*
X319785Y86254D01*
X319748Y85931D01*
X319685Y85621D01*
X319597Y85325D01*
X319485Y85043D01*
X319347Y84775D01*
X319184Y84520D01*
X318996Y84279D01*
X318786Y84055D01*
X318557Y83854D01*
X318310Y83673D01*
X318199Y83607D01*
X318043Y83515D01*
X317757Y83378D01*
X317452Y83262D01*
X317128Y83169D01*
X316785Y83096D01*
X318276Y80833D01*
X320288Y77780D01*
X318361Y77780D01*
X315156Y82904D01*
X311311Y82904D01*
X311311Y77780D01*
G37*
%LPC*%
G36*
X315348Y84226D02*
X315670Y84236D01*
X315972Y84265D01*
X316256Y84313D01*
X316521Y84381D01*
X316767Y84467D01*
X316995Y84574D01*
X317203Y84699D01*
X317393Y84844D01*
X317563Y85006D01*
X317710Y85183D01*
X317834Y85376D01*
X317935Y85585D01*
X318014Y85809D01*
X318071Y86048D01*
X318105Y86303D01*
X318116Y86574D01*
X318105Y86835D01*
X318070Y87080D01*
X318013Y87310D01*
X317933Y87523D01*
X317830Y87720D01*
X317705Y87901D01*
X317556Y88067D01*
X317385Y88216D01*
X317192Y88348D01*
X316979Y88463D01*
X316746Y88560D01*
X316492Y88640D01*
X316219Y88701D01*
X315925Y88745D01*
X315612Y88772D01*
X315278Y88781D01*
X311311Y88781D01*
X311311Y84226D01*
X315348Y84226D01*
G37*
%LPD*%
G36*
X227904Y77780D02*
X226231Y77780D01*
X226231Y90121D01*
X231425Y90121D01*
X231930Y90106D01*
X232405Y90060D01*
X232850Y89984D01*
X233267Y89878D01*
X233654Y89741D01*
X234012Y89574D01*
X234340Y89376D01*
X234640Y89149D01*
X234907Y88893D01*
X235138Y88613D01*
X235333Y88307D01*
X235494Y87977D01*
X235618Y87622D01*
X235707Y87242D01*
X235760Y86837D01*
X235778Y86407D01*
X235760Y85980D01*
X235707Y85576D01*
X235618Y85194D01*
X235493Y84835D01*
X235332Y84498D01*
X235135Y84184D01*
X234903Y83892D01*
X234635Y83622D01*
X234337Y83380D01*
X234013Y83170D01*
X233663Y82992D01*
X233288Y82847D01*
X232887Y82734D01*
X232460Y82653D01*
X232008Y82605D01*
X231530Y82588D01*
X227904Y82588D01*
X227904Y77780D01*
G37*
%LPC*%
G36*
X231294Y83911D02*
X231633Y83921D01*
X231951Y83950D01*
X232246Y83998D01*
X232520Y84066D01*
X232772Y84153D01*
X233002Y84260D01*
X233210Y84385D01*
X233396Y84531D01*
X233560Y84695D01*
X233702Y84879D01*
X233823Y85083D01*
X233921Y85305D01*
X233998Y85547D01*
X234053Y85809D01*
X234086Y86089D01*
X234097Y86390D01*
X234085Y86679D01*
X234052Y86950D01*
X233996Y87202D01*
X233917Y87436D01*
X233816Y87651D01*
X233693Y87847D01*
X233547Y88024D01*
X233378Y88183D01*
X233188Y88323D01*
X232974Y88444D01*
X232739Y88547D01*
X232481Y88631D01*
X232200Y88697D01*
X231897Y88743D01*
X231572Y88771D01*
X231224Y88781D01*
X227904Y88781D01*
X227904Y83911D01*
X231294Y83911D01*
G37*
%LPD*%
G36*
X237154Y77780D02*
X235420Y77780D01*
X240456Y90121D01*
X242357Y90121D01*
X247314Y77780D01*
X245606Y77780D01*
X244196Y81389D01*
X238573Y81389D01*
X237154Y77780D01*
G37*
%LPC*%
G36*
X243697Y82694D02*
X242112Y86766D01*
X241866Y87410D01*
X241621Y88133D01*
X241385Y88860D01*
X241306Y88614D01*
X241034Y87784D01*
X240658Y86749D01*
X239081Y82694D01*
X243697Y82694D01*
G37*
%LPD*%
G36*
X280662Y77605D02*
X280290Y77613D01*
X279929Y77639D01*
X279580Y77682D01*
X279244Y77743D01*
X278919Y77820D01*
X278606Y77915D01*
X278306Y78027D01*
X278017Y78157D01*
X277743Y78302D01*
X277484Y78464D01*
X277241Y78641D01*
X277015Y78833D01*
X276804Y79041D01*
X276608Y79265D01*
X276429Y79504D01*
X276266Y79759D01*
X276120Y80028D01*
X275994Y80310D01*
X275887Y80604D01*
X275799Y80911D01*
X275731Y81231D01*
X275683Y81563D01*
X275654Y81907D01*
X275644Y82264D01*
X275644Y90121D01*
X277317Y90121D01*
X277317Y82405D01*
X277330Y81995D01*
X277370Y81610D01*
X277437Y81251D01*
X277531Y80918D01*
X277652Y80610D01*
X277800Y80327D01*
X277974Y80070D01*
X278175Y79838D01*
X278402Y79633D01*
X278652Y79455D01*
X278926Y79305D01*
X279224Y79181D01*
X279546Y79086D01*
X279891Y79017D01*
X280261Y78976D01*
X280654Y78962D01*
X281058Y78977D01*
X281440Y79019D01*
X281798Y79090D01*
X282133Y79189D01*
X282445Y79317D01*
X282734Y79472D01*
X282999Y79656D01*
X283242Y79869D01*
X283458Y80109D01*
X283646Y80374D01*
X283805Y80666D01*
X283935Y80985D01*
X284036Y81329D01*
X284108Y81699D01*
X284151Y82096D01*
X284166Y82518D01*
X284166Y90121D01*
X285830Y90121D01*
X285830Y82422D01*
X285820Y82054D01*
X285790Y81699D01*
X285741Y81357D01*
X285671Y81027D01*
X285582Y80711D01*
X285473Y80407D01*
X285344Y80116D01*
X285195Y79838D01*
X285028Y79575D01*
X284845Y79327D01*
X284645Y79096D01*
X284429Y78880D01*
X284196Y78681D01*
X283947Y78497D01*
X283681Y78330D01*
X283400Y78179D01*
X283103Y78044D01*
X282793Y77928D01*
X282471Y77829D01*
X282135Y77748D01*
X281786Y77686D01*
X281425Y77641D01*
X281050Y77614D01*
X280662Y77605D01*
G37*
G36*
X293535Y77780D02*
X291871Y77780D01*
X291871Y88754D01*
X287632Y88754D01*
X287632Y90121D01*
X297774Y90121D01*
X297774Y88754D01*
X293535Y88754D01*
X293535Y77780D01*
G37*
G36*
X308375Y74215D02*
X297926Y74215D01*
X297926Y75354D01*
X308375Y75354D01*
X308375Y74215D01*
G37*
G36*
X326311Y81844D02*
X321932Y81844D01*
X321932Y83245D01*
X326311Y83245D01*
X326311Y81844D01*
G37*
G36*
X478325Y724009D02*
X477134Y724009D01*
X477248Y726593D01*
X474936Y725691D01*
X474542Y726847D01*
X477012Y727486D01*
X475391Y729676D01*
X476434Y730307D01*
X477747Y728047D01*
X479114Y730289D01*
X480156Y729659D01*
X478501Y727486D01*
X480953Y726847D01*
X480559Y725673D01*
X478220Y726611D01*
X478325Y724009D01*
G37*
G36*
X415273Y663838D02*
X413600Y663838D01*
X413600Y676179D01*
X419407Y676179D01*
X419913Y676164D01*
X420390Y676120D01*
X420837Y676048D01*
X421254Y675946D01*
X421642Y675814D01*
X421999Y675654D01*
X422327Y675465D01*
X422626Y675246D01*
X422892Y675001D01*
X423122Y674734D01*
X423317Y674444D01*
X423477Y674130D01*
X423601Y673794D01*
X423689Y673435D01*
X423742Y673054D01*
X423760Y672649D01*
X423748Y672312D01*
X423710Y671989D01*
X423647Y671679D01*
X423560Y671383D01*
X423447Y671101D01*
X423309Y670833D01*
X423147Y670578D01*
X422959Y670337D01*
X422749Y670113D01*
X422520Y669912D01*
X422272Y669731D01*
X422161Y669665D01*
X422005Y669573D01*
X421719Y669436D01*
X421414Y669320D01*
X421090Y669227D01*
X420747Y669154D01*
X422239Y666891D01*
X424251Y663838D01*
X422324Y663838D01*
X419118Y668962D01*
X415273Y668962D01*
X415273Y663838D01*
G37*
%LPC*%
G36*
X419311Y670284D02*
X419632Y670294D01*
X419935Y670323D01*
X420218Y670371D01*
X420483Y670439D01*
X420730Y670525D01*
X420957Y670632D01*
X421166Y670757D01*
X421356Y670902D01*
X421525Y671064D01*
X421672Y671241D01*
X421796Y671434D01*
X421898Y671643D01*
X421977Y671867D01*
X422033Y672106D01*
X422067Y672361D01*
X422078Y672632D01*
X422067Y672893D01*
X422033Y673138D01*
X421976Y673368D01*
X421896Y673581D01*
X421793Y673778D01*
X421667Y673959D01*
X421519Y674125D01*
X421347Y674274D01*
X421154Y674406D01*
X420941Y674521D01*
X420708Y674618D01*
X420455Y674698D01*
X420181Y674759D01*
X419888Y674803D01*
X419574Y674830D01*
X419241Y674839D01*
X415273Y674839D01*
X415273Y670284D01*
X419311Y670284D01*
G37*
%LPD*%
G36*
X436835Y663838D02*
X435101Y663838D01*
X440137Y676179D01*
X442038Y676179D01*
X446995Y663838D01*
X445287Y663838D01*
X443877Y667447D01*
X438254Y667447D01*
X436835Y663838D01*
G37*
%LPC*%
G36*
X443378Y668752D02*
X441793Y672824D01*
X441548Y673468D01*
X441302Y674191D01*
X441066Y674918D01*
X440987Y674672D01*
X440716Y673842D01*
X440339Y672807D01*
X438762Y668752D01*
X443378Y668752D01*
G37*
%LPD*%
G36*
X406203Y663663D02*
X405654Y663675D01*
X405135Y663712D01*
X404645Y663773D01*
X404185Y663859D01*
X403755Y663969D01*
X403354Y664104D01*
X402982Y664263D01*
X402641Y664447D01*
X402329Y664655D01*
X402047Y664888D01*
X401794Y665145D01*
X401571Y665427D01*
X401377Y665733D01*
X401213Y666063D01*
X401079Y666419D01*
X400975Y666798D01*
X402595Y667122D01*
X402675Y666854D01*
X402774Y666603D01*
X402894Y666371D01*
X403033Y666158D01*
X403192Y665963D01*
X403370Y665787D01*
X403568Y665629D01*
X403786Y665489D01*
X404024Y665367D01*
X404283Y665261D01*
X404562Y665171D01*
X404861Y665098D01*
X405181Y665041D01*
X405522Y665000D01*
X405883Y664976D01*
X406265Y664968D01*
X406658Y664977D01*
X407029Y665003D01*
X407376Y665046D01*
X407700Y665107D01*
X408001Y665185D01*
X408279Y665281D01*
X408534Y665394D01*
X408765Y665524D01*
X408972Y665671D01*
X409150Y665835D01*
X409302Y666014D01*
X409425Y666210D01*
X409522Y666423D01*
X409590Y666651D01*
X409632Y666896D01*
X409646Y667157D01*
X409628Y667445D01*
X409577Y667705D01*
X409490Y667936D01*
X409370Y668138D01*
X409218Y668319D01*
X409038Y668482D01*
X408830Y668629D01*
X408594Y668760D01*
X408333Y668878D01*
X408047Y668986D01*
X407737Y669084D01*
X407403Y669172D01*
X405871Y669531D01*
X405183Y669693D01*
X404584Y669855D01*
X404073Y670017D01*
X403650Y670179D01*
X403291Y670346D01*
X402973Y670522D01*
X402694Y670707D01*
X402455Y670902D01*
X402249Y671110D01*
X402068Y671334D01*
X401914Y671576D01*
X401785Y671835D01*
X401683Y672112D01*
X401611Y672408D01*
X401567Y672725D01*
X401553Y673061D01*
X401572Y673446D01*
X401628Y673808D01*
X401723Y674147D01*
X401856Y674464D01*
X402026Y674758D01*
X402235Y675030D01*
X402481Y675278D01*
X402766Y675504D01*
X403085Y675706D01*
X403438Y675880D01*
X403823Y676027D01*
X404240Y676148D01*
X404691Y676242D01*
X405174Y676309D01*
X405690Y676349D01*
X406238Y676363D01*
X406748Y676353D01*
X407228Y676322D01*
X407676Y676272D01*
X408093Y676202D01*
X408479Y676111D01*
X408835Y676001D01*
X409159Y675870D01*
X409453Y675719D01*
X409720Y675544D01*
X409967Y675340D01*
X410193Y675109D01*
X410399Y674849D01*
X410583Y674560D01*
X410747Y674243D01*
X410890Y673898D01*
X411012Y673525D01*
X409365Y673236D01*
X409290Y673473D01*
X409199Y673693D01*
X409093Y673896D01*
X408971Y674082D01*
X408834Y674252D01*
X408682Y674404D01*
X408515Y674540D01*
X408332Y674659D01*
X408132Y674763D01*
X407914Y674853D01*
X407678Y674929D01*
X407423Y674991D01*
X407150Y675039D01*
X406859Y675074D01*
X406549Y675095D01*
X406221Y675101D01*
X405862Y675094D01*
X405525Y675071D01*
X405209Y675033D01*
X404916Y674979D01*
X404644Y674910D01*
X404395Y674826D01*
X404167Y674726D01*
X403961Y674611D01*
X403779Y674481D01*
X403620Y674336D01*
X403486Y674175D01*
X403377Y674000D01*
X403291Y673810D01*
X403230Y673604D01*
X403194Y673384D01*
X403182Y673148D01*
X403201Y672876D01*
X403257Y672628D01*
X403352Y672405D01*
X403484Y672207D01*
X403652Y672028D01*
X403853Y671863D01*
X404087Y671712D01*
X404355Y671576D01*
X404711Y671440D01*
X405207Y671288D01*
X405845Y671122D01*
X406624Y670941D01*
X407758Y670674D01*
X408311Y670525D01*
X408840Y670350D01*
X409340Y670145D01*
X409808Y669908D01*
X410026Y669774D01*
X410229Y669625D01*
X410418Y669463D01*
X410591Y669286D01*
X410749Y669094D01*
X410888Y668885D01*
X411009Y668660D01*
X411113Y668419D01*
X411195Y668158D01*
X411254Y667876D01*
X411289Y667571D01*
X411301Y667245D01*
X411280Y666830D01*
X411217Y666439D01*
X411113Y666073D01*
X410967Y665730D01*
X410779Y665411D01*
X410550Y665117D01*
X410278Y664846D01*
X409965Y664600D01*
X409614Y664380D01*
X409229Y664190D01*
X408810Y664029D01*
X408357Y663897D01*
X407870Y663795D01*
X407348Y663721D01*
X406793Y663678D01*
X406203Y663663D01*
G37*
G36*
X453437Y663663D02*
X453065Y663671D01*
X452704Y663697D01*
X452355Y663740D01*
X452019Y663801D01*
X451694Y663878D01*
X451381Y663973D01*
X451081Y664085D01*
X450792Y664215D01*
X450518Y664360D01*
X450259Y664522D01*
X450016Y664699D01*
X449790Y664891D01*
X449579Y665099D01*
X449383Y665323D01*
X449204Y665562D01*
X449041Y665817D01*
X448895Y666086D01*
X448769Y666368D01*
X448662Y666662D01*
X448574Y666969D01*
X448506Y667289D01*
X448458Y667621D01*
X448429Y667965D01*
X448419Y668322D01*
X448419Y676179D01*
X450092Y676179D01*
X450092Y668463D01*
X450105Y668053D01*
X450145Y667668D01*
X450212Y667309D01*
X450306Y666976D01*
X450427Y666668D01*
X450575Y666385D01*
X450749Y666128D01*
X450950Y665896D01*
X451177Y665691D01*
X451427Y665513D01*
X451701Y665363D01*
X451999Y665239D01*
X452321Y665144D01*
X452666Y665075D01*
X453036Y665034D01*
X453429Y665020D01*
X453833Y665035D01*
X454215Y665077D01*
X454573Y665148D01*
X454908Y665247D01*
X455220Y665375D01*
X455509Y665530D01*
X455774Y665714D01*
X456017Y665927D01*
X456233Y666167D01*
X456421Y666432D01*
X456580Y666724D01*
X456710Y667043D01*
X456811Y667387D01*
X456883Y667757D01*
X456926Y668154D01*
X456941Y668576D01*
X456941Y676179D01*
X458605Y676179D01*
X458605Y668480D01*
X458595Y668112D01*
X458565Y667757D01*
X458516Y667415D01*
X458446Y667085D01*
X458357Y666769D01*
X458248Y666465D01*
X458119Y666174D01*
X457970Y665896D01*
X457803Y665633D01*
X457620Y665385D01*
X457420Y665154D01*
X457204Y664938D01*
X456971Y664739D01*
X456722Y664555D01*
X456456Y664388D01*
X456175Y664237D01*
X455878Y664102D01*
X455568Y663986D01*
X455246Y663887D01*
X454910Y663806D01*
X454561Y663744D01*
X454200Y663699D01*
X453825Y663672D01*
X453437Y663663D01*
G37*
G36*
X462255Y663838D02*
X460407Y663838D01*
X465101Y670249D01*
X460766Y676179D01*
X462614Y676179D01*
X466047Y671335D01*
X469384Y676179D01*
X471232Y676179D01*
X467011Y670311D01*
X471591Y663838D01*
X469743Y663838D01*
X466038Y669233D01*
X462255Y663838D01*
G37*
G36*
X434171Y663838D02*
X426000Y663838D01*
X426000Y664950D01*
X426235Y665448D01*
X426496Y665915D01*
X426781Y666352D01*
X427090Y666759D01*
X427416Y667142D01*
X427750Y667506D01*
X428093Y667851D01*
X428443Y668178D01*
X429149Y668790D01*
X429849Y669356D01*
X430511Y669899D01*
X431106Y670442D01*
X431373Y670717D01*
X431613Y670998D01*
X431826Y671286D01*
X432012Y671581D01*
X432164Y671888D01*
X432272Y672216D01*
X432337Y672563D01*
X432358Y672929D01*
X432349Y673176D01*
X432321Y673409D01*
X432275Y673627D01*
X432209Y673831D01*
X432126Y674021D01*
X432023Y674197D01*
X431902Y674359D01*
X431763Y674506D01*
X431607Y674637D01*
X431436Y674751D01*
X431251Y674847D01*
X431051Y674926D01*
X430837Y674988D01*
X430608Y675031D01*
X430365Y675058D01*
X430107Y675066D01*
X429861Y675058D01*
X429626Y675032D01*
X429402Y674989D01*
X429189Y674930D01*
X428987Y674853D01*
X428796Y674759D01*
X428616Y674647D01*
X428448Y674519D01*
X428293Y674375D01*
X428155Y674218D01*
X428034Y674046D01*
X427930Y673861D01*
X427842Y673662D01*
X427772Y673449D01*
X427718Y673222D01*
X427681Y672982D01*
X426070Y673131D01*
X426128Y673491D01*
X426214Y673833D01*
X426329Y674156D01*
X426471Y674460D01*
X426643Y674745D01*
X426842Y675011D01*
X427070Y675258D01*
X427327Y675487D01*
X427607Y675692D01*
X427906Y675870D01*
X428225Y676021D01*
X428563Y676144D01*
X428920Y676240D01*
X429296Y676308D01*
X429692Y676349D01*
X430107Y676363D01*
X430560Y676349D01*
X430986Y676308D01*
X431385Y676239D01*
X431757Y676143D01*
X432102Y676019D01*
X432420Y675868D01*
X432712Y675689D01*
X432976Y675482D01*
X433211Y675251D01*
X433415Y674996D01*
X433587Y674718D01*
X433728Y674417D01*
X433838Y674093D01*
X433916Y673746D01*
X433963Y673375D01*
X433979Y672982D01*
X433958Y672623D01*
X433897Y672266D01*
X433794Y671910D01*
X433650Y671554D01*
X433466Y671200D01*
X433242Y670845D01*
X432978Y670490D01*
X432674Y670135D01*
X432276Y669732D01*
X431730Y669231D01*
X431036Y668633D01*
X430195Y667937D01*
X429717Y667535D01*
X429291Y667154D01*
X428916Y666793D01*
X428592Y666452D01*
X428315Y666125D01*
X428080Y665803D01*
X427886Y665488D01*
X427734Y665178D01*
X434171Y665178D01*
X434171Y663838D01*
G37*
G36*
X2463515Y663838D02*
X2461781Y663838D01*
X2466817Y676179D01*
X2468718Y676179D01*
X2473675Y663838D01*
X2471967Y663838D01*
X2470557Y667447D01*
X2464934Y667447D01*
X2463515Y663838D01*
G37*
%LPC*%
G36*
X2470058Y668752D02*
X2468473Y672824D01*
X2468228Y673468D01*
X2467982Y674191D01*
X2467746Y674918D01*
X2467667Y674672D01*
X2467396Y673842D01*
X2467019Y672807D01*
X2465442Y668752D01*
X2470058Y668752D01*
G37*
%LPD*%
G36*
X2435883Y663663D02*
X2435334Y663675D01*
X2434815Y663712D01*
X2434325Y663773D01*
X2433865Y663859D01*
X2433435Y663969D01*
X2433034Y664104D01*
X2432662Y664263D01*
X2432321Y664447D01*
X2432009Y664655D01*
X2431727Y664888D01*
X2431474Y665145D01*
X2431251Y665427D01*
X2431057Y665733D01*
X2430893Y666063D01*
X2430759Y666419D01*
X2430655Y666798D01*
X2432275Y667122D01*
X2432355Y666854D01*
X2432454Y666603D01*
X2432574Y666371D01*
X2432713Y666158D01*
X2432872Y665963D01*
X2433050Y665787D01*
X2433248Y665629D01*
X2433466Y665489D01*
X2433704Y665367D01*
X2433963Y665261D01*
X2434242Y665171D01*
X2434541Y665098D01*
X2434861Y665041D01*
X2435202Y665000D01*
X2435563Y664976D01*
X2435945Y664968D01*
X2436338Y664977D01*
X2436709Y665003D01*
X2437056Y665046D01*
X2437380Y665107D01*
X2437681Y665185D01*
X2437959Y665281D01*
X2438214Y665394D01*
X2438445Y665524D01*
X2438652Y665671D01*
X2438830Y665835D01*
X2438982Y666014D01*
X2439105Y666210D01*
X2439202Y666423D01*
X2439270Y666651D01*
X2439312Y666896D01*
X2439326Y667157D01*
X2439308Y667445D01*
X2439257Y667705D01*
X2439170Y667936D01*
X2439050Y668138D01*
X2438898Y668319D01*
X2438718Y668482D01*
X2438510Y668629D01*
X2438274Y668760D01*
X2438013Y668878D01*
X2437727Y668986D01*
X2437417Y669084D01*
X2437083Y669172D01*
X2435551Y669531D01*
X2434863Y669693D01*
X2434264Y669855D01*
X2433753Y670017D01*
X2433330Y670179D01*
X2432971Y670346D01*
X2432653Y670522D01*
X2432374Y670707D01*
X2432135Y670902D01*
X2431929Y671110D01*
X2431748Y671334D01*
X2431594Y671576D01*
X2431465Y671835D01*
X2431363Y672112D01*
X2431291Y672408D01*
X2431247Y672725D01*
X2431233Y673061D01*
X2431252Y673446D01*
X2431308Y673808D01*
X2431403Y674147D01*
X2431536Y674464D01*
X2431706Y674758D01*
X2431915Y675030D01*
X2432161Y675278D01*
X2432446Y675504D01*
X2432765Y675706D01*
X2433118Y675880D01*
X2433503Y676027D01*
X2433920Y676148D01*
X2434371Y676242D01*
X2434854Y676309D01*
X2435370Y676349D01*
X2435918Y676363D01*
X2436428Y676353D01*
X2436908Y676322D01*
X2437356Y676272D01*
X2437773Y676202D01*
X2438159Y676111D01*
X2438515Y676001D01*
X2438839Y675870D01*
X2439133Y675719D01*
X2439400Y675544D01*
X2439647Y675340D01*
X2439873Y675109D01*
X2440079Y674849D01*
X2440263Y674560D01*
X2440427Y674243D01*
X2440570Y673898D01*
X2440692Y673525D01*
X2439045Y673236D01*
X2438970Y673473D01*
X2438879Y673693D01*
X2438773Y673896D01*
X2438651Y674082D01*
X2438514Y674252D01*
X2438362Y674404D01*
X2438195Y674540D01*
X2438012Y674659D01*
X2437812Y674763D01*
X2437594Y674853D01*
X2437358Y674929D01*
X2437103Y674991D01*
X2436830Y675039D01*
X2436539Y675074D01*
X2436229Y675095D01*
X2435901Y675101D01*
X2435542Y675094D01*
X2435205Y675071D01*
X2434889Y675033D01*
X2434596Y674979D01*
X2434324Y674910D01*
X2434075Y674826D01*
X2433847Y674726D01*
X2433641Y674611D01*
X2433459Y674481D01*
X2433300Y674336D01*
X2433166Y674175D01*
X2433057Y674000D01*
X2432971Y673810D01*
X2432910Y673604D01*
X2432874Y673384D01*
X2432862Y673148D01*
X2432881Y672876D01*
X2432937Y672628D01*
X2433032Y672405D01*
X2433164Y672207D01*
X2433332Y672028D01*
X2433533Y671863D01*
X2433767Y671712D01*
X2434035Y671576D01*
X2434391Y671440D01*
X2434887Y671288D01*
X2435525Y671122D01*
X2436304Y670941D01*
X2437438Y670674D01*
X2437991Y670525D01*
X2438520Y670350D01*
X2439020Y670145D01*
X2439488Y669908D01*
X2439706Y669774D01*
X2439909Y669625D01*
X2440098Y669463D01*
X2440271Y669286D01*
X2440429Y669094D01*
X2440568Y668885D01*
X2440689Y668660D01*
X2440793Y668419D01*
X2440875Y668158D01*
X2440934Y667876D01*
X2440969Y667571D01*
X2440981Y667245D01*
X2440960Y666830D01*
X2440897Y666439D01*
X2440793Y666073D01*
X2440647Y665730D01*
X2440459Y665411D01*
X2440230Y665117D01*
X2439958Y664846D01*
X2439645Y664600D01*
X2439294Y664380D01*
X2438909Y664190D01*
X2438490Y664029D01*
X2438037Y663897D01*
X2437550Y663795D01*
X2437028Y663721D01*
X2436473Y663678D01*
X2435883Y663663D01*
G37*
G36*
X2480117Y663663D02*
X2479745Y663671D01*
X2479384Y663697D01*
X2479035Y663740D01*
X2478699Y663801D01*
X2478374Y663878D01*
X2478061Y663973D01*
X2477761Y664085D01*
X2477472Y664215D01*
X2477198Y664360D01*
X2476939Y664522D01*
X2476696Y664699D01*
X2476470Y664891D01*
X2476259Y665099D01*
X2476063Y665323D01*
X2475884Y665562D01*
X2475721Y665817D01*
X2475575Y666086D01*
X2475449Y666368D01*
X2475342Y666662D01*
X2475254Y666969D01*
X2475186Y667289D01*
X2475138Y667621D01*
X2475109Y667965D01*
X2475099Y668322D01*
X2475099Y676179D01*
X2476772Y676179D01*
X2476772Y668463D01*
X2476785Y668053D01*
X2476825Y667668D01*
X2476892Y667309D01*
X2476986Y666976D01*
X2477107Y666668D01*
X2477255Y666385D01*
X2477429Y666128D01*
X2477630Y665896D01*
X2477857Y665691D01*
X2478107Y665513D01*
X2478381Y665363D01*
X2478679Y665239D01*
X2479001Y665144D01*
X2479346Y665075D01*
X2479716Y665034D01*
X2480109Y665020D01*
X2480513Y665035D01*
X2480895Y665077D01*
X2481253Y665148D01*
X2481588Y665247D01*
X2481900Y665375D01*
X2482189Y665530D01*
X2482454Y665714D01*
X2482697Y665927D01*
X2482913Y666167D01*
X2483101Y666432D01*
X2483260Y666724D01*
X2483390Y667043D01*
X2483491Y667387D01*
X2483563Y667757D01*
X2483606Y668154D01*
X2483621Y668576D01*
X2483621Y676179D01*
X2485285Y676179D01*
X2485285Y668480D01*
X2485275Y668112D01*
X2485245Y667757D01*
X2485196Y667415D01*
X2485126Y667085D01*
X2485037Y666769D01*
X2484928Y666465D01*
X2484799Y666174D01*
X2484650Y665896D01*
X2484483Y665633D01*
X2484300Y665385D01*
X2484100Y665154D01*
X2483884Y664938D01*
X2483651Y664739D01*
X2483402Y664555D01*
X2483136Y664388D01*
X2482855Y664237D01*
X2482558Y664102D01*
X2482248Y663986D01*
X2481926Y663887D01*
X2481590Y663806D01*
X2481241Y663744D01*
X2480880Y663699D01*
X2480505Y663672D01*
X2480117Y663663D01*
G37*
G36*
X2488935Y663838D02*
X2487087Y663838D01*
X2491781Y670249D01*
X2487446Y676179D01*
X2489294Y676179D01*
X2492727Y671335D01*
X2496064Y676179D01*
X2497912Y676179D01*
X2493691Y670311D01*
X2498271Y663838D01*
X2496423Y663838D01*
X2492718Y669233D01*
X2488935Y663838D01*
G37*
G36*
X2460851Y663838D02*
X2452680Y663838D01*
X2452680Y664950D01*
X2452915Y665448D01*
X2453176Y665915D01*
X2453461Y666352D01*
X2453770Y666759D01*
X2454096Y667142D01*
X2454430Y667506D01*
X2454773Y667851D01*
X2455123Y668178D01*
X2455829Y668790D01*
X2456529Y669356D01*
X2457191Y669899D01*
X2457786Y670442D01*
X2458053Y670717D01*
X2458293Y670998D01*
X2458506Y671286D01*
X2458692Y671581D01*
X2458844Y671888D01*
X2458952Y672216D01*
X2459017Y672563D01*
X2459038Y672929D01*
X2459029Y673176D01*
X2459001Y673409D01*
X2458955Y673627D01*
X2458889Y673831D01*
X2458806Y674021D01*
X2458703Y674197D01*
X2458582Y674359D01*
X2458443Y674506D01*
X2458287Y674637D01*
X2458116Y674751D01*
X2457931Y674847D01*
X2457731Y674926D01*
X2457517Y674988D01*
X2457288Y675031D01*
X2457045Y675058D01*
X2456787Y675066D01*
X2456541Y675058D01*
X2456306Y675032D01*
X2456082Y674989D01*
X2455869Y674930D01*
X2455667Y674853D01*
X2455476Y674759D01*
X2455296Y674647D01*
X2455128Y674519D01*
X2454973Y674375D01*
X2454835Y674218D01*
X2454714Y674046D01*
X2454610Y673861D01*
X2454522Y673662D01*
X2454452Y673449D01*
X2454398Y673222D01*
X2454361Y672982D01*
X2452750Y673131D01*
X2452808Y673491D01*
X2452894Y673833D01*
X2453009Y674156D01*
X2453151Y674460D01*
X2453323Y674745D01*
X2453522Y675011D01*
X2453750Y675258D01*
X2454007Y675487D01*
X2454287Y675692D01*
X2454586Y675870D01*
X2454905Y676021D01*
X2455243Y676144D01*
X2455600Y676240D01*
X2455976Y676308D01*
X2456372Y676349D01*
X2456787Y676363D01*
X2457240Y676349D01*
X2457666Y676308D01*
X2458065Y676239D01*
X2458437Y676143D01*
X2458782Y676019D01*
X2459100Y675868D01*
X2459392Y675689D01*
X2459656Y675482D01*
X2459891Y675251D01*
X2460095Y674996D01*
X2460267Y674718D01*
X2460408Y674417D01*
X2460518Y674093D01*
X2460596Y673746D01*
X2460643Y673375D01*
X2460659Y672982D01*
X2460638Y672623D01*
X2460577Y672266D01*
X2460474Y671910D01*
X2460330Y671554D01*
X2460146Y671200D01*
X2459922Y670845D01*
X2459658Y670490D01*
X2459354Y670135D01*
X2458956Y669732D01*
X2458410Y669231D01*
X2457716Y668633D01*
X2456875Y667937D01*
X2456397Y667535D01*
X2455971Y667154D01*
X2455596Y666793D01*
X2455272Y666452D01*
X2454995Y666125D01*
X2454760Y665803D01*
X2454566Y665488D01*
X2454414Y665178D01*
X2460851Y665178D01*
X2460851Y663838D01*
G37*
G36*
X2451189Y663838D02*
X2443280Y663838D01*
X2443280Y676179D01*
X2444953Y676179D01*
X2444953Y665204D01*
X2451189Y665204D01*
X2451189Y663838D01*
G37*
D10*
X461000Y346000D02*
X461000Y380000D01*
X419000Y380000D01*
X419000Y346000D01*
D11*
X450000Y335000D02*
X449956Y334998D01*
X449913Y334992D01*
X449871Y334983D01*
X449829Y334970D01*
X449789Y334953D01*
X449750Y334933D01*
X449713Y334910D01*
X449679Y334883D01*
X449646Y334854D01*
X449617Y334821D01*
X449590Y334787D01*
X449567Y334750D01*
X449547Y334711D01*
X449530Y334671D01*
X449517Y334629D01*
X449508Y334587D01*
X449502Y334544D01*
X449500Y334500D01*
X449502Y334456D01*
X449508Y334413D01*
X449517Y334371D01*
X449530Y334329D01*
X449547Y334289D01*
X449567Y334250D01*
X449590Y334213D01*
X449617Y334179D01*
X449646Y334146D01*
X449679Y334117D01*
X449713Y334090D01*
X449750Y334067D01*
X449789Y334047D01*
X449829Y334030D01*
X449871Y334017D01*
X449913Y334008D01*
X449956Y334002D01*
X450000Y334000D01*
X450044Y334002D01*
X450087Y334008D01*
X450129Y334017D01*
X450171Y334030D01*
X450211Y334047D01*
X450250Y334067D01*
X450287Y334090D01*
X450321Y334117D01*
X450354Y334146D01*
X450383Y334179D01*
X450410Y334213D01*
X450433Y334250D01*
X450453Y334289D01*
X450470Y334329D01*
X450483Y334371D01*
X450492Y334413D01*
X450498Y334456D01*
X450500Y334500D01*
X450498Y334544D01*
X450492Y334587D01*
X450483Y334629D01*
X450470Y334671D01*
X450453Y334711D01*
X450433Y334750D01*
X450410Y334787D01*
X450383Y334821D01*
X450354Y334854D01*
X450321Y334883D01*
X450287Y334910D01*
X450250Y334933D01*
X450211Y334953D01*
X450171Y334970D01*
X450129Y334983D01*
X450087Y334992D01*
X450044Y334998D01*
X450000Y335000D01*
D10*
X2471000Y356000D02*
X2471000Y390000D01*
X2429000Y390000D01*
X2429000Y356000D01*
D11*
X2460000Y345000D02*
X2459956Y344998D01*
X2459913Y344992D01*
X2459871Y344983D01*
X2459829Y344970D01*
X2459789Y344953D01*
X2459750Y344933D01*
X2459713Y344910D01*
X2459679Y344883D01*
X2459646Y344854D01*
X2459617Y344821D01*
X2459590Y344787D01*
X2459567Y344750D01*
X2459547Y344711D01*
X2459530Y344671D01*
X2459517Y344629D01*
X2459508Y344587D01*
X2459502Y344544D01*
X2459500Y344500D01*
X2459502Y344456D01*
X2459508Y344413D01*
X2459517Y344371D01*
X2459530Y344329D01*
X2459547Y344289D01*
X2459567Y344250D01*
X2459590Y344213D01*
X2459617Y344179D01*
X2459646Y344146D01*
X2459679Y344117D01*
X2459713Y344090D01*
X2459750Y344067D01*
X2459789Y344047D01*
X2459829Y344030D01*
X2459871Y344017D01*
X2459913Y344008D01*
X2459956Y344002D01*
X2460000Y344000D01*
X2460044Y344002D01*
X2460087Y344008D01*
X2460129Y344017D01*
X2460171Y344030D01*
X2460211Y344047D01*
X2460250Y344067D01*
X2460287Y344090D01*
X2460321Y344117D01*
X2460354Y344146D01*
X2460383Y344179D01*
X2460410Y344213D01*
X2460433Y344250D01*
X2460453Y344289D01*
X2460470Y344329D01*
X2460483Y344371D01*
X2460492Y344413D01*
X2460498Y344456D01*
X2460500Y344500D01*
X2460498Y344544D01*
X2460492Y344587D01*
X2460483Y344629D01*
X2460470Y344671D01*
X2460453Y344711D01*
X2460433Y344750D01*
X2460410Y344787D01*
X2460383Y344821D01*
X2460354Y344854D01*
X2460321Y344883D01*
X2460287Y344910D01*
X2460250Y344933D01*
X2460211Y344953D01*
X2460171Y344970D01*
X2460129Y344983D01*
X2460087Y344992D01*
X2460044Y344998D01*
X2460000Y345000D01*
D12*
X2567452Y407399D02*
X2567517Y407401D01*
X2567581Y407407D01*
X2567645Y407417D01*
X2567709Y407430D01*
X2567771Y407448D01*
X2567832Y407469D01*
X2567892Y407493D01*
X2567950Y407522D01*
X2568007Y407554D01*
X2568061Y407589D01*
X2568113Y407627D01*
X2568163Y407669D01*
X2568210Y407713D01*
X2568254Y407760D01*
X2568296Y407810D01*
X2568334Y407862D01*
X2568369Y407916D01*
X2568401Y407973D01*
X2568430Y408031D01*
X2568454Y408091D01*
X2568475Y408152D01*
X2568493Y408214D01*
X2568506Y408278D01*
X2568516Y408342D01*
X2568522Y408406D01*
X2568524Y408471D01*
X2567452Y407399D02*
X2567358Y407401D01*
X2567264Y407407D01*
X2567170Y407417D01*
X2567077Y407430D01*
X2566985Y407448D01*
X2566893Y407469D01*
X2566802Y407494D01*
X2566712Y407523D01*
X2566624Y407556D01*
X2566537Y407592D01*
X2566452Y407632D01*
X2566368Y407675D01*
X2566287Y407722D01*
X2566207Y407772D01*
X2566129Y407825D01*
X2566054Y407882D01*
X2565981Y407941D01*
X2565911Y408004D01*
X2565843Y408069D01*
X2565978Y411153D02*
X2565980Y411218D01*
X2565986Y411282D01*
X2565996Y411346D01*
X2566009Y411410D01*
X2566027Y411472D01*
X2566048Y411533D01*
X2566072Y411593D01*
X2566101Y411651D01*
X2566133Y411708D01*
X2566168Y411762D01*
X2566206Y411814D01*
X2566248Y411864D01*
X2566292Y411911D01*
X2566339Y411955D01*
X2566389Y411997D01*
X2566441Y412035D01*
X2566495Y412070D01*
X2566552Y412102D01*
X2566610Y412131D01*
X2566670Y412155D01*
X2566731Y412176D01*
X2566793Y412194D01*
X2566857Y412207D01*
X2566921Y412217D01*
X2566985Y412223D01*
X2567050Y412225D01*
X2567049Y412225D02*
X2567135Y412223D01*
X2567221Y412218D01*
X2567307Y412208D01*
X2567392Y412195D01*
X2567477Y412179D01*
X2567561Y412159D01*
X2567644Y412135D01*
X2567726Y412108D01*
X2567806Y412077D01*
X2567886Y412043D01*
X2567963Y412005D01*
X2568039Y411964D01*
X2568113Y411920D01*
X2568185Y411873D01*
X2568256Y411823D01*
X2566513Y410215D02*
X2566460Y410248D01*
X2566409Y410285D01*
X2566360Y410324D01*
X2566313Y410366D01*
X2566269Y410411D01*
X2566228Y410458D01*
X2566189Y410507D01*
X2566153Y410559D01*
X2566120Y410613D01*
X2566091Y410668D01*
X2566065Y410725D01*
X2566042Y410784D01*
X2566022Y410843D01*
X2566006Y410904D01*
X2565993Y410965D01*
X2565984Y411028D01*
X2565979Y411090D01*
X2565977Y411153D01*
X2567988Y409409D02*
X2568041Y409376D01*
X2568092Y409339D01*
X2568141Y409300D01*
X2568188Y409258D01*
X2568232Y409213D01*
X2568273Y409166D01*
X2568312Y409117D01*
X2568348Y409065D01*
X2568381Y409011D01*
X2568410Y408956D01*
X2568436Y408899D01*
X2568459Y408840D01*
X2568479Y408781D01*
X2568495Y408720D01*
X2568508Y408659D01*
X2568517Y408596D01*
X2568522Y408534D01*
X2568524Y408471D01*
X2567988Y409410D02*
X2566513Y410214D01*
X2571476Y410080D02*
X2572816Y410080D01*
X2572816Y410081D02*
X2572887Y410079D01*
X2572959Y410073D01*
X2573029Y410064D01*
X2573099Y410051D01*
X2573169Y410034D01*
X2573237Y410013D01*
X2573304Y409989D01*
X2573370Y409961D01*
X2573434Y409930D01*
X2573497Y409895D01*
X2573557Y409857D01*
X2573616Y409816D01*
X2573672Y409772D01*
X2573726Y409725D01*
X2573777Y409676D01*
X2573825Y409623D01*
X2573871Y409568D01*
X2573913Y409511D01*
X2573953Y409451D01*
X2573989Y409390D01*
X2574022Y409326D01*
X2574051Y409261D01*
X2574077Y409195D01*
X2574100Y409127D01*
X2574119Y409058D01*
X2574134Y408988D01*
X2574145Y408918D01*
X2574153Y408847D01*
X2574157Y408776D01*
X2574157Y408704D01*
X2574153Y408633D01*
X2574145Y408562D01*
X2574134Y408492D01*
X2574119Y408422D01*
X2574100Y408353D01*
X2574077Y408285D01*
X2574051Y408219D01*
X2574022Y408154D01*
X2573989Y408090D01*
X2573953Y408029D01*
X2573913Y407969D01*
X2573871Y407912D01*
X2573825Y407857D01*
X2573777Y407804D01*
X2573726Y407755D01*
X2573672Y407708D01*
X2573616Y407664D01*
X2573557Y407623D01*
X2573497Y407585D01*
X2573434Y407550D01*
X2573370Y407519D01*
X2573304Y407491D01*
X2573237Y407467D01*
X2573169Y407446D01*
X2573099Y407429D01*
X2573029Y407416D01*
X2572959Y407407D01*
X2572887Y407401D01*
X2572816Y407399D01*
X2571476Y407399D01*
X2571476Y412225D01*
X2572816Y412225D01*
X2572881Y412223D01*
X2572945Y412217D01*
X2573009Y412207D01*
X2573073Y412194D01*
X2573135Y412176D01*
X2573196Y412155D01*
X2573256Y412131D01*
X2573314Y412102D01*
X2573371Y412070D01*
X2573425Y412035D01*
X2573477Y411997D01*
X2573527Y411955D01*
X2573574Y411911D01*
X2573618Y411864D01*
X2573660Y411814D01*
X2573698Y411762D01*
X2573733Y411708D01*
X2573765Y411651D01*
X2573794Y411593D01*
X2573818Y411533D01*
X2573839Y411472D01*
X2573857Y411410D01*
X2573870Y411346D01*
X2573880Y411282D01*
X2573886Y411218D01*
X2573888Y411153D01*
X2573886Y411088D01*
X2573880Y411024D01*
X2573870Y410960D01*
X2573857Y410896D01*
X2573839Y410834D01*
X2573818Y410773D01*
X2573794Y410713D01*
X2573765Y410655D01*
X2573733Y410598D01*
X2573698Y410544D01*
X2573660Y410492D01*
X2573618Y410442D01*
X2573574Y410395D01*
X2573527Y410351D01*
X2573477Y410309D01*
X2573425Y410271D01*
X2573371Y410236D01*
X2573314Y410204D01*
X2573256Y410175D01*
X2573196Y410151D01*
X2573135Y410130D01*
X2573073Y410112D01*
X2573009Y410099D01*
X2572945Y410089D01*
X2572881Y410083D01*
X2572816Y410081D01*
X309453Y408471D02*
X309451Y408406D01*
X309445Y408342D01*
X309435Y408278D01*
X309422Y408214D01*
X309404Y408152D01*
X309383Y408091D01*
X309359Y408031D01*
X309330Y407973D01*
X309298Y407916D01*
X309263Y407862D01*
X309225Y407810D01*
X309183Y407760D01*
X309139Y407713D01*
X309092Y407669D01*
X309042Y407627D01*
X308990Y407589D01*
X308936Y407554D01*
X308879Y407522D01*
X308821Y407493D01*
X308761Y407469D01*
X308700Y407448D01*
X308638Y407430D01*
X308574Y407417D01*
X308510Y407407D01*
X308446Y407401D01*
X308381Y407399D01*
X308287Y407401D01*
X308193Y407407D01*
X308099Y407417D01*
X308006Y407430D01*
X307914Y407448D01*
X307822Y407469D01*
X307731Y407494D01*
X307641Y407523D01*
X307553Y407556D01*
X307466Y407592D01*
X307381Y407632D01*
X307297Y407675D01*
X307216Y407722D01*
X307136Y407772D01*
X307058Y407825D01*
X306983Y407882D01*
X306910Y407941D01*
X306840Y408004D01*
X306772Y408069D01*
X306907Y411153D02*
X306909Y411218D01*
X306915Y411282D01*
X306925Y411346D01*
X306938Y411410D01*
X306956Y411472D01*
X306977Y411533D01*
X307001Y411593D01*
X307030Y411651D01*
X307062Y411708D01*
X307097Y411762D01*
X307135Y411814D01*
X307177Y411864D01*
X307221Y411911D01*
X307268Y411955D01*
X307318Y411997D01*
X307370Y412035D01*
X307424Y412070D01*
X307481Y412102D01*
X307539Y412131D01*
X307599Y412155D01*
X307660Y412176D01*
X307722Y412194D01*
X307786Y412207D01*
X307850Y412217D01*
X307914Y412223D01*
X307979Y412225D01*
X308065Y412223D01*
X308151Y412218D01*
X308237Y412208D01*
X308322Y412195D01*
X308407Y412179D01*
X308491Y412159D01*
X308574Y412135D01*
X308656Y412108D01*
X308736Y412077D01*
X308816Y412043D01*
X308893Y412005D01*
X308969Y411964D01*
X309043Y411920D01*
X309115Y411873D01*
X309186Y411823D01*
X307442Y410215D02*
X307389Y410248D01*
X307338Y410285D01*
X307289Y410324D01*
X307242Y410366D01*
X307198Y410411D01*
X307157Y410458D01*
X307118Y410507D01*
X307082Y410559D01*
X307049Y410613D01*
X307020Y410668D01*
X306994Y410725D01*
X306971Y410784D01*
X306951Y410843D01*
X306935Y410904D01*
X306922Y410965D01*
X306913Y411028D01*
X306908Y411090D01*
X306906Y411153D01*
X308917Y409409D02*
X308970Y409376D01*
X309021Y409339D01*
X309070Y409300D01*
X309117Y409258D01*
X309161Y409213D01*
X309202Y409166D01*
X309241Y409117D01*
X309277Y409065D01*
X309310Y409011D01*
X309339Y408956D01*
X309365Y408899D01*
X309388Y408840D01*
X309408Y408781D01*
X309424Y408720D01*
X309437Y408659D01*
X309446Y408596D01*
X309451Y408534D01*
X309453Y408471D01*
X308917Y409410D02*
X307443Y410214D01*
X312259Y412225D02*
X312259Y407399D01*
X312259Y412225D02*
X313599Y412225D01*
X313669Y412223D01*
X313739Y412218D01*
X313809Y412208D01*
X313878Y412196D01*
X313946Y412179D01*
X314013Y412159D01*
X314080Y412136D01*
X314144Y412109D01*
X314208Y412079D01*
X314270Y412045D01*
X314329Y412009D01*
X314387Y411969D01*
X314443Y411926D01*
X314496Y411881D01*
X314547Y411832D01*
X314596Y411781D01*
X314641Y411728D01*
X314684Y411672D01*
X314724Y411614D01*
X314760Y411555D01*
X314794Y411493D01*
X314824Y411429D01*
X314851Y411365D01*
X314874Y411298D01*
X314894Y411231D01*
X314911Y411163D01*
X314923Y411094D01*
X314933Y411024D01*
X314938Y410954D01*
X314940Y410884D01*
X314940Y408740D01*
X314938Y408670D01*
X314933Y408600D01*
X314923Y408530D01*
X314911Y408461D01*
X314894Y408393D01*
X314874Y408326D01*
X314851Y408259D01*
X314824Y408195D01*
X314794Y408131D01*
X314760Y408069D01*
X314724Y408010D01*
X314684Y407952D01*
X314641Y407896D01*
X314596Y407843D01*
X314547Y407792D01*
X314496Y407743D01*
X314443Y407698D01*
X314387Y407655D01*
X314329Y407615D01*
X314269Y407579D01*
X314208Y407545D01*
X314144Y407515D01*
X314080Y407488D01*
X314013Y407465D01*
X313946Y407445D01*
X313878Y407428D01*
X313809Y407416D01*
X313739Y407406D01*
X313669Y407401D01*
X313599Y407399D01*
X312259Y407399D01*
X317928Y408740D02*
X317928Y410884D01*
X317927Y410884D02*
X317929Y410955D01*
X317935Y411027D01*
X317944Y411097D01*
X317957Y411167D01*
X317974Y411237D01*
X317995Y411305D01*
X318019Y411372D01*
X318047Y411438D01*
X318078Y411502D01*
X318113Y411565D01*
X318151Y411625D01*
X318192Y411684D01*
X318236Y411740D01*
X318283Y411794D01*
X318332Y411845D01*
X318385Y411893D01*
X318440Y411939D01*
X318497Y411981D01*
X318557Y412021D01*
X318618Y412057D01*
X318682Y412090D01*
X318747Y412119D01*
X318813Y412145D01*
X318881Y412168D01*
X318950Y412187D01*
X319020Y412202D01*
X319090Y412213D01*
X319161Y412221D01*
X319232Y412225D01*
X319304Y412225D01*
X319375Y412221D01*
X319446Y412213D01*
X319516Y412202D01*
X319586Y412187D01*
X319655Y412168D01*
X319723Y412145D01*
X319789Y412119D01*
X319854Y412090D01*
X319918Y412057D01*
X319979Y412021D01*
X320039Y411981D01*
X320096Y411939D01*
X320151Y411893D01*
X320204Y411845D01*
X320253Y411794D01*
X320300Y411740D01*
X320344Y411684D01*
X320385Y411625D01*
X320423Y411565D01*
X320458Y411502D01*
X320489Y411438D01*
X320517Y411372D01*
X320541Y411305D01*
X320562Y411237D01*
X320579Y411167D01*
X320592Y411097D01*
X320601Y411027D01*
X320607Y410955D01*
X320609Y410884D01*
X320609Y408740D01*
X320607Y408669D01*
X320601Y408597D01*
X320592Y408527D01*
X320579Y408457D01*
X320562Y408387D01*
X320541Y408319D01*
X320517Y408252D01*
X320489Y408186D01*
X320458Y408122D01*
X320423Y408059D01*
X320385Y407999D01*
X320344Y407940D01*
X320300Y407884D01*
X320253Y407830D01*
X320204Y407779D01*
X320151Y407731D01*
X320096Y407685D01*
X320039Y407643D01*
X319979Y407603D01*
X319918Y407567D01*
X319854Y407534D01*
X319789Y407505D01*
X319723Y407479D01*
X319655Y407456D01*
X319586Y407437D01*
X319516Y407422D01*
X319446Y407411D01*
X319375Y407403D01*
X319304Y407399D01*
X319232Y407399D01*
X319161Y407403D01*
X319090Y407411D01*
X319020Y407422D01*
X318950Y407437D01*
X318881Y407456D01*
X318813Y407479D01*
X318747Y407505D01*
X318682Y407534D01*
X318618Y407567D01*
X318557Y407603D01*
X318497Y407643D01*
X318440Y407685D01*
X318385Y407731D01*
X318332Y407779D01*
X318283Y407830D01*
X318236Y407884D01*
X318192Y407940D01*
X318151Y407999D01*
X318113Y408059D01*
X318078Y408122D01*
X318047Y408186D01*
X318019Y408252D01*
X317995Y408319D01*
X317974Y408387D01*
X317957Y408457D01*
X317944Y408527D01*
X317935Y408597D01*
X317929Y408669D01*
X317927Y408740D01*
X323341Y412225D02*
X324414Y407399D01*
X325486Y410616D01*
X326559Y407399D01*
X327631Y412225D01*
X330547Y412225D02*
X330547Y407399D01*
X333228Y407399D02*
X330547Y412225D01*
X333228Y412225D02*
X333228Y407399D01*
X184599Y531707D02*
X184597Y531642D01*
X184591Y531578D01*
X184581Y531514D01*
X184568Y531450D01*
X184550Y531388D01*
X184529Y531327D01*
X184505Y531267D01*
X184476Y531209D01*
X184444Y531152D01*
X184409Y531098D01*
X184371Y531046D01*
X184329Y530996D01*
X184285Y530949D01*
X184238Y530905D01*
X184188Y530863D01*
X184136Y530825D01*
X184082Y530790D01*
X184025Y530758D01*
X183967Y530729D01*
X183907Y530705D01*
X183846Y530684D01*
X183784Y530666D01*
X183720Y530653D01*
X183656Y530643D01*
X183592Y530637D01*
X183527Y530635D01*
X183433Y530637D01*
X183339Y530643D01*
X183245Y530653D01*
X183152Y530666D01*
X183060Y530684D01*
X182968Y530705D01*
X182877Y530730D01*
X182787Y530759D01*
X182699Y530792D01*
X182612Y530828D01*
X182527Y530868D01*
X182443Y530911D01*
X182362Y530958D01*
X182282Y531008D01*
X182204Y531061D01*
X182129Y531118D01*
X182056Y531177D01*
X181986Y531240D01*
X181918Y531305D01*
X182053Y534389D02*
X182055Y534454D01*
X182061Y534518D01*
X182071Y534582D01*
X182084Y534646D01*
X182102Y534708D01*
X182123Y534769D01*
X182147Y534829D01*
X182176Y534887D01*
X182208Y534944D01*
X182243Y534998D01*
X182281Y535050D01*
X182323Y535100D01*
X182367Y535147D01*
X182414Y535191D01*
X182464Y535233D01*
X182516Y535271D01*
X182570Y535306D01*
X182627Y535338D01*
X182685Y535367D01*
X182745Y535391D01*
X182806Y535412D01*
X182868Y535430D01*
X182932Y535443D01*
X182996Y535453D01*
X183060Y535459D01*
X183125Y535461D01*
X183211Y535459D01*
X183297Y535454D01*
X183383Y535444D01*
X183468Y535431D01*
X183553Y535415D01*
X183637Y535395D01*
X183720Y535371D01*
X183802Y535344D01*
X183882Y535313D01*
X183962Y535279D01*
X184039Y535241D01*
X184115Y535200D01*
X184189Y535156D01*
X184261Y535109D01*
X184332Y535059D01*
X182589Y533451D02*
X182536Y533484D01*
X182485Y533521D01*
X182436Y533560D01*
X182389Y533602D01*
X182345Y533647D01*
X182304Y533694D01*
X182265Y533743D01*
X182229Y533795D01*
X182196Y533849D01*
X182167Y533904D01*
X182141Y533961D01*
X182118Y534020D01*
X182098Y534079D01*
X182082Y534140D01*
X182069Y534201D01*
X182060Y534264D01*
X182055Y534326D01*
X182053Y534389D01*
X184063Y532645D02*
X184116Y532612D01*
X184167Y532575D01*
X184216Y532536D01*
X184263Y532494D01*
X184307Y532449D01*
X184348Y532402D01*
X184387Y532353D01*
X184423Y532301D01*
X184456Y532247D01*
X184485Y532192D01*
X184511Y532135D01*
X184534Y532076D01*
X184554Y532017D01*
X184570Y531956D01*
X184583Y531895D01*
X184592Y531832D01*
X184597Y531770D01*
X184599Y531707D01*
X184063Y532646D02*
X182589Y533450D01*
X187424Y535461D02*
X187424Y530635D01*
X189569Y530635D01*
X192179Y530635D02*
X194324Y530635D01*
X192179Y530635D02*
X192179Y535461D01*
X194324Y535461D01*
X193788Y533316D02*
X192179Y533316D01*
X196934Y535461D02*
X196934Y530635D01*
X196934Y535461D02*
X199079Y535461D01*
X199079Y533316D02*
X196934Y533316D01*
X202461Y535461D02*
X202461Y530635D01*
X201121Y535461D02*
X203802Y535461D01*
D13*
X2567510Y764590D02*
X2640051Y751799D01*
X2567510Y764590D02*
X2559482Y719065D01*
X2554278Y689548D02*
X2626819Y676757D01*
X2627612Y681260D01*
X2632023Y706274D02*
X2640051Y751799D01*
X2555072Y694050D02*
X2554278Y689548D01*
D12*
X425679Y525611D02*
X425677Y525546D01*
X425671Y525482D01*
X425661Y525418D01*
X425648Y525354D01*
X425630Y525292D01*
X425609Y525231D01*
X425585Y525171D01*
X425556Y525113D01*
X425524Y525056D01*
X425489Y525002D01*
X425451Y524950D01*
X425409Y524900D01*
X425365Y524853D01*
X425318Y524809D01*
X425268Y524767D01*
X425216Y524729D01*
X425162Y524694D01*
X425105Y524662D01*
X425047Y524633D01*
X424987Y524609D01*
X424926Y524588D01*
X424864Y524570D01*
X424800Y524557D01*
X424736Y524547D01*
X424672Y524541D01*
X424607Y524539D01*
X424513Y524541D01*
X424419Y524547D01*
X424325Y524557D01*
X424232Y524570D01*
X424140Y524588D01*
X424048Y524609D01*
X423957Y524634D01*
X423867Y524663D01*
X423779Y524696D01*
X423692Y524732D01*
X423607Y524772D01*
X423523Y524815D01*
X423442Y524862D01*
X423362Y524912D01*
X423284Y524965D01*
X423209Y525022D01*
X423136Y525081D01*
X423066Y525144D01*
X422998Y525209D01*
X423132Y528293D02*
X423134Y528358D01*
X423140Y528422D01*
X423150Y528486D01*
X423163Y528550D01*
X423181Y528612D01*
X423202Y528673D01*
X423226Y528733D01*
X423255Y528791D01*
X423287Y528848D01*
X423322Y528902D01*
X423360Y528954D01*
X423402Y529004D01*
X423446Y529051D01*
X423493Y529095D01*
X423543Y529137D01*
X423595Y529175D01*
X423649Y529210D01*
X423706Y529242D01*
X423764Y529271D01*
X423824Y529295D01*
X423885Y529316D01*
X423947Y529334D01*
X424011Y529347D01*
X424075Y529357D01*
X424139Y529363D01*
X424204Y529365D01*
X424290Y529363D01*
X424376Y529358D01*
X424462Y529348D01*
X424547Y529335D01*
X424632Y529319D01*
X424716Y529299D01*
X424799Y529275D01*
X424881Y529248D01*
X424961Y529217D01*
X425041Y529183D01*
X425118Y529145D01*
X425194Y529104D01*
X425268Y529060D01*
X425340Y529013D01*
X425411Y528963D01*
X423668Y527355D02*
X423615Y527388D01*
X423564Y527425D01*
X423515Y527464D01*
X423468Y527506D01*
X423424Y527551D01*
X423383Y527598D01*
X423344Y527647D01*
X423308Y527699D01*
X423275Y527753D01*
X423246Y527808D01*
X423220Y527865D01*
X423197Y527924D01*
X423177Y527983D01*
X423161Y528044D01*
X423148Y528105D01*
X423139Y528168D01*
X423134Y528230D01*
X423132Y528293D01*
X425143Y526549D02*
X425196Y526516D01*
X425247Y526479D01*
X425296Y526440D01*
X425343Y526398D01*
X425387Y526353D01*
X425428Y526306D01*
X425467Y526257D01*
X425503Y526205D01*
X425536Y526151D01*
X425565Y526096D01*
X425591Y526039D01*
X425614Y525980D01*
X425634Y525921D01*
X425650Y525860D01*
X425663Y525799D01*
X425672Y525736D01*
X425677Y525674D01*
X425679Y525611D01*
X425143Y526550D02*
X423668Y527354D01*
X428548Y529365D02*
X428548Y524539D01*
X428548Y529365D02*
X429889Y529365D01*
X429960Y529363D01*
X430032Y529357D01*
X430102Y529348D01*
X430172Y529335D01*
X430242Y529318D01*
X430310Y529297D01*
X430377Y529273D01*
X430443Y529245D01*
X430507Y529214D01*
X430570Y529179D01*
X430630Y529141D01*
X430689Y529100D01*
X430745Y529056D01*
X430799Y529009D01*
X430850Y528960D01*
X430898Y528907D01*
X430944Y528852D01*
X430986Y528795D01*
X431026Y528735D01*
X431062Y528674D01*
X431095Y528610D01*
X431124Y528545D01*
X431150Y528479D01*
X431173Y528411D01*
X431192Y528342D01*
X431207Y528272D01*
X431218Y528202D01*
X431226Y528131D01*
X431230Y528060D01*
X431230Y527988D01*
X431226Y527917D01*
X431218Y527846D01*
X431207Y527776D01*
X431192Y527706D01*
X431173Y527637D01*
X431150Y527569D01*
X431124Y527503D01*
X431095Y527438D01*
X431062Y527374D01*
X431026Y527313D01*
X430986Y527253D01*
X430944Y527196D01*
X430898Y527141D01*
X430850Y527088D01*
X430799Y527039D01*
X430745Y526992D01*
X430689Y526948D01*
X430630Y526907D01*
X430570Y526869D01*
X430507Y526834D01*
X430443Y526803D01*
X430377Y526775D01*
X430310Y526751D01*
X430242Y526730D01*
X430172Y526713D01*
X430102Y526700D01*
X430032Y526691D01*
X429960Y526685D01*
X429889Y526683D01*
X429889Y526684D02*
X428548Y526684D01*
X430157Y526684D02*
X431229Y524539D01*
X434214Y524539D02*
X434214Y529365D01*
X433678Y524539D02*
X434750Y524539D01*
X434750Y529365D02*
X433678Y529365D01*
X439322Y527220D02*
X440126Y527220D01*
X440126Y524539D01*
X438518Y524539D01*
X438453Y524541D01*
X438389Y524547D01*
X438325Y524557D01*
X438261Y524570D01*
X438199Y524588D01*
X438138Y524609D01*
X438078Y524633D01*
X438020Y524662D01*
X437963Y524694D01*
X437909Y524729D01*
X437857Y524767D01*
X437807Y524809D01*
X437760Y524853D01*
X437716Y524900D01*
X437674Y524950D01*
X437636Y525002D01*
X437601Y525056D01*
X437569Y525113D01*
X437540Y525171D01*
X437516Y525231D01*
X437495Y525292D01*
X437477Y525354D01*
X437464Y525418D01*
X437454Y525482D01*
X437448Y525546D01*
X437446Y525611D01*
X437445Y525611D02*
X437445Y528293D01*
X437446Y528293D02*
X437448Y528358D01*
X437454Y528422D01*
X437464Y528486D01*
X437477Y528550D01*
X437495Y528612D01*
X437516Y528673D01*
X437540Y528733D01*
X437569Y528791D01*
X437601Y528848D01*
X437636Y528902D01*
X437674Y528954D01*
X437716Y529004D01*
X437760Y529051D01*
X437807Y529095D01*
X437857Y529137D01*
X437909Y529175D01*
X437963Y529210D01*
X438020Y529242D01*
X438078Y529271D01*
X438138Y529295D01*
X438199Y529316D01*
X438261Y529334D01*
X438325Y529347D01*
X438389Y529357D01*
X438453Y529363D01*
X438518Y529365D01*
X440126Y529365D01*
X443298Y529365D02*
X443298Y524539D01*
X443298Y527220D02*
X445979Y527220D01*
X445979Y529365D02*
X445979Y524539D01*
X449942Y524539D02*
X449942Y529365D01*
X451282Y529365D02*
X448601Y529365D01*
X419753Y211707D02*
X419751Y211642D01*
X419745Y211578D01*
X419735Y211514D01*
X419722Y211450D01*
X419704Y211388D01*
X419683Y211327D01*
X419659Y211267D01*
X419630Y211209D01*
X419598Y211152D01*
X419563Y211098D01*
X419525Y211046D01*
X419483Y210996D01*
X419439Y210949D01*
X419392Y210905D01*
X419342Y210863D01*
X419290Y210825D01*
X419236Y210790D01*
X419179Y210758D01*
X419121Y210729D01*
X419061Y210705D01*
X419000Y210684D01*
X418938Y210666D01*
X418874Y210653D01*
X418810Y210643D01*
X418746Y210637D01*
X418681Y210635D01*
X418587Y210637D01*
X418493Y210643D01*
X418399Y210653D01*
X418306Y210666D01*
X418214Y210684D01*
X418122Y210705D01*
X418031Y210730D01*
X417941Y210759D01*
X417853Y210792D01*
X417766Y210828D01*
X417681Y210868D01*
X417597Y210911D01*
X417516Y210958D01*
X417436Y211008D01*
X417358Y211061D01*
X417283Y211118D01*
X417210Y211177D01*
X417140Y211240D01*
X417072Y211305D01*
X417207Y214389D02*
X417209Y214454D01*
X417215Y214518D01*
X417225Y214582D01*
X417238Y214646D01*
X417256Y214708D01*
X417277Y214769D01*
X417301Y214829D01*
X417330Y214887D01*
X417362Y214944D01*
X417397Y214998D01*
X417435Y215050D01*
X417477Y215100D01*
X417521Y215147D01*
X417568Y215191D01*
X417618Y215233D01*
X417670Y215271D01*
X417724Y215306D01*
X417781Y215338D01*
X417839Y215367D01*
X417899Y215391D01*
X417960Y215412D01*
X418022Y215430D01*
X418086Y215443D01*
X418150Y215453D01*
X418214Y215459D01*
X418279Y215461D01*
X418365Y215459D01*
X418451Y215454D01*
X418537Y215444D01*
X418622Y215431D01*
X418707Y215415D01*
X418791Y215395D01*
X418874Y215371D01*
X418956Y215344D01*
X419036Y215313D01*
X419116Y215279D01*
X419193Y215241D01*
X419269Y215200D01*
X419343Y215156D01*
X419415Y215109D01*
X419486Y215059D01*
X417742Y213451D02*
X417689Y213484D01*
X417638Y213521D01*
X417589Y213560D01*
X417542Y213602D01*
X417498Y213647D01*
X417457Y213694D01*
X417418Y213743D01*
X417382Y213795D01*
X417349Y213849D01*
X417320Y213904D01*
X417294Y213961D01*
X417271Y214020D01*
X417251Y214079D01*
X417235Y214140D01*
X417222Y214201D01*
X417213Y214264D01*
X417208Y214326D01*
X417206Y214389D01*
X419217Y212645D02*
X419270Y212612D01*
X419321Y212575D01*
X419370Y212536D01*
X419417Y212494D01*
X419461Y212449D01*
X419502Y212402D01*
X419541Y212353D01*
X419577Y212301D01*
X419610Y212247D01*
X419639Y212192D01*
X419665Y212135D01*
X419688Y212076D01*
X419708Y212017D01*
X419724Y211956D01*
X419737Y211895D01*
X419746Y211832D01*
X419751Y211770D01*
X419753Y211707D01*
X419217Y212646D02*
X417742Y213450D01*
X423801Y210635D02*
X423866Y210637D01*
X423930Y210643D01*
X423994Y210653D01*
X424058Y210666D01*
X424120Y210684D01*
X424181Y210705D01*
X424241Y210729D01*
X424299Y210758D01*
X424356Y210790D01*
X424410Y210825D01*
X424462Y210863D01*
X424512Y210905D01*
X424559Y210949D01*
X424603Y210996D01*
X424645Y211046D01*
X424683Y211098D01*
X424718Y211152D01*
X424750Y211209D01*
X424779Y211267D01*
X424803Y211327D01*
X424824Y211388D01*
X424842Y211450D01*
X424855Y211514D01*
X424865Y211578D01*
X424871Y211642D01*
X424873Y211707D01*
X423801Y210635D02*
X423707Y210637D01*
X423613Y210643D01*
X423519Y210653D01*
X423426Y210666D01*
X423334Y210684D01*
X423242Y210705D01*
X423151Y210730D01*
X423061Y210759D01*
X422973Y210792D01*
X422886Y210828D01*
X422801Y210868D01*
X422717Y210911D01*
X422636Y210958D01*
X422556Y211008D01*
X422478Y211061D01*
X422403Y211118D01*
X422330Y211177D01*
X422260Y211240D01*
X422192Y211305D01*
X422327Y214389D02*
X422329Y214454D01*
X422335Y214518D01*
X422345Y214582D01*
X422358Y214646D01*
X422376Y214708D01*
X422397Y214769D01*
X422421Y214829D01*
X422450Y214887D01*
X422482Y214944D01*
X422517Y214998D01*
X422555Y215050D01*
X422597Y215100D01*
X422641Y215147D01*
X422688Y215191D01*
X422738Y215233D01*
X422790Y215271D01*
X422844Y215306D01*
X422901Y215338D01*
X422959Y215367D01*
X423019Y215391D01*
X423080Y215412D01*
X423142Y215430D01*
X423206Y215443D01*
X423270Y215453D01*
X423334Y215459D01*
X423399Y215461D01*
X423485Y215459D01*
X423571Y215454D01*
X423657Y215444D01*
X423742Y215431D01*
X423827Y215415D01*
X423911Y215395D01*
X423994Y215371D01*
X424076Y215344D01*
X424156Y215313D01*
X424236Y215279D01*
X424313Y215241D01*
X424389Y215200D01*
X424463Y215156D01*
X424535Y215109D01*
X424606Y215059D01*
X422863Y213451D02*
X422810Y213484D01*
X422759Y213521D01*
X422710Y213560D01*
X422663Y213602D01*
X422619Y213647D01*
X422578Y213694D01*
X422539Y213743D01*
X422503Y213795D01*
X422470Y213849D01*
X422441Y213904D01*
X422415Y213961D01*
X422392Y214020D01*
X422372Y214079D01*
X422356Y214140D01*
X422343Y214201D01*
X422334Y214264D01*
X422329Y214326D01*
X422327Y214389D01*
X424338Y212645D02*
X424391Y212612D01*
X424442Y212575D01*
X424491Y212536D01*
X424538Y212494D01*
X424582Y212449D01*
X424623Y212402D01*
X424662Y212353D01*
X424698Y212301D01*
X424731Y212247D01*
X424760Y212192D01*
X424786Y212135D01*
X424809Y212076D01*
X424829Y212017D01*
X424845Y211956D01*
X424858Y211895D01*
X424867Y211832D01*
X424872Y211770D01*
X424874Y211707D01*
X424338Y212646D02*
X422863Y213450D01*
X427699Y210635D02*
X429843Y210635D01*
X427699Y210635D02*
X427699Y215461D01*
X429843Y215461D01*
X429307Y213316D02*
X427699Y213316D01*
X432453Y215461D02*
X432453Y210635D01*
X434598Y210635D01*
X437208Y210635D02*
X439353Y210635D01*
X437208Y210635D02*
X437208Y215461D01*
X439353Y215461D01*
X438817Y213316D02*
X437208Y213316D01*
X442804Y210635D02*
X443877Y210635D01*
X442804Y210635D02*
X442739Y210637D01*
X442675Y210643D01*
X442611Y210653D01*
X442547Y210666D01*
X442485Y210684D01*
X442424Y210705D01*
X442364Y210729D01*
X442306Y210758D01*
X442249Y210790D01*
X442195Y210825D01*
X442143Y210863D01*
X442093Y210905D01*
X442046Y210949D01*
X442002Y210996D01*
X441960Y211046D01*
X441922Y211098D01*
X441887Y211152D01*
X441855Y211209D01*
X441826Y211267D01*
X441802Y211327D01*
X441781Y211388D01*
X441763Y211450D01*
X441750Y211514D01*
X441740Y211578D01*
X441734Y211642D01*
X441732Y211707D01*
X441732Y214389D01*
X441734Y214454D01*
X441740Y214518D01*
X441750Y214582D01*
X441763Y214646D01*
X441781Y214708D01*
X441802Y214769D01*
X441826Y214829D01*
X441855Y214887D01*
X441887Y214944D01*
X441922Y214998D01*
X441960Y215050D01*
X442002Y215100D01*
X442046Y215147D01*
X442093Y215191D01*
X442143Y215233D01*
X442195Y215271D01*
X442249Y215306D01*
X442306Y215338D01*
X442364Y215367D01*
X442424Y215391D01*
X442485Y215412D01*
X442547Y215430D01*
X442611Y215443D01*
X442675Y215453D01*
X442739Y215459D01*
X442804Y215461D01*
X443877Y215461D01*
X447307Y215461D02*
X447307Y210635D01*
X445967Y215461D02*
X448648Y215461D01*
X2434424Y144539D02*
X2434489Y144541D01*
X2434553Y144547D01*
X2434617Y144557D01*
X2434681Y144570D01*
X2434743Y144588D01*
X2434804Y144609D01*
X2434864Y144633D01*
X2434922Y144662D01*
X2434979Y144694D01*
X2435033Y144729D01*
X2435085Y144767D01*
X2435135Y144809D01*
X2435182Y144853D01*
X2435226Y144900D01*
X2435268Y144950D01*
X2435306Y145002D01*
X2435341Y145056D01*
X2435373Y145113D01*
X2435402Y145171D01*
X2435426Y145231D01*
X2435447Y145292D01*
X2435465Y145354D01*
X2435478Y145418D01*
X2435488Y145482D01*
X2435494Y145546D01*
X2435496Y145611D01*
X2434424Y144539D02*
X2434330Y144541D01*
X2434236Y144547D01*
X2434142Y144557D01*
X2434049Y144570D01*
X2433957Y144588D01*
X2433865Y144609D01*
X2433774Y144634D01*
X2433684Y144663D01*
X2433596Y144696D01*
X2433509Y144732D01*
X2433424Y144772D01*
X2433340Y144815D01*
X2433259Y144862D01*
X2433179Y144912D01*
X2433101Y144965D01*
X2433026Y145022D01*
X2432953Y145081D01*
X2432883Y145144D01*
X2432815Y145209D01*
X2432950Y148293D02*
X2432952Y148358D01*
X2432958Y148422D01*
X2432968Y148486D01*
X2432981Y148550D01*
X2432999Y148612D01*
X2433020Y148673D01*
X2433044Y148733D01*
X2433073Y148791D01*
X2433105Y148848D01*
X2433140Y148902D01*
X2433178Y148954D01*
X2433220Y149004D01*
X2433264Y149051D01*
X2433311Y149095D01*
X2433361Y149137D01*
X2433413Y149175D01*
X2433467Y149210D01*
X2433524Y149242D01*
X2433582Y149271D01*
X2433642Y149295D01*
X2433703Y149316D01*
X2433765Y149334D01*
X2433829Y149347D01*
X2433893Y149357D01*
X2433957Y149363D01*
X2434022Y149365D01*
X2434108Y149363D01*
X2434194Y149358D01*
X2434280Y149348D01*
X2434365Y149335D01*
X2434450Y149319D01*
X2434534Y149299D01*
X2434617Y149275D01*
X2434699Y149248D01*
X2434779Y149217D01*
X2434859Y149183D01*
X2434936Y149145D01*
X2435012Y149104D01*
X2435086Y149060D01*
X2435158Y149013D01*
X2435229Y148963D01*
X2433485Y147355D02*
X2433432Y147388D01*
X2433381Y147425D01*
X2433332Y147464D01*
X2433285Y147506D01*
X2433241Y147551D01*
X2433200Y147598D01*
X2433161Y147647D01*
X2433125Y147699D01*
X2433092Y147753D01*
X2433063Y147808D01*
X2433037Y147865D01*
X2433014Y147924D01*
X2432994Y147983D01*
X2432978Y148044D01*
X2432965Y148105D01*
X2432956Y148168D01*
X2432951Y148230D01*
X2432949Y148293D01*
X2434960Y146549D02*
X2435013Y146516D01*
X2435064Y146479D01*
X2435113Y146440D01*
X2435160Y146398D01*
X2435204Y146353D01*
X2435245Y146306D01*
X2435284Y146257D01*
X2435320Y146205D01*
X2435353Y146151D01*
X2435382Y146096D01*
X2435408Y146039D01*
X2435431Y145980D01*
X2435451Y145921D01*
X2435467Y145860D01*
X2435480Y145799D01*
X2435489Y145736D01*
X2435494Y145674D01*
X2435496Y145611D01*
X2434960Y146550D02*
X2433485Y147354D01*
X2439544Y144539D02*
X2439609Y144541D01*
X2439673Y144547D01*
X2439737Y144557D01*
X2439801Y144570D01*
X2439863Y144588D01*
X2439924Y144609D01*
X2439984Y144633D01*
X2440042Y144662D01*
X2440099Y144694D01*
X2440153Y144729D01*
X2440205Y144767D01*
X2440255Y144809D01*
X2440302Y144853D01*
X2440346Y144900D01*
X2440388Y144950D01*
X2440426Y145002D01*
X2440461Y145056D01*
X2440493Y145113D01*
X2440522Y145171D01*
X2440546Y145231D01*
X2440567Y145292D01*
X2440585Y145354D01*
X2440598Y145418D01*
X2440608Y145482D01*
X2440614Y145546D01*
X2440616Y145611D01*
X2439544Y144539D02*
X2439450Y144541D01*
X2439356Y144547D01*
X2439262Y144557D01*
X2439169Y144570D01*
X2439077Y144588D01*
X2438985Y144609D01*
X2438894Y144634D01*
X2438804Y144663D01*
X2438716Y144696D01*
X2438629Y144732D01*
X2438544Y144772D01*
X2438460Y144815D01*
X2438379Y144862D01*
X2438299Y144912D01*
X2438221Y144965D01*
X2438146Y145022D01*
X2438073Y145081D01*
X2438003Y145144D01*
X2437935Y145209D01*
X2438070Y148293D02*
X2438072Y148358D01*
X2438078Y148422D01*
X2438088Y148486D01*
X2438101Y148550D01*
X2438119Y148612D01*
X2438140Y148673D01*
X2438164Y148733D01*
X2438193Y148791D01*
X2438225Y148848D01*
X2438260Y148902D01*
X2438298Y148954D01*
X2438340Y149004D01*
X2438384Y149051D01*
X2438431Y149095D01*
X2438481Y149137D01*
X2438533Y149175D01*
X2438587Y149210D01*
X2438644Y149242D01*
X2438702Y149271D01*
X2438762Y149295D01*
X2438823Y149316D01*
X2438885Y149334D01*
X2438949Y149347D01*
X2439013Y149357D01*
X2439077Y149363D01*
X2439142Y149365D01*
X2439228Y149363D01*
X2439314Y149358D01*
X2439400Y149348D01*
X2439485Y149335D01*
X2439570Y149319D01*
X2439654Y149299D01*
X2439737Y149275D01*
X2439819Y149248D01*
X2439899Y149217D01*
X2439979Y149183D01*
X2440056Y149145D01*
X2440132Y149104D01*
X2440206Y149060D01*
X2440278Y149013D01*
X2440349Y148963D01*
X2438606Y147355D02*
X2438553Y147388D01*
X2438502Y147425D01*
X2438453Y147464D01*
X2438406Y147506D01*
X2438362Y147551D01*
X2438321Y147598D01*
X2438282Y147647D01*
X2438246Y147699D01*
X2438213Y147753D01*
X2438184Y147808D01*
X2438158Y147865D01*
X2438135Y147924D01*
X2438115Y147983D01*
X2438099Y148044D01*
X2438086Y148105D01*
X2438077Y148168D01*
X2438072Y148230D01*
X2438070Y148293D01*
X2440081Y146549D02*
X2440134Y146516D01*
X2440185Y146479D01*
X2440234Y146440D01*
X2440281Y146398D01*
X2440325Y146353D01*
X2440366Y146306D01*
X2440405Y146257D01*
X2440441Y146205D01*
X2440474Y146151D01*
X2440503Y146096D01*
X2440529Y146039D01*
X2440552Y145980D01*
X2440572Y145921D01*
X2440588Y145860D01*
X2440601Y145799D01*
X2440610Y145736D01*
X2440615Y145674D01*
X2440617Y145611D01*
X2440081Y146550D02*
X2438606Y147354D01*
X2444214Y149365D02*
X2444214Y144539D01*
X2442873Y149365D02*
X2445554Y149365D01*
X2449335Y149365D02*
X2447726Y144539D01*
X2450943Y144539D02*
X2449335Y149365D01*
X2450541Y145746D02*
X2448128Y145746D01*
X2453727Y144539D02*
X2453727Y149365D01*
X2455067Y149365D01*
X2455138Y149363D01*
X2455210Y149357D01*
X2455280Y149348D01*
X2455350Y149335D01*
X2455420Y149318D01*
X2455488Y149297D01*
X2455555Y149273D01*
X2455621Y149245D01*
X2455685Y149214D01*
X2455748Y149179D01*
X2455808Y149141D01*
X2455867Y149100D01*
X2455923Y149056D01*
X2455977Y149009D01*
X2456028Y148960D01*
X2456076Y148907D01*
X2456122Y148852D01*
X2456164Y148795D01*
X2456204Y148735D01*
X2456240Y148674D01*
X2456273Y148610D01*
X2456302Y148545D01*
X2456328Y148479D01*
X2456351Y148411D01*
X2456370Y148342D01*
X2456385Y148272D01*
X2456396Y148202D01*
X2456404Y148131D01*
X2456408Y148060D01*
X2456408Y147988D01*
X2456404Y147917D01*
X2456396Y147846D01*
X2456385Y147776D01*
X2456370Y147706D01*
X2456351Y147637D01*
X2456328Y147569D01*
X2456302Y147503D01*
X2456273Y147438D01*
X2456240Y147374D01*
X2456204Y147313D01*
X2456164Y147253D01*
X2456122Y147196D01*
X2456076Y147141D01*
X2456028Y147088D01*
X2455977Y147039D01*
X2455923Y146992D01*
X2455867Y146948D01*
X2455808Y146907D01*
X2455748Y146869D01*
X2455685Y146834D01*
X2455621Y146803D01*
X2455555Y146775D01*
X2455488Y146751D01*
X2455420Y146730D01*
X2455350Y146713D01*
X2455280Y146700D01*
X2455210Y146691D01*
X2455138Y146685D01*
X2455067Y146683D01*
X2455067Y146684D02*
X2453727Y146684D01*
X2455336Y146684D02*
X2456408Y144539D01*
X2460124Y144539D02*
X2460124Y149365D01*
X2458784Y149365D02*
X2461465Y149365D01*
X315598Y628847D02*
X315596Y628782D01*
X315590Y628718D01*
X315580Y628654D01*
X315567Y628590D01*
X315549Y628528D01*
X315528Y628467D01*
X315504Y628407D01*
X315475Y628349D01*
X315443Y628292D01*
X315408Y628238D01*
X315370Y628186D01*
X315328Y628136D01*
X315284Y628089D01*
X315237Y628045D01*
X315187Y628003D01*
X315135Y627965D01*
X315081Y627930D01*
X315024Y627898D01*
X314966Y627869D01*
X314906Y627845D01*
X314845Y627824D01*
X314783Y627806D01*
X314719Y627793D01*
X314655Y627783D01*
X314591Y627777D01*
X314526Y627775D01*
X314432Y627777D01*
X314338Y627783D01*
X314244Y627793D01*
X314151Y627806D01*
X314059Y627824D01*
X313967Y627845D01*
X313876Y627870D01*
X313786Y627899D01*
X313698Y627932D01*
X313611Y627968D01*
X313526Y628008D01*
X313442Y628051D01*
X313361Y628098D01*
X313281Y628148D01*
X313203Y628201D01*
X313128Y628258D01*
X313055Y628317D01*
X312985Y628380D01*
X312917Y628445D01*
X313051Y631529D02*
X313053Y631594D01*
X313059Y631658D01*
X313069Y631722D01*
X313082Y631786D01*
X313100Y631848D01*
X313121Y631909D01*
X313145Y631969D01*
X313174Y632027D01*
X313206Y632084D01*
X313241Y632138D01*
X313279Y632190D01*
X313321Y632240D01*
X313365Y632287D01*
X313412Y632331D01*
X313462Y632373D01*
X313514Y632411D01*
X313568Y632446D01*
X313625Y632478D01*
X313683Y632507D01*
X313743Y632531D01*
X313804Y632552D01*
X313866Y632570D01*
X313930Y632583D01*
X313994Y632593D01*
X314058Y632599D01*
X314123Y632601D01*
X314209Y632599D01*
X314295Y632594D01*
X314381Y632584D01*
X314466Y632571D01*
X314551Y632555D01*
X314635Y632535D01*
X314718Y632511D01*
X314800Y632484D01*
X314880Y632453D01*
X314960Y632419D01*
X315037Y632381D01*
X315113Y632340D01*
X315187Y632296D01*
X315259Y632249D01*
X315330Y632199D01*
X313587Y630591D02*
X313534Y630624D01*
X313483Y630661D01*
X313434Y630700D01*
X313387Y630742D01*
X313343Y630787D01*
X313302Y630834D01*
X313263Y630883D01*
X313227Y630935D01*
X313194Y630989D01*
X313165Y631044D01*
X313139Y631101D01*
X313116Y631160D01*
X313096Y631219D01*
X313080Y631280D01*
X313067Y631341D01*
X313058Y631404D01*
X313053Y631466D01*
X313051Y631529D01*
X315062Y629785D02*
X315115Y629752D01*
X315166Y629715D01*
X315215Y629676D01*
X315262Y629634D01*
X315306Y629589D01*
X315347Y629542D01*
X315386Y629493D01*
X315422Y629441D01*
X315455Y629387D01*
X315484Y629332D01*
X315510Y629275D01*
X315533Y629216D01*
X315553Y629157D01*
X315569Y629096D01*
X315582Y629035D01*
X315591Y628972D01*
X315596Y628910D01*
X315598Y628847D01*
X315062Y629786D02*
X313587Y630590D01*
X318403Y629116D02*
X318403Y632601D01*
X318403Y629116D02*
X318405Y629045D01*
X318411Y628973D01*
X318420Y628903D01*
X318433Y628833D01*
X318450Y628763D01*
X318471Y628695D01*
X318495Y628628D01*
X318523Y628562D01*
X318554Y628498D01*
X318589Y628435D01*
X318627Y628375D01*
X318668Y628316D01*
X318712Y628260D01*
X318759Y628206D01*
X318808Y628155D01*
X318861Y628107D01*
X318916Y628061D01*
X318973Y628019D01*
X319033Y627979D01*
X319094Y627943D01*
X319158Y627910D01*
X319223Y627881D01*
X319289Y627855D01*
X319357Y627832D01*
X319426Y627813D01*
X319496Y627798D01*
X319566Y627787D01*
X319637Y627779D01*
X319708Y627775D01*
X319780Y627775D01*
X319851Y627779D01*
X319922Y627787D01*
X319992Y627798D01*
X320062Y627813D01*
X320131Y627832D01*
X320199Y627855D01*
X320265Y627881D01*
X320330Y627910D01*
X320394Y627943D01*
X320455Y627979D01*
X320515Y628019D01*
X320572Y628061D01*
X320627Y628107D01*
X320680Y628155D01*
X320729Y628206D01*
X320776Y628260D01*
X320820Y628316D01*
X320861Y628375D01*
X320899Y628435D01*
X320934Y628498D01*
X320965Y628562D01*
X320993Y628628D01*
X321017Y628695D01*
X321038Y628763D01*
X321055Y628833D01*
X321068Y628903D01*
X321077Y628973D01*
X321083Y629045D01*
X321085Y629116D01*
X321084Y629116D02*
X321084Y632601D01*
X324402Y632601D02*
X324402Y627775D01*
X324402Y632601D02*
X325743Y632601D01*
X325814Y632599D01*
X325886Y632593D01*
X325956Y632584D01*
X326026Y632571D01*
X326096Y632554D01*
X326164Y632533D01*
X326231Y632509D01*
X326297Y632481D01*
X326361Y632450D01*
X326424Y632415D01*
X326484Y632377D01*
X326543Y632336D01*
X326599Y632292D01*
X326653Y632245D01*
X326704Y632196D01*
X326752Y632143D01*
X326798Y632088D01*
X326840Y632031D01*
X326880Y631971D01*
X326916Y631910D01*
X326949Y631846D01*
X326978Y631781D01*
X327004Y631715D01*
X327027Y631647D01*
X327046Y631578D01*
X327061Y631508D01*
X327072Y631438D01*
X327080Y631367D01*
X327084Y631296D01*
X327084Y631224D01*
X327080Y631153D01*
X327072Y631082D01*
X327061Y631012D01*
X327046Y630942D01*
X327027Y630873D01*
X327004Y630805D01*
X326978Y630739D01*
X326949Y630674D01*
X326916Y630610D01*
X326880Y630549D01*
X326840Y630489D01*
X326798Y630432D01*
X326752Y630377D01*
X326704Y630324D01*
X326653Y630275D01*
X326599Y630228D01*
X326543Y630184D01*
X326484Y630143D01*
X326424Y630105D01*
X326361Y630070D01*
X326297Y630039D01*
X326231Y630011D01*
X326164Y629987D01*
X326096Y629966D01*
X326026Y629949D01*
X325956Y629936D01*
X325886Y629927D01*
X325814Y629921D01*
X325743Y629919D01*
X325743Y629920D02*
X324402Y629920D01*
X2567482Y627775D02*
X2567547Y627777D01*
X2567611Y627783D01*
X2567675Y627793D01*
X2567739Y627806D01*
X2567801Y627824D01*
X2567862Y627845D01*
X2567922Y627869D01*
X2567980Y627898D01*
X2568037Y627930D01*
X2568091Y627965D01*
X2568143Y628003D01*
X2568193Y628045D01*
X2568240Y628089D01*
X2568284Y628136D01*
X2568326Y628186D01*
X2568364Y628238D01*
X2568399Y628292D01*
X2568431Y628349D01*
X2568460Y628407D01*
X2568484Y628467D01*
X2568505Y628528D01*
X2568523Y628590D01*
X2568536Y628654D01*
X2568546Y628718D01*
X2568552Y628782D01*
X2568554Y628847D01*
X2567482Y627775D02*
X2567388Y627777D01*
X2567294Y627783D01*
X2567200Y627793D01*
X2567107Y627806D01*
X2567015Y627824D01*
X2566923Y627845D01*
X2566832Y627870D01*
X2566742Y627899D01*
X2566654Y627932D01*
X2566567Y627968D01*
X2566482Y628008D01*
X2566398Y628051D01*
X2566317Y628098D01*
X2566237Y628148D01*
X2566159Y628201D01*
X2566084Y628258D01*
X2566011Y628317D01*
X2565941Y628380D01*
X2565873Y628445D01*
X2566008Y631529D02*
X2566010Y631594D01*
X2566016Y631658D01*
X2566026Y631722D01*
X2566039Y631786D01*
X2566057Y631848D01*
X2566078Y631909D01*
X2566102Y631969D01*
X2566131Y632027D01*
X2566163Y632084D01*
X2566198Y632138D01*
X2566236Y632190D01*
X2566278Y632240D01*
X2566322Y632287D01*
X2566369Y632331D01*
X2566419Y632373D01*
X2566471Y632411D01*
X2566525Y632446D01*
X2566582Y632478D01*
X2566640Y632507D01*
X2566700Y632531D01*
X2566761Y632552D01*
X2566823Y632570D01*
X2566887Y632583D01*
X2566951Y632593D01*
X2567015Y632599D01*
X2567080Y632601D01*
X2567166Y632599D01*
X2567252Y632594D01*
X2567338Y632584D01*
X2567423Y632571D01*
X2567508Y632555D01*
X2567592Y632535D01*
X2567675Y632511D01*
X2567757Y632484D01*
X2567837Y632453D01*
X2567917Y632419D01*
X2567994Y632381D01*
X2568070Y632340D01*
X2568144Y632296D01*
X2568216Y632249D01*
X2568287Y632199D01*
X2566544Y630591D02*
X2566491Y630624D01*
X2566440Y630661D01*
X2566391Y630700D01*
X2566344Y630742D01*
X2566300Y630787D01*
X2566259Y630834D01*
X2566220Y630883D01*
X2566184Y630935D01*
X2566151Y630989D01*
X2566122Y631044D01*
X2566096Y631101D01*
X2566073Y631160D01*
X2566053Y631219D01*
X2566037Y631280D01*
X2566024Y631341D01*
X2566015Y631404D01*
X2566010Y631466D01*
X2566008Y631529D01*
X2568019Y629785D02*
X2568072Y629752D01*
X2568123Y629715D01*
X2568172Y629676D01*
X2568219Y629634D01*
X2568263Y629589D01*
X2568304Y629542D01*
X2568343Y629493D01*
X2568379Y629441D01*
X2568412Y629387D01*
X2568441Y629332D01*
X2568467Y629275D01*
X2568490Y629216D01*
X2568510Y629157D01*
X2568526Y629096D01*
X2568539Y629035D01*
X2568548Y628972D01*
X2568553Y628910D01*
X2568555Y628847D01*
X2568019Y629786D02*
X2566544Y630590D01*
X2570909Y627775D02*
X2574126Y632601D01*
X2570909Y632601D02*
X2574126Y627775D01*
X2461414Y521707D02*
X2461412Y521642D01*
X2461406Y521578D01*
X2461396Y521514D01*
X2461383Y521450D01*
X2461365Y521388D01*
X2461344Y521327D01*
X2461320Y521267D01*
X2461291Y521209D01*
X2461259Y521152D01*
X2461224Y521098D01*
X2461186Y521046D01*
X2461144Y520996D01*
X2461100Y520949D01*
X2461053Y520905D01*
X2461003Y520863D01*
X2460951Y520825D01*
X2460897Y520790D01*
X2460840Y520758D01*
X2460782Y520729D01*
X2460722Y520705D01*
X2460661Y520684D01*
X2460599Y520666D01*
X2460535Y520653D01*
X2460471Y520643D01*
X2460407Y520637D01*
X2460342Y520635D01*
X2460248Y520637D01*
X2460154Y520643D01*
X2460060Y520653D01*
X2459967Y520666D01*
X2459875Y520684D01*
X2459783Y520705D01*
X2459692Y520730D01*
X2459602Y520759D01*
X2459514Y520792D01*
X2459427Y520828D01*
X2459342Y520868D01*
X2459258Y520911D01*
X2459177Y520958D01*
X2459097Y521008D01*
X2459019Y521061D01*
X2458944Y521118D01*
X2458871Y521177D01*
X2458801Y521240D01*
X2458733Y521305D01*
X2458868Y524389D02*
X2458870Y524454D01*
X2458876Y524518D01*
X2458886Y524582D01*
X2458899Y524646D01*
X2458917Y524708D01*
X2458938Y524769D01*
X2458962Y524829D01*
X2458991Y524887D01*
X2459023Y524944D01*
X2459058Y524998D01*
X2459096Y525050D01*
X2459138Y525100D01*
X2459182Y525147D01*
X2459229Y525191D01*
X2459279Y525233D01*
X2459331Y525271D01*
X2459385Y525306D01*
X2459442Y525338D01*
X2459500Y525367D01*
X2459560Y525391D01*
X2459621Y525412D01*
X2459683Y525430D01*
X2459747Y525443D01*
X2459811Y525453D01*
X2459875Y525459D01*
X2459940Y525461D01*
X2460026Y525459D01*
X2460112Y525454D01*
X2460198Y525444D01*
X2460283Y525431D01*
X2460368Y525415D01*
X2460452Y525395D01*
X2460535Y525371D01*
X2460617Y525344D01*
X2460697Y525313D01*
X2460777Y525279D01*
X2460854Y525241D01*
X2460930Y525200D01*
X2461004Y525156D01*
X2461076Y525109D01*
X2461147Y525059D01*
X2459404Y523451D02*
X2459351Y523484D01*
X2459300Y523521D01*
X2459251Y523560D01*
X2459204Y523602D01*
X2459160Y523647D01*
X2459119Y523694D01*
X2459080Y523743D01*
X2459044Y523795D01*
X2459011Y523849D01*
X2458982Y523904D01*
X2458956Y523961D01*
X2458933Y524020D01*
X2458913Y524079D01*
X2458897Y524140D01*
X2458884Y524201D01*
X2458875Y524264D01*
X2458870Y524326D01*
X2458868Y524389D01*
X2460879Y522645D02*
X2460932Y522612D01*
X2460983Y522575D01*
X2461032Y522536D01*
X2461079Y522494D01*
X2461123Y522449D01*
X2461164Y522402D01*
X2461203Y522353D01*
X2461239Y522301D01*
X2461272Y522247D01*
X2461301Y522192D01*
X2461327Y522135D01*
X2461350Y522076D01*
X2461370Y522017D01*
X2461386Y521956D01*
X2461399Y521895D01*
X2461408Y521832D01*
X2461413Y521770D01*
X2461415Y521707D01*
X2460879Y522646D02*
X2459404Y523450D01*
X2463769Y525461D02*
X2465378Y523182D01*
X2466986Y525461D01*
X2465378Y523182D02*
X2465378Y520635D01*
X2684622Y524539D02*
X2684687Y524541D01*
X2684751Y524547D01*
X2684815Y524557D01*
X2684879Y524570D01*
X2684941Y524588D01*
X2685002Y524609D01*
X2685062Y524633D01*
X2685120Y524662D01*
X2685177Y524694D01*
X2685231Y524729D01*
X2685283Y524767D01*
X2685333Y524809D01*
X2685380Y524853D01*
X2685424Y524900D01*
X2685466Y524950D01*
X2685504Y525002D01*
X2685539Y525056D01*
X2685571Y525113D01*
X2685600Y525171D01*
X2685624Y525231D01*
X2685645Y525292D01*
X2685663Y525354D01*
X2685676Y525418D01*
X2685686Y525482D01*
X2685692Y525546D01*
X2685694Y525611D01*
X2684622Y524539D02*
X2684528Y524541D01*
X2684434Y524547D01*
X2684340Y524557D01*
X2684247Y524570D01*
X2684155Y524588D01*
X2684063Y524609D01*
X2683972Y524634D01*
X2683882Y524663D01*
X2683794Y524696D01*
X2683707Y524732D01*
X2683622Y524772D01*
X2683538Y524815D01*
X2683457Y524862D01*
X2683377Y524912D01*
X2683299Y524965D01*
X2683224Y525022D01*
X2683151Y525081D01*
X2683081Y525144D01*
X2683013Y525209D01*
X2683148Y528293D02*
X2683150Y528358D01*
X2683156Y528422D01*
X2683166Y528486D01*
X2683179Y528550D01*
X2683197Y528612D01*
X2683218Y528673D01*
X2683242Y528733D01*
X2683271Y528791D01*
X2683303Y528848D01*
X2683338Y528902D01*
X2683376Y528954D01*
X2683418Y529004D01*
X2683462Y529051D01*
X2683509Y529095D01*
X2683559Y529137D01*
X2683611Y529175D01*
X2683665Y529210D01*
X2683722Y529242D01*
X2683780Y529271D01*
X2683840Y529295D01*
X2683901Y529316D01*
X2683963Y529334D01*
X2684027Y529347D01*
X2684091Y529357D01*
X2684155Y529363D01*
X2684220Y529365D01*
X2684306Y529363D01*
X2684392Y529358D01*
X2684478Y529348D01*
X2684563Y529335D01*
X2684648Y529319D01*
X2684732Y529299D01*
X2684815Y529275D01*
X2684897Y529248D01*
X2684977Y529217D01*
X2685057Y529183D01*
X2685134Y529145D01*
X2685210Y529104D01*
X2685284Y529060D01*
X2685356Y529013D01*
X2685427Y528963D01*
X2683684Y527355D02*
X2683631Y527388D01*
X2683580Y527425D01*
X2683531Y527464D01*
X2683484Y527506D01*
X2683440Y527551D01*
X2683399Y527598D01*
X2683360Y527647D01*
X2683324Y527699D01*
X2683291Y527753D01*
X2683262Y527808D01*
X2683236Y527865D01*
X2683213Y527924D01*
X2683193Y527983D01*
X2683177Y528044D01*
X2683164Y528105D01*
X2683155Y528168D01*
X2683150Y528230D01*
X2683148Y528293D01*
X2685159Y526549D02*
X2685212Y526516D01*
X2685263Y526479D01*
X2685312Y526440D01*
X2685359Y526398D01*
X2685403Y526353D01*
X2685444Y526306D01*
X2685483Y526257D01*
X2685519Y526205D01*
X2685552Y526151D01*
X2685581Y526096D01*
X2685607Y526039D01*
X2685630Y525980D01*
X2685650Y525921D01*
X2685666Y525860D01*
X2685679Y525799D01*
X2685688Y525736D01*
X2685693Y525674D01*
X2685695Y525611D01*
X2685159Y526550D02*
X2683684Y527354D01*
X2688049Y524539D02*
X2689658Y529365D01*
X2691266Y524539D01*
X2690864Y525746D02*
X2688451Y525746D01*
D13*
X464224Y764798D02*
X390564Y764798D01*
X390564Y718570D01*
X390564Y688598D02*
X464224Y688598D01*
X464224Y693170D01*
X464224Y718570D02*
X464224Y764798D01*
X390564Y693170D02*
X390564Y688598D01*
M02*
