G04 EAGLE Gerber RS-274X export*
G75*
%MOMM*%
%FSLAX34Y34*%
%LPD*%
%INSilkscreen Bottom*%
%IPPOS*%
%AMOC8*
5,1,8,0,0,1.08239X$1,22.5*%
G01*
G04 Define Apertures*
%ADD10C,0.127000*%
%ADD11C,0.152400*%
%ADD12C,0.406400*%
G36*
X1620281Y528665D02*
X1607940Y528665D01*
X1607940Y533281D01*
X1607952Y533721D01*
X1607988Y534148D01*
X1608047Y534562D01*
X1608130Y534963D01*
X1608238Y535350D01*
X1608369Y535725D01*
X1608523Y536086D01*
X1608702Y536434D01*
X1608903Y536766D01*
X1609125Y537078D01*
X1609368Y537371D01*
X1609631Y537645D01*
X1609916Y537899D01*
X1610222Y538134D01*
X1610548Y538349D01*
X1610896Y538545D01*
X1611261Y538719D01*
X1611642Y538871D01*
X1612037Y538998D01*
X1612447Y539103D01*
X1612872Y539185D01*
X1613313Y539243D01*
X1613768Y539278D01*
X1614237Y539289D01*
X1614595Y539283D01*
X1614941Y539263D01*
X1615278Y539229D01*
X1615604Y539183D01*
X1615920Y539123D01*
X1616225Y539050D01*
X1616520Y538963D01*
X1616805Y538863D01*
X1617079Y538750D01*
X1617343Y538624D01*
X1617596Y538484D01*
X1617840Y538331D01*
X1618072Y538165D01*
X1618295Y537985D01*
X1618507Y537792D01*
X1618709Y537586D01*
X1618899Y537367D01*
X1619077Y537138D01*
X1619243Y536897D01*
X1619396Y536644D01*
X1619538Y536381D01*
X1619667Y536107D01*
X1619783Y535821D01*
X1619888Y535524D01*
X1619980Y535216D01*
X1620060Y534897D01*
X1620127Y534567D01*
X1620183Y534225D01*
X1620226Y533872D01*
X1620256Y533508D01*
X1620275Y533133D01*
X1620281Y532747D01*
X1620281Y528665D01*
G37*
%LPC*%
G36*
X1618941Y530338D02*
X1618941Y532712D01*
X1618922Y533290D01*
X1618865Y533832D01*
X1618771Y534340D01*
X1618640Y534813D01*
X1618470Y535250D01*
X1618263Y535652D01*
X1618019Y536019D01*
X1617736Y536351D01*
X1617418Y536645D01*
X1617066Y536901D01*
X1616680Y537117D01*
X1616260Y537293D01*
X1615805Y537431D01*
X1615317Y537529D01*
X1614794Y537588D01*
X1614237Y537608D01*
X1613863Y537599D01*
X1613501Y537573D01*
X1613151Y537530D01*
X1612814Y537470D01*
X1612490Y537392D01*
X1612178Y537297D01*
X1611879Y537185D01*
X1611592Y537056D01*
X1611320Y536910D01*
X1611065Y536750D01*
X1610825Y536575D01*
X1610603Y536385D01*
X1610396Y536180D01*
X1610206Y535960D01*
X1610033Y535725D01*
X1609876Y535475D01*
X1609736Y535213D01*
X1609615Y534940D01*
X1609513Y534657D01*
X1609429Y534364D01*
X1609364Y534060D01*
X1609317Y533747D01*
X1609289Y533423D01*
X1609280Y533088D01*
X1609280Y530338D01*
X1618941Y530338D01*
G37*
%LPD*%
G36*
X1620281Y506071D02*
X1607940Y506071D01*
X1607940Y507744D01*
X1612748Y507744D01*
X1612748Y511370D01*
X1612765Y511848D01*
X1612813Y512300D01*
X1612894Y512727D01*
X1613007Y513128D01*
X1613152Y513503D01*
X1613330Y513853D01*
X1613540Y514177D01*
X1613782Y514475D01*
X1614052Y514743D01*
X1614344Y514975D01*
X1614658Y515172D01*
X1614995Y515333D01*
X1615354Y515458D01*
X1615736Y515547D01*
X1616140Y515600D01*
X1616567Y515618D01*
X1616997Y515600D01*
X1617402Y515547D01*
X1617782Y515458D01*
X1618137Y515334D01*
X1618467Y515173D01*
X1618773Y514978D01*
X1619053Y514747D01*
X1619309Y514480D01*
X1619536Y514180D01*
X1619734Y513852D01*
X1619901Y513494D01*
X1620038Y513107D01*
X1620144Y512690D01*
X1620220Y512245D01*
X1620266Y511770D01*
X1620281Y511265D01*
X1620281Y506071D01*
G37*
%LPC*%
G36*
X1618941Y507744D02*
X1618941Y511064D01*
X1618931Y511412D01*
X1618903Y511737D01*
X1618857Y512040D01*
X1618791Y512321D01*
X1618707Y512579D01*
X1618604Y512814D01*
X1618483Y513028D01*
X1618343Y513218D01*
X1618184Y513387D01*
X1618007Y513533D01*
X1617811Y513656D01*
X1617596Y513757D01*
X1617362Y513836D01*
X1617110Y513892D01*
X1616839Y513925D01*
X1616550Y513937D01*
X1616249Y513926D01*
X1615969Y513893D01*
X1615707Y513838D01*
X1615465Y513761D01*
X1615243Y513663D01*
X1615039Y513542D01*
X1614855Y513400D01*
X1614691Y513236D01*
X1614545Y513050D01*
X1614420Y512842D01*
X1614313Y512612D01*
X1614226Y512360D01*
X1614158Y512086D01*
X1614110Y511791D01*
X1614081Y511473D01*
X1614071Y511134D01*
X1614071Y507744D01*
X1618941Y507744D01*
G37*
%LPD*%
G36*
X1607940Y515260D02*
X1607940Y516994D01*
X1611549Y518413D01*
X1611549Y524036D01*
X1607940Y525446D01*
X1607940Y527154D01*
X1620281Y522197D01*
X1620281Y520296D01*
X1607940Y515260D01*
G37*
%LPC*%
G36*
X1612854Y518921D02*
X1616909Y520498D01*
X1617944Y520874D01*
X1618774Y521146D01*
X1619020Y521225D01*
X1618293Y521461D01*
X1617570Y521706D01*
X1616926Y521952D01*
X1612854Y523537D01*
X1612854Y518921D01*
G37*
%LPD*%
G36*
X243145Y709182D02*
X242797Y711762D01*
X240657Y710433D01*
X240065Y711520D01*
X242369Y712575D01*
X240362Y714427D01*
X241278Y715229D01*
X243013Y713258D01*
X243915Y715712D01*
X245051Y715272D01*
X243835Y712834D01*
X246379Y712633D01*
X246191Y711426D01*
X243758Y711913D01*
X244318Y709388D01*
X243145Y709182D01*
G37*
G36*
X1880023Y581867D02*
X1879635Y581876D01*
X1879260Y581903D01*
X1878898Y581948D01*
X1878548Y582011D01*
X1878212Y582092D01*
X1877889Y582190D01*
X1877579Y582307D01*
X1877282Y582442D01*
X1876999Y582593D01*
X1876733Y582761D01*
X1876484Y582945D01*
X1876251Y583145D01*
X1876034Y583361D01*
X1875834Y583593D01*
X1875650Y583840D01*
X1875483Y584104D01*
X1875334Y584383D01*
X1875205Y584674D01*
X1875095Y584978D01*
X1875006Y585295D01*
X1874936Y585625D01*
X1874887Y585968D01*
X1874857Y586324D01*
X1874847Y586693D01*
X1874847Y594405D01*
X1876514Y594405D01*
X1876514Y586789D01*
X1876528Y586366D01*
X1876572Y585969D01*
X1876644Y585598D01*
X1876745Y585253D01*
X1876876Y584934D01*
X1877035Y584642D01*
X1877223Y584375D01*
X1877440Y584135D01*
X1877683Y583922D01*
X1877949Y583738D01*
X1878238Y583582D01*
X1878551Y583454D01*
X1878886Y583355D01*
X1879245Y583284D01*
X1879627Y583241D01*
X1880032Y583227D01*
X1880426Y583241D01*
X1880796Y583282D01*
X1881142Y583350D01*
X1881465Y583446D01*
X1881763Y583570D01*
X1882038Y583721D01*
X1882288Y583899D01*
X1882515Y584104D01*
X1882717Y584337D01*
X1882891Y584594D01*
X1883039Y584877D01*
X1883160Y585186D01*
X1883254Y585520D01*
X1883321Y585879D01*
X1883362Y586265D01*
X1883375Y586675D01*
X1883375Y594405D01*
X1885051Y594405D01*
X1885051Y586535D01*
X1885041Y586177D01*
X1885012Y585832D01*
X1884963Y585499D01*
X1884895Y585179D01*
X1884808Y584872D01*
X1884700Y584577D01*
X1884574Y584295D01*
X1884428Y584025D01*
X1884264Y583770D01*
X1884085Y583530D01*
X1883889Y583306D01*
X1883678Y583098D01*
X1883450Y582905D01*
X1883207Y582727D01*
X1882948Y582566D01*
X1882673Y582420D01*
X1882384Y582290D01*
X1882083Y582178D01*
X1881770Y582083D01*
X1881445Y582005D01*
X1881108Y581945D01*
X1880758Y581902D01*
X1880397Y581876D01*
X1880023Y581867D01*
G37*
G36*
X1872100Y582043D02*
X1864352Y582043D01*
X1864352Y583385D01*
X1867362Y583385D01*
X1867362Y594405D01*
X1868818Y594405D01*
X1871740Y592396D01*
X1871740Y590904D01*
X1868950Y592896D01*
X1868950Y583385D01*
X1872100Y583385D01*
X1872100Y582043D01*
G37*
G36*
X1020695Y737780D02*
X1016079Y737780D01*
X1015639Y737792D01*
X1015212Y737828D01*
X1014798Y737887D01*
X1014397Y737970D01*
X1014010Y738078D01*
X1013635Y738209D01*
X1013274Y738363D01*
X1012926Y738542D01*
X1012594Y738743D01*
X1012282Y738965D01*
X1011989Y739208D01*
X1011715Y739471D01*
X1011461Y739756D01*
X1011226Y740062D01*
X1011011Y740388D01*
X1010815Y740736D01*
X1010641Y741101D01*
X1010489Y741482D01*
X1010362Y741877D01*
X1010257Y742287D01*
X1010175Y742712D01*
X1010117Y743153D01*
X1010082Y743608D01*
X1010071Y744077D01*
X1010077Y744435D01*
X1010097Y744781D01*
X1010131Y745118D01*
X1010177Y745444D01*
X1010237Y745760D01*
X1010310Y746065D01*
X1010397Y746360D01*
X1010497Y746645D01*
X1010610Y746919D01*
X1010736Y747183D01*
X1010876Y747436D01*
X1011029Y747680D01*
X1011195Y747912D01*
X1011375Y748135D01*
X1011568Y748347D01*
X1011774Y748549D01*
X1011993Y748739D01*
X1012223Y748917D01*
X1012463Y749083D01*
X1012716Y749236D01*
X1012979Y749378D01*
X1013253Y749507D01*
X1013539Y749623D01*
X1013836Y749728D01*
X1014144Y749820D01*
X1014463Y749900D01*
X1014793Y749967D01*
X1015135Y750023D01*
X1015488Y750066D01*
X1015852Y750096D01*
X1016227Y750115D01*
X1016613Y750121D01*
X1020695Y750121D01*
X1020695Y737780D01*
G37*
%LPC*%
G36*
X1019022Y739120D02*
X1019022Y748781D01*
X1016648Y748781D01*
X1016070Y748762D01*
X1015528Y748705D01*
X1015020Y748611D01*
X1014547Y748480D01*
X1014110Y748310D01*
X1013708Y748103D01*
X1013341Y747859D01*
X1013009Y747576D01*
X1012715Y747258D01*
X1012459Y746906D01*
X1012243Y746520D01*
X1012067Y746100D01*
X1011929Y745645D01*
X1011831Y745157D01*
X1011772Y744634D01*
X1011752Y744077D01*
X1011761Y743703D01*
X1011787Y743341D01*
X1011830Y742991D01*
X1011890Y742654D01*
X1011968Y742330D01*
X1012063Y742018D01*
X1012175Y741719D01*
X1012304Y741432D01*
X1012450Y741160D01*
X1012610Y740905D01*
X1012785Y740665D01*
X1012975Y740443D01*
X1013180Y740236D01*
X1013400Y740046D01*
X1013635Y739873D01*
X1013885Y739716D01*
X1014147Y739576D01*
X1014420Y739455D01*
X1014703Y739353D01*
X1014996Y739269D01*
X1015300Y739204D01*
X1015614Y739157D01*
X1015938Y739129D01*
X1016272Y739120D01*
X1019022Y739120D01*
G37*
%LPD*%
G36*
X1043289Y737780D02*
X1041616Y737780D01*
X1041616Y742588D01*
X1037990Y742588D01*
X1037512Y742605D01*
X1037060Y742653D01*
X1036633Y742734D01*
X1036232Y742847D01*
X1035857Y742992D01*
X1035507Y743170D01*
X1035183Y743380D01*
X1034885Y743622D01*
X1034617Y743892D01*
X1034385Y744184D01*
X1034188Y744498D01*
X1034028Y744835D01*
X1033903Y745194D01*
X1033813Y745576D01*
X1033760Y745980D01*
X1033742Y746407D01*
X1033760Y746837D01*
X1033813Y747242D01*
X1033902Y747622D01*
X1034026Y747977D01*
X1034187Y748307D01*
X1034382Y748613D01*
X1034614Y748893D01*
X1034880Y749149D01*
X1035180Y749376D01*
X1035508Y749574D01*
X1035866Y749741D01*
X1036253Y749878D01*
X1036670Y749984D01*
X1037115Y750060D01*
X1037590Y750106D01*
X1038095Y750121D01*
X1043289Y750121D01*
X1043289Y737780D01*
G37*
%LPC*%
G36*
X1041616Y743911D02*
X1041616Y748781D01*
X1038296Y748781D01*
X1037948Y748771D01*
X1037623Y748743D01*
X1037320Y748697D01*
X1037039Y748631D01*
X1036781Y748547D01*
X1036546Y748444D01*
X1036332Y748323D01*
X1036142Y748183D01*
X1035973Y748024D01*
X1035827Y747847D01*
X1035704Y747651D01*
X1035603Y747436D01*
X1035524Y747202D01*
X1035468Y746950D01*
X1035435Y746679D01*
X1035423Y746390D01*
X1035434Y746089D01*
X1035467Y745809D01*
X1035522Y745547D01*
X1035599Y745305D01*
X1035697Y745083D01*
X1035818Y744879D01*
X1035960Y744695D01*
X1036124Y744531D01*
X1036310Y744385D01*
X1036518Y744260D01*
X1036748Y744153D01*
X1037000Y744066D01*
X1037274Y743998D01*
X1037569Y743950D01*
X1037887Y743921D01*
X1038226Y743911D01*
X1041616Y743911D01*
G37*
%LPD*%
G36*
X1023914Y737780D02*
X1022206Y737780D01*
X1027163Y750121D01*
X1029064Y750121D01*
X1034100Y737780D01*
X1032366Y737780D01*
X1030947Y741389D01*
X1025324Y741389D01*
X1023914Y737780D01*
G37*
%LPC*%
G36*
X1030439Y742694D02*
X1028862Y746749D01*
X1028486Y747784D01*
X1028214Y748614D01*
X1028135Y748860D01*
X1027899Y748133D01*
X1027654Y747410D01*
X1027408Y746766D01*
X1025823Y742694D01*
X1030439Y742694D01*
G37*
%LPD*%
G36*
X994752Y737780D02*
X992738Y737780D01*
X992738Y750121D01*
X994244Y750121D01*
X994244Y742028D01*
X994218Y741021D01*
X994139Y739540D01*
X1000813Y750121D01*
X1002757Y750121D01*
X1002757Y737780D01*
X1001268Y737780D01*
X1001268Y745978D01*
X1001312Y747441D01*
X1001356Y748290D01*
X994752Y737780D01*
G37*
G36*
X989789Y737780D02*
X981880Y737780D01*
X981880Y739146D01*
X988116Y739146D01*
X988116Y750121D01*
X989789Y750121D01*
X989789Y737780D01*
G37*
G36*
X1007542Y737780D02*
X1005869Y737780D01*
X1005869Y750121D01*
X1007542Y750121D01*
X1007542Y737780D01*
G37*
G36*
X1160695Y737780D02*
X1156079Y737780D01*
X1155639Y737792D01*
X1155212Y737828D01*
X1154798Y737887D01*
X1154397Y737970D01*
X1154010Y738078D01*
X1153635Y738209D01*
X1153274Y738363D01*
X1152926Y738542D01*
X1152594Y738743D01*
X1152282Y738965D01*
X1151989Y739208D01*
X1151715Y739471D01*
X1151461Y739756D01*
X1151226Y740062D01*
X1151011Y740388D01*
X1150815Y740736D01*
X1150641Y741101D01*
X1150489Y741482D01*
X1150362Y741877D01*
X1150257Y742287D01*
X1150175Y742712D01*
X1150117Y743153D01*
X1150082Y743608D01*
X1150071Y744077D01*
X1150077Y744435D01*
X1150097Y744781D01*
X1150131Y745118D01*
X1150177Y745444D01*
X1150237Y745760D01*
X1150310Y746065D01*
X1150397Y746360D01*
X1150497Y746645D01*
X1150610Y746919D01*
X1150736Y747183D01*
X1150876Y747436D01*
X1151029Y747680D01*
X1151195Y747912D01*
X1151375Y748135D01*
X1151568Y748347D01*
X1151774Y748549D01*
X1151993Y748739D01*
X1152223Y748917D01*
X1152463Y749083D01*
X1152716Y749236D01*
X1152979Y749378D01*
X1153253Y749507D01*
X1153539Y749623D01*
X1153836Y749728D01*
X1154144Y749820D01*
X1154463Y749900D01*
X1154793Y749967D01*
X1155135Y750023D01*
X1155488Y750066D01*
X1155852Y750096D01*
X1156227Y750115D01*
X1156613Y750121D01*
X1160695Y750121D01*
X1160695Y737780D01*
G37*
%LPC*%
G36*
X1159022Y739120D02*
X1159022Y748781D01*
X1156648Y748781D01*
X1156070Y748762D01*
X1155528Y748705D01*
X1155020Y748611D01*
X1154547Y748480D01*
X1154110Y748310D01*
X1153708Y748103D01*
X1153341Y747859D01*
X1153009Y747576D01*
X1152715Y747258D01*
X1152459Y746906D01*
X1152243Y746520D01*
X1152067Y746100D01*
X1151929Y745645D01*
X1151831Y745157D01*
X1151772Y744634D01*
X1151752Y744077D01*
X1151761Y743703D01*
X1151787Y743341D01*
X1151830Y742991D01*
X1151890Y742654D01*
X1151968Y742330D01*
X1152063Y742018D01*
X1152175Y741719D01*
X1152304Y741432D01*
X1152450Y741160D01*
X1152610Y740905D01*
X1152785Y740665D01*
X1152975Y740443D01*
X1153180Y740236D01*
X1153400Y740046D01*
X1153635Y739873D01*
X1153885Y739716D01*
X1154147Y739576D01*
X1154420Y739455D01*
X1154703Y739353D01*
X1154996Y739269D01*
X1155300Y739204D01*
X1155614Y739157D01*
X1155938Y739129D01*
X1156272Y739120D01*
X1159022Y739120D01*
G37*
%LPD*%
G36*
X1121065Y737780D02*
X1119138Y737780D01*
X1121150Y740833D01*
X1122642Y743096D01*
X1122299Y743169D01*
X1121975Y743262D01*
X1121670Y743378D01*
X1121384Y743515D01*
X1121228Y743607D01*
X1121117Y743673D01*
X1120869Y743854D01*
X1120640Y744055D01*
X1120430Y744279D01*
X1120242Y744520D01*
X1120079Y744775D01*
X1119942Y745043D01*
X1119829Y745325D01*
X1119741Y745621D01*
X1119679Y745931D01*
X1119641Y746254D01*
X1119629Y746591D01*
X1119646Y746996D01*
X1119700Y747377D01*
X1119788Y747736D01*
X1119912Y748072D01*
X1120072Y748386D01*
X1120267Y748676D01*
X1120497Y748943D01*
X1120763Y749188D01*
X1121061Y749407D01*
X1121389Y749596D01*
X1121747Y749756D01*
X1122135Y749888D01*
X1122552Y749990D01*
X1122999Y750062D01*
X1123475Y750106D01*
X1123982Y750121D01*
X1129789Y750121D01*
X1129789Y737780D01*
X1128116Y737780D01*
X1128116Y742904D01*
X1124271Y742904D01*
X1121065Y737780D01*
G37*
%LPC*%
G36*
X1128116Y744226D02*
X1128116Y748781D01*
X1124148Y748781D01*
X1123814Y748772D01*
X1123501Y748745D01*
X1123207Y748701D01*
X1122934Y748640D01*
X1122681Y748560D01*
X1122448Y748463D01*
X1122235Y748348D01*
X1122042Y748216D01*
X1121870Y748067D01*
X1121722Y747901D01*
X1121596Y747720D01*
X1121493Y747523D01*
X1121413Y747310D01*
X1121356Y747080D01*
X1121322Y746835D01*
X1121310Y746574D01*
X1121322Y746303D01*
X1121355Y746048D01*
X1121412Y745809D01*
X1121491Y745585D01*
X1121593Y745376D01*
X1121717Y745183D01*
X1121864Y745006D01*
X1122033Y744844D01*
X1122223Y744699D01*
X1122432Y744574D01*
X1122659Y744467D01*
X1122905Y744381D01*
X1123170Y744313D01*
X1123454Y744265D01*
X1123757Y744236D01*
X1124078Y744226D01*
X1128116Y744226D01*
G37*
%LPD*%
G36*
X1183289Y737780D02*
X1181616Y737780D01*
X1181616Y742588D01*
X1177990Y742588D01*
X1177512Y742605D01*
X1177060Y742653D01*
X1176633Y742734D01*
X1176232Y742847D01*
X1175857Y742992D01*
X1175507Y743170D01*
X1175183Y743380D01*
X1174885Y743622D01*
X1174617Y743892D01*
X1174385Y744184D01*
X1174188Y744498D01*
X1174028Y744835D01*
X1173903Y745194D01*
X1173813Y745576D01*
X1173760Y745980D01*
X1173742Y746407D01*
X1173760Y746837D01*
X1173813Y747242D01*
X1173902Y747622D01*
X1174026Y747977D01*
X1174187Y748307D01*
X1174382Y748613D01*
X1174614Y748893D01*
X1174880Y749149D01*
X1175180Y749376D01*
X1175508Y749574D01*
X1175866Y749741D01*
X1176253Y749878D01*
X1176670Y749984D01*
X1177115Y750060D01*
X1177590Y750106D01*
X1178095Y750121D01*
X1183289Y750121D01*
X1183289Y737780D01*
G37*
%LPC*%
G36*
X1181616Y743911D02*
X1181616Y748781D01*
X1178296Y748781D01*
X1177948Y748771D01*
X1177623Y748743D01*
X1177320Y748697D01*
X1177039Y748631D01*
X1176781Y748547D01*
X1176546Y748444D01*
X1176332Y748323D01*
X1176142Y748183D01*
X1175973Y748024D01*
X1175827Y747847D01*
X1175704Y747651D01*
X1175603Y747436D01*
X1175524Y747202D01*
X1175468Y746950D01*
X1175435Y746679D01*
X1175423Y746390D01*
X1175434Y746089D01*
X1175467Y745809D01*
X1175522Y745547D01*
X1175599Y745305D01*
X1175697Y745083D01*
X1175818Y744879D01*
X1175960Y744695D01*
X1176124Y744531D01*
X1176310Y744385D01*
X1176518Y744260D01*
X1176748Y744153D01*
X1177000Y744066D01*
X1177274Y743998D01*
X1177569Y743950D01*
X1177887Y743921D01*
X1178226Y743911D01*
X1181616Y743911D01*
G37*
%LPD*%
G36*
X1163914Y737780D02*
X1162206Y737780D01*
X1167163Y750121D01*
X1169064Y750121D01*
X1174100Y737780D01*
X1172366Y737780D01*
X1170947Y741389D01*
X1165324Y741389D01*
X1163914Y737780D01*
G37*
%LPC*%
G36*
X1170439Y742694D02*
X1168862Y746749D01*
X1168486Y747784D01*
X1168214Y748614D01*
X1168135Y748860D01*
X1167899Y748133D01*
X1167654Y747410D01*
X1167408Y746766D01*
X1165823Y742694D01*
X1170439Y742694D01*
G37*
%LPD*%
G36*
X1134752Y737780D02*
X1132738Y737780D01*
X1132738Y750121D01*
X1134244Y750121D01*
X1134244Y742028D01*
X1134218Y741021D01*
X1134139Y739540D01*
X1140813Y750121D01*
X1142757Y750121D01*
X1142757Y737780D01*
X1141268Y737780D01*
X1141268Y745978D01*
X1141312Y747441D01*
X1141356Y748290D01*
X1134752Y737780D01*
G37*
G36*
X1147542Y737780D02*
X1145869Y737780D01*
X1145869Y750121D01*
X1147542Y750121D01*
X1147542Y737780D01*
G37*
G36*
X1470820Y737780D02*
X1466204Y737780D01*
X1465764Y737792D01*
X1465337Y737828D01*
X1464923Y737887D01*
X1464522Y737970D01*
X1464135Y738078D01*
X1463760Y738209D01*
X1463399Y738363D01*
X1463051Y738542D01*
X1462719Y738743D01*
X1462407Y738965D01*
X1462114Y739208D01*
X1461840Y739471D01*
X1461586Y739756D01*
X1461351Y740062D01*
X1461136Y740388D01*
X1460940Y740736D01*
X1460766Y741101D01*
X1460614Y741482D01*
X1460487Y741877D01*
X1460382Y742287D01*
X1460300Y742712D01*
X1460242Y743153D01*
X1460207Y743608D01*
X1460196Y744077D01*
X1460202Y744435D01*
X1460222Y744781D01*
X1460256Y745118D01*
X1460302Y745444D01*
X1460362Y745760D01*
X1460435Y746065D01*
X1460522Y746360D01*
X1460622Y746645D01*
X1460735Y746919D01*
X1460861Y747183D01*
X1461001Y747436D01*
X1461154Y747680D01*
X1461320Y747912D01*
X1461500Y748135D01*
X1461693Y748347D01*
X1461899Y748549D01*
X1462118Y748739D01*
X1462348Y748917D01*
X1462588Y749083D01*
X1462841Y749236D01*
X1463104Y749378D01*
X1463378Y749507D01*
X1463664Y749623D01*
X1463961Y749728D01*
X1464269Y749820D01*
X1464588Y749900D01*
X1464918Y749967D01*
X1465260Y750023D01*
X1465613Y750066D01*
X1465977Y750096D01*
X1466352Y750115D01*
X1466738Y750121D01*
X1470820Y750121D01*
X1470820Y737780D01*
G37*
%LPC*%
G36*
X1469147Y739120D02*
X1469147Y748781D01*
X1466773Y748781D01*
X1466195Y748762D01*
X1465653Y748705D01*
X1465145Y748611D01*
X1464672Y748480D01*
X1464235Y748310D01*
X1463833Y748103D01*
X1463466Y747859D01*
X1463134Y747576D01*
X1462840Y747258D01*
X1462584Y746906D01*
X1462368Y746520D01*
X1462192Y746100D01*
X1462054Y745645D01*
X1461956Y745157D01*
X1461897Y744634D01*
X1461877Y744077D01*
X1461886Y743703D01*
X1461912Y743341D01*
X1461955Y742991D01*
X1462015Y742654D01*
X1462093Y742330D01*
X1462188Y742018D01*
X1462300Y741719D01*
X1462429Y741432D01*
X1462575Y741160D01*
X1462735Y740905D01*
X1462910Y740665D01*
X1463100Y740443D01*
X1463305Y740236D01*
X1463525Y740046D01*
X1463760Y739873D01*
X1464010Y739716D01*
X1464272Y739576D01*
X1464545Y739455D01*
X1464828Y739353D01*
X1465121Y739269D01*
X1465425Y739204D01*
X1465739Y739157D01*
X1466063Y739129D01*
X1466397Y739120D01*
X1469147Y739120D01*
G37*
%LPD*%
G36*
X1510695Y737780D02*
X1506079Y737780D01*
X1505639Y737792D01*
X1505212Y737828D01*
X1504798Y737887D01*
X1504397Y737970D01*
X1504010Y738078D01*
X1503635Y738209D01*
X1503274Y738363D01*
X1502926Y738542D01*
X1502594Y738743D01*
X1502282Y738965D01*
X1501989Y739208D01*
X1501715Y739471D01*
X1501461Y739756D01*
X1501226Y740062D01*
X1501011Y740388D01*
X1500815Y740736D01*
X1500641Y741101D01*
X1500489Y741482D01*
X1500362Y741877D01*
X1500257Y742287D01*
X1500175Y742712D01*
X1500117Y743153D01*
X1500082Y743608D01*
X1500071Y744077D01*
X1500077Y744435D01*
X1500097Y744781D01*
X1500131Y745118D01*
X1500177Y745444D01*
X1500237Y745760D01*
X1500310Y746065D01*
X1500397Y746360D01*
X1500497Y746645D01*
X1500610Y746919D01*
X1500736Y747183D01*
X1500876Y747436D01*
X1501029Y747680D01*
X1501195Y747912D01*
X1501375Y748135D01*
X1501568Y748347D01*
X1501774Y748549D01*
X1501993Y748739D01*
X1502223Y748917D01*
X1502463Y749083D01*
X1502716Y749236D01*
X1502979Y749378D01*
X1503253Y749507D01*
X1503539Y749623D01*
X1503836Y749728D01*
X1504144Y749820D01*
X1504463Y749900D01*
X1504793Y749967D01*
X1505135Y750023D01*
X1505488Y750066D01*
X1505852Y750096D01*
X1506227Y750115D01*
X1506613Y750121D01*
X1510695Y750121D01*
X1510695Y737780D01*
G37*
%LPC*%
G36*
X1509022Y739120D02*
X1509022Y748781D01*
X1506648Y748781D01*
X1506070Y748762D01*
X1505528Y748705D01*
X1505020Y748611D01*
X1504547Y748480D01*
X1504110Y748310D01*
X1503708Y748103D01*
X1503341Y747859D01*
X1503009Y747576D01*
X1502715Y747258D01*
X1502459Y746906D01*
X1502243Y746520D01*
X1502067Y746100D01*
X1501929Y745645D01*
X1501831Y745157D01*
X1501772Y744634D01*
X1501752Y744077D01*
X1501761Y743703D01*
X1501787Y743341D01*
X1501830Y742991D01*
X1501890Y742654D01*
X1501968Y742330D01*
X1502063Y742018D01*
X1502175Y741719D01*
X1502304Y741432D01*
X1502450Y741160D01*
X1502610Y740905D01*
X1502785Y740665D01*
X1502975Y740443D01*
X1503180Y740236D01*
X1503400Y740046D01*
X1503635Y739873D01*
X1503885Y739716D01*
X1504147Y739576D01*
X1504420Y739455D01*
X1504703Y739353D01*
X1504996Y739269D01*
X1505300Y739204D01*
X1505614Y739157D01*
X1505938Y739129D01*
X1506272Y739120D01*
X1509022Y739120D01*
G37*
%LPD*%
G36*
X1475065Y737780D02*
X1473138Y737780D01*
X1475150Y740833D01*
X1476642Y743096D01*
X1476299Y743169D01*
X1475975Y743262D01*
X1475670Y743378D01*
X1475384Y743515D01*
X1475228Y743607D01*
X1475117Y743673D01*
X1474869Y743854D01*
X1474640Y744055D01*
X1474430Y744279D01*
X1474242Y744520D01*
X1474079Y744775D01*
X1473942Y745043D01*
X1473829Y745325D01*
X1473741Y745621D01*
X1473679Y745931D01*
X1473641Y746254D01*
X1473629Y746591D01*
X1473646Y746996D01*
X1473700Y747377D01*
X1473788Y747736D01*
X1473912Y748072D01*
X1474072Y748386D01*
X1474267Y748676D01*
X1474497Y748943D01*
X1474763Y749188D01*
X1475061Y749407D01*
X1475389Y749596D01*
X1475747Y749756D01*
X1476135Y749888D01*
X1476552Y749990D01*
X1476999Y750062D01*
X1477475Y750106D01*
X1477982Y750121D01*
X1483789Y750121D01*
X1483789Y737780D01*
X1482116Y737780D01*
X1482116Y742904D01*
X1478271Y742904D01*
X1475065Y737780D01*
G37*
%LPC*%
G36*
X1482116Y744226D02*
X1482116Y748781D01*
X1478148Y748781D01*
X1477814Y748772D01*
X1477501Y748745D01*
X1477207Y748701D01*
X1476934Y748640D01*
X1476681Y748560D01*
X1476448Y748463D01*
X1476235Y748348D01*
X1476042Y748216D01*
X1475870Y748067D01*
X1475722Y747901D01*
X1475596Y747720D01*
X1475493Y747523D01*
X1475413Y747310D01*
X1475356Y747080D01*
X1475322Y746835D01*
X1475310Y746574D01*
X1475322Y746303D01*
X1475355Y746048D01*
X1475412Y745809D01*
X1475491Y745585D01*
X1475593Y745376D01*
X1475717Y745183D01*
X1475864Y745006D01*
X1476033Y744844D01*
X1476223Y744699D01*
X1476432Y744574D01*
X1476659Y744467D01*
X1476905Y744381D01*
X1477170Y744313D01*
X1477454Y744265D01*
X1477757Y744236D01*
X1478078Y744226D01*
X1482116Y744226D01*
G37*
%LPD*%
G36*
X1533289Y737780D02*
X1531616Y737780D01*
X1531616Y742588D01*
X1527990Y742588D01*
X1527512Y742605D01*
X1527060Y742653D01*
X1526633Y742734D01*
X1526232Y742847D01*
X1525857Y742992D01*
X1525507Y743170D01*
X1525183Y743380D01*
X1524885Y743622D01*
X1524617Y743892D01*
X1524385Y744184D01*
X1524188Y744498D01*
X1524028Y744835D01*
X1523903Y745194D01*
X1523813Y745576D01*
X1523760Y745980D01*
X1523742Y746407D01*
X1523760Y746837D01*
X1523813Y747242D01*
X1523902Y747622D01*
X1524026Y747977D01*
X1524187Y748307D01*
X1524382Y748613D01*
X1524614Y748893D01*
X1524880Y749149D01*
X1525180Y749376D01*
X1525508Y749574D01*
X1525866Y749741D01*
X1526253Y749878D01*
X1526670Y749984D01*
X1527115Y750060D01*
X1527590Y750106D01*
X1528095Y750121D01*
X1533289Y750121D01*
X1533289Y737780D01*
G37*
%LPC*%
G36*
X1531616Y743911D02*
X1531616Y748781D01*
X1528296Y748781D01*
X1527948Y748771D01*
X1527623Y748743D01*
X1527320Y748697D01*
X1527039Y748631D01*
X1526781Y748547D01*
X1526546Y748444D01*
X1526332Y748323D01*
X1526142Y748183D01*
X1525973Y748024D01*
X1525827Y747847D01*
X1525704Y747651D01*
X1525603Y747436D01*
X1525524Y747202D01*
X1525468Y746950D01*
X1525435Y746679D01*
X1525423Y746390D01*
X1525434Y746089D01*
X1525467Y745809D01*
X1525522Y745547D01*
X1525599Y745305D01*
X1525697Y745083D01*
X1525818Y744879D01*
X1525960Y744695D01*
X1526124Y744531D01*
X1526310Y744385D01*
X1526518Y744260D01*
X1526748Y744153D01*
X1527000Y744066D01*
X1527274Y743998D01*
X1527569Y743950D01*
X1527887Y743921D01*
X1528226Y743911D01*
X1531616Y743911D01*
G37*
%LPD*%
G36*
X1513914Y737780D02*
X1512206Y737780D01*
X1517163Y750121D01*
X1519064Y750121D01*
X1524100Y737780D01*
X1522366Y737780D01*
X1520947Y741389D01*
X1515324Y741389D01*
X1513914Y737780D01*
G37*
%LPC*%
G36*
X1520439Y742694D02*
X1518862Y746749D01*
X1518486Y747784D01*
X1518214Y748614D01*
X1518135Y748860D01*
X1517899Y748133D01*
X1517654Y747410D01*
X1517408Y746766D01*
X1515823Y742694D01*
X1520439Y742694D01*
G37*
%LPD*%
G36*
X1492077Y737605D02*
X1491665Y737613D01*
X1491260Y737639D01*
X1490863Y737682D01*
X1490473Y737742D01*
X1490091Y737819D01*
X1489716Y737913D01*
X1489349Y738024D01*
X1488989Y738152D01*
X1488641Y738296D01*
X1488305Y738454D01*
X1487984Y738626D01*
X1487677Y738812D01*
X1487383Y739013D01*
X1487103Y739227D01*
X1486837Y739456D01*
X1486585Y739698D01*
X1486585Y743955D01*
X1491814Y743955D01*
X1491814Y742553D01*
X1488127Y742553D01*
X1488127Y740329D01*
X1488476Y740030D01*
X1488874Y739764D01*
X1489323Y739531D01*
X1489822Y739330D01*
X1490355Y739169D01*
X1490909Y739054D01*
X1491483Y738985D01*
X1492077Y738962D01*
X1492592Y738984D01*
X1493079Y739047D01*
X1493537Y739153D01*
X1493966Y739301D01*
X1494367Y739491D01*
X1494739Y739724D01*
X1495082Y739998D01*
X1495396Y740316D01*
X1495678Y740669D01*
X1495921Y741054D01*
X1496128Y741469D01*
X1496296Y741915D01*
X1496428Y742392D01*
X1496521Y742900D01*
X1496577Y743438D01*
X1496596Y744007D01*
X1496579Y744578D01*
X1496526Y745115D01*
X1496437Y745619D01*
X1496314Y746091D01*
X1496155Y746529D01*
X1495961Y746935D01*
X1495731Y747307D01*
X1495466Y747647D01*
X1495168Y747949D01*
X1494839Y748212D01*
X1494477Y748434D01*
X1494085Y748615D01*
X1493661Y748757D01*
X1493205Y748858D01*
X1492718Y748918D01*
X1492199Y748938D01*
X1491863Y748931D01*
X1491540Y748908D01*
X1491232Y748871D01*
X1490937Y748818D01*
X1490657Y748750D01*
X1490391Y748667D01*
X1490138Y748570D01*
X1489900Y748457D01*
X1489676Y748327D01*
X1489463Y748180D01*
X1489263Y748015D01*
X1489076Y747833D01*
X1488901Y747632D01*
X1488738Y747414D01*
X1488588Y747178D01*
X1488451Y746924D01*
X1486857Y747397D01*
X1487039Y747765D01*
X1487239Y748107D01*
X1487458Y748423D01*
X1487695Y748713D01*
X1487951Y748977D01*
X1488225Y749215D01*
X1488517Y749427D01*
X1488827Y749613D01*
X1489159Y749775D01*
X1489515Y749916D01*
X1489895Y750034D01*
X1490299Y750132D01*
X1490727Y750207D01*
X1491179Y750261D01*
X1491655Y750294D01*
X1492156Y750305D01*
X1492515Y750298D01*
X1492864Y750279D01*
X1493204Y750247D01*
X1493532Y750202D01*
X1493851Y750144D01*
X1494160Y750073D01*
X1494458Y749990D01*
X1494746Y749893D01*
X1495024Y749784D01*
X1495292Y749662D01*
X1495549Y749526D01*
X1495796Y749379D01*
X1496034Y749218D01*
X1496261Y749044D01*
X1496684Y748658D01*
X1497062Y748225D01*
X1497232Y747993D01*
X1497389Y747750D01*
X1497534Y747496D01*
X1497666Y747232D01*
X1497785Y746957D01*
X1497893Y746672D01*
X1497987Y746376D01*
X1498069Y746070D01*
X1498138Y745752D01*
X1498195Y745425D01*
X1498239Y745086D01*
X1498270Y744737D01*
X1498289Y744378D01*
X1498295Y744007D01*
X1498284Y743525D01*
X1498249Y743058D01*
X1498191Y742608D01*
X1498110Y742174D01*
X1498006Y741755D01*
X1497879Y741353D01*
X1497729Y740966D01*
X1497555Y740596D01*
X1497360Y740244D01*
X1497144Y739914D01*
X1496907Y739604D01*
X1496650Y739316D01*
X1496372Y739049D01*
X1496073Y738803D01*
X1495754Y738579D01*
X1495414Y738376D01*
X1495055Y738195D01*
X1494680Y738038D01*
X1494288Y737906D01*
X1493879Y737798D01*
X1493453Y737713D01*
X1493011Y737653D01*
X1492552Y737617D01*
X1492077Y737605D01*
G37*
G36*
X1592789Y737780D02*
X1588173Y737780D01*
X1587733Y737792D01*
X1587306Y737828D01*
X1586892Y737887D01*
X1586491Y737970D01*
X1586104Y738078D01*
X1585729Y738209D01*
X1585368Y738363D01*
X1585020Y738542D01*
X1584688Y738743D01*
X1584375Y738965D01*
X1584082Y739208D01*
X1583809Y739471D01*
X1583555Y739756D01*
X1583320Y740062D01*
X1583105Y740388D01*
X1582909Y740736D01*
X1582734Y741101D01*
X1582583Y741482D01*
X1582455Y741877D01*
X1582351Y742287D01*
X1582269Y742712D01*
X1582211Y743153D01*
X1582176Y743608D01*
X1582164Y744077D01*
X1582171Y744435D01*
X1582191Y744781D01*
X1582224Y745118D01*
X1582271Y745444D01*
X1582331Y745760D01*
X1582404Y746065D01*
X1582491Y746360D01*
X1582590Y746645D01*
X1582703Y746919D01*
X1582830Y747183D01*
X1582970Y747436D01*
X1583123Y747680D01*
X1583289Y747912D01*
X1583469Y748135D01*
X1583662Y748347D01*
X1583868Y748549D01*
X1584087Y748739D01*
X1584316Y748917D01*
X1584557Y749083D01*
X1584809Y749236D01*
X1585073Y749378D01*
X1585347Y749507D01*
X1585633Y749623D01*
X1585930Y749728D01*
X1586238Y749820D01*
X1586557Y749900D01*
X1586887Y749967D01*
X1587229Y750023D01*
X1587582Y750066D01*
X1587946Y750096D01*
X1588321Y750115D01*
X1588707Y750121D01*
X1592789Y750121D01*
X1592789Y737780D01*
G37*
%LPC*%
G36*
X1591116Y739120D02*
X1591116Y748781D01*
X1588742Y748781D01*
X1588164Y748762D01*
X1587621Y748705D01*
X1587114Y748611D01*
X1586641Y748480D01*
X1586204Y748310D01*
X1585802Y748103D01*
X1585435Y747859D01*
X1585103Y747576D01*
X1584808Y747258D01*
X1584553Y746906D01*
X1584337Y746520D01*
X1584160Y746100D01*
X1584023Y745645D01*
X1583925Y745157D01*
X1583866Y744634D01*
X1583846Y744077D01*
X1583855Y743703D01*
X1583881Y743341D01*
X1583924Y742991D01*
X1583984Y742654D01*
X1584062Y742330D01*
X1584157Y742018D01*
X1584269Y741719D01*
X1584398Y741432D01*
X1584543Y741160D01*
X1584704Y740905D01*
X1584879Y740665D01*
X1585069Y740443D01*
X1585274Y740236D01*
X1585494Y740046D01*
X1585729Y739873D01*
X1585979Y739716D01*
X1586241Y739576D01*
X1586514Y739455D01*
X1586797Y739353D01*
X1587090Y739269D01*
X1587394Y739204D01*
X1587707Y739157D01*
X1588031Y739129D01*
X1588366Y739120D01*
X1591116Y739120D01*
G37*
%LPD*%
G36*
X1605757Y737780D02*
X1601142Y737780D01*
X1600701Y737792D01*
X1600274Y737828D01*
X1599861Y737887D01*
X1599460Y737970D01*
X1599072Y738078D01*
X1598698Y738209D01*
X1598337Y738363D01*
X1597989Y738542D01*
X1597657Y738743D01*
X1597344Y738965D01*
X1597051Y739208D01*
X1596778Y739471D01*
X1596524Y739756D01*
X1596289Y740062D01*
X1596074Y740388D01*
X1595878Y740736D01*
X1595703Y741101D01*
X1595552Y741482D01*
X1595424Y741877D01*
X1595319Y742287D01*
X1595238Y742712D01*
X1595180Y743153D01*
X1595145Y743608D01*
X1595133Y744077D01*
X1595140Y744435D01*
X1595160Y744781D01*
X1595193Y745118D01*
X1595240Y745444D01*
X1595300Y745760D01*
X1595373Y746065D01*
X1595459Y746360D01*
X1595559Y746645D01*
X1595672Y746919D01*
X1595799Y747183D01*
X1595938Y747436D01*
X1596091Y747680D01*
X1596258Y747912D01*
X1596438Y748135D01*
X1596630Y748347D01*
X1596837Y748549D01*
X1597055Y748739D01*
X1597285Y748917D01*
X1597526Y749083D01*
X1597778Y749236D01*
X1598041Y749378D01*
X1598316Y749507D01*
X1598601Y749623D01*
X1598898Y749728D01*
X1599206Y749820D01*
X1599526Y749900D01*
X1599856Y749967D01*
X1600198Y750023D01*
X1600550Y750066D01*
X1600914Y750096D01*
X1601290Y750115D01*
X1601676Y750121D01*
X1605757Y750121D01*
X1605757Y737780D01*
G37*
%LPC*%
G36*
X1604084Y739120D02*
X1604084Y748781D01*
X1601711Y748781D01*
X1601133Y748762D01*
X1600590Y748705D01*
X1600082Y748611D01*
X1599610Y748480D01*
X1599173Y748310D01*
X1598770Y748103D01*
X1598404Y747859D01*
X1598072Y747576D01*
X1597777Y747258D01*
X1597522Y746906D01*
X1597306Y746520D01*
X1597129Y746100D01*
X1596992Y745645D01*
X1596893Y745157D01*
X1596835Y744634D01*
X1596815Y744077D01*
X1596823Y743703D01*
X1596849Y743341D01*
X1596892Y742991D01*
X1596953Y742654D01*
X1597030Y742330D01*
X1597125Y742018D01*
X1597237Y741719D01*
X1597367Y741432D01*
X1597512Y741160D01*
X1597672Y740905D01*
X1597848Y740665D01*
X1598038Y740443D01*
X1598243Y740236D01*
X1598463Y740046D01*
X1598698Y739873D01*
X1598948Y739716D01*
X1599210Y739576D01*
X1599483Y739455D01*
X1599766Y739353D01*
X1600059Y739269D01*
X1600362Y739204D01*
X1600676Y739157D01*
X1601000Y739129D01*
X1601334Y739120D01*
X1604084Y739120D01*
G37*
%LPD*%
G36*
X1630695Y737780D02*
X1626079Y737780D01*
X1625639Y737792D01*
X1625212Y737828D01*
X1624798Y737887D01*
X1624397Y737970D01*
X1624010Y738078D01*
X1623635Y738209D01*
X1623274Y738363D01*
X1622926Y738542D01*
X1622594Y738743D01*
X1622282Y738965D01*
X1621989Y739208D01*
X1621715Y739471D01*
X1621461Y739756D01*
X1621226Y740062D01*
X1621011Y740388D01*
X1620815Y740736D01*
X1620641Y741101D01*
X1620489Y741482D01*
X1620362Y741877D01*
X1620257Y742287D01*
X1620175Y742712D01*
X1620117Y743153D01*
X1620082Y743608D01*
X1620071Y744077D01*
X1620077Y744435D01*
X1620097Y744781D01*
X1620131Y745118D01*
X1620177Y745444D01*
X1620237Y745760D01*
X1620310Y746065D01*
X1620397Y746360D01*
X1620497Y746645D01*
X1620610Y746919D01*
X1620736Y747183D01*
X1620876Y747436D01*
X1621029Y747680D01*
X1621195Y747912D01*
X1621375Y748135D01*
X1621568Y748347D01*
X1621774Y748549D01*
X1621993Y748739D01*
X1622223Y748917D01*
X1622463Y749083D01*
X1622716Y749236D01*
X1622979Y749378D01*
X1623253Y749507D01*
X1623539Y749623D01*
X1623836Y749728D01*
X1624144Y749820D01*
X1624463Y749900D01*
X1624793Y749967D01*
X1625135Y750023D01*
X1625488Y750066D01*
X1625852Y750096D01*
X1626227Y750115D01*
X1626613Y750121D01*
X1630695Y750121D01*
X1630695Y737780D01*
G37*
%LPC*%
G36*
X1629022Y739120D02*
X1629022Y748781D01*
X1626648Y748781D01*
X1626070Y748762D01*
X1625528Y748705D01*
X1625020Y748611D01*
X1624547Y748480D01*
X1624110Y748310D01*
X1623708Y748103D01*
X1623341Y747859D01*
X1623009Y747576D01*
X1622715Y747258D01*
X1622459Y746906D01*
X1622243Y746520D01*
X1622067Y746100D01*
X1621929Y745645D01*
X1621831Y745157D01*
X1621772Y744634D01*
X1621752Y744077D01*
X1621761Y743703D01*
X1621787Y743341D01*
X1621830Y742991D01*
X1621890Y742654D01*
X1621968Y742330D01*
X1622063Y742018D01*
X1622175Y741719D01*
X1622304Y741432D01*
X1622450Y741160D01*
X1622610Y740905D01*
X1622785Y740665D01*
X1622975Y740443D01*
X1623180Y740236D01*
X1623400Y740046D01*
X1623635Y739873D01*
X1623885Y739716D01*
X1624147Y739576D01*
X1624420Y739455D01*
X1624703Y739353D01*
X1624996Y739269D01*
X1625300Y739204D01*
X1625614Y739157D01*
X1625938Y739129D01*
X1626272Y739120D01*
X1629022Y739120D01*
G37*
%LPD*%
G36*
X1653289Y737780D02*
X1651616Y737780D01*
X1651616Y742588D01*
X1647990Y742588D01*
X1647512Y742605D01*
X1647060Y742653D01*
X1646633Y742734D01*
X1646232Y742847D01*
X1645857Y742992D01*
X1645507Y743170D01*
X1645183Y743380D01*
X1644885Y743622D01*
X1644617Y743892D01*
X1644385Y744184D01*
X1644188Y744498D01*
X1644028Y744835D01*
X1643903Y745194D01*
X1643813Y745576D01*
X1643760Y745980D01*
X1643742Y746407D01*
X1643760Y746837D01*
X1643813Y747242D01*
X1643902Y747622D01*
X1644026Y747977D01*
X1644187Y748307D01*
X1644382Y748613D01*
X1644614Y748893D01*
X1644880Y749149D01*
X1645180Y749376D01*
X1645508Y749574D01*
X1645866Y749741D01*
X1646253Y749878D01*
X1646670Y749984D01*
X1647115Y750060D01*
X1647590Y750106D01*
X1648095Y750121D01*
X1653289Y750121D01*
X1653289Y737780D01*
G37*
%LPC*%
G36*
X1651616Y743911D02*
X1651616Y748781D01*
X1648296Y748781D01*
X1647948Y748771D01*
X1647623Y748743D01*
X1647320Y748697D01*
X1647039Y748631D01*
X1646781Y748547D01*
X1646546Y748444D01*
X1646332Y748323D01*
X1646142Y748183D01*
X1645973Y748024D01*
X1645827Y747847D01*
X1645704Y747651D01*
X1645603Y747436D01*
X1645524Y747202D01*
X1645468Y746950D01*
X1645435Y746679D01*
X1645423Y746390D01*
X1645434Y746089D01*
X1645467Y745809D01*
X1645522Y745547D01*
X1645599Y745305D01*
X1645697Y745083D01*
X1645818Y744879D01*
X1645960Y744695D01*
X1646124Y744531D01*
X1646310Y744385D01*
X1646518Y744260D01*
X1646748Y744153D01*
X1647000Y744066D01*
X1647274Y743998D01*
X1647569Y743950D01*
X1647887Y743921D01*
X1648226Y743911D01*
X1651616Y743911D01*
G37*
%LPD*%
G36*
X1633914Y737780D02*
X1632206Y737780D01*
X1637163Y750121D01*
X1639064Y750121D01*
X1644100Y737780D01*
X1642366Y737780D01*
X1640947Y741389D01*
X1635324Y741389D01*
X1633914Y737780D01*
G37*
%LPC*%
G36*
X1640439Y742694D02*
X1638862Y746749D01*
X1638486Y747784D01*
X1638214Y748614D01*
X1638135Y748860D01*
X1637899Y748133D01*
X1637654Y747410D01*
X1637408Y746766D01*
X1635823Y742694D01*
X1640439Y742694D01*
G37*
%LPD*%
G36*
X1614083Y737780D02*
X1612348Y737780D01*
X1607312Y750121D01*
X1609073Y750121D01*
X1612471Y741432D01*
X1613207Y739251D01*
X1613942Y741432D01*
X1617358Y750121D01*
X1619119Y750121D01*
X1614083Y737780D01*
G37*
G36*
X2412866Y724009D02*
X2411675Y724009D01*
X2411780Y726611D01*
X2409441Y725673D01*
X2409047Y726847D01*
X2411499Y727486D01*
X2409844Y729659D01*
X2410886Y730289D01*
X2412253Y728047D01*
X2413566Y730307D01*
X2414609Y729676D01*
X2412988Y727486D01*
X2415458Y726847D01*
X2415064Y725691D01*
X2412752Y726593D01*
X2412866Y724009D01*
G37*
D10*
X1166880Y536081D02*
X1166880Y537421D01*
X1166881Y537421D02*
X1166879Y537492D01*
X1166873Y537564D01*
X1166864Y537634D01*
X1166851Y537704D01*
X1166834Y537774D01*
X1166813Y537842D01*
X1166789Y537909D01*
X1166761Y537975D01*
X1166730Y538039D01*
X1166695Y538102D01*
X1166657Y538162D01*
X1166616Y538221D01*
X1166572Y538277D01*
X1166525Y538331D01*
X1166476Y538382D01*
X1166423Y538430D01*
X1166368Y538476D01*
X1166311Y538518D01*
X1166251Y538558D01*
X1166190Y538594D01*
X1166126Y538627D01*
X1166061Y538656D01*
X1165995Y538682D01*
X1165927Y538705D01*
X1165858Y538724D01*
X1165788Y538739D01*
X1165718Y538750D01*
X1165647Y538758D01*
X1165576Y538762D01*
X1165504Y538762D01*
X1165433Y538758D01*
X1165362Y538750D01*
X1165292Y538739D01*
X1165222Y538724D01*
X1165153Y538705D01*
X1165085Y538682D01*
X1165019Y538656D01*
X1164954Y538627D01*
X1164890Y538594D01*
X1164829Y538558D01*
X1164769Y538518D01*
X1164712Y538476D01*
X1164657Y538430D01*
X1164604Y538382D01*
X1164555Y538331D01*
X1164508Y538277D01*
X1164464Y538221D01*
X1164423Y538162D01*
X1164385Y538102D01*
X1164350Y538039D01*
X1164319Y537975D01*
X1164291Y537909D01*
X1164267Y537842D01*
X1164246Y537774D01*
X1164229Y537704D01*
X1164216Y537634D01*
X1164207Y537564D01*
X1164201Y537492D01*
X1164199Y537421D01*
X1164199Y536081D01*
X1169025Y536081D01*
X1169025Y537421D01*
X1169023Y537486D01*
X1169017Y537550D01*
X1169007Y537614D01*
X1168994Y537678D01*
X1168976Y537740D01*
X1168955Y537801D01*
X1168931Y537861D01*
X1168902Y537919D01*
X1168870Y537976D01*
X1168835Y538030D01*
X1168797Y538082D01*
X1168755Y538132D01*
X1168711Y538179D01*
X1168664Y538223D01*
X1168614Y538265D01*
X1168562Y538303D01*
X1168508Y538338D01*
X1168451Y538370D01*
X1168393Y538399D01*
X1168333Y538423D01*
X1168272Y538444D01*
X1168210Y538462D01*
X1168146Y538475D01*
X1168082Y538485D01*
X1168018Y538491D01*
X1167953Y538493D01*
X1167888Y538491D01*
X1167824Y538485D01*
X1167760Y538475D01*
X1167696Y538462D01*
X1167634Y538444D01*
X1167573Y538423D01*
X1167513Y538399D01*
X1167455Y538370D01*
X1167398Y538338D01*
X1167344Y538303D01*
X1167292Y538265D01*
X1167242Y538223D01*
X1167195Y538179D01*
X1167151Y538132D01*
X1167109Y538082D01*
X1167071Y538030D01*
X1167036Y537976D01*
X1167004Y537919D01*
X1166975Y537861D01*
X1166951Y537801D01*
X1166930Y537740D01*
X1166912Y537678D01*
X1166899Y537614D01*
X1166889Y537550D01*
X1166883Y537486D01*
X1166881Y537421D01*
X1167953Y541238D02*
X1169025Y542578D01*
X1164199Y542578D01*
X1164199Y541238D02*
X1164199Y543919D01*
D11*
X322490Y764590D02*
X249950Y751799D01*
X322490Y764590D02*
X330518Y719065D01*
X335722Y689548D02*
X263182Y676757D01*
X262388Y681260D01*
X257977Y706274D02*
X249950Y751799D01*
X334929Y694050D02*
X335722Y689548D01*
D10*
X333689Y568847D02*
X333691Y568782D01*
X333697Y568718D01*
X333707Y568654D01*
X333720Y568590D01*
X333738Y568528D01*
X333759Y568467D01*
X333783Y568407D01*
X333812Y568349D01*
X333844Y568292D01*
X333879Y568238D01*
X333917Y568186D01*
X333959Y568136D01*
X334003Y568089D01*
X334050Y568045D01*
X334100Y568003D01*
X334152Y567965D01*
X334206Y567930D01*
X334263Y567898D01*
X334321Y567869D01*
X334381Y567845D01*
X334442Y567824D01*
X334504Y567806D01*
X334568Y567793D01*
X334632Y567783D01*
X334696Y567777D01*
X334761Y567775D01*
X334855Y567777D01*
X334949Y567783D01*
X335043Y567793D01*
X335136Y567806D01*
X335228Y567824D01*
X335320Y567845D01*
X335411Y567870D01*
X335501Y567899D01*
X335589Y567932D01*
X335676Y567968D01*
X335761Y568008D01*
X335845Y568051D01*
X335926Y568098D01*
X336006Y568148D01*
X336084Y568201D01*
X336159Y568258D01*
X336232Y568317D01*
X336302Y568380D01*
X336370Y568445D01*
X336235Y571529D02*
X336233Y571594D01*
X336227Y571658D01*
X336217Y571722D01*
X336204Y571786D01*
X336186Y571848D01*
X336165Y571909D01*
X336141Y571969D01*
X336112Y572027D01*
X336080Y572084D01*
X336045Y572138D01*
X336007Y572190D01*
X335965Y572240D01*
X335921Y572287D01*
X335874Y572331D01*
X335824Y572373D01*
X335772Y572411D01*
X335718Y572446D01*
X335661Y572478D01*
X335603Y572507D01*
X335543Y572531D01*
X335482Y572552D01*
X335420Y572570D01*
X335356Y572583D01*
X335292Y572593D01*
X335228Y572599D01*
X335163Y572601D01*
X335077Y572599D01*
X334991Y572594D01*
X334905Y572584D01*
X334820Y572571D01*
X334735Y572555D01*
X334651Y572535D01*
X334568Y572511D01*
X334486Y572484D01*
X334406Y572453D01*
X334326Y572419D01*
X334249Y572381D01*
X334173Y572340D01*
X334099Y572296D01*
X334026Y572249D01*
X333956Y572199D01*
X335699Y570591D02*
X335752Y570624D01*
X335803Y570661D01*
X335852Y570700D01*
X335899Y570742D01*
X335943Y570787D01*
X335984Y570834D01*
X336023Y570883D01*
X336059Y570935D01*
X336092Y570989D01*
X336121Y571044D01*
X336147Y571101D01*
X336170Y571160D01*
X336190Y571219D01*
X336206Y571280D01*
X336219Y571341D01*
X336228Y571404D01*
X336233Y571466D01*
X336235Y571529D01*
X334225Y569785D02*
X334172Y569752D01*
X334121Y569715D01*
X334072Y569676D01*
X334025Y569634D01*
X333981Y569589D01*
X333940Y569542D01*
X333901Y569493D01*
X333865Y569441D01*
X333832Y569387D01*
X333803Y569332D01*
X333777Y569275D01*
X333754Y569216D01*
X333734Y569157D01*
X333718Y569096D01*
X333705Y569035D01*
X333696Y568972D01*
X333691Y568910D01*
X333689Y568847D01*
X334225Y569786D02*
X335699Y570590D01*
X330864Y572601D02*
X330864Y567775D01*
X328719Y567775D01*
X324837Y572601D02*
X324769Y572599D01*
X324702Y572593D01*
X324635Y572584D01*
X324568Y572571D01*
X324503Y572554D01*
X324438Y572533D01*
X324375Y572509D01*
X324313Y572481D01*
X324253Y572450D01*
X324195Y572416D01*
X324139Y572378D01*
X324084Y572338D01*
X324033Y572294D01*
X323984Y572247D01*
X323937Y572198D01*
X323893Y572147D01*
X323853Y572092D01*
X323815Y572036D01*
X323781Y571978D01*
X323750Y571918D01*
X323722Y571856D01*
X323698Y571793D01*
X323677Y571728D01*
X323660Y571663D01*
X323647Y571596D01*
X323638Y571529D01*
X323632Y571462D01*
X323630Y571394D01*
X324837Y572601D02*
X324915Y572599D01*
X324993Y572593D01*
X325070Y572583D01*
X325147Y572570D01*
X325223Y572552D01*
X325298Y572531D01*
X325372Y572506D01*
X325444Y572477D01*
X325515Y572445D01*
X325584Y572409D01*
X325652Y572370D01*
X325717Y572327D01*
X325780Y572281D01*
X325841Y572232D01*
X325899Y572180D01*
X325954Y572125D01*
X326007Y572068D01*
X326056Y572008D01*
X326103Y571945D01*
X326146Y571880D01*
X326186Y571814D01*
X326223Y571745D01*
X326256Y571674D01*
X326286Y571602D01*
X326312Y571528D01*
X324032Y570456D02*
X323983Y570505D01*
X323936Y570557D01*
X323893Y570612D01*
X323852Y570669D01*
X323814Y570728D01*
X323780Y570789D01*
X323749Y570852D01*
X323721Y570916D01*
X323697Y570982D01*
X323677Y571048D01*
X323660Y571116D01*
X323647Y571185D01*
X323638Y571254D01*
X323632Y571324D01*
X323630Y571394D01*
X324032Y570456D02*
X326311Y567775D01*
X323630Y567775D01*
X2574146Y568847D02*
X2574148Y568782D01*
X2574154Y568718D01*
X2574164Y568654D01*
X2574177Y568590D01*
X2574195Y568528D01*
X2574216Y568467D01*
X2574240Y568407D01*
X2574269Y568349D01*
X2574301Y568292D01*
X2574336Y568238D01*
X2574374Y568186D01*
X2574416Y568136D01*
X2574460Y568089D01*
X2574507Y568045D01*
X2574557Y568003D01*
X2574609Y567965D01*
X2574663Y567930D01*
X2574720Y567898D01*
X2574778Y567869D01*
X2574838Y567845D01*
X2574899Y567824D01*
X2574961Y567806D01*
X2575025Y567793D01*
X2575089Y567783D01*
X2575153Y567777D01*
X2575218Y567775D01*
X2575312Y567777D01*
X2575406Y567783D01*
X2575500Y567793D01*
X2575593Y567806D01*
X2575685Y567824D01*
X2575777Y567845D01*
X2575868Y567870D01*
X2575958Y567899D01*
X2576046Y567932D01*
X2576133Y567968D01*
X2576218Y568008D01*
X2576302Y568051D01*
X2576383Y568098D01*
X2576463Y568148D01*
X2576541Y568201D01*
X2576616Y568258D01*
X2576689Y568317D01*
X2576759Y568380D01*
X2576827Y568445D01*
X2576692Y571529D02*
X2576690Y571594D01*
X2576684Y571658D01*
X2576674Y571722D01*
X2576661Y571786D01*
X2576643Y571848D01*
X2576622Y571909D01*
X2576598Y571969D01*
X2576569Y572027D01*
X2576537Y572084D01*
X2576502Y572138D01*
X2576464Y572190D01*
X2576422Y572240D01*
X2576378Y572287D01*
X2576331Y572331D01*
X2576281Y572373D01*
X2576229Y572411D01*
X2576175Y572446D01*
X2576118Y572478D01*
X2576060Y572507D01*
X2576000Y572531D01*
X2575939Y572552D01*
X2575877Y572570D01*
X2575813Y572583D01*
X2575749Y572593D01*
X2575685Y572599D01*
X2575620Y572601D01*
X2575534Y572599D01*
X2575448Y572594D01*
X2575362Y572584D01*
X2575277Y572571D01*
X2575192Y572555D01*
X2575108Y572535D01*
X2575025Y572511D01*
X2574943Y572484D01*
X2574863Y572453D01*
X2574783Y572419D01*
X2574706Y572381D01*
X2574630Y572340D01*
X2574556Y572296D01*
X2574483Y572249D01*
X2574413Y572199D01*
X2576157Y570591D02*
X2576210Y570624D01*
X2576261Y570661D01*
X2576310Y570700D01*
X2576357Y570742D01*
X2576401Y570787D01*
X2576442Y570834D01*
X2576481Y570883D01*
X2576517Y570935D01*
X2576550Y570989D01*
X2576579Y571044D01*
X2576605Y571101D01*
X2576628Y571160D01*
X2576648Y571219D01*
X2576664Y571280D01*
X2576677Y571341D01*
X2576686Y571404D01*
X2576691Y571466D01*
X2576693Y571529D01*
X2574682Y569785D02*
X2574629Y569752D01*
X2574578Y569715D01*
X2574529Y569676D01*
X2574482Y569634D01*
X2574438Y569589D01*
X2574397Y569542D01*
X2574358Y569493D01*
X2574322Y569441D01*
X2574289Y569387D01*
X2574260Y569332D01*
X2574234Y569275D01*
X2574211Y569216D01*
X2574191Y569157D01*
X2574175Y569096D01*
X2574162Y569035D01*
X2574153Y568972D01*
X2574148Y568910D01*
X2574146Y568847D01*
X2574682Y569786D02*
X2576157Y570590D01*
X2571277Y572601D02*
X2571277Y567775D01*
X2571277Y572601D02*
X2569936Y572601D01*
X2569865Y572599D01*
X2569793Y572593D01*
X2569723Y572584D01*
X2569653Y572571D01*
X2569583Y572554D01*
X2569515Y572533D01*
X2569448Y572509D01*
X2569382Y572481D01*
X2569318Y572450D01*
X2569255Y572415D01*
X2569195Y572377D01*
X2569136Y572336D01*
X2569080Y572292D01*
X2569026Y572245D01*
X2568975Y572196D01*
X2568927Y572143D01*
X2568881Y572088D01*
X2568839Y572031D01*
X2568799Y571971D01*
X2568763Y571910D01*
X2568730Y571846D01*
X2568701Y571781D01*
X2568675Y571715D01*
X2568652Y571647D01*
X2568633Y571578D01*
X2568618Y571508D01*
X2568607Y571438D01*
X2568599Y571367D01*
X2568595Y571296D01*
X2568595Y571224D01*
X2568599Y571153D01*
X2568607Y571082D01*
X2568618Y571012D01*
X2568633Y570942D01*
X2568652Y570873D01*
X2568675Y570805D01*
X2568701Y570739D01*
X2568730Y570674D01*
X2568763Y570610D01*
X2568799Y570549D01*
X2568839Y570489D01*
X2568881Y570432D01*
X2568927Y570377D01*
X2568975Y570324D01*
X2569026Y570275D01*
X2569080Y570228D01*
X2569136Y570184D01*
X2569195Y570143D01*
X2569255Y570105D01*
X2569318Y570070D01*
X2569382Y570039D01*
X2569448Y570011D01*
X2569515Y569987D01*
X2569583Y569966D01*
X2569653Y569949D01*
X2569723Y569936D01*
X2569793Y569927D01*
X2569865Y569921D01*
X2569936Y569919D01*
X2569936Y569920D02*
X2571277Y569920D01*
X2569668Y569920D02*
X2568596Y567775D01*
X2564380Y572601D02*
X2564312Y572599D01*
X2564245Y572593D01*
X2564178Y572584D01*
X2564111Y572571D01*
X2564046Y572554D01*
X2563981Y572533D01*
X2563918Y572509D01*
X2563856Y572481D01*
X2563796Y572450D01*
X2563738Y572416D01*
X2563682Y572378D01*
X2563627Y572338D01*
X2563576Y572294D01*
X2563527Y572247D01*
X2563480Y572198D01*
X2563436Y572147D01*
X2563396Y572092D01*
X2563358Y572036D01*
X2563324Y571978D01*
X2563293Y571918D01*
X2563265Y571856D01*
X2563241Y571793D01*
X2563220Y571728D01*
X2563203Y571663D01*
X2563190Y571596D01*
X2563181Y571529D01*
X2563175Y571462D01*
X2563173Y571394D01*
X2564380Y572601D02*
X2564458Y572599D01*
X2564536Y572593D01*
X2564613Y572583D01*
X2564690Y572570D01*
X2564766Y572552D01*
X2564841Y572531D01*
X2564915Y572506D01*
X2564987Y572477D01*
X2565058Y572445D01*
X2565127Y572409D01*
X2565195Y572370D01*
X2565260Y572327D01*
X2565323Y572281D01*
X2565384Y572232D01*
X2565442Y572180D01*
X2565497Y572125D01*
X2565550Y572068D01*
X2565599Y572008D01*
X2565646Y571945D01*
X2565689Y571880D01*
X2565729Y571814D01*
X2565766Y571745D01*
X2565799Y571674D01*
X2565829Y571602D01*
X2565855Y571528D01*
X2563575Y570456D02*
X2563526Y570505D01*
X2563479Y570557D01*
X2563436Y570612D01*
X2563395Y570669D01*
X2563357Y570728D01*
X2563323Y570789D01*
X2563292Y570852D01*
X2563264Y570916D01*
X2563240Y570982D01*
X2563220Y571048D01*
X2563203Y571116D01*
X2563190Y571185D01*
X2563181Y571254D01*
X2563175Y571324D01*
X2563173Y571394D01*
X2563575Y570456D02*
X2565854Y567775D01*
X2563173Y567775D01*
X1869160Y579500D02*
X1869160Y480500D01*
X1837660Y480500D01*
X1837660Y579500D01*
X1869160Y579500D01*
D12*
X1891996Y575000D02*
X1891998Y575075D01*
X1892004Y575149D01*
X1892014Y575223D01*
X1892027Y575296D01*
X1892045Y575369D01*
X1892066Y575440D01*
X1892091Y575511D01*
X1892120Y575580D01*
X1892153Y575647D01*
X1892189Y575712D01*
X1892228Y575776D01*
X1892270Y575837D01*
X1892316Y575896D01*
X1892365Y575953D01*
X1892417Y576006D01*
X1892471Y576057D01*
X1892528Y576106D01*
X1892588Y576150D01*
X1892650Y576192D01*
X1892714Y576231D01*
X1892780Y576266D01*
X1892847Y576297D01*
X1892917Y576325D01*
X1892987Y576349D01*
X1893059Y576370D01*
X1893132Y576386D01*
X1893205Y576399D01*
X1893280Y576408D01*
X1893354Y576413D01*
X1893429Y576414D01*
X1893503Y576411D01*
X1893578Y576404D01*
X1893651Y576393D01*
X1893725Y576379D01*
X1893797Y576360D01*
X1893868Y576338D01*
X1893938Y576312D01*
X1894007Y576282D01*
X1894073Y576249D01*
X1894138Y576212D01*
X1894201Y576172D01*
X1894262Y576128D01*
X1894320Y576082D01*
X1894376Y576032D01*
X1894429Y575980D01*
X1894480Y575925D01*
X1894527Y575867D01*
X1894571Y575807D01*
X1894612Y575744D01*
X1894650Y575680D01*
X1894684Y575614D01*
X1894715Y575545D01*
X1894742Y575476D01*
X1894765Y575405D01*
X1894784Y575333D01*
X1894800Y575260D01*
X1894812Y575186D01*
X1894820Y575112D01*
X1894824Y575037D01*
X1894824Y574963D01*
X1894820Y574888D01*
X1894812Y574814D01*
X1894800Y574740D01*
X1894784Y574667D01*
X1894765Y574595D01*
X1894742Y574524D01*
X1894715Y574455D01*
X1894684Y574386D01*
X1894650Y574320D01*
X1894612Y574256D01*
X1894571Y574193D01*
X1894527Y574133D01*
X1894480Y574075D01*
X1894429Y574020D01*
X1894376Y573968D01*
X1894320Y573918D01*
X1894262Y573872D01*
X1894201Y573828D01*
X1894138Y573788D01*
X1894073Y573751D01*
X1894007Y573718D01*
X1893938Y573688D01*
X1893868Y573662D01*
X1893797Y573640D01*
X1893725Y573621D01*
X1893651Y573607D01*
X1893578Y573596D01*
X1893503Y573589D01*
X1893429Y573586D01*
X1893354Y573587D01*
X1893280Y573592D01*
X1893205Y573601D01*
X1893132Y573614D01*
X1893059Y573630D01*
X1892987Y573651D01*
X1892917Y573675D01*
X1892847Y573703D01*
X1892780Y573734D01*
X1892714Y573769D01*
X1892650Y573808D01*
X1892588Y573850D01*
X1892528Y573894D01*
X1892471Y573943D01*
X1892417Y573994D01*
X1892365Y574047D01*
X1892316Y574104D01*
X1892270Y574163D01*
X1892228Y574224D01*
X1892189Y574288D01*
X1892153Y574353D01*
X1892120Y574420D01*
X1892091Y574489D01*
X1892066Y574560D01*
X1892045Y574631D01*
X1892027Y574704D01*
X1892014Y574777D01*
X1892004Y574851D01*
X1891998Y574925D01*
X1891996Y575000D01*
D10*
X1790750Y490241D02*
X1769250Y490241D01*
X1769250Y469759D02*
X1790750Y469759D01*
X1751000Y490467D02*
X1729000Y490467D01*
X1729000Y469533D02*
X1751000Y469533D01*
X1919000Y540467D02*
X1941000Y540467D01*
X1941000Y519533D02*
X1919000Y519533D01*
X1919250Y590241D02*
X1940750Y590241D01*
X1940750Y569759D02*
X1919250Y569759D01*
X1791000Y540467D02*
X1769000Y540467D01*
X1769000Y519533D02*
X1791000Y519533D01*
X1969000Y540467D02*
X1991000Y540467D01*
X1991000Y519533D02*
X1969000Y519533D01*
X1969000Y590467D02*
X1991000Y590467D01*
X1991000Y569533D02*
X1969000Y569533D01*
X1751000Y540467D02*
X1729000Y540467D01*
X1729000Y519533D02*
X1751000Y519533D01*
X1751000Y590467D02*
X1729000Y590467D01*
X1729000Y569533D02*
X1751000Y569533D01*
X1769000Y590467D02*
X1791000Y590467D01*
X1791000Y569533D02*
X1769000Y569533D01*
D11*
X2425776Y764798D02*
X2499436Y764798D01*
X2499436Y718570D01*
X2499436Y688598D02*
X2425776Y688598D01*
X2425776Y693170D01*
X2425776Y718570D02*
X2425776Y764798D01*
X2499436Y693170D02*
X2499436Y688598D01*
M02*
